<svg version="1.1" xmlns="http://www.w3.org/2000/svg" x="0" y="0" viewBox="0 0 512 480" xml:space="preserve"><style type="text/css">
	.st0{fill:#CAD0D7;}
	.st1{fill:#E1E6E9;}
	.st2{fill:#99A5AD;}
	.st3{fill:#59A7D8;}
	.st4{fill:#FFFFFF;}
</style><path class="st0" d="M496 0H16C7.2 0 0 7.2 0 16v448c0 8.8 7.2 16 16 16h480c8.8 0 16-7.2 16-16V16C512 7.2 504.8 0 496 0zM496 456c0 4.4-3.6 8-8 8H24c-4.4 0-8-3.6-8-8V72c0-4.4 3.6-8 8-8h464c4.4 0 8 3.6 8 8V456z"/><path class="st1" d="M490 40H118c-3.3 0-6-2.7-6-6v-4c0-3.3 2.7-6 6-6h372c3.3 0 6 2.7 6 6v4C496 37.3 493.3 40 490 40z"/><path class="st2" d="M24 40L24 40c-4.4 0-8-3.6-8-8v0c0-4.4 3.6-8 8-8h0c4.4 0 8 3.6 8 8v0C32 36.4 28.4 40 24 40zM64 32L64 32c0-4.4-3.6-8-8-8h0c-4.4 0-8 3.6-8 8v0c0 4.4 3.6 8 8 8h0C60.4 40 64 36.4 64 32zM96 32L96 32c0-4.4-3.6-8-8-8h0c-4.4 0-8 3.6-8 8v0c0 4.4 3.6 8 8 8h0C92.4 40 96 36.4 96 32z"/><path class="st0" d="M360 376H152c-4.4 0-8-3.6-8-8l0 0c0-4.4 3.6-8 8-8h208c4.4 0 8 3.6 8 8l0 0C368 372.4 364.4 376 360 376z"/><path class="st0" d="M320 408H192c-4.4 0-8-3.6-8-8l0 0c0-4.4 3.6-8 8-8h128c4.4 0 8 3.6 8 8l0 0C328 404.4 324.4 408 320 408z"/><path class="st3" d="M255.3 320L255.3 320c-57.4 0-104-46.6-104-104v0c0-57.4 46.6-104 104-104h0c57.4 0 104 46.6 104 104v0C359.3 273.4 312.7 320 255.3 320z"/><path class="st4" d="M304 218h-13.9c-3.9 0-7.1 3.4-7.1 7.4v10.4c0 2-1.4 3.2-3.4 3.2H231c-2 0-4-1.3-4-3.2v-10.4c0-3.9-2.5-7.4-6.5-7.4h-13.9c-3.9 0-6.6 3.4-6.6 7.4v34.8c0 5.6 1 6.9 6.6 6.9H304c5.6 0 7-1.2 7-6.9v-34.8C311 221.4 307.9 218 304 218zM304 256.6c0 2-1.5 3.4-3.5 3.4h-90.4c-2 0-3.1-1.4-3.1-3.4v-27.8c0-2 1.2-3.8 3.1-3.8h7c2 0 3.9 1.9 3.9 3.8v10.4c0 5.6 0.9 6.7 6.5 6.7h55.6c5.6 0 6.9-1.1 6.9-6.7v-10.4c0-2 1.6-3.8 3.6-3.8h7c2 0 3.5 1.9 3.5 3.8V256.6zM230.1 201.4l22.8 23.2c1.3 1.3 3.5 1.3 4.8 0l22.8-23.1c1.3-1.5 1.1-3.4-0.9-3.4H262v-31.5c0-2-1.3-3.5-3.2-3.5h-7c-2 0-3.8 1.5-3.8 3.5V198h-17C229 198 228.8 199.8 230.1 201.4z"/><path class="st4" d="M276 256L276 256c-1.7 0-3-1.3-3-3l0 0c0-1.7 1.3-3 3-3l0 0c1.7 0 3 1.3 3 3l0 0C279 254.7 277.7 256 276 256z"/><path class="st4" d="M287 256L287 256c-1.7 0-3-1.3-3-3l0 0c0-1.7 1.3-3 3-3l0 0c1.7 0 3 1.3 3 3l0 0C290 254.7 288.7 256 287 256z"/><path class="st4" d="M265 256L265 256c-1.7 0-3-1.3-3-3l0 0c0-1.7 1.3-3 3-3l0 0c1.7 0 3 1.3 3 3l0 0C268 254.7 266.7 256 265 256z"/></svg>