<svg xmlns="http://www.w3.org/2000/svg" viewBox="0 0 512 512">
  <path fill="#87d2f3" d="M394.667 96h-64c-11.767-.035-21.298-9.566-21.333-21.333v-64L394.667 96z"/>
  <g fill="#fff">
    <path d="M352 96h-21.333c-11.767-.035-21.298-9.566-21.333-21.333v-64H32C20.233 10.702 10.702 20.233 10.667 32v448c.035 11.768 9.566 21.298 21.333 21.333h341.333c11.767-.035 21.298-9.566 21.333-21.333V96H352zM437.333 373.333h64V416h-64v-42.667z"/>
  </g>
  <g fill="#b7d0fb">
    <path d="M437.333 373.333V416H224l-32-21.333 32-21.333h213.333zM85.333 170.667H320c5.891 0 10.667 4.776 10.667 10.667v64c0 5.891-4.776 10.667-10.667 10.667H85.333c-5.891 0-10.667-4.776-10.667-10.667v-64c.001-5.892 4.776-10.667 10.667-10.667z"/>
  </g>
  <g fill="#0A48B3">
    <path d="M64 64h106.667v21.333H64V64zM64 106.667h21.333V128H64v-21.333zM106.667 106.667H128V128h-21.333v-21.333z"/>
    <path d="M384 480c0 5.891-4.776 10.667-10.667 10.667H32c-5.891 0-10.667-4.776-10.667-10.667V32c0-5.891 4.776-10.667 10.667-10.667h266.667v53.333c0 17.673 14.327 32 32 32H352V85.333h-21.333c-5.891 0-10.667-4.776-10.667-10.667v-38.25l64 64v198.251h21.333V96a10.67 10.67 0 00-3.125-7.541L316.875 3.125A10.662 10.662 0 00309.334 0H32C14.327 0 0 14.327 0 32v448c0 17.673 14.327 32 32 32h341.333c17.673 0 32-14.327 32-32v-21.333H384V480z"/>
    <path d="M501.333 362.667H480v-21.333c0-5.891-4.776-10.667-10.667-10.667H352V352h106.667v10.667H224a10.733 10.733 0 00-5.92 1.792L188.8 384h-18.133v21.333H188.8l29.312 19.541a10.738 10.738 0 005.888 1.792h277.333c5.891 0 10.667-4.776 10.667-10.667v-42.667c0-5.89-4.776-10.665-10.667-10.665zm-290.133 32l16-10.667h199.467v21.333H227.2l-16-10.666zm279.467 10.666H448V384h42.667v21.333zM138.667 298.667h106.667V320H138.667v-21.333zM64 341.333h106.667v21.333H64v-21.333zM96 298.667h21.333V320H96v-21.333zM64 384h74.667v21.333H64V384zM341.333 245.333v-64c0-11.782-9.551-21.333-21.333-21.333H85.333C73.551 160 64 169.551 64 181.333v64c0 11.782 9.551 21.333 21.333 21.333H320c11.782.001 21.333-9.551 21.333-21.333zm-256-64H320v64H85.333v-64z"/>
  </g>
</svg>