<svg xmlns="http://www.w3.org/2000/svg" viewBox="0 0 512 512">
  <path fill="#b7d0fb" d="M426.667 96h-64c-11.768-.035-21.298-9.566-21.333-21.333v-64L426.667 96z"/>
  <path fill="#fff" d="M426.667 96v384c-.035 11.768-9.566 21.298-21.333 21.333H64c-11.767-.035-21.298-9.566-21.333-21.333V32C42.702 20.233 52.233 10.702 64 10.667h277.333v64c.035 11.767 9.566 21.298 21.333 21.333h64.001z"/>
  <g fill="#b7d0fb">
    <path d="M384 405.333h85.333V448H384v-42.667zM245.333 405.333h85.333V448h-85.333v-42.667zM106.667 405.333H192V448h-85.333v-42.667z"/>
    <circle cx="288" cy="266.667" r="32"/>
    <path d="M245.333 128h85.333v42.667h-85.333V128zM106.667 170.667h106.667v106.667H106.667V170.667z"/>
  </g>
  <g fill="#0A48B3">
    <path d="M96 64h106.667v21.333H96V64zM96 106.667h21.333V128H96v-21.333zM138.667 106.667H160V128h-21.333v-21.333z"/>
    <path d="M405.333 490.667H64c-5.891 0-10.667-4.776-10.667-10.667V32c0-5.891 4.776-10.667 10.667-10.667h266.667v53.333c0 17.673 14.327 32 32 32H384V85.333h-21.333c-5.891 0-10.667-4.776-10.667-10.667v-38.25l64 64V320h21.333V96a10.67 10.67 0 00-3.125-7.541L348.875 3.125A10.662 10.662 0 00341.334 0H64C46.327 0 32 14.327 32 32v448c0 17.673 14.327 32 32 32h341.333c17.673 0 32-14.327 32-32H416c0 5.891-4.776 10.667-10.667 10.667z"/>
    <path d="M341.333 170.667V128c0-5.891-4.776-10.667-10.667-10.667h-85.333c-5.891 0-10.667 4.776-10.667 10.667v42.667c0 5.891 4.776 10.667 10.667 10.667h32v21.333h21.333v-21.333h32c5.892-.001 10.667-4.776 10.667-10.667zM320 160h-64v-21.333h64V160zM330.667 458.667c5.891 0 10.667-4.776 10.667-10.667v-42.667c0-5.891-4.776-10.667-10.667-10.667h-85.333c-5.891 0-10.667 4.776-10.667 10.667V448c0 5.891 4.776 10.667 10.667 10.667h85.333zM256 416h64v21.333h-64V416z"/>
    <path d="M469.333 394.667h-32v-32c0-5.891-4.776-10.667-10.667-10.667h-128v-21.333h-21.333V352h-128c-5.891 0-10.667 4.776-10.667 10.667v32h-32c-5.891 0-10.667 4.776-10.667 10.667V448c0 5.891 4.776 10.667 10.667 10.667H192c5.891 0 10.667-4.776 10.667-10.667v-42.667c0-5.891-4.776-10.667-10.667-10.667h-32v-21.333h256v21.333h-32c-5.891 0-10.667 4.776-10.667 10.667V448c0 5.891 4.776 10.667 10.667 10.667h85.333c5.891 0 10.667-4.776 10.667-10.667v-42.667c0-5.891-4.776-10.666-10.667-10.666zm-288 42.666h-64V416h64v21.333zm277.334 0h-64V416h64v21.333zM245.333 266.667c0 23.564 19.103 42.667 42.667 42.667s42.667-19.103 42.667-42.667S311.564 224 288 224s-42.667 19.103-42.667 42.667zm64 0c0 11.782-9.551 21.333-21.333 21.333-11.782 0-21.333-9.551-21.333-21.333 0-11.782 9.551-21.333 21.333-21.333 11.782-.001 21.333 9.551 21.333 21.333zM213.333 181.333V160H106.667C100.776 160 96 164.776 96 170.667v106.667c0 5.891 4.776 10.667 10.667 10.667h106.667v-21.333h-96v-85.333h95.999z"/>
  </g>
</svg>