<svg xmlns="http://www.w3.org/2000/svg" viewBox="0 0 512.004 512.004">
  <path fill="#b7d0fb" d="M320.002 386.56c31.15 25.032 75.517 25.032 106.667 0v114.773l-53.333-42.667-53.333 42.667V386.56z"/>
  <path fill="#fff" d="M426.669 386.56c-31.15 25.032-75.517 25.032-106.667 0a83.805 83.805 0 01-20.587-23.893c-23.578-40.806-9.613-93 31.193-116.578 40.806-23.578 93-9.613 116.578 31.193 21.089 36.494 12.372 82.918-20.517 109.278zM416.002 320c0-23.564-19.103-42.667-42.667-42.667S330.668 296.436 330.668 320s19.103 42.667 42.667 42.667c23.565 0 42.667-19.103 42.667-42.667z"/>
  <g fill="#b7d0fb">
    <circle cx="373.336" cy="320" r="42.667"/>
    <path d="M149.336 117.333h213.333V160H149.336v-42.667z"/>
  </g>
  <path fill="#fff" d="M448.002 213.333v65.387c-22.835-41.227-74.767-56.136-115.994-33.301-41.227 22.835-56.136 74.768-33.301 115.994.232.42.468.837.708 1.253h-182.08c0-29.455-23.878-53.333-53.333-53.333v-192c29.455 0 53.333-23.878 53.333-53.333h277.333c0 29.455 23.878 53.333 53.333 53.333v96zM362.669 160v-42.667H149.336V160h213.333z"/>
  <path fill="#b7d0fb" d="M426.669 386.56a84.862 84.862 0 0032-66.56 84.017 84.017 0 00-10.667-41.28V117.333c-29.455 0-53.333-23.878-53.333-53.333H117.336c0 29.455-23.878 53.333-53.333 53.333v192c29.455 0 53.333 23.878 53.333 53.333h182.08a83.778 83.778 0 0020.587 23.893V416h-288c-11.767-.035-21.298-9.566-21.333-21.333V32c.035-11.767 9.566-21.298 21.333-21.333h448c11.767.035 21.297 9.566 21.333 21.333v362.667c-.035 11.767-9.566 21.298-21.333 21.333H426.67v-29.44z"/>
  <g fill="#0A48B3">
    <path d="M480.002 0h-448c-17.673 0-32 14.327-32 32v362.667c0 17.673 14.327 32 32 32h256v-21.333h-256c-5.891 0-10.667-4.776-10.667-10.667V32c0-5.891 4.776-10.667 10.667-10.667h448c5.891 0 10.667 4.776 10.667 10.667v362.667c0 5.891-4.776 10.667-10.667 10.667h-21.333v21.333h21.333c17.673 0 32-14.327 32-32V32c0-17.673-14.327-32-32-32z"/>
    <path d="M106.669 362.667c0 5.891 4.776 10.667 10.667 10.667h138.667V352H127.117c-4.588-26.838-25.61-47.86-52.448-52.448V127.115c26.838-4.588 47.86-25.61 52.448-52.448h257.771c4.588 26.838 25.61 47.86 52.448 52.448v86.219h21.333v-96c0-5.891-4.776-10.667-10.667-10.667-23.564 0-42.667-19.103-42.667-42.667 0-5.891-4.776-10.667-10.667-10.667H117.336c-5.891 0-10.667 4.776-10.667 10.667 0 23.564-19.103 42.667-42.667 42.667-5.891 0-10.667 4.776-10.667 10.667v192c0 5.891 4.776 10.667 10.667 10.667 23.564-.001 42.667 19.102 42.667 42.666z"/>
    <path d="M469.336 320c0-53.019-42.981-96-96-96-53.019-.034-96.028 42.919-96.062 95.938A95.993 95.993 0 00290.136 368a94.075 94.075 0 0019.2 23.467v109.867c-.002 5.891 4.772 10.668 10.663 10.671a10.664 10.664 0 006.671-2.34l46.667-37.333 46.667 37.333c4.599 3.682 11.311 2.939 14.993-1.66a10.664 10.664 0 002.34-6.671V391.307A95.177 95.177 0 00469.336 320zm-170.667 0c.017-41.237 33.46-74.653 74.697-74.636a74.667 74.667 0 0165.303 38.519v.064c19.852 36.144 6.644 81.538-29.5 101.39-26.438 14.521-59.016 11.708-82.574-7.129a72.907 72.907 0 01-17.952-20.875A74.272 74.272 0 01298.669 320zm81.333 130.336a10.666 10.666 0 00-13.333 0l-36 28.8v-73.28a94.847 94.847 0 0085.333 0v73.269l-36-28.789zM373.336 160v-42.667c0-5.891-4.776-10.667-10.667-10.667H149.336c-5.891 0-10.667 4.776-10.667 10.667V160c0 5.891 4.776 10.667 10.667 10.667h213.333c5.891 0 10.667-4.776 10.667-10.667zm-21.334-10.667h-192V128h192v21.333zM128.002 202.667h21.333V224h-21.333v-21.333zM170.669 202.667h21.333V224h-21.333v-21.333zM128.002 245.333h128v21.333h-128v-21.333z"/>
    <path d="M373.336 373.333c29.455 0 53.333-23.878 53.333-53.333s-23.878-53.333-53.333-53.333-53.334 23.878-53.334 53.333c.035 29.441 23.893 53.298 53.334 53.333zm0-85.333c17.673 0 32 14.327 32 32 0 17.673-14.327 32-32 32s-32-14.327-32-32c0-17.673 14.326-32 32-32zM53.336 352h21.333v21.333H53.336V352zM437.336 53.333h21.333v21.333h-21.333V53.333zM53.336 53.333h21.333v21.333H53.336V53.333z"/>
  </g>
</svg>