<svg xmlns="http://www.w3.org/2000/svg" viewBox="0 0 512 512">
  <path fill="#fff" d="M501.333 96v362.667c0 23.564-19.103 42.667-42.667 42.667H53.333c-23.564 0-42.667-19.103-42.667-42.667V96h490.667z"/>
  <g fill="#b7d0fb">
    <path d="M501.333 53.333V96H10.667V53.333c0-23.564 19.103-42.667 42.667-42.667h405.333c23.564.001 42.666 19.103 42.666 42.667zM501.333 384v106.667c0 5.891-4.776 10.667-10.667 10.667H384c-5.891 0-10.667-4.776-10.667-10.667v-128c0-5.891 4.776-10.667 10.667-10.667h85.333l32 32z"/>
  </g>
  <path fill="#fff" d="M320 384v106.667c0 5.891-4.776 10.667-10.667 10.667H202.667c-5.891 0-10.667-4.776-10.667-10.667v-128c0-5.891 4.776-10.667 10.667-10.667H288l32 32z"/>
  <path fill="#b7d0fb" d="M138.667 384v106.667c0 5.891-4.776 10.667-10.667 10.667H21.333c-5.891 0-10.667-4.776-10.667-10.667v-128c0-5.891 4.776-10.667 10.667-10.667h85.333l32.001 32z"/>
  <path fill="#fff" d="M320 128v106.667c0 5.891-4.776 10.667-10.667 10.667H202.667c-5.891 0-10.667-4.776-10.667-10.667v-128C192 100.776 196.776 96 202.667 96H288l32 32z"/>
  <g fill="#0A48B3">
    <path d="M295.541 344.459a10.662 10.662 0 00-7.541-3.125h-21.333V256h42.667c11.782 0 21.333-9.551 21.333-21.333V128a10.67 10.67 0 00-3.125-7.541l-32-32a10.662 10.662 0 00-7.541-3.125h-85.333c-11.782 0-21.333 9.551-21.333 21.333v128c0 11.782 9.551 21.333 21.333 21.333h42.667v85.333h-42.667c-11.782 0-21.333 9.551-21.333 21.333v128c0 11.782 9.551 21.333 21.333 21.333h106.667c11.782 0 21.333-9.551 21.333-21.333V384a10.67 10.67 0 00-3.125-7.541l-32.002-32zm-92.874-237.792h74.667V128c0 5.891 4.776 10.667 10.667 10.667h21.333v96H202.667v-128zm0 384v-128h74.667V384c0 5.891 4.776 10.667 10.667 10.667h21.333v96H202.667z"/>
    <path d="M476.875 344.459a10.662 10.662 0 00-7.541-3.125H448v-32c0-5.891-4.776-10.667-10.667-10.667H288V320h138.667v21.333H384c-11.782 0-21.333 9.551-21.333 21.333v128c0 11.782 9.551 21.333 21.333 21.333h106.667c11.782 0 21.333-9.551 21.333-21.333V384a10.67 10.67 0 00-3.125-7.541l-32-32zM384 490.667v-128h74.667V384c0 5.891 4.776 10.667 10.667 10.667h21.333v96H384zM114.208 344.459a10.662 10.662 0 00-7.541-3.125H85.333V320H224v-21.333H74.667c-5.891 0-10.667 4.776-10.667 10.667v32H21.333C9.551 341.333 0 350.885 0 362.667v128C0 502.449 9.551 512 21.333 512H128c11.782 0 21.333-9.551 21.333-21.333V384a10.67 10.67 0 00-3.125-7.541l-32-32zM21.333 490.667v-128H96V384c0 5.891 4.776 10.667 10.667 10.667H128v96H21.333z"/>
    <path d="M458.667 0H53.333C23.893.035.035 23.893 0 53.333v256h21.333v-256c0-17.673 14.327-32 32-32h405.333c17.673 0 32 14.327 32 32v256H512v-256C511.965 23.893 488.107.035 458.667 0z"/>
    <path d="M352 85.333h117.333v21.333H352V85.333zM42.667 85.333h106.667v21.333H42.667V85.333zM53.333 42.667h21.333V64H53.333V42.667zM96 42.667h21.333V64H96V42.667zM437.333 42.667h21.333V64h-21.333V42.667zM224 149.333h42.667v21.333H224v-21.333zM224 192h64v21.333h-64V192zM224 405.333h42.667v21.333H224v-21.333zM224 448h64v21.333h-64V448zM405.333 405.333H448v21.333h-42.667v-21.333zM405.333 448h64v21.333h-64V448zM42.667 405.333h42.667v21.333H42.667v-21.333zM42.667 448h64v21.333h-64V448z"/>
  </g>
</svg>