<svg xmlns="http://www.w3.org/2000/svg" viewBox="0 0 512 512">
  <g fill="#fff">
    <path d="M309.333 42.667v64H224v-96h85.333v32zM192 170.667h42.667v42.667H192v-42.667z"/>
  </g>
  <path fill="#b7d0fb" d="M394.667 32v213.333c-.035 11.767-9.566 21.298-21.333 21.333H160c-11.767-.035-21.298-9.566-21.333-21.333V32c.035-11.767 9.566-21.298 21.333-21.333h64v96h85.333v-96h64c11.768.035 21.299 9.566 21.334 21.333zm-160 181.333v-42.667H192v42.667h42.667z"/>
  <g fill="#fff">
    <path d="M416 277.333v64h-85.333v-96H416v32zM298.667 405.333h42.667V448h-42.667v-42.667z"/>
  </g>
  <path fill="#b7d0fb" d="M501.333 266.667V480c-.035 11.768-9.566 21.298-21.333 21.333H266.667c-11.767-.035-21.298-9.566-21.333-21.333V266.667c.035-11.767 9.566-21.298 21.333-21.333h64v96H416v-96h64c11.768.034 21.298 9.565 21.333 21.333zM341.333 448v-42.667h-42.667V448h42.667z"/>
  <g fill="#fff">
    <path d="M181.333 277.333v64H96v-96h85.333v32zM64 405.333h42.667V448H64v-42.667z"/>
  </g>
  <path fill="#b7d0fb" d="M266.667 266.667V480c-.035 11.768-9.566 21.298-21.333 21.333H32c-11.767-.035-21.298-9.566-21.333-21.333V266.667c.035-11.767 9.566-21.298 21.333-21.333h64v96h85.333v-96h64c11.768.034 21.299 9.565 21.334 21.333zM106.667 448v-42.667H64V448h42.667z"/>
  <g fill="#0A48B3">
    <path d="M96 352h85.333c5.891 0 10.667-4.776 10.667-10.667v-64h-21.333v53.333h-64v-53.333H85.333v64C85.333 347.224 90.109 352 96 352zM64 458.667h42.667c5.891 0 10.667-4.776 10.667-10.667v-42.667c0-5.891-4.776-10.667-10.667-10.667H64c-5.891 0-10.667 4.776-10.667 10.667V448c0 5.891 4.776 10.667 10.667 10.667zM74.667 416H96v21.333H74.667V416zM138.667 394.667h74.667V416h-74.667v-21.333zM138.667 437.333h42.667v21.333h-42.667v-21.333zM320 106.667v-64h-21.333V96h-64V42.667h-21.333v64c0 5.891 4.776 10.667 10.667 10.667h85.333c5.89-.001 10.666-4.776 10.666-10.667zM245.333 213.333v-42.667c0-5.891-4.776-10.667-10.667-10.667H192c-5.891 0-10.667 4.776-10.667 10.667v42.667h21.333v-32H224v32h21.333zM266.667 160h74.667v21.333h-74.667V160z"/>
    <path d="M480 234.667h-74.667V32c0-17.673-14.327-32-32-32H160c-17.673 0-32 14.327-32 32v202.667H32c-17.673 0-32 14.327-32 32V480c0 17.673 14.327 32 32 32h213.333c17.673 0 32-14.327 32-32V266.667c0-17.673-14.327-32-32-32h-96V32c0-5.891 4.776-10.667 10.667-10.667h213.333C379.224 21.333 384 26.109 384 32v202.667h-85.333V256H480c5.891 0 10.667 4.776 10.667 10.667V480c0 5.891-4.776 10.667-10.667 10.667H298.667V512H480c17.673 0 32-14.327 32-32V266.667c0-17.673-14.327-32-32-32zm-224 32V480c0 5.891-4.776 10.667-10.667 10.667H32c-5.891 0-10.667-4.776-10.667-10.667V266.667C21.333 260.776 26.109 256 32 256h213.333c5.891 0 10.667 4.776 10.667 10.667z"/>
    <path d="M320 277.333v64c0 5.891 4.776 10.667 10.667 10.667H416c5.891 0 10.667-4.776 10.667-10.667v-64h-21.333v53.333h-64v-53.333H320zM298.667 416h32v21.333h-32v21.333h42.667c5.891 0 10.667-4.776 10.667-10.667v-42.667c0-5.891-4.776-10.667-10.667-10.667h-42.667V416zM373.333 394.667H448V416h-74.667v-21.333zM373.333 437.333H416v21.333h-42.667v-21.333z"/>
  </g>
</svg>