<svg xmlns="http://www.w3.org/2000/svg" viewBox="0 0 512 512">
  <path fill="#b7d0fb" d="M371.627 101.333A182.169 182.169 0 00320 79.893V10.667h-85.333v69.227a182.193 182.193 0 00-51.627 21.44l-49.067-48.96-60.266 60.266 48.96 49.067a182.169 182.169 0 00-21.44 51.627H32v85.333h69.227a182.193 182.193 0 0021.44 51.627l-48.96 48.96 60.267 60.373 49.067-48.96a182.169 182.169 0 0051.627 21.44v69.227H320v-69.227a182.193 182.193 0 0051.627-21.44l1.707 1.707V99.627l-1.707 1.706z"/>
  <g fill="#fff">
    <circle cx="277.333" cy="256" r="85.333"/>
    <circle cx="277.333" cy="256" r="32"/>
    <path d="M437.333 21.333V64c0 5.891-4.776 10.667-10.667 10.667v224H384v-224c-5.891 0-10.667-4.776-10.667-10.667V21.333c0-5.891 4.776-10.667 10.667-10.667h42.667c5.891.001 10.666 4.776 10.666 10.667zM384 469.333h42.667v32H384v-32z"/>
  </g>
  <path fill="#b7d0fb" d="M448 341.333v128h-85.333v-128h-32v-42.667H480v42.667h-32z"/>
  <g fill="#0A48B3">
    <path d="M309.333 490.667h-64v-58.592c0-4.926-3.372-9.211-8.16-10.368a169.6 169.6 0 01-48.597-20.149 10.668 10.668 0 00-13.099 1.557l-41.451 41.451-45.259-45.259 41.451-41.451a10.666 10.666 0 001.557-13.109 168.991 168.991 0 01-20.149-48.587 10.666 10.666 0 00-10.368-8.16H42.667v-64h58.592c4.925 0 9.211-3.372 10.368-8.16a169.6 169.6 0 0120.149-48.597 10.668 10.668 0 00-1.557-13.099l-41.451-41.451 45.259-45.259 41.451 41.451a10.666 10.666 0 0013.109 1.557 168.991 168.991 0 0148.587-20.149 10.666 10.666 0 008.16-10.368V21.333h64v32h21.333V10.667C330.667 4.776 325.891 0 320 0h-85.333C228.776 0 224 4.776 224 10.667v61.056A189.712 189.712 0 00184.757 88l-43.189-43.2c-4.165-4.164-10.917-4.164-15.083 0l-60.352 60.352c-4.164 4.165-4.164 10.917 0 15.083l43.189 43.189a189.998 189.998 0 00-16.267 39.243H32c-5.891 0-10.667 4.776-10.667 10.667v85.333c0 5.891 4.776 10.667 10.667 10.667h61.056a189.712 189.712 0 0016.277 39.243l-43.2 43.189c-4.164 4.165-4.164 10.917 0 15.083l60.352 60.352c4.165 4.164 10.917 4.164 15.083 0l43.189-43.189A189.998 189.998 0 00224 440.279v61.056c0 5.891 4.776 10.667 10.667 10.667H320c5.891 0 10.667-4.776 10.667-10.667V448h-21.333v42.667z"/>
    <path d="M480 288h-42.667V82.464A21.334 21.334 0 00448 64V21.333C448 9.551 438.449 0 426.667 0H384c-11.782 0-21.333 9.551-21.333 21.333V64a21.334 21.334 0 0010.667 18.464V288h-42.667c-5.891 0-10.667 4.776-10.667 10.667v42.667c0 5.891 4.776 10.667 10.667 10.667H352v117.333c0 5.891 4.776 10.667 10.667 10.667h10.667v21.333c0 5.891 4.776 10.667 10.667 10.667h42.667c5.891 0 10.667-4.776 10.667-10.667V480H448c5.891 0 10.667-4.776 10.667-10.667V352H480c5.891 0 10.667-4.776 10.667-10.667v-42.667c0-5.89-4.776-10.666-10.667-10.666zM384 21.333h42.667V64C420.776 64 416 68.776 416 74.667V288h-21.333V74.667C394.667 68.776 389.891 64 384 64V21.333zm32 469.334h-21.333V480H416v10.667zm53.333-160H448c-5.891 0-10.667 4.776-10.667 10.667v117.333h-64V352H416v-21.333h-74.667v-21.333h128v21.333z"/>
    <path d="M394.667 373.333H416v21.333h-21.333v-21.333zM394.667 416H416v21.333h-21.333V416zM340.075 183.339c-40.13-34.65-100.751-30.209-135.402 9.921s-30.209 100.751 9.921 135.402A96.005 96.005 0 00277.333 352v-21.333c-41.237-.013-74.656-33.453-74.643-74.691s33.453-74.656 74.691-74.643a74.67 74.67 0 0148.752 18.133l13.942-16.127z"/>
    <path d="M234.667 256c0 23.564 19.103 42.667 42.667 42.667S320 279.564 320 256s-19.103-42.667-42.667-42.667-42.666 19.103-42.666 42.667zm64 0c0 11.782-9.551 21.333-21.333 21.333-11.783 0-21.334-9.551-21.334-21.333 0-11.782 9.551-21.333 21.333-21.333 11.782 0 21.334 9.551 21.334 21.333z"/>
  </g>
</svg>