<svg xmlns="http://www.w3.org/2000/svg" viewBox="0 0 512 512">
  <g fill="#fff">
    <path d="M362.453 232.747A63.347 63.347 0 01394.666 224c35.346 0 64 28.654 64 64v32c-.002 27.104-17.103 51.259-42.667 60.267v14.4A448.58 448.58 0 00469.332 416c32 10.667 32 32 32 32v64H288v-64s0-21.333 32-32a448.512 448.512 0 0053.333-21.333v-14.4c-25.564-9.008-42.664-33.162-42.667-60.267v-32a64.002 64.002 0 0131.787-55.253zM224 501.333V512H10.667v-64s0-21.333 32-32A448.512 448.512 0 0096 394.667v-14.4C70.436 371.259 53.336 347.105 53.333 320v-32c0-35.346 28.654-64 64-64 35.319.065 63.935 28.681 64 64v32c-.002 27.104-17.103 51.259-42.667 60.267v14.4A448.594 448.594 0 00192 416c32 10.667 32 32 32 32v53.333z"/>
  </g>
  <path fill="#b7d0fb" d="M373.333 380.267v14.4A448.512 448.512 0 01320 416c-32 10.667-32 32-32 32v53.333h-64V448s0-21.333-32-32a448.512 448.512 0 01-53.333-21.333v-14.4c25.564-9.008 42.664-33.162 42.667-60.267v-32a63.997 63.997 0 00-31.787-55.253c.853-5.44 5.547-21.333 31.787-30.08a448.512 448.512 0 0053.333-21.333v-14.4c-25.564-9.008-42.664-33.162-42.667-60.267v-32c0-35.346 28.654-64 64-64s64 28.654 64 64v32c-.002 27.104-17.103 51.259-42.667 60.267v14.4a448.58 448.58 0 0053.333 21.333c26.24 8.747 30.933 24.64 31.787 30.08A64.003 64.003 0 00330.666 288v32c.003 27.105 17.104 51.259 42.667 60.267z"/>
  <g fill="#0A48B3">
    <path d="M472.704 405.877a476.033 476.033 0 01-46.037-17.973v-.512c26.035-12.349 42.64-38.577 42.667-67.392v-32c.178-41.06-32.964-74.49-74.024-74.668a74.363 74.363 0 00-26.862 4.897 57.96 57.96 0 00-34.411-25.685A476.033 476.033 0 01288 174.571v-.512c26.035-12.349 42.64-38.577 42.667-67.392v-32C330.667 33.429 297.237 0 256 0s-74.667 33.429-74.667 74.667v32c.027 28.815 16.632 55.043 42.667 67.392v.512a475.617 475.617 0 01-46.037 17.973 57.994 57.994 0 00-34.421 25.685c-38.349-14.657-81.319 4.549-95.976 42.898A74.334 74.334 0 0042.668 288v32c.027 28.815 16.632 55.043 42.667 67.392v.512a475.617 475.617 0 01-46.037 17.973C.448 418.827 0 446.816 0 448v64h21.333v-63.712c0-.576 1.067-14.293 24.715-22.165a455.925 455.925 0 0054.72-21.856 10.667 10.667 0 005.899-9.6v-14.4a10.667 10.667 0 00-7.125-10.059C78.264 362.679 64.03 342.571 64 320v-32c.035-29.441 23.893-53.298 53.333-53.333a52.69 52.69 0 0126.827 7.285A53.56 53.56 0 01170.667 288v32c-.03 22.57-14.264 42.678-35.541 50.208a10.666 10.666 0 00-7.125 10.059v14.4a10.667 10.667 0 005.899 9.6 455.856 455.856 0 0054.731 21.909c23.637 7.819 24.704 21.536 24.704 21.824v64h21.333v-64c0-1.184-.448-29.173-39.296-42.123a476.033 476.033 0 01-46.037-17.973v-.512C175.368 375.043 191.973 348.815 192 320v-32a74.89 74.89 0 00-29.696-59.467 37.785 37.785 0 0122.4-15.744 455.85 455.85 0 0054.731-21.856 10.667 10.667 0 005.899-9.6v-14.4a10.667 10.667 0 00-7.125-10.059c-21.278-7.53-35.512-27.638-35.541-50.208v-32c0-29.455 23.878-53.333 53.333-53.333s53.333 23.878 53.333 53.333v32c-.03 22.57-14.264 42.678-35.541 50.208a10.666 10.666 0 00-7.125 10.059v14.4a10.667 10.667 0 005.899 9.547 455.856 455.856 0 0054.731 21.909 37.526 37.526 0 0122.4 15.776A74.91 74.91 0 00320 288v32c.027 28.815 16.632 55.043 42.667 67.392v.512a475.617 475.617 0 01-46.037 17.973c-38.848 12.949-39.296 40.939-39.296 42.123v64h21.333v-63.712c0-.576 1.067-14.293 24.715-22.165a455.925 455.925 0 0054.72-21.856 10.667 10.667 0 005.899-9.6v-14.4a10.667 10.667 0 00-7.125-10.059c-21.278-7.529-35.512-27.638-35.541-50.208v-32a53.568 53.568 0 0126.549-46.069 52.604 52.604 0 0126.784-7.264c29.439.035 53.297 23.893 53.332 53.333v32c-.03 22.57-14.264 42.679-35.541 50.208a10.666 10.666 0 00-7.125 10.059v14.4a10.667 10.667 0 005.899 9.6 455.856 455.856 0 0054.731 21.909c23.637 7.819 24.704 21.536 24.704 21.824v64H512v-64c0-1.184-.448-29.173-39.296-42.123z"/>
    <path d="M245.333 288h21.333v21.333h-21.333V288zM245.333 245.333h21.333v21.333h-21.333v-21.333zM245.333 330.667h21.333V352h-21.333v-21.333zM160 458.667h21.333V512H160v-53.333zM53.333 458.667h21.333V512H53.333v-53.333zM330.667 458.667H352V512h-21.333v-53.333zM437.333 458.667h21.333V512h-21.333v-53.333z"/>
  </g>
</svg>