<svg version="1.1" xmlns="http://www.w3.org/2000/svg" x="0" y="0" viewBox="0 0 512 480" xml:space="preserve"><style type="text/css">
	.st0{fill:#CAD0D7;}
	.st1{fill:#E1E6E9;}
	.st2{fill:#99A5AD;}
	.st3{fill:#5A5B67;}
	.st4{fill:#53BA5E;}
	.st5{fill:#297D3E;}
</style><path class="st0" d="M496 0H16C7.2 0 0 7.2 0 16v448c0 8.8 7.2 16 16 16h480c8.8 0 16-7.2 16-16V16C512 7.2 504.8 0 496 0zM496 456c0 4.4-3.6 8-8 8H24c-4.4 0-8-3.6-8-8V72c0-4.4 3.6-8 8-8h464c4.4 0 8 3.6 8 8V456z"/><path class="st1" d="M490 40H118c-3.3 0-6-2.7-6-6v-4c0-3.3 2.7-6 6-6h372c3.3 0 6 2.7 6 6v4C496 37.3 493.3 40 490 40z"/><path class="st2" d="M24 40L24 40c-4.4 0-8-3.6-8-8v0c0-4.4 3.6-8 8-8h0c4.4 0 8 3.6 8 8v0C32 36.4 28.4 40 24 40zM64 32L64 32c0-4.4-3.6-8-8-8h0c-4.4 0-8 3.6-8 8v0c0 4.4 3.6 8 8 8h0C60.4 40 64 36.4 64 32zM96 32L96 32c0-4.4-3.6-8-8-8h0c-4.4 0-8 3.6-8 8v0c0 4.4 3.6 8 8 8h0C92.4 40 96 36.4 96 32z"/><path class="st3" d="M296 128h-80c-4.4 0-8-3.6-8-8v0c0-4.4 3.6-8 8-8h80c4.4 0 8 3.6 8 8v0C304 124.4 300.4 128 296 128z"/><path class="st0" d="M384 208H128c-4.4 0-8-3.6-8-8v-32c0-4.4 3.6-8 8-8h256c4.4 0 8 3.6 8 8v32C392 204.4 388.4 208 384 208zM392 264v-32c0-4.4-3.6-8-8-8H128c-4.4 0-8 3.6-8 8v32c0 4.4 3.6 8 8 8h256C388.4 272 392 268.4 392 264zM392 328v-32c0-4.4-3.6-8-8-8H128c-4.4 0-8 3.6-8 8v32c0 4.4 3.6 8 8 8h256C388.4 336 392 332.4 392 328z"/><path class="st1" d="M128 168h256v32H128V168zM128 264h256v-32H128V264zM128 328h256v-32H128V328z"/><path class="st4" d="M320 408H208c-13.3 0-24-10.7-24-24v0c0-13.3 10.7-24 24-24h112c13.3 0 24 10.7 24 24v0C344 397.3 333.3 408 320 408z"/><path class="st5" d="M232 392L232 392c-4.4 0-8-3.6-8-8l0 0c0-4.4 3.6-8 8-8h0c4.4 0 8 3.6 8 8l0 0C240 388.4 236.4 392 232 392zM272 384L272 384c0-4.4-3.6-8-8-8l0 0c-4.4 0-8 3.6-8 8l0 0c0 4.4 3.6 8 8 8l0 0C268.4 392 272 388.4 272 384zM304 384L304 384c0-4.4-3.6-8-8-8l0 0c-4.4 0-8 3.6-8 8l0 0c0 4.4 3.6 8 8 8l0 0C300.4 392 304 388.4 304 384z"/></svg>