<svg version="1.1" xmlns="http://www.w3.org/2000/svg" x="0" y="0" viewBox="0 0 512 480" xml:space="preserve"><style type="text/css">
	.st0{fill:#CAD0D7;}
	.st1{fill:#E1E6E9;}
	.st2{fill:#99A5AD;}
	.st3{fill:#FCB33B;}
</style><path class="st0" d="M496 0H16C7.2 0 0 7.2 0 16v448c0 8.8 7.2 16 16 16h480c8.8 0 16-7.2 16-16V16C512 7.2 504.8 0 496 0zM496 456c0 4.4-3.6 8-8 8H24c-4.4 0-8-3.6-8-8V72c0-4.4 3.6-8 8-8h464c4.4 0 8 3.6 8 8V456z"/><path class="st1" d="M490 40H118c-3.3 0-6-2.7-6-6v-4c0-3.3 2.7-6 6-6h372c3.3 0 6 2.7 6 6v4C496 37.3 493.3 40 490 40z"/><path class="st2" d="M24 40L24 40c-4.4 0-8-3.6-8-8v0c0-4.4 3.6-8 8-8h0c4.4 0 8 3.6 8 8v0C32 36.4 28.4 40 24 40zM64 32L64 32c0-4.4-3.6-8-8-8h0c-4.4 0-8 3.6-8 8v0c0 4.4 3.6 8 8 8h0C60.4 40 64 36.4 64 32zM96 32L96 32c0-4.4-3.6-8-8-8h0c-4.4 0-8 3.6-8 8v0c0 4.4 3.6 8 8 8h0C92.4 40 96 36.4 96 32z"/><path class="st3" d="M288 184h-64c-4.4 0-8 3.6-8 8v64c0 4.4 3.6 8 8 8h64c4.4 0 8-3.6 8-8v-64C296 187.6 292.4 184 288 184zM272 224c0 8.8-7.2 16-16 16s-16-7.2-16-16v0c0-8.8 7.2-16 16-16S272 215.2 272 224L272 224z"/><path class="st3" d="M168 344h-64c-4.4 0-8 3.6-8 8v64c0 4.4 3.6 8 8 8h64c4.4 0 8-3.6 8-8v-64C176 347.6 172.4 344 168 344zM152 384c0 8.8-7.2 16-16 16s-16-7.2-16-16v0c0-8.8 7.2-16 16-16S152 375.2 152 384L152 384z"/><path class="st3" d="M288 344h-64c-4.4 0-8 3.6-8 8v64c0 4.4 3.6 8 8 8h64c4.4 0 8-3.6 8-8v-64C296 347.6 292.4 344 288 344zM272 384c0 8.8-7.2 16-16 16s-16-7.2-16-16v0c0-8.8 7.2-16 16-16S272 375.2 272 384L272 384z"/><path class="st3" d="M408 344h-64c-4.4 0-8 3.6-8 8v64c0 4.4 3.6 8 8 8h64c4.4 0 8-3.6 8-8v-64C416 347.6 412.4 344 408 344zM392 384c0 8.8-7.2 16-16 16s-16-7.2-16-16v0c0-8.8 7.2-16 16-16S392 375.2 392 384L392 384z"/><path class="st2" d="M384 302v10 32h-16v-32H264v32h-16v-32H144v32h-16v-32 -10c0-3.3 2.7-6 6-6h114v-32h16v32h114C381.3 296 384 298.7 384 302z"/><path class="st0" d="M360 120H152c-4.4 0-8-3.6-8-8v0c0-4.4 3.6-8 8-8h208c4.4 0 8 3.6 8 8v0C368 116.4 364.4 120 360 120zM328 144L328 144c0-4.4-3.6-8-8-8H192c-4.4 0-8 3.6-8 8v0c0 4.4 3.6 8 8 8h128C324.4 152 328 148.4 328 144z"/></svg>