<?xml version="1.0" encoding="utf-8"?>
<!-- Generator: Adobe Illustrator 19.0.0, SVG Export Plug-In . SVG Version: 6.00 Build 0)  -->
<svg version="1.1" id="Layer_2" xmlns="http://www.w3.org/2000/svg" xmlns:xlink="http://www.w3.org/1999/xlink" x="0px" y="0px"
	 viewBox="0 0 2880 1595" style="enable-background:new 0 0 2880 1595;" xml:space="preserve">
<g id="XMLID_1_">
	<path id="XMLID_4_" style="fill:#E7158D;" d="M796.7,1301.7L796.7,1301.7c-8.8,0-16-7.2-16-16l0,0c0-8.8,7.2-16,16-16l0,0
		c8.8,0,16,7.2,16,16l0,0C812.7,1294.5,805.5,1301.7,796.7,1301.7z"/>
	<path id="XMLID_5_" style="fill:#E7158D;" d="M2265.4,147.4L2265.4,147.4c-8.8,0-16-7.2-16-16v0c0-8.8,7.2-16,16-16l0,0
		c8.8,0,16,7.2,16,16v0C2281.4,140.3,2274.3,147.4,2265.4,147.4z"/>
	<path id="XMLID_6_" style="fill:#FFD758;" d="M526.7,964.2L526.7,964.2c-8.3,0-15-6.7-15-15l0,0c0-8.3,6.7-15,15-15l0,0
		c8.3,0,15,6.7,15,15l0,0C541.7,957.5,535,964.2,526.7,964.2z"/>
	<path id="XMLID_7_" style="fill:#FFD758;" d="M2566.4,519.9L2566.4,519.9c-8.3,0-15-6.7-15-15v0c0-8.3,6.7-15,15-15l0,0
		c8.3,0,15,6.7,15,15v0C2581.4,513.1,2574.6,519.9,2566.4,519.9z"/>
	
		<rect id="XMLID_8_" x="707.2" y="1084.8" transform="matrix(0.9864 -0.1644 0.1644 0.9864 -170.2317 132.7979)" style="fill:#93C846;" width="20" height="20"/>
	
		<rect id="XMLID_9_" x="287.8" y="285.2" transform="matrix(0.9349 -0.3549 0.3549 0.9349 -85.6352 125.2641)" style="fill:#FFD758;" width="21.7" height="21.7"/>
	
		<rect id="XMLID_10_" x="1755.8" y="1083" transform="matrix(0.862 0.5068 -0.5068 0.862 798.108 -744.5019)" style="fill:#5092CE;" width="21.7" height="21.7"/>
	
		<rect id="XMLID_11_" x="2399.7" y="1111.8" transform="matrix(0.9349 -0.3549 0.3549 0.9349 -241.524 928.5392)" style="fill:#FFD758;" width="21.7" height="21.7"/>
	<polygon id="XMLID_12_" style="fill:#F5802A;" points="313.6,1128.6 283.6,1128.6 298.6,1108.6 	"/>
	<polygon id="XMLID_13_" style="fill:#F5802A;" points="2578.6,233.6 2608.6,233.6 2593.6,253.6 	"/>
	<polygon id="XMLID_14_" style="fill:#93C846;" points="425.5,448.5 409,465.3 398.5,443.3 	"/>
	<polygon id="XMLID_15_" style="fill:#5092CE;" points="244,562.8 236.8,578 225.4,565.5 	"/>
	<polygon id="XMLID_16_" style="fill:#E7158D;" points="515.2,52.3 496.8,48.7 508.1,37.5 	"/>
	<polygon id="XMLID_17_" style="fill:#5092CE;" points="830.7,195.5 809.5,198.2 817.4,183.1 	"/>
	<polygon id="XMLID_18_" style="fill:#93C846;" points="2179.8,1017.8 2153.2,1012.3 2169.9,996.1 	"/>
	<polygon id="XMLID_19_" style="fill:#E7158D;" points="2723.3,846.8 2711.8,858 2705.1,842.9 	"/>
	<polygon id="XMLID_20_" style="fill:#5092CE;" points="2128,343.3 2116.3,354.3 2110.2,338.6 	"/>
	<polygon id="XMLID_21_" style="fill:#E7158D;" points="1374.5,968.5 1354.5,965.3 1366.1,953.4 	"/>
</g>
</svg>
