<svg xmlns="http://www.w3.org/2000/svg" viewBox="-189 191 120 120">
  <path fill="none" stroke="#bdc5d1" stroke-linecap="round" stroke-linejoin="round" stroke-miterlimit="10" stroke-width="3" d="M-102.3 212.3h17.5c3.1 0 5.6 2.5 5.6 5.6v67.5c0 3.1-2.5 5.6-5.6 5.6h-97.4c-3.1 0-5.6-2.5-5.6-5.6v-67.5c0-3.1 2.5-5.6 5.6-5.6h17.5M-133.4 226.7h22.8"/>
  <path fill="none" stroke="#18ab63" stroke-linecap="round" stroke-linejoin="round" stroke-miterlimit="10" stroke-width="3" d="M-133.4 220.4h22.8"/>
  <path fill="none" stroke="#bdc5d1" stroke-linecap="round" stroke-linejoin="round" stroke-miterlimit="10" stroke-width="3" d="M-115.4 209h13.1l-13.1-13.2V209zm-49.3 55.3v-68.5h49.3m13.1 13.2v55.3"/>
  <path fill="#bdc5d1" d="M-145.5 219.8l1.9 3.8c.1.1.2.2.3.2l4.1.6c.4.1.5.5.2.8l-3 2.9v.4l.7 4.1c.1.4-.3.6-.7.5l-3.7-2c-.1-.1-.3-.1-.4 0l-3.7 2c-.3.2-.7-.1-.7-.5l.7-4.1c0-.1 0-.3-.1-.4l-3-2.9c-.3-.3-.1-.7.2-.8l4.1-.6c.1 0 .3-.1.3-.2l1.9-3.8c.3-.3.8-.3.9 0z" opacity=".5"/>
  <path fill="#18ab63" d="M-148.8 216.5l1.9 3.8c.1.1.2.2.3.2l4.1.6c.4.1.5.5.2.8l-3 2.9c-.1.1-.2.3-.1.4l.7 4.1c.1.4-.3.6-.7.5l-3.7-2c-.1-.1-.3-.1-.4 0l-3.7 2c-.3.2-.7-.1-.7-.5l.7-4.1c0-.1 0-.3-.1-.4l-3-2.9c-.3-.3-.1-.7.2-.8l4.1-.6c.1 0 .3-.1.3-.2l1.9-3.8c.4-.3.9-.3 1 0z"/>
  <path fill="#fff" d="M-149.1 221.2l.5 1.1.1.1 1.2.2c.1 0 .1.1.1.2l-.8.8v.1l.2 1.2c0 .1-.1.2-.2.1l-1.1-.6h-.1l-1.1.6c-.1 0-.2 0-.2-.1l.2-1.2v-.1l-.9-.8c-.1-.1 0-.2.1-.2l1.2-.2s.1 0 .1-.1l.5-1.1c.1-.1.2-.1.2 0z"/>
  <path fill="none" stroke="#18ab63" stroke-linecap="round" stroke-linejoin="round" stroke-miterlimit="10" stroke-width="3" d="M-133.4 242h22.8"/>
  <path fill="none" stroke="#bdc5d1" stroke-linecap="round" stroke-linejoin="round" stroke-miterlimit="10" stroke-width="3" d="M-133.4 248.4h22.8"/>
  <path fill="#bdc5d1" d="M-145.5 241.5l1.9 3.8c.1.1.2.2.3.2l4.1.6c.4.1.5.5.2.8l-3 2.9v.4l.7 4.1c.1.4-.3.6-.7.5l-3.7-2c-.1-.1-.3-.1-.4 0l-3.7 2c-.3.2-.7-.1-.7-.5l.7-4.1c0-.1 0-.3-.1-.4l-3-2.9c-.3-.3-.1-.7.2-.8l4.1-.6c.1 0 .3-.1.3-.2l1.9-3.8c.3-.4.8-.4.9 0z" opacity=".5"/>
  <path fill="#18ab63" d="M-148.8 238.2l1.9 3.8c.1.1.2.2.3.2l4.1.6c.4.1.5.5.2.8l-3 2.9c-.1.1-.2.3-.1.4l.7 4.1c.1.4-.3.6-.7.5l-3.7-2c-.1-.1-.3-.1-.4 0l-3.7 2c-.3.2-.7-.1-.7-.5l.7-4.1c0-.1 0-.3-.1-.4l-3-2.9c-.3-.3-.1-.7.2-.8l4.1-.6c.1 0 .3-.1.3-.2l1.9-3.8c.4-.4.9-.4 1 0z"/>
  <path fill="none" stroke="#bdc5d1" stroke-linecap="round" stroke-linejoin="round" stroke-miterlimit="10" stroke-width="3" d="M-93.7 264.3h-79.6"/>
  <path fill="#fff" d="M-149.1 242.8l.5 1.1.1.1 1.2.2c.1 0 .1.1.1.2l-.8.8v.1l.2 1.2c0 .1-.1.2-.2.1l-1.1-.6h-.1l-1.1.6c-.1 0-.2 0-.2-.1l.2-1.2v-.1l-.9-.8c-.1-.1 0-.2.1-.2l1.2-.2s.1 0 .1-.1l.5-1.1h.2z"/>
  <path fill="none" stroke="#bdc5d1" stroke-linecap="round" stroke-linejoin="round" stroke-miterlimit="10" stroke-width="3" d="M-187.8 274h108.6"/>
  <path fill="none" stroke="#18ab63" stroke-linecap="round" stroke-linejoin="round" stroke-miterlimit="10" stroke-width="3" d="M-130.5 282.8c0 1.7-1.4 3-3 3-1.7 0-3-1.4-3-3 0-1.7 1.4-3 3-3 1.7-.1 3 1.3 3 3zm25 23.4h-55.9"/>
  <path fill="#bdc5d1" d="M-74.5 219.8h-4.9v64.7c0 3.1-2.5 5.6-5.6 5.6h-92.5v2.8c0 3.1 2.5 5.6 5.6 5.6h97.4c3.1 0 5.6-2.5 5.6-5.6v-67.5c0-3.1-2.5-5.6-5.6-5.6z" opacity=".4"/>
  <path fill="#18ab63" d="M-147.1 290.1l-3.2 15.2h33.7l-3.3-15.2h-27.2z"/>
</svg>