<?xml version="1.0" encoding="utf-8"?>
<!-- Generator: Adobe Illustrator 19.0.0, SVG Export Plug-In . SVG Version: 6.00 Build 0)  -->
<svg version="1.1" id="Layer_1" xmlns="http://www.w3.org/2000/svg" xmlns:xlink="http://www.w3.org/1999/xlink" x="0px" y="0px"
	 viewBox="-939 450 120 120" style="enable-background:new -939 450 120 120;" xml:space="preserve">
<path style="fill:none;stroke:#18ab63;stroke-width:3;stroke-linecap:round;stroke-linejoin:round;stroke-miterlimit:10;" d="
	M-911.2,487.1c0,1.5-1.3,2.8-2.8,2.8s-2.8-1.2-2.8-2.8c0-1.5,1.3-2.8,2.8-2.8C-912.4,484.3-911.2,485.5-911.2,487.1z"/>
<path style="opacity:0.5;fill:none;stroke:#BDC5D1;stroke-width:3;stroke-linecap:round;stroke-linejoin:round;stroke-miterlimit:10;enable-background:new    ;" d="
	M-898,487.1c0,1.5-1.2,2.8-2.8,2.8c-1.5,0-2.8-1.2-2.8-2.8c0-1.5,1.2-2.8,2.8-2.8C-899.2,484.3-898,485.5-898,487.1z M-884.8,487.1
	c0,1.5-1.3,2.8-2.8,2.8s-2.8-1.2-2.8-2.8c0-1.5,1.3-2.8,2.8-2.8C-886,484.3-884.8,485.5-884.8,487.1z M-833.2,511.7
	c0.8,1.4,1.4,2.9,1.9,4.5 M-862.2,498c9.7-1.8,19.3,1.7,25.4,8.6"/>
<path style="opacity:0.5;fill:none;stroke:#BDC5D1;stroke-width:3;stroke-linecap:round;stroke-linejoin:round;stroke-miterlimit:10;enable-background:new    ;" d="
	M-866.8,491.2c2.4-17.9-9.6-34.8-27.6-38.2c-18.6-3.6-36.6,8.7-40.1,27.3c-1.8,9.6,0.6,19,5.8,26.4l-5,15.1l16.1-5.2
	c3.2,1.8,6.7,3.1,10.4,3.8c5.5,1,10.9,0.7,15.9-0.8"/>
<path style="opacity:0.5;fill:#BDC5D1;enable-background:new    ;" d="M-864.7,500.5c18.6-3.5,36.6,8.7,40.1,27.3
	c1.8,9.6-0.6,19-5.8,26.4l5.1,15.1l-16.1-5.2c-3.2,1.8-6.7,3.1-10.4,3.8c-18.6,3.5-36.6-8.7-40.1-27.3
	C-895.6,522-883.3,504.1-864.7,500.5z"/>
<path style="fill:#18ab63;" d="M-863.6,490.4c18.6-3.5,36.6,8.7,40.1,27.3c1.8,9.6-0.6,19-5.8,26.4l5.1,15.1l-16.1-5.2
	c-3.2,1.8-6.7,3.1-10.4,3.8c-18.6,3.5-36.6-8.7-40.1-27.3C-894.5,511.9-882.2,494-863.6,490.4z"/>
<circle style="opacity:0.5;fill:none;stroke:#FFFFFF;stroke-width:3;stroke-linecap:round;stroke-linejoin:round;stroke-miterlimit:10;enable-background:new    ;" cx="-844" cy="524.5" r="2.8"/>
<circle style="opacity:0.5;fill:none;stroke:#FFFFFF;stroke-width:3;stroke-linecap:round;stroke-linejoin:round;stroke-miterlimit:10;enable-background:new    ;" cx="-857.2" cy="524.5" r="2.8"/>
<circle style="fill:none;stroke:#FFFFFF;stroke-width:3;stroke-linecap:round;stroke-linejoin:round;stroke-miterlimit:10;" cx="-870.4" cy="524.5" r="2.8"/>
</svg>
