<svg xmlns="http://www.w3.org/2000/svg" viewBox="-899 481 120 120">
  <path fill="#bdc5d1" d="M-826 527.6l-7.5-7.7-2-2.1-2.2-2.3-9.5-9.8-24.5-5.4-19.9 19.3 4.7 24.7 9.5 9.8 2.1 2.2 2.1 2.2 40.2 41.1c1.8 1.8 4.7 1.9 6.6.1l32.9-32c1.8-1.8 1.9-4.7.1-6.6l-5.7-5.8" opacity=".5"/>
  <path fill="#fff" stroke="#bdc5d1" stroke-linecap="round" stroke-linejoin="round" stroke-miterlimit="10" stroke-width="4" d="M-823.9 510.1l-7.5-7.7-2-2.1-2.2-2.3-9.5-9.8-24.5-5.4-19.8 19.3 4.7 24.7 9.5 9.8 2.1 2.2 2.1 2.2 40.1 41.2c1.8 1.8 4.7 1.9 6.6.1l32.9-32c1.8-1.8 1.9-4.7.1-6.6l-5.7-5.8"/>
  <circle cx="-802.6" cy="520.3" r="16.2" fill="#bdc5d1" opacity=".5"/>
  <circle cx="-867.2" cy="505.2" r="7" fill="none" stroke="#18ab63" stroke-linecap="round" stroke-linejoin="round" stroke-miterlimit="10" stroke-width="2"/>
  <circle cx="-810.5" cy="523.8" r="16.2" fill="#18ab63"/>
  <path fill="none" stroke="#fff" stroke-linecap="round" stroke-linejoin="round" stroke-miterlimit="10" stroke-width="3" d="M-816.4 518l10.5 10.8M-816.6 528.6l10.8-10.5"/>
  <path fill="none" stroke="#18ab63" stroke-linecap="round" stroke-linejoin="round" stroke-miterlimit="10" stroke-width="2" d="M-841.8 535.8l-8.1 7.6"/>
  <path fill="none" stroke="#18ab63" stroke-linecap="round" stroke-linejoin="round" stroke-miterlimit="10" stroke-width="2" d="M-832.1 540.3l-11 10.4M-825.6 547.8l-10.7 10.1" opacity=".5"/>
</svg>