<svg xmlns="http://www.w3.org/2000/svg" viewBox="-899 481 120 120">
  <path fill="none" stroke="#bdc5d1" stroke-linecap="round" stroke-linejoin="round" stroke-miterlimit="10" stroke-width="3" d="M-834.2 530.5v41.8l-63.2-9.9v-69.8M-897.4 492.6l63.2 9.9v13.1M-793.3 491.3v69.1l-40.9 11.9M-834.2 502.5l40.9-11.2M-897.4 492.6l40.8-9.9 63.3 8.6"/>
  <circle cx="-806.2" cy="573.8" r="27.2" fill="#bdc5d1" opacity=".5"/>
  <circle cx="-816.2" cy="565.3" r="27.2" fill="#18ab63"/>
  <path fill="none" stroke="#fff" stroke-linecap="round" stroke-linejoin="round" stroke-miterlimit="10" stroke-width="3" d="M-817.8 557.5h6.7c4.3 0 7.8 3.5 7.8 7.8h0c0 4.3-3.5 7.8-7.8 7.8h-18"/>
  <path fill="none" stroke="#fff" stroke-linecap="round" stroke-linejoin="round" stroke-miterlimit="10" stroke-width="3" d="M-813.5 561.7l-4.3-4.2 4.3-4.3"/>
  <path fill="none" stroke="#bdc5d1" stroke-linecap="round" stroke-linejoin="round" stroke-miterlimit="10" stroke-width="3" d="M-819.1 498.3v17.3M-814 514l-5.1 1.6M-804 510.9l-3.8 1.2M-804 494.3v16.4M-860.5 545.6v10.9M-852.9 546.6v10.9"/>
  <circle cx="-874.2" cy="510.3" r="3.1" fill="none" stroke="#bdc5d1" stroke-linecap="round" stroke-linejoin="round" stroke-miterlimit="10" stroke-width="3" opacity=".5"/>
  <circle cx="-885.6" cy="508.1" r="3.1" fill="none" stroke="#18ab63" stroke-linecap="round" stroke-linejoin="round" stroke-miterlimit="10" stroke-width="3"/>
</svg>