<svg xmlns="http://www.w3.org/2000/svg" viewBox="-939 450 120 120">
  <path fill="none" stroke="#bdc5d1" stroke-miterlimit="10" stroke-width="3" d="M-927.7 506.2h11.3v-22.7c0-11.4 9.3-20.7 20.7-20.7 11.4 0 20.7 9.3 20.7 20.7v22.7h11.3v-22.7c0-17.6-14.3-31.9-31.9-31.9-11 0-20.7 5.6-26.5 14.1"/>
  <path fill="#fff" d="M-936.9 527.2c0 22.8 18.5 41.3 41.3 41.3 22.8 0 41.3-18.5 41.3-41.3 0-22.8-18.5-41.3-41.3-41.3-22.8 0-41.3 18.5-41.3 41.3z"/>
  <path fill="#bdc5d1" d="M-917.9 532.3c0 15.5 12.6 28.1 28.1 28.1s28.1-12.6 28.1-28.1-12.6-28.1-28.1-28.1c-15.6.1-28.1 12.6-28.1 28.1z" opacity=".5"/>
  <path fill="#18ab63" d="M-923.7 527.2c0 15.5 12.6 28.1 28.1 28.1s28.1-12.6 28.1-28.1-12.6-28.1-28.1-28.1-28.1 12.6-28.1 28.1z"/>
  <path fill="#fff" d="M-903.4 523c0 4.4 3.6 8 8 8s8-3.6 8-8-3.6-8-8-8-8 3.6-8 8z"/>
  <path fill="none" stroke="#bdc5d1" stroke-miterlimit="10" stroke-width="3" d="M-857.5 511.5c-6.2-15-20.9-25.5-38.2-25.5-22.8 0-41.3 18.5-41.3 41.3 0 4.5.7 8.8 2 12.8M-927.6 553.2c7.6 9.3 19.1 15.2 32 15.2 8.4 0 16.1-2.5 22.6-6.8M-933 544.5c.5 1 2.2 4.2 2.8 5.1"/>
  <path fill="#fff" d="M-900.1 521.8h9.5V540h-9.5z"/>
  <path fill="#fff" stroke="#bdc5d1" stroke-miterlimit="10" stroke-width="3" d="M-871.8 530.3l5.4 11.3c-.5 3.1-.4 6.4.5 9.7 3.3 12.4 16.1 19.8 28.5 16.4 12.4-3.3 19.8-16.1 16.4-28.5-3.4-12.4-16.1-19.8-28.5-16.4-4.4 1.2-8.1 3.5-11 6.6l-11.3.9z"/>
  <path fill="#bdc5d1" d="M-856.2 545.3c-2.2-8.1 2.8-16.5 11.1-18.7 8.3-2.2 16.8 2.5 19 10.7 2.2 8.1-2.8 16.5-11.1 18.7s-16.8-2.6-19-10.7z" opacity=".5"/>
  <path fill="#18ab63" d="M-858.7 549.3c-2.2-8.1 2.8-16.5 11.1-18.7 8.3-2.2 16.8 2.5 19 10.7 2.2 8.1-2.8 16.5-11.1 18.7-8.3 2.1-16.8-2.6-19-10.7z"/>
  <path fill="none" stroke="#fff" stroke-linecap="round" stroke-miterlimit="10" stroke-width="3" d="M-849.4 545.7l3.5 3.5c.2.2.6.2.8 0l7.9-7.9"/>
</svg>