<svg xmlns="http://www.w3.org/2000/svg" viewBox="-899 481 120 120">
  <path fill="#bdc5d1" d="M-779.8 528.9l-15.7-21.1-7.2-9.6-24.4-2.6-5.2-.5-2.4.2-27.2 2.9-22.9 30.7 52.5 61.2z" opacity=".3"/>
  <path fill="#fff" stroke="#bdc5d1" stroke-linecap="round" stroke-linejoin="round" stroke-miterlimit="10" stroke-width="3" d="M-873.3 495.1l29.6-3.1 29.6 3.1 22.9 30.7-52.5 61.1-52.5-61.1 22.9-30.7z"/>
  <path fill="#fff" d="M-843.7 492.7l-28.3 3-1.6 29.4zM-843.7 492.7l28.2 3 1.6 29.4z"/>
  <path fill="#18ab63" d="M-793.6 525.1l-21.9-29.4 1.6 29.4zM-893.9 525.1l21.9-29.4-1.6 29.4zM-843.7 492.7l-29.9 32.4h59.7z"/>
  <path fill="none" stroke="#18ab63" stroke-linecap="round" stroke-linejoin="round" stroke-miterlimit="10" stroke-width="3" d="M-872 537.8l13.2 15.8M-854.6 558.6l3.6 4.4"/>
</svg>