<?xml version="1.0" encoding="utf-8"?>
<!-- Generator: Adobe Illustrator 19.0.0, SVG Export Plug-In . SVG Version: 6.00 Build 0)  -->
<svg version="1.1" id="Layer_1" xmlns="http://www.w3.org/2000/svg" xmlns:xlink="http://www.w3.org/1999/xlink" x="0px" y="0px"
	 viewBox="-939 450 120 120" style="enable-background:new -939 450 120 120;" xml:space="preserve">
<path style="fill:none;stroke:#BDC5D1;stroke-width:3;stroke-linecap:round;stroke-linejoin:round;stroke-miterlimit:10;" d="
	M-923.9,525.6V461l4.4-4.3l4.3,4.3l4.3-4.3l4.3,4.3l4.3-4.3l4.3,4.3l4.3-4.3l4.3,4.3l4.3-4.3l4.3,4.3l4.3-4.3l4.3,4.3l4.3-4.3
	l4.3,4.3l4.3-4.3l4.3,4.3l5-4.3l4.4,4.3v96.5c0,3.2,2.6,5.8,5.8,5.8s5.8-2.6,5.8-5.8v-94.3h-5.8v93.1 M-839.9,563.3h-73"/>
<path style="opacity:0.5;fill:#BDC5D1;enable-background:new    ;" d="M-860.9,494.5h-38.9c-4.1,0-7.3-3.3-7.3-7.3
	c0-4.1,3.3-7.3,7.3-7.3h38.9c4.1,0,7.3,3.3,7.3,7.3C-853.5,491.2-856.8,494.5-860.9,494.5z"/>
<path style="fill:#18ab63;" d="M-865.9,488h-38.9c-4.1,0-7.3-3.3-7.3-7.3c0-4.1,3.3-7.3,7.3-7.3h38.9c4.1,0,7.3,3.3,7.3,7.3
	C-858.5,484.7-861.8,488-865.9,488z"/>
<path style="fill:#FFFFFF;" d="M-873.6,482.3h-23.5c-0.9,0-1.6-0.7-1.6-1.6c0-0.9,0.7-1.6,1.6-1.6h23.5c0.9,0,1.6,0.7,1.6,1.6
	C-872,481.5-872.7,482.3-873.6,482.3z"/>
<g style="opacity:0.5;">
	<path style="fill:none;stroke:#BDC5D1;stroke-width:3;stroke-linecap:round;stroke-linejoin:round;stroke-miterlimit:10;" d="
		M-935.2,536h29.3 M-935.2,543.5h29.3 M-935.2,551.1h14.5 M-911.7,551.1h5.8"/>
</g>
<path style="opacity:0.5;fill:none;stroke:#BDC5D1;stroke-width:3;stroke-linecap:round;stroke-linejoin:round;stroke-miterlimit:10;enable-background:new    ;" d="
	M-884.6,540.6v12.2 M-876.7,537.1v15.7 M-868.7,539.7v13.1 M-860.7,531.8v21"/>
<path style="fill:none;stroke:#18ab63;stroke-width:3;stroke-linecap:round;stroke-linejoin:round;stroke-miterlimit:10;" d="
	M-888.4,536l13.6-10.4l4.8,5.7l11.9-10.1"/>
</svg>
