<?xml version="1.0" encoding="utf-8"?>
<!-- Generator: Adobe Illustrator 19.0.0, SVG Export Plug-In . SVG Version: 6.00 Build 0)  -->
<svg version="1.1" id="Layer_1" xmlns="http://www.w3.org/2000/svg" xmlns:xlink="http://www.w3.org/1999/xlink" x="0px" y="0px"
	 viewBox="-939 450 120 120" style="enable-background:new -939 450 120 120;" xml:space="preserve">
<path style="fill:none;stroke:#18ab63;stroke-width:3;stroke-linecap:round;stroke-linejoin:round;stroke-miterlimit:10;" d="
	M-904,466.7c-2.6,2.9-4.5,6.4-5.3,10.4 M-894.9,460.7c-1.1,0.4-2.1,0.8-3.1,1.4 M-833.9,503c0.1-0.7,0.1-1.5,0.1-2.2 M-841.7,515.7
	c3-2,5.3-4.9,6.7-8.3"/>
<path style="fill:none;stroke:#BDC5D1;stroke-width:3;stroke-linecap:round;stroke-linejoin:round;stroke-miterlimit:10;" d="
	M-847.7,523.2c12,0,21.7-9.7,21.7-21.7c0-11.1-8.3-20.2-19-21.5c-1.2-8.6-8.5-15.3-17.5-15.3c-1.7,0-3.4,0.3-4.9,0.7
	c-4.6-8.1-13.3-13.6-23.3-13.6c-14.8,0-26.7,12-26.7,26.7c0,0.6,0,1.2,0.1,1.7c-9.7,2.2-17,10.8-17,21.2c0,12,9.7,21.7,21.7,21.7h6"
	/>
<g style="opacity:0.5;">
	<path style="fill:none;stroke:#BDC5D1;stroke-width:3;stroke-linecap:round;stroke-linejoin:round;stroke-miterlimit:10;" d="
		M-921,551.5h-6.9c-4.4,0-8-3.6-8-8s3.6-8,8-8h18.6"/>
	<path style="fill:none;stroke:#BDC5D1;stroke-width:3;stroke-linecap:round;stroke-linejoin:round;stroke-miterlimit:10;" d="
		M-925.4,547.1l4.4,4.4l-4.4,4.4 M-837,546h6.9c4.4,0,8,3.6,8,8s-3.6,8-8,8h-18.6"/>
	<path style="fill:none;stroke:#BDC5D1;stroke-width:3;stroke-linecap:round;stroke-linejoin:round;stroke-miterlimit:10;" d="
		M-832.6,550.4l-4.4-4.4l4.4-4.4"/>
</g>
<path style="opacity:0.3;fill:#BDC5D1;enable-background:new    ;" d="M-855.3,569.2h-29.3c-2.5,0-4.5-2-4.5-4.5v-55.5
	c0-2.5,2-4.5,4.5-4.5h29.3c2.5,0,4.5,2,4.5,4.5v55.5C-850.7,567.2-852.8,569.2-855.3,569.2z"/>
<path style="fill:#18ab63;" d="M-865.2,565.2h-29.9c-2.5,0-4.5-2-4.5-4.5v-59.8c0-2.5,2-4.5,4.5-4.5h29.8c2.5,0,4.5,2,4.5,4.5v59.8
	C-860.7,563.2-862.7,565.2-865.2,565.2z"/>
<path style="fill:none;stroke:#FFFFFF;stroke-width:3;stroke-linecap:round;stroke-linejoin:round;stroke-miterlimit:10;" d="
	M-879.3,513.3h8.9 M-879.3,517.5h8.9 M-892.7,511.8h7.3v7.3h-7.3V511.8z"/>
<circle style="opacity:0.5;fill:none;stroke:#FFFFFF;stroke-width:3;stroke-linecap:round;stroke-linejoin:round;stroke-miterlimit:10;enable-background:new    ;" cx="-881" cy="558.9" r="2.5"/>
<path style="opacity:0.5;fill:none;stroke:#FFFFFF;stroke-width:3;stroke-linecap:round;stroke-linejoin:round;stroke-miterlimit:10;enable-background:new    ;" d="
	M-895.9,502.4h29.7 M-866.2,552.3h-29.7"/>
</svg>
