<svg xmlns="http://www.w3.org/2000/svg" viewBox="-939 450 120 120">
  <path fill="none" stroke="#bdc5d1" stroke-linecap="round" stroke-linejoin="round" stroke-miterlimit="10" stroke-width="3" d="M-886.1 492.5c-2.7 0-5.2 1.2-6.8 3.2v-17h-36c-5 0-9.1 4.1-9.1 9.1v36h16.7c-1.8-1.6-3-4-3-6.6 0-4.9 3.9-8.8 8.8-8.8s8.8 3.9 8.8 8.8c0 2.6-1.1 5-3 6.6h16.7v-17c1.6 2 4 3.2 6.8 3.2 4.8 0 8.7-3.9 8.7-8.7.2-4.9-3.7-8.8-8.6-8.8zM-921.2 523.8H-938v36c0 5 4.1 9.1 9.1 9.1h36v-16.7c-1.6 1.8-4 3-6.6 3-4.9 0-8.8-3.9-8.8-8.8s3.9-8.8 8.8-8.8c2.6 0 5 1.1 6.6 3v-16.8h-16.6m16.7 28.5V569h36c5 0 9.1-4.1 9.1-9.1v-36h-16.7c1.8 1.6 3 4 3 6.6 0 4.9-3.9 8.8-8.8 8.8s-8.8-3.9-8.8-8.8c0-2.6 1.1-5 3-6.6h-16.8v16.7"/>
  <path fill="#bdc5d1" d="M-833.1 466.1c-1.4-4.8-6.5-7.6-11.3-6.2l-34.6 9.9 4.6 16.1c1-2.2 3-3.9 5.5-4.7 4.7-1.4 9.6 1.3 10.9 6 1.4 4.7-1.3 9.6-6 10.9-2.5.7-5.1.3-7.1-1l4.6 16.1 15.7-4.5c-1.1 2-1.5 4.4-.8 6.8 1.4 4.7 6.3 7.5 11.1 6.1 4.7-1.4 7.5-6.3 6.1-11.1-.7-2.4-2.3-4.3-4.3-5.4l15.6-4.5-10-34.5z" opacity=".5"/>
  <path fill="#18ab63" d="M-829 456.6c-1.4-4.8-6.5-7.6-11.3-6.2l-34.6 10 4.6 16.1c1-2.2 3-3.9 5.5-4.7 4.7-1.4 9.6 1.3 10.9 6 1.4 4.7-1.3 9.6-6 10.9-2.5.7-5.1.3-7.1-1l4.6 16.1 15.7-4.5c-1.1 2-1.5 4.4-.8 6.8 1.4 4.7 6.3 7.5 11.1 6.1 4.7-1.4 7.5-6.3 6.1-11.1-.7-2.4-2.3-4.3-4.3-5.4l15.6-4.5-10-34.6z"/>
</svg>