<svg xmlns="http://www.w3.org/2000/svg" viewBox="-939 450 120 120">
  <path fill="none" stroke="#bdc5d1" stroke-linecap="round" stroke-linejoin="round" stroke-miterlimit="10" stroke-width="3" d="M-913.8 516.2h10.7m8.4 10.2h-11.1m-5.4.1h-5.5m-15.9 9.3h5.4m5.3 0h16m-16-9.3h-15.3m17.2-10.3h-3.6" opacity=".5"/>
  <path fill="#bdc5d1" d="M-823.3 564.2h-77c-2.4 0-4.3-2-4.3-4.3v-48c0-2.4 2-4.3 4.3-4.3h76.9c2.4 0 4.3 2 4.3 4.3v48c.1 2.3-1.9 4.3-4.2 4.3z" opacity=".5"/>
  <path fill="#18ab63" d="M-832.9 552.9h-76.9c-2.4 0-4.3-2-4.3-4.3v-48c0-2.4 2-4.3 4.3-4.3h76.9c2.4 0 4.3 2 4.3 4.3v48c0 2.3-1.9 4.3-4.3 4.3z"/>
  <path fill="none" stroke="#fff" stroke-linecap="round" stroke-linejoin="round" stroke-miterlimit="10" stroke-width="3" d="M-860.6 531.6l31.2 19.9m-52.7-19.9l-31.3 19.9m0-53.6l42 30.7m42-30.7l-42 30.7"/>
  <path fill="none" stroke="#18ab63" stroke-linecap="round" stroke-linejoin="round" stroke-miterlimit="10" stroke-width="3" d="M-832.9 552.9h-76.9c-2.4 0-4.3-2-4.3-4.3v-48c0-2.4 2-4.3 4.3-4.3h76.9c2.4 0 4.3 2 4.3 4.3v48c0 2.3-1.9 4.3-4.3 4.3z"/>
  <path fill="none" stroke="#fff" stroke-linecap="round" stroke-linejoin="round" stroke-miterlimit="10" stroke-width="3" d="M-869 545.1h-14.2m20.4 0h6.4" opacity=".5"/>
  <path fill="none" stroke="#bdc5d1" stroke-linecap="round" stroke-linejoin="round" stroke-miterlimit="10" stroke-width="3" d="M-866.5 486.3h17.9m18.3-8.4h-5.3m-5.4 0h-15.9m14.9 8.3h15.4" opacity=".5"/>
  <path fill="none" stroke="#bdc5d1" stroke-linecap="round" stroke-linejoin="round" stroke-miterlimit="10" stroke-width="3" d="M-934 491.6v-26.9c0-2.1 1.8-3.9 3.9-3.9h77.8c2.2 0 3.9 1.7 3.9 3.9v5.5M-921.5 470.3l29.9 18.9M-861 470l-30.4 19.2"/>
</svg>