<svg xmlns="http://www.w3.org/2000/svg" viewBox="-939 450 120 120">
  <path fill="none" stroke="#bdc5d1" stroke-linecap="round" stroke-linejoin="round" stroke-miterlimit="10" stroke-width="3" d="M-863.9 467.1l1.9 6.7M-913.9 476l4.7-1.3" opacity=".5"/>
  <path fill="none" stroke="#bdc5d1" stroke-linecap="round" stroke-linejoin="round" stroke-miterlimit="10" stroke-width="3" d="M-927.6 491.1l-2-7.1c-.5-1.9.6-3.9 2.5-4.4l7.5-2.1"/>
  <path fill="none" stroke="#bdc5d1" stroke-linecap="round" stroke-linejoin="round" stroke-miterlimit="10" stroke-width="3" d="M-848.1 498.9l-10.7-38.9c-.8-3-4-4.8-7-4l-67.4 18.7c-3 .8-4.8 4-4 7l11.6 41.8c.8 3 4 4.8 7 4l8.5-2.3"/>
  <path fill="#bdc5d1" d="M-825.2 564.1h-71.7c-3.4 0-6.2-2.8-6.2-6.2v-45.1c0-3.4 2.8-6.2 6.2-6.2h71.7c3.4 0 6.2 2.8 6.2 6.2v45.1c0 3.4-2.8 6.2-6.2 6.2z" opacity=".5"/>
  <path fill="#18ab63" d="M-833.6 553.3h-71.7c-3.4 0-6.2-2.8-6.2-6.2V502c0-3.4 2.8-6.2 6.2-6.2h71.7c3.4 0 6.2 2.8 6.2 6.2v45.1c0 3.5-2.7 6.2-6.2 6.2z"/>
  <path fill="none" stroke="#fff" stroke-linecap="round" stroke-linejoin="round" stroke-miterlimit="10" stroke-width="3" d="M-898 534.7h-8.7M-888.9 540.8h-17.8M-849 533.2h16.9v7.6H-849z" opacity=".5"/>
  <path fill="none" stroke="#fff" stroke-linecap="round" stroke-linejoin="round" stroke-miterlimit="10" stroke-width="3" d="M-832.2 511.1h-74.5M-832.2 524.6h-74.5"/>
</svg>