<?xml version="1.0" encoding="utf-8"?>
<!-- Generator: Adobe Illustrator 19.0.0, SVG Export Plug-In . SVG Version: 6.00 Build 0)  -->
<svg version="1.1" id="Layer_1" xmlns="http://www.w3.org/2000/svg" xmlns:xlink="http://www.w3.org/1999/xlink" x="0px" y="0px"
	 viewBox="-939 450 120 120" style="enable-background:new -939 450 120 120;" xml:space="preserve">
<g style="opacity:0.5;">
	<path style="fill:none;stroke:#BDC5D1;stroke-width:3;stroke-linecap:round;stroke-linejoin:round;stroke-miterlimit:10;" d="
		M-848.1,481.3h9.3 M-833.6,479.4h5.7v3.8h-5.7V479.4z M-848.1,491.5h9.3 M-833.6,489.6h5.7v3.8h-5.7V489.6z M-848.1,501.7h9.3
		 M-833.6,499.8h5.7v3.8h-5.7V499.8z M-848.1,511.9h9.3 M-833.6,510h5.7v3.8h-5.7V510z"/>
	<g>
		<path style="fill:none;stroke:#BDC5D1;stroke-width:3;stroke-linecap:round;stroke-linejoin:round;stroke-miterlimit:10;" d="
			M-848.1,522.1h9.3 M-833.6,520.2h5.7v3.8h-5.7V520.2z"/>
	</g>
	<g>
		<path style="fill:none;stroke:#BDC5D1;stroke-width:3;stroke-linecap:round;stroke-linejoin:round;stroke-miterlimit:10;" d="
			M-848.1,532.3h9.3 M-833.6,530.4h5.7v3.8h-5.7V530.4z"/>
	</g>
	<g>
		<path style="fill:none;stroke:#BDC5D1;stroke-width:3;stroke-linecap:round;stroke-linejoin:round;stroke-miterlimit:10;" d="
			M-848.1,542.5h9.3 M-833.6,540.6h5.7v3.8h-5.7V540.6z"/>
	</g>
</g>
<path style="fill:none;stroke:#BDC5D1;stroke-width:3;stroke-linecap:round;stroke-linejoin:round;stroke-miterlimit:10;" d="
	M-855.6,470.5h35.1v82.8h-117v-82.8h5.2 M-909.2,470.5h5.8"/>
<path style="fill:none;stroke:#18ab63;stroke-width:3;stroke-linecap:round;stroke-linejoin:round;stroke-miterlimit:10;" d="
	M-914.7,546.1h-12.1c-3,0-5.5-2.5-5.5-5.5v-72.5c0-3,2.5-5.5,5.5-5.5h12.1c3,0,5.5,2.5,5.5,5.5v72.5
	C-909.2,543.6-911.7,546.1-914.7,546.1z M-921.2,546.1v13.2h-11.1"/>
<path style="fill:#18ab63;" d="M-903.4,460.7h47.8v28.8h-47.8V460.7z"/>
<path style="fill:none;stroke:#FFFFFF;stroke-width:3;stroke-linecap:round;stroke-linejoin:round;stroke-miterlimit:10;" d="
	M-891.1,472.6h8.9 M-891.1,477.5h3 M-869.9,472.6h2 M-898,465.8h36.9v18.6H-898V465.8z"/>
<g>
	<path style="fill:none;stroke:#18ab63;stroke-width:3;stroke-linecap:round;stroke-linejoin:round;stroke-miterlimit:10;" d="
		M-898.7,513.1h9.8v4.1h-9.8V513.1z"/>
	
		<path style="opacity:0.5;fill:none;stroke:#BDC5D1;stroke-width:3;stroke-linecap:round;stroke-linejoin:round;stroke-miterlimit:10;enable-background:new    ;" d="
		M-898.7,497h6.4v4.1h-6.4V497z M-888,497h6.4v4.1h-6.4V497z M-877.4,497h6.4v4.1h-6.4V497z M-866.7,497h6.4v4.1h-6.4V497z
		 M-884.4,513.1h9.8v4.1h-9.8V513.1z M-870.1,513.1h9.8v4.1h-9.8V513.1z"/>
	<g style="opacity:0.5;">
		<path style="fill:none;stroke:#BDC5D1;stroke-width:3;stroke-linecap:round;stroke-linejoin:round;stroke-miterlimit:10;" d="
			M-898.7,522.3h9.8v4.1h-9.8V522.3z M-884.4,522.3h9.8v4.1h-9.8V522.3z M-870.1,522.3h9.8v4.1h-9.8V522.3z"/>
	</g>
	<g style="opacity:0.5;">
		<path style="fill:none;stroke:#BDC5D1;stroke-width:3;stroke-linecap:round;stroke-linejoin:round;stroke-miterlimit:10;" d="
			M-898.7,531.6h9.8v4.1h-9.8V531.6z M-884.4,531.6h9.8v4.1h-9.8V531.6z M-870.1,531.6h9.8v4.1h-9.8V531.6z"/>
	</g>
	<g style="opacity:0.5;">
		<path style="fill:none;stroke:#BDC5D1;stroke-width:3;stroke-linecap:round;stroke-linejoin:round;stroke-miterlimit:10;" d="
			M-898.7,540.9h9.8v4.1h-9.8V540.9z M-884.4,540.9h9.8v4.1h-9.8V540.9z M-870.1,540.9h9.8v4.1h-9.8V540.9z"/>
	</g>
</g>
</svg>
