<svg xmlns="http://www.w3.org/2000/svg" viewBox="-227 229 120 120">
  <path fill="none" stroke="#bdc5d1" stroke-linecap="round" stroke-linejoin="round" stroke-miterlimit="10" stroke-width="3" d="M-109.1 289v-1.5l-7.1-2.9 6.5-4.4c-.9-5.7-2.5-11-4.9-16l-8.1.3 4.3-6.9c-3-4.7-6.7-8.8-10.9-12.4l-7.6 3.7 1.2-8.4c-4.6-2.9-9.6-5.2-14.9-6.8l-5.5 6.6-2.4-8.3c-2.7-.4-5.4-.6-8.2-.6s-5.5.2-8.2.6l-2.4 8.3-5.5-6.6c-5.3 1.6-10.4 3.9-14.9 6.8l1.2 8.4-7.6-3.7c-4.2 3.6-7.9 7.8-10.9 12.4l4.3 6.9-8.1-.3c-2.4 5-4.1 10.4-4.9 16l6.5 4.4-7.1 2.9v1.5c0 5.3.7 10.5 2.1 15.4l7.2 1.3-5 5.2c2 5.4 5 10.4 8.7 14.8l6.8-1.7-2.3 6.5c4.2 4 8.9 7.5 14.2 10.1l5.3-4.1.5 6.6c5.4 2 11.1 3.2 17.1 3.6l3.1-5.8 3.1 5.8c6-.3 11.7-1.6 17.1-3.6l.5-6.6 5.3 4.1c5.2-2.6 10-6.1 14.2-10.1l-2.6-6.5 6.8 1.7c3.6-4.4 6.6-9.4 8.8-14.8l-5-5.2 7.2-1.3c1.4-4.9 2.1-10 2.1-15.4z"/>
  <path fill="#bdc5d1" d="M-135.7 285.1l-7-.5 1.7-6.8c-1.7-1.6-3.6-3.1-5.8-4.2l-6 3.7-2.7-6.5c-1.2-.2-2.4-.2-3.6-.2-1.2 0-2.4.1-3.6.2l-2.7 6.5-6-3.7c-2.1 1.1-4.1 2.6-5.8 4.2l1.7 6.8-7 .5c-1 2.1-1.8 4.4-2.2 6.8l5.4 4.6-5.4 4.5c.4 2.4 1.2 4.7 2.2 6.8l7 .5-1.7 6.8c1.7 1.6 3.6 3.1 5.8 4.2l6-3.7 2.7 6.5c1.2.2 2.4.2 3.6.2s2.4-.1 3.6-.2l2.7-6.5 6 3.7c2.1-1.1 4.1-2.6 5.8-4.2l-1.7-6.8 7-.5c1-2.1 1.8-4.4 2.2-6.8l-5.4-4.6 5.4-4.6c-.4-2.3-1.1-4.6-2.2-6.7z" opacity=".5"/>
  <path fill="#18ab63" d="M-143.6 277.4l-7-.5 1.6-6.9c-1.7-1.6-3.6-3.1-5.8-4.2l-6 3.7-2.6-6.5c-1.2-.2-2.4-.2-3.6-.2s-2.4.1-3.6.2l-2.7 6.5-6-3.7c-2.1 1.1-4.1 2.6-5.8 4.2l1.7 6.8-7 .5c-1 2.1-1.8 4.4-2.2 6.8l5.4 4.6-5.4 4.6c.4 2.4 1.2 4.7 2.2 6.8l7 .5-1.6 6.9c1.7 1.6 3.6 3.1 5.8 4.2l6-3.7 2.7 6.5c1.2.2 2.4.2 3.6.2 1.2 0 2.4-.1 3.6-.2l2.7-6.5 6 3.7c2.1-1.1 4.1-2.6 5.8-4.2l-1.7-6.8 7-.5c1-2.1 1.8-4.4 2.2-6.8l-5.4-4.6 5.4-4.6c-.5-2.4-1.3-4.7-2.3-6.8z"/>
  <path fill="none" stroke="#18ab63" stroke-linecap="round" stroke-linejoin="round" stroke-miterlimit="10" stroke-width="3" d="M-127.1 288.6v.4M-127.9 281c.2.9.4 1.9.5 2.9M-166.8 249.4c16.6 0 30.9 10.2 36.7 24.8M-205.2 298.8c-.8-3.1-1.2-6.4-1.2-9.8M-166.8 328.6c-15.5 0-28.9-8.9-35.4-21.9"/>
  <circle cx="-167" cy="288.7" r="11.3" fill="none" stroke="#fff" stroke-linecap="round" stroke-linejoin="round" stroke-miterlimit="10" stroke-width="3"/>
  <path fill="none" stroke="#18ab63" stroke-linecap="round" stroke-linejoin="round" stroke-miterlimit="10" stroke-width="3" d="M-160 254.9l-6.8-5.5 7.7-4.2M-174 323.8l7.2 4.9-7.2 4.8"/>
</svg>