<?xml version="1.0" encoding="utf-8"?>
<!-- Generator: Adobe Illustrator 19.0.0, SVG Export Plug-In . SVG Version: 6.00 Build 0)  -->
<svg version="1.1" id="Layer_1" xmlns="http://www.w3.org/2000/svg" xmlns:xlink="http://www.w3.org/1999/xlink" x="0px" y="0px"
	 viewBox="-939 450 120 120" style="enable-background:new -939 450 120 120;" xml:space="preserve">
<path style="fill:none;stroke:#18ab63;stroke-width:3;stroke-linecap:round;stroke-linejoin:round;stroke-miterlimit:10;" d="
	M-864,559.4h-30.1V548h30.1V559.4z"/>
<path style="fill:none;stroke:#BDC5D1;stroke-width:3;stroke-linecap:round;stroke-linejoin:round;stroke-miterlimit:10;" d="
	M-856.1,566.1v-24.8h-45.8v24.8"/>
<path style="fill:none;stroke:#18ab63;stroke-width:3;stroke-linecap:round;stroke-linejoin:round;stroke-miterlimit:10;" d="
	M-842.7,566.5h-72.6"/>
<path style="opacity:0.5;fill:#BDC5D1;stroke:#BDC5D1;stroke-width:3;stroke-linecap:round;stroke-linejoin:round;stroke-miterlimit:10;enable-background:new    ;" d="
	M-874,472l5.3,10.9l12,1.7l-8.7,8.4l2.1,12l-10.7-5.7l-10.7,5.7l2-12l-8.6-8.4l11.9-1.7L-874,472z"/>
<path style="fill:#18ab63;stroke:#18ab63;stroke-width:3;stroke-linecap:round;stroke-linejoin:round;stroke-miterlimit:10;" d="
	M-879,467.1l5.3,10.8l12,1.8l-8.6,8.4l2,11.9l-10.7-5.6l-10.7,5.6l2-11.9l-8.6-8.4l12-1.8L-879,467.1z"/>
<path style="fill:#FFFFFF;" d="M-879,476.3l2.4,4.8l5.3,0.7l-3.9,3.7l0.9,5.3l-4.7-2.5l-4.7,2.5l0.9-5.3l-3.9-3.7l5.3-0.7
	L-879,476.3z"/>
<path style="fill:none;stroke:#18ab63;stroke-width:3;stroke-linecap:round;stroke-linejoin:round;stroke-miterlimit:10;" d="
	M-897.2,508.9c0.6,1,1.4,2.1,2.3,3.1"/>
<path style="fill:none;stroke:#BDC5D1;stroke-width:3;stroke-linecap:round;stroke-linejoin:round;stroke-miterlimit:10;" d="
	M-885.1,541.2v-1.9c0-5.5-2.6-10.6-7-13.9c-10.9-8.3-22.2-21.8-22.2-43.4v-28.5h69.3l-0.1,28.5c0,18.4-10.8,35.4-21.9,43.5
	c-4.5,3.3-7.2,8.5-7.2,14.1v1.6"/>
<path style="fill:none;stroke:#BDC5D1;stroke-width:3;stroke-linecap:round;stroke-linejoin:round;stroke-miterlimit:10;" d="
	M-908.2,507.4c-20.3,0-29.6-16.8-29.6-37.4v-4.5c0-1.9,1.1-3.5,2.5-3.5h21 M-851.5,507.4c21.7,0,31.3-16.8,31.3-37.4v-4.5
	c0-1.9-1.1-3.5-2.5-3.5h-22"/>
<path style="fill:none;stroke:#18ab63;stroke-width:3;stroke-linecap:round;stroke-linejoin:round;stroke-miterlimit:10;" d="
	M-905.4,482.2c0.3,6.6,1.6,13.2,4.1,19.1"/>
</svg>
