<svg xmlns="http://www.w3.org/2000/svg" viewBox="-939 450 120 120">
  <path fill="none" stroke="#18ab63" stroke-linecap="round" stroke-linejoin="round" stroke-miterlimit="10" stroke-width="3" d="M-932.3 550.8l-5.4 5.4M-929.6 561.2l-2.4 2.3"/>
  <circle cx="-852.8" cy="491.8" r="17.1" fill="#bdc5d1" opacity=".5"/>
  <circle cx="-854.6" cy="486.2" r="17.1" fill="#18ab63"/>
  <path fill="none" stroke="#fff" stroke-linecap="round" stroke-linejoin="round" stroke-miterlimit="10" stroke-width="3" d="M-857.3 475.1c2-.5 4.1-.4 6.1.2M-862.7 494.3c-4.5-4.5-4.5-11.7 0-16.2"/>
  <g fill="none" stroke="#bdc5d1" stroke-linecap="round" stroke-linejoin="round" stroke-miterlimit="10" stroke-width="3">
    <path d="M-896.5 492.2c-9.8-1.6-20.2 1.4-27.8 9-3 3-5.2 6.4-6.8 10 7-1.3 15.1-1.5 23.8-.4 2.8-6.4 6.4-12.7 10.8-18.6zM-878.6 556.4c-.1.5-.6 4-.7 4.4-.1.6-.2 1.3-.3 1.9 3.6-1.6 7.1-3.8 10-6.8 7.6-7.6 10.6-17.9 9-27.8-6 4.4-12.2 8-18.6 10.7.6 4.7.8 9.2.7 13.5"/>
  </g>
  <g fill="none" stroke="#bdc5d1" stroke-linecap="round" stroke-linejoin="round" stroke-miterlimit="10" stroke-width="3">
    <path d="M-886.9 523.8c4.8 4.4 9.9 8 15.4 11.1M-903.3 503c3 5.4 6.7 10.6 11.1 15.4"/>
  </g>
  <path fill="none" stroke="#bdc5d1" stroke-linecap="round" stroke-linejoin="round" stroke-miterlimit="10" stroke-width="3" d="M-905 536.6h0c-1.5-1.5-1.5-3.9 0-5.4l20-20c1.5-1.5 3.9-1.5 5.4 0h0c1.5 1.5 1.5 3.9 0 5.4l-20 20c-1.5 1.5-3.9 1.5-5.4 0z"/>
  <g fill="none" stroke="#bdc5d1" stroke-linecap="round" stroke-linejoin="round" stroke-miterlimit="10" stroke-width="3">
    <path d="M-892.3 529.2c4.1 3.7 8.4 6.9 12.9 9.7 10.9-4.7 21.5-11.8 30.9-21.2 19.3-19.3 29-43.9 28.1-65.8-21.9-.9-46.4 8.8-65.8 28.1-9.4 9.4-16.4 20-21.2 30.9 2.8 4.5 6 8.9 9.7 12.9"/>
    <path d="M-844.2 454.9c2.6 4.3 5.6 8.2 9.2 11.7 3.6 3.6 7.5 6.6 11.7 9.1"/>
  </g>
  <path fill="none" stroke="#18ab63" stroke-linecap="round" stroke-linejoin="round" stroke-miterlimit="10" stroke-width="3" d="M-883.2 543.9c-3.4-2.1-6.8-4.6-10.1-7.4l-3.3 3.3c-3.1 3.1-8.2 3.1-11.3 0h0c-3.1-3.1-3.1-8.2 0-11.3l3.3-3.3c-2.9-3.4-5.5-7-7.8-10.6-2.9 1.6-5.8 3.7-8.4 6.4-7.5 7.5-11 17-9.6 24.1 1.5.3 3.1.4 4.8.3-1.4 4.5-1.7 8.8-.9 12.6 3.8.8 8.2.4 12.6-.9-.1 1.7-.1 3.3.3 4.8 7.1 1.5 16.6-2 24.1-9.6 2.6-2.5 4.7-5.4 6.3-8.4z"/>
  <g fill="none" stroke-linecap="round" stroke-linejoin="round" stroke-miterlimit="10" stroke-width="3">
    <path stroke="#18ab63" d="M-919.6 505l-9.3 9.3"/>
    <path stroke="#bdc5d1" d="M-922.7 515.8l-6.9 6.9M-933.5 518.9l-1.5 1.5"/>
    <path stroke="#18ab63" d="M-873.5 551.2l-14.8 14.9"/>
    <path stroke="#bdc5d1" d="M-884.2 554.3l-7 6.9M-895.8 565.8l-2.3 2.4"/>
  </g>
</svg>