<svg xmlns="http://www.w3.org/2000/svg" viewBox="-899 481 120 120">
  <path fill="#bdc5d1" d="M-786.9 489.4h-89.4c-3.4 0-6.1 2.8-6.1 6.1v23.4c0 3.4 2.8 6.1 6.1 6.1h5.1v10l15.7-10h13.6l10.3 10.3 10.4-10.3h13.6l15.6 10v-10h5.1c3.4 0 6.1-2.8 6.1-6.1v-23.4c0-3.4-2.7-6.1-6.1-6.1z" opacity=".5"/>
  <path fill="#18ab63" d="M-794.3 483.6h-89.4c-3.4 0-6.1 2.8-6.1 6.1v23.4c0 3.4 2.8 6.1 6.1 6.1h5.1v10l15.7-10h13.6l10.3 10.4 10.3-10.3h13.6l15.7 10v-10h5.1c3.4 0 6.1-2.8 6.1-6.1v-23.5c0-3.3-2.7-6.1-6.1-6.1z"/>
  <g fill="none" stroke-linecap="round" stroke-linejoin="round" stroke-miterlimit="10" stroke-width="3">
    <path stroke="#bdc5d1" d="M-792.6 557.8c.4-1.2.6-2.6.6-3.9 0-6.6-4.7-11.5-10.5-11.5s-10.5 4.9-10.5 11.5c0 1.4.2 2.7.6 3.9-.8.5-1.4 1.5-1.4 2.6 0 1.4.9 2.6 2.2 3 1.5 4.5 5 7.7 9.1 7.7s7.6-3.2 9.1-7.7c1.3-.4 2.2-1.5 2.2-3-.1-1.1-.6-2-1.4-2.6z"/>
    <path stroke="#bdc5d1" d="M-797.4 552l-.5-2.6s-1.1 0-2.9 1.6c-3.7 3.4-7.9.7-7.9.7M-793.4 576.9l10 4.2c1.9.9 2.6 2.8 2.6 4.7v7.2"/>
    <path stroke="#18ab63" d="M-802.4 578.4l3.8 4.4 5.2-5.7-2.2-3.9"/>
    <path stroke="#bdc5d1" d="M-811.5 576.9l-9.8 4c-.6.4-1.1.9-1.6 1.5-.7.9-1 2-1 3.2v7.4"/>
    <path stroke="#18ab63" d="M-802.4 578.4l-3.9 4.4-5.2-5.7 2.2-3.9"/>
    <path stroke="#18ab63" d="M-795.6 573.2l-6.8 5.2M-809.3 573.2l6.9 5.2"/>
    <path stroke="#bdc5d1" d="M-780.8 593c-6.1 3.4-13.5 5.4-21.5 5.4s-15.4-2-21.5-5.4"/>
  </g>
  <g fill="none" stroke-linecap="round" stroke-linejoin="round" stroke-miterlimit="10" stroke-width="3">
    <path stroke="#bdc5d1" d="M-829.3 551.2c.4-1.2.6-2.6.6-3.9 0-6.6-4.7-11.5-10.5-11.5s-10.5 4.9-10.5 11.5c0 1.4.2 2.7.6 3.9-.8.5-1.4 1.5-1.4 2.6 0 1.4.9 2.6 2.2 3 1.5 4.5 5 7.7 9.1 7.7s7.6-3.2 9.1-7.7c1.3-.4 2.2-1.5 2.2-3 0-1.1-.6-2.1-1.4-2.6z"/>
    <path stroke="#bdc5d1" d="M-834 545.4l-.5-2.6s-1.1 0-2.9 1.6c-3.7 3.4-7.9.7-7.9.7M-830.1 570.3l10 4.2c1.9.9 2.6 2.8 2.6 4.7"/>
    <path stroke="#18ab63" d="M-839.1 571.8l3.9 4.3 5.2-5.6-2.3-3.9"/>
    <path stroke="#bdc5d1" d="M-848.1 570.3l-9.8 4c-.6.4-1.1.9-1.6 1.5-.7.9-1 2-1 3.2"/>
    <path stroke="#18ab63" d="M-839.1 571.8l-3.9 4.3-5.2-5.6 2.3-3.9"/>
    <path stroke="#18ab63" d="M-832.3 566.6l-6.8 5.2M-845.9 566.6l6.8 5.2"/>
    <path stroke="#bdc5d1" d="M-823.8 589.2c-4.6 1.6-9.8 2.5-15.2 2.5-5.5 0-10.6-.9-15.3-2.6"/>
  </g>
  <g fill="none" stroke-linecap="round" stroke-linejoin="round" stroke-miterlimit="10" stroke-width="3">
    <path stroke="#bdc5d1" d="M-866 557.8c.4-1.2.6-2.6.6-3.9 0-6.6-4.7-11.5-10.5-11.5s-10.5 4.9-10.5 11.5c0 1.4.2 2.7.6 3.9-.8.5-1.4 1.5-1.4 2.6 0 1.4.9 2.6 2.2 3 1.5 4.5 5 7.7 9.1 7.7s7.6-3.2 9.1-7.7c1.3-.4 2.2-1.5 2.2-3 0-1.1-.6-2-1.4-2.6z"/>
    <path stroke="#bdc5d1" d="M-870.7 552l-.5-2.6s-1.1 0-2.9 1.6c-3.7 3.4-7.9.7-7.9.7M-866.8 576.9l10 4.2c1.9.9 2.6 2.8 2.6 4.7v7.2"/>
    <path stroke="#18ab63" d="M-875.8 578.4l3.9 4.4 5.2-5.7-2.2-3.9"/>
    <path stroke="#bdc5d1" d="M-884.8 576.9l-9.8 4c-.6.4-1.1.9-1.6 1.5-.7.9-1 2-1 3.2v7.4"/>
    <path stroke="#18ab63" d="M-875.8 578.4l-3.8 4.4-5.2-5.7 2.2-3.9M-868.9 573.2l-6.9 5.2M-882.6 573.2l6.8 5.2"/>
    <path stroke="#bdc5d1" d="M-854.2 593c-6.1 3.4-13.5 5.4-21.5 5.4s-15.4-2-21.5-5.4"/>
  </g>
  <path fill="none" stroke="#fff" stroke-linecap="round" stroke-linejoin="round" stroke-miterlimit="10" stroke-width="3" d="M-838.6 490.1l-11.2 16.7h10.3l-1.4 11.2 12.7-17h-11.3z"/>
  <g fill="none" stroke="#fff" stroke-linecap="round" stroke-linejoin="round" stroke-miterlimit="10" stroke-width="3" opacity=".5">
    <path d="M-817.4 495.6h15.1M-817.4 502.2h15.1M-817.4 508.8h6.2"/>
    <g>
      <path d="M-875.7 495.6h15.1M-875.7 502.2h15.1M-875.7 508.8h6.2"/>
    </g>
  </g>
</svg>