<svg xmlns="http://www.w3.org/2000/svg" viewBox="-227 229 120 120">
  <g fill="none" stroke="#18ab63" stroke-linecap="round" stroke-linejoin="round" stroke-miterlimit="10" stroke-width="3">
    <path d="M-159.3 296.4c1.3 1.7 3.3 2.8 5.6 2.8 3.8 0 6.9-3.1 6.9-6.9 0-3.8-3.1-6.9-6.9-6.9h-.1c-3 0-5.3-2.4-5.3-5.3 0-3 2.4-5.3 5.3-5.3 1.8 0 3.3.9 4.3 2.2M-153.8 274.7v-3M-153.8 302.2v-3"/>
  </g>
  <g fill="none" stroke="#bdc5d1" stroke-linecap="round" stroke-linejoin="round" stroke-miterlimit="10" stroke-width="3">
    <path d="M-161.7 252.3v-8.2M-144.3 244.1v8.2"/>
  </g>
  <path fill="#18ab63" d="M-167.9 229.9h29.8c.8 0 1.3.8 1 1.5l-5.7 11.9c-.2.4-.6.6-1 .6h-18.4c-.4 0-.8-.2-1-.6l-5.7-11.9c-.3-.7.2-1.5 1-1.5z"/>
  <path fill="none" stroke="#bdc5d1" stroke-linecap="round" stroke-linejoin="round" stroke-miterlimit="10" stroke-width="3" d="M-125.5 317.3c1.3-2.2 2.1-4.7 2.1-7.5v-29.2c0-13.3-8.8-24.6-20.9-28.3h-17.4c-12.1 3.7-20.9 15-20.9 28.3v24.7"/>
  <g fill="none" stroke="#fff" stroke-linecap="round" stroke-linejoin="round" stroke-miterlimit="10" stroke-width="3">
    <path d="M-150.1 240.7l2.4-6.3M-155.9 240.7l-2.5-6.3"/>
  </g>
  <g fill="none" stroke="#bdc5d1" stroke-linecap="round" stroke-linejoin="round" stroke-miterlimit="10" stroke-width="3">
    <path d="M-140.1 288.3h1.8M-167.7 288.3h1.7"/>
  </g>
  <path fill="#bdc5d1" d="M-136.3 322.8l21.3-5.8c2.6-.7 5.3.7 6.2 3.3.7 2.3-.2 5.1-2.6 6.2l-41.3 20.7c-4.6 2.2-9.9 2.5-14.4.5l-22.9-9.8h-10.3c-.7 0-1.3-.6-1.3-1.3v-8l65.3-5.8z" opacity=".5"/>
  <path fill="#fff" stroke="#bdc5d1" stroke-linecap="round" stroke-linejoin="round" stroke-miterlimit="10" stroke-width="3" d="M-149.2 315.3l34.3-7.1c2.6-.7 5.3.7 6.2 3.3h0c.7 2.3-.2 5.1-2.6 6.2l-41.3 20.7c-4.6 2.2-9.9 2.5-14.4.5l-23-9.8h-11.5"/>
  <path fill="#fff" stroke="#bdc5d1" stroke-linecap="round" stroke-linejoin="round" stroke-miterlimit="10" stroke-width="3" d="M-201.7 296.5h11.6l24.4 7.5h14.3c3.3 0 6 2.7 6 6h0c0 3.1-2.5 5.5-5.5 5.5h-14.8c-3.2 0-5.8 2.6-5.8 5.8h0"/>
  <path fill="#18ab63" d="M-225.1 333.2h21.7c1 0 1.7-.7 1.7-1.7v-37.4c0-1-.7-1.7-1.7-1.7h-21.7c-1 0-1.7.7-1.7 1.7v37.3c0 .9.7 1.8 1.7 1.8z"/>
  <path fill="none" stroke="#fff" stroke-linecap="round" stroke-linejoin="round" stroke-miterlimit="10" stroke-width="3" d="M-213.2 307.8v3.8"/>
</svg>