<svg xmlns="http://www.w3.org/2000/svg" viewBox="-939 450 120 120">
  <path fill="none" stroke="#bdc5d1" stroke-linecap="round" stroke-linejoin="round" stroke-miterlimit="10" stroke-width="3" d="M-841.2 487.8h12m-12 7.9h12m-12 8h12m-26.1 45.8V539m6.5 10.5v-12.9m6.6 12.9V539m13 10.5V528m-6.5 21.5v-17.1" opacity=".5"/>
  <path fill="none" stroke="#bdc5d1" stroke-linecap="round" stroke-linejoin="round" stroke-miterlimit="10" stroke-width="3" d="M-835.4 476.5h14.5l-14.5-14.5v14.5zm0-14.5h-34m48.5 14.5v82.7h-36.6"/>
  <path fill="#18ab63" d="M-901.6 484.3s.5 14.5-17.9 14.4l-7.5 6.6h-5.4l-5.9-4.7v-6.7l13.7-14.9-3.4-2.5 7.5-9.1s2.8-1.8 7.1-3.3c.2-2.2.5-11.5.5-11.5s6.2 7 8.7 9.7c6.4-.4 14 1.2 21.3 7.3 18 15 10.8 35.4 8.9 39.5s-10.5 20.7-10.6 29.1h-37.8s-1.7-17.9 6.5-25c10.1-8.7 15.5-14.5 11.9-20.9"/>
  <path fill="none" stroke="#18ab63" stroke-linecap="round" stroke-linejoin="round" stroke-miterlimit="10" stroke-width="3" d="M-903.9 454.2c8-.4 17.5 1.4 26.6 9 22.4 18.8 13.3 44.1 11.1 49.2-2.9 6.6-8.9 20-10 25.8"/>
  <path fill="none" stroke="#bdc5d1" stroke-linecap="round" stroke-linejoin="round" stroke-miterlimit="10" stroke-width="3" d="M-873.7 548.5h-51.5c-1.5 0-2.7-1.2-2.7-2.7s1.2-2.7 2.7-2.7h51.5c1.5 0 2.7 1.2 2.7 2.7s-1.2 2.7-2.7 2.7zm9.8 17.6v-1.3c0-6.2-5.1-11.3-11.3-11.3h-48.5c-6.2 0-11.3 5.1-11.3 11.3v1.3h71.1z"/>
  <path fill="none" stroke="#18ab63" stroke-linecap="round" stroke-linejoin="round" stroke-miterlimit="10" stroke-width="3" d="M-918.4 457.4l-7.3 3.9 1.8 3.3"/>
  <path fill="none" stroke="#fff" stroke-linecap="round" stroke-linejoin="round" stroke-miterlimit="10" stroke-width="3" d="M-919.1 477.5l6-1.8-4.6 4.4"/>
  <path fill="none" stroke="#18ab63" stroke-linecap="round" stroke-linejoin="round" stroke-miterlimit="10" stroke-width="3" d="M-855.3 484.7h5.9v5.9h-5.9v-5.9zm-8.6 51.9l13.3-10.3 4.7 4 18.7-12.1"/>
</svg>