<svg xmlns="http://www.w3.org/2000/svg" viewBox="-939 450 120 120">
  <circle cx="-867" cy="499.3" r="31.4" fill="#bdc5d1" opacity=".5"/>
  <path fill="none" stroke="#bdc5d1" stroke-linecap="round" stroke-linejoin="round" stroke-miterlimit="10" stroke-width="3" d="M-851.8 538.7l-9.3-9.2"/>
  <circle cx="-880.5" cy="504.7" r="31.4" fill="#18ab63"/>
  <path fill="none" stroke="#fff" stroke-linecap="round" stroke-linejoin="round" stroke-miterlimit="10" stroke-width="3" d="M-858.7 491.6c2.5 4.2 3.7 9.1 3.5 13.9-.2 6.2-2.7 12.3-7.5 17-9.9 9.9-26 9.9-36 0-9.9-9.9-9.9-26 0-36 9.9-9.9 26-9.9 36 0"/>
  <path fill="none" stroke="#bdc5d1" stroke-linecap="round" stroke-linejoin="round" stroke-miterlimit="10" stroke-width="3" d="M-853 527.6l6.2 6.2m23.7 28.7c-2.6 2.6-6.9 2.6-9.5 0l-21.5-21.4 9.5-9.5 21.5 21.5c2.6 2.5 2.6 6.8 0 9.4z"/>
  <path fill="none" stroke="#fff" stroke-linecap="round" stroke-linejoin="round" stroke-miterlimit="10" stroke-width="3" d="M-884.5 487.9s-10.6.6-12.6 11.4"/>
  <path fill="none" stroke="#bdc5d1" stroke-linecap="round" stroke-linejoin="round" stroke-miterlimit="10" stroke-width="3" d="M-902.4 533H-932c-2.6 0-4.8-2.1-4.8-4.8v-67.4c0-2.6 2.1-4.8 4.8-4.8h103.2c2.6 0 4.8 2.1 4.8 4.8v67.4c0 2.6-2.1 4.8-4.8 4.8h-8.2"/>
  <circle cx="-903.8" cy="466" r="3.1" fill="none" stroke="#bdc5d1" stroke-linecap="round" stroke-linejoin="round" stroke-miterlimit="10" stroke-width="3" opacity=".5"/>
  <circle cx="-915.4" cy="466" r="3.1" fill="none" stroke="#bdc5d1" stroke-linecap="round" stroke-linejoin="round" stroke-miterlimit="10" stroke-width="3" opacity=".5"/>
  <circle cx="-927" cy="466" r="3.1" fill="none" stroke="#18ab63" stroke-linecap="round" stroke-linejoin="round" stroke-miterlimit="10" stroke-width="3"/>
</svg>