<svg xmlns="http://www.w3.org/2000/svg" viewBox="-939 450 120 120">
  <path fill="none" stroke="#bdc5d1" stroke-linecap="round" stroke-linejoin="round" stroke-miterlimit="10" stroke-width="3" d="M-867.7 528.1h26.3l3 7.2h-32.4l3.1-7.2z"/>
  <path fill="none" stroke="#bdc5d1" stroke-linecap="round" stroke-linejoin="round" stroke-miterlimit="10" stroke-width="3" d="M-847 468.4h12.1c3.1 0 5.5 2.5 5.5 5.5v64.2m-59.2 8.6h-43.3c-3.1 0-5.5-2.5-5.5-5.5v-67.3c0-3.1 2.5-5.5 5.5-5.5h38.3m-43.9 61.4h64.7m35.8 0h7m-67 16.9l-3.2 15.2m11.6 0h-22.6" opacity=".5"/>
  <path fill="none" stroke="#bdc5d1" stroke-linecap="round" stroke-linejoin="round" stroke-miterlimit="10" stroke-width="3" d="M-896.5 495.3c.4-1.3.6-2.7.6-4.2 0-6.9-5-12-11.1-12s-11 5.2-11 12.1c0 1.5.2 2.9.6 4.2-.9.6-1.4 1.6-1.4 2.7 0 1.5 1 2.7 2.3 3.1 1.6 4.7 5.3 8.1 9.6 8.1s8-3.3 9.6-8.1c1.3-.5 2.3-1.7 2.3-3.2 0-1.1-.6-2.1-1.5-2.7z"/>
  <path fill="none" stroke="#bdc5d1" stroke-linecap="round" stroke-linejoin="round" stroke-miterlimit="10" stroke-width="3" d="M-899.2 490.6c-.3-1.3-1.2-1.3-2.3-1.3-.4 0-.6-2.9-.6-2.9s-1.2 0-3.2 1.8c-4.2 3.7-8.8.8-8.8.8m16.8 25.1l10.5 4.4c1.9 1 2.7 2.9 2.7 4.9v6"/>
  <path fill="none" stroke="#18ab63" stroke-linecap="round" stroke-linejoin="round" stroke-miterlimit="10" stroke-width="3" d="M-906.8 515.6l4.1 4.6 5.5-5.9-2.4-4.1"/>
  <path fill="none" stroke="#bdc5d1" stroke-linecap="round" stroke-linejoin="round" stroke-miterlimit="10" stroke-width="3" d="M-916.3 514.1l-10.3 4.2c-.7.4-1.2.9-1.6 1.5-.7 1-1.1 2.1-1.1 3.4v6.2"/>
  <path fill="none" stroke="#18ab63" stroke-linecap="round" stroke-linejoin="round" stroke-miterlimit="10" stroke-width="3" d="M-906.8 515.6l-4 4.6-5.5-5.9 2.3-4.1m14.4 0l-7.2 5.4m-7.2-5.4l7.2 5.4"/>
  <path fill="none" stroke="#bdc5d1" stroke-linecap="round" stroke-linejoin="round" stroke-miterlimit="10" stroke-width="3" d="M-875.9 559.8v8.2m43.6-8.2v8.2M-848.7 528.1V526c3.7-2 6.6-5.8 8.2-10.5 2-.6 3.5-2.4 3.5-4.7 0-1.7-.9-3.2-2.1-4.1.6-2 1-4.1 1-6.2 0-10.4-7.5-18.1-16.7-18.1s-16.7 7.8-16.7 18.1c0 2.2.3 4.3 1 6.2-1.3.9-2.1 2.4-2.1 4.1 0 2.2 1.5 4.1 3.5 4.7 1.6 4.7 4.5 8.5 8.2 10.5v2.1m40.4 39.9v-20.4c0-3-1.2-5.9-4.1-7.4l-13.7-5v.1m-32.3-.4l-13.9 5c-1 .6-1.8 1.4-2.5 2.3-1 1.5-1.6 3.2-1.6 5.1V568"/>
  <path fill="none" stroke="#bdc5d1" stroke-linecap="round" stroke-linejoin="round" stroke-miterlimit="10" stroke-width="3" d="M-841.7 550.2l-11.4 11.4m10.1-3.1l-3.8 3.8" opacity=".5"/>
  <path fill="none" stroke="#bdc5d1" stroke-linecap="round" stroke-linejoin="round" stroke-miterlimit="10" stroke-width="3" d="M-839.1 506.8c-1.2 3.5-4.8 6.7-7 8.4-.3.2-2.4-2.5-2.4-2.5s-1.3 4.8-2 5c-6.4 2.4-14.3-.6-20.1-11"/>
  <path fill="#bdc5d1" d="M-851.8 457.5h-38c-2.4 0-4.3 1.9-4.3 4.3v14.3c0 2.4 1.9 4.3 4.3 4.3h3.6v7l11.1-7h23.3c2.4 0 4.3-1.9 4.3-4.3v-14.3c0-2.4-1.9-4.3-4.3-4.3z" opacity=".5"/>
  <path fill="#18ab63" d="M-857.6 452h-38c-2.4 0-4.3 1.9-4.3 4.3v14.3c0 2.4 1.9 4.3 4.3 4.3h3.6v7l11.1-7h23.3c2.4 0 4.3-1.9 4.3-4.3v-14.3c0-2.4-1.9-4.3-4.3-4.3z"/>
  <path fill="none" stroke="#fff" stroke-linecap="round" stroke-linejoin="round" stroke-miterlimit="10" stroke-width="3" d="M-865.1 460.3h-23m5.3 6.2h-5.3"/>
</svg>
