<?xml version="1.0" encoding="utf-8"?>
<!-- Generator: Adobe Illustrator 19.0.0, SVG Export Plug-In . SVG Version: 6.00 Build 0)  -->
<svg version="1.1" id="Layer_1" xmlns="http://www.w3.org/2000/svg" xmlns:xlink="http://www.w3.org/1999/xlink" x="0px" y="0px"
	 viewBox="-939 450 120 120" style="enable-background:new -939 450 120 120;" xml:space="preserve">
<path style="fill:none;stroke:#18ab63;stroke-width:3;stroke-linecap:round;stroke-linejoin:round;stroke-miterlimit:10;" d="
	M-850.9,560.7h19.3"/>
<path style="opacity:0.3;fill:#BDC5D1;enable-background:new    ;" d="M-914.4,506.6h93.1c0.8,0,1.5,0.7,1.5,1.5v60.1
	c0,0.8-0.7,1.5-1.5,1.5h-91.6c-0.8,0-1.5-0.7-1.5-1.5V506.6"/>
<path style="fill:#FFFFFF;stroke:#BDC5D1;stroke-width:3;stroke-linecap:round;stroke-linejoin:round;stroke-miterlimit:10;" d="
	M-831.3,505.3v63.1h-94.5v-63.1"/>
<path style="opacity:0.5;fill:#BDC5D1;enable-background:new    ;" d="M-898.2,505.4v35.2l3-3c1-1,2.5-1,3.5,0l0.9,1
	c1.1,1.2,2.8,1,3.8-0.3c1-1.4,2.7-1.5,3.8-0.3l2.7,2.7v-35.3"/>
<path style="fill:#18ab63;stroke:#18ab63;stroke-width:3;stroke-linecap:round;stroke-linejoin:round;stroke-miterlimit:10;" d="
	M-904.9,505.4v28.1l3-2.4c1-0.8,2.5-0.8,3.5,0l0.9,0.8c1.1,0.9,2.8,0.8,3.8-0.3l0,0c1-1.1,2.7-1.2,3.8-0.3l2.7,2.2v-28.1"/>
<path style="fill:none;stroke:#18ab63;stroke-width:3;stroke-linecap:round;stroke-linejoin:round;stroke-miterlimit:10;" d="
	M-886.8,555.5h-18.4 M-886.8,549.5h-5.9 M-897.5,549.5h-7.7"/>
<path style="fill:none;stroke:#FFFFFF;stroke-width:3;stroke-linecap:round;stroke-linejoin:round;stroke-miterlimit:10;" d="
	M-900.4,505.4v16.3"/>
<path style="fill:none;stroke:#BDC5D1;stroke-width:3;stroke-linecap:round;stroke-linejoin:round;stroke-miterlimit:10;" d="
	M-863.7,505.3v42.2 M-863.7,556.1v12.3 M-873.1,505.3h-52.7l-10.8-23.1h62l10.8,23.1h19.3 M-855.2,486.6h-17.3 M-878.6,488.2h-46.9
	 M-823.2,488.2h-25.7"/>
<path style="fill:none;stroke:#18ab63;stroke-width:3;stroke-linecap:round;stroke-linejoin:round;stroke-miterlimit:10;" d="
	M-838,481.7c0-1.3,0.2-2.5,0.5-3.7"/>
<path style="fill:none;stroke:#BDC5D1;stroke-width:3;stroke-linecap:round;stroke-linejoin:round;stroke-miterlimit:10;" d="
	M-839.1,505.3h7.7l10.8-23.1h-32.3l-10.8,23.1"/>
<path style="fill:none;stroke:#18ab63;stroke-width:3;stroke-linecap:round;stroke-linejoin:round;stroke-miterlimit:10;" d="
	M-931.4,456.6c-2-0.3-4-0.4-6.1-0.4 M-910.4,475.9c-1-6.8-5.7-13-11.7-16.3 M-833.7,469.6c2.4-2.7,5.9-4,9.5-4"/>
<path style="opacity:0.5;fill:#BDC5D1;enable-background:new    ;" d="M-868.9,477v-4.2c3.1-1.9,5.1-5.3,5.1-9.1
	c0-6-4.8-10.8-10.8-10.8s-10.8,4.9-10.8,10.8c0,3.9,2,7.2,5.1,9.1v4.2"/>
<path style="fill:#18ab63;" d="M-872.9,474.4v-4.2c3.1-1.9,5.1-5.3,5.1-9.1c0-6-4.8-10.8-10.8-10.8s-10.7,4.8-10.7,10.8
	c0,3.9,2,7.2,5.1,9.1v4.2"/>
<path style="fill:#FFFFFF;" d="M-876.5,465.6V464c1.1-0.7,1.9-1.9,1.9-3.4c0-2.2-1.8-4-4-4c-2.2,0-4,1.8-4,4c0,1.4,0.8,2.7,1.9,3.4
	v1.5"/>
</svg>
