<?xml version="1.0" encoding="utf-8"?>
<!-- Generator: Adobe Illustrator 19.0.0, SVG Export Plug-In . SVG Version: 6.00 Build 0)  -->
<svg version="1.1" id="Layer_1" xmlns="http://www.w3.org/2000/svg" xmlns:xlink="http://www.w3.org/1999/xlink" x="0px" y="0px"
	 viewBox="-939 450 120 120" style="enable-background:new -939 450 120 120;" xml:space="preserve">
<path style="fill:none;stroke:#18ab63;stroke-width:3;stroke-linecap:round;stroke-linejoin:round;stroke-miterlimit:10;" d="
	M-834.3,543.2c-2,3-4.4,5.8-6.9,8.4"/>
<path style="opacity:0.5;fill:none;stroke:#BDC5D1;stroke-width:3;stroke-linecap:round;stroke-linejoin:round;stroke-miterlimit:10;enable-background:new    ;" d="
	M-897.5,456.8c2.1-0.6,4.3-1.1,6.5-1.5 M-922.8,472.2c3.8-3.9,8.1-7.3,12.8-10.1 M-930.7,482.7c0.8-1.4,1.7-2.8,2.6-4.1"/>
<path style="fill:none;stroke:#18ab63;stroke-width:3;stroke-linecap:round;stroke-linejoin:round;stroke-miterlimit:10;" d="
	M-881.6,568.4c-9.8,0-19.1-2.5-27.1-6.9 M-856.6,562.6c-1.9,0.9-3.8,1.7-5.8,2.5"/>
<path style="fill:none;stroke:#BDC5D1;stroke-width:3;stroke-linecap:round;stroke-linejoin:round;stroke-miterlimit:10;" d="
	M-894.4,496.9h32.1 M-924.9,496.9h23.2 M-924.9,526h60.8 M-848.8,526h10.6 M-881.6,465.4v92.1 M-868,467.4c-4.3-1.3-8.8-2-13.6-2
	c-25.4,0-46.1,20.6-46.1,46c0,25.5,20.6,46.1,46.1,46.1s46.1-20.6,46.1-46.1c0-5.3-0.9-10.4-2.6-15.2"/>
<path style="fill:none;stroke:#BDC5D1;stroke-width:3;stroke-linecap:round;stroke-linejoin:round;stroke-miterlimit:10;" d="
	M-868.6,471.6c-1.3-1.4-2.8-2.6-4.3-3.5c-2.7-1.7-5.7-2.7-8.7-2.7c-14.3,0-25.9,20.6-25.9,46.1s11.6,46.1,25.9,46.1
	c14.3,0,25.9-20.6,25.9-46.1c0-4.7-0.4-9.3-1.2-13.6"/>
<path style="opacity:0.5;fill:#BDC5D1;enable-background:new    ;" d="M-841.8,459.3c-11.5,0-20.7,9.3-20.7,20.7
	c0,6.1,7.2,19.7,19,36c0.4,0.6,1,0.8,1.7,0.8s1.3-0.3,1.7-0.8c11.8-16.1,19-29.7,19-36C-821.1,468.6-830.4,459.3-841.8,459.3z"/>
<path style="fill:#18ab63;" d="M-847.9,451.6c-11.5,0-20.7,9.3-20.7,20.7c0,6.1,7.2,19.7,19,36c0.4,0.6,1,0.8,1.7,0.8
	c0.7,0,1.3-0.3,1.7-0.8c11.8-16.1,19-29.7,19-36C-827.3,461-836.6,451.6-847.9,451.6z"/>
<circle style="fill:none;stroke:#FFFFFF;stroke-width:3;stroke-linecap:round;stroke-linejoin:round;stroke-miterlimit:10;" cx="-847.9" cy="472.4" r="9.6"/>
</svg>
