<svg xmlns="http://www.w3.org/2000/svg" viewBox="-899 481 120 120">
  <path fill="none" stroke="#bdc5d1" stroke-linecap="round" stroke-linejoin="round" stroke-miterlimit="10" stroke-width="3" d="M-893.1 569.9c-5.3-3-5.3-8 0-11l44.4-25.7c5.3-3 13.8-3 19.1 0l44.5 25.7c5.3 3 5.3 8 0 11l-44.4 25.7c-5.3 3-13.8 3-19.1 0l-44.5-25.7z"/>
  <path fill="#bdc5d1" d="M-894.3 546.6c-5.4-3.1-5.4-8.2 0-11.3l45.5-26.2c5.4-3.1 14.2-3.1 19.5 0l45.5 26.2c5.4 3.1 5.4 8.2 0 11.3l-45.4 26.2c-5.4 3.1-14.2 3.1-19.5 0l-45.6-26.2z" opacity=".5"/>
  <path fill="#18ab63" d="M-894.3 524c-5.4-3.1-5.4-8.2 0-11.3l45.5-26.2c5.4-3.1 14.2-3.1 19.5 0l45.5 26.2c5.4 3.1 5.4 8.2 0 11.3l-45.4 26.3c-5.4 3.1-14.2 3.1-19.5 0l-45.6-26.3z"/>
</svg>