<svg xmlns="http://www.w3.org/2000/svg" viewBox="0 0 120 120">
  <style>
    .icon-58-1{fill:#bdc5d1}.icon-58-2{fill:#fff;stroke:#18ab63}.icon-58-3{fill:#18ab63}.icon-58-4{fill:#fff}.icon-58-5{fill:#fff;stroke:#bdc5d1}
  </style>
  <circle cx="91.5" cy="65.4" r="17.1" stroke-miterlimit="10" stroke-width="2.5" class="icon-58-1 fill-gray-400" opacity=".5"/>
  <circle cx="87.4" cy="61.3" r="18" stroke-miterlimit="10" stroke-width="3" class="icon-58-2 fill-white stroke-primary"/>
  <circle cx="87.4" cy="61.3" r="12.9" class="icon-58-3 fill-primary"/>
  <path d="M84.5 53.3l-3 13.3h10.2l.9-2.6h-7.3l2.5-10.7z" class="icon-58-4 fill-white"/>
  <path d="M80.8 61.2l8.1-3.4-.7 2.4-8 3.5z" class="icon-58-4 fill-white"/>
  <path d="M54.1 72.1H12c-1.9 0-3.2-1.8-2.7-3.6l3.2-11.1c1.9-6.5 7.9-11 14.7-11H39c6.8 0 12.8 4.5 14.6 11l3.2 11.1c.5 1.8-.8 3.6-2.7 3.6z" class="icon-58-1 fill-gray-400" opacity=".5"/>
  <path stroke-miterlimit="10" stroke-width="3" d="M46.7 66.3H4.6c-1.9 0-3.2-1.8-2.7-3.6l3.2-11.1c1.9-6.5 7.9-11 14.7-11h11.8c6.8 0 12.8 4.5 14.6 11l3.2 11.1c.5 1.9-.8 3.6-2.7 3.6z" class="icon-58-5 fill-white stroke-gray-400"/>
  <path d="M117.1 120H74.3c-1.9 0-3.3-1.8-2.7-3.6l3.2-11.1c1.9-6.7 8-11.3 15-11.3h12c6.9 0 13 4.6 15 11.3l3.2 11.1c.4 1.8-1 3.6-2.9 3.6z" class="icon-58-1 fill-gray-400" opacity=".5"/>
  <path stroke-miterlimit="10" stroke-width="3" d="M109.5 114.4H66.7c-1.9 0-3.3-1.8-2.7-3.6l3.2-11.1c1.9-6.7 8-11.3 15-11.3h12c6.9 0 13 4.6 15 11.3l3.2 11.1c.4 1.8-1 3.6-2.9 3.6z" class="icon-58-5 fill-white stroke-gray-400"/>
  <path d="M47 112.6h-1.5c-.6 0-1.1-.5-1.1-1.1 0-.6.5-1.1 1.1-1.1H47c.6 0 1.1.5 1.1 1.1 0 .6-.5 1.1-1.1 1.1zm-6.8 0h-1.5c-.6 0-1.1-.5-1.1-1.1 0-.6.5-1.1 1.1-1.1h1.5c.6 0 1.1.5 1.1 1.1 0 .6-.5 1.1-1.1 1.1zm-7.6 0h-1.5c-.6 0-1.1-.5-1.1-1.1 0-.6.5-1.1 1.1-1.1h1.5c.6 0 1.1.5 1.1 1.1.1.6-.5 1.1-1.1 1.1zm-7.6 0h-1.5c-.6 0-1.1-.5-1.1-1.1 0-.6.5-1.1 1.1-1.1H25c.6 0 1.1.5 1.1 1.1.1.6-.4 1.1-1.1 1.1zm-5.3-1.4c-.6 0-1.1-.5-1.1-1.1v-1.5c0-.6.5-1.1 1.1-1.1.6 0 1.1.5 1.1 1.1v1.5c0 .5-.5 1.1-1.1 1.1zm0-7.6c-.6 0-1.1-.5-1.1-1.1V101c0-.6.5-1.1 1.1-1.1.6 0 1.1.5 1.1 1.1v1.5c0 .6-.5 1.1-1.1 1.1zm0-7.6c-.6 0-1.1-.5-1.1-1.1v-1.5c0-.6.5-1.1 1.1-1.1.6 0 1.1.5 1.1 1.1v1.5c0 .6-.5 1.1-1.1 1.1zM99.4 18.9c-.6 0-1.2-.5-1.2-1.2v-1.6c0-.6.5-1.2 1.2-1.2.6 0 1.2.5 1.2 1.2v1.6c0 .7-.5 1.2-1.2 1.2zm0-7c-.6 0-1.2-.5-1.2-1.2V9.1c0-.6.5-1.2 1.2-1.2.6 0 1.2.5 1.2 1.2v1.6c0 .7-.5 1.2-1.2 1.2zM96 7.5h-1.6c-.6 0-1.2-.5-1.2-1.2 0-.6.5-1.2 1.2-1.2H96c.6 0 1.2.5 1.2 1.2s-.6 1.2-1.2 1.2zm-7.8 0h-1.6c-.6 0-1.2-.5-1.2-1.2 0-.6.5-1.2 1.2-1.2h1.6c.6 0 1.2.5 1.2 1.2-.1.7-.6 1.2-1.2 1.2zm-7.1 0h-1.6c-.6 0-1.2-.5-1.2-1.2 0-.6.5-1.2 1.2-1.2h1.6c.6 0 1.2.5 1.2 1.2s-.5 1.2-1.2 1.2zm-7.8 0h-1.6c-.6 0-1.2-.5-1.2-1.2 0-.6.5-1.2 1.2-1.2h1.6c.6 0 1.2.5 1.2 1.2s-.6 1.2-1.2 1.2zm-7.8 0h-1.6c-.6 0-1.2-.5-1.2-1.2 0-.6.5-1.2 1.2-1.2h1.6c.6 0 1.2.5 1.2 1.2-.1.7-.6 1.2-1.2 1.2z" class="icon-58-3 fill-primary"/>
  <path d="M23.8 94.6L20.7 90c-.5-.7-1.5-.7-1.9 0l-2.9 4.5c-.3.5-1 .7-1.6.3-.5-.3-.7-1-.3-1.6l4.8-7.4c.4-.7 1.4-.7 1.9 0l5 7.4c.4.5.2 1.2-.3 1.6-.6.5-1.3.3-1.6-.2zM98.3 26.6L93.1 19c-.4-.5-.2-1.3.3-1.6.5-.4 1.3-.2 1.6.3l3.2 4.7c.5.7 1.5.7 2 0l3-4.7c.4-.5 1.1-.7 1.6-.3.5.4.7 1.1.3 1.6l-5 7.6c-.3.6-1.3.6-1.8 0z" class="icon-58-3 fill-primary"/>
  <circle cx="28.1" cy="20.9" r="15.2" stroke-miterlimit="10" stroke-width="2.5" class="icon-58-1 fill-gray-400" opacity=".5"/>
  <circle cx="24.4" cy="17.2" r="16" stroke-miterlimit="10" stroke-width="3" class="icon-58-2 fill-white stroke-primary"/>
  <circle cx="24.4" cy="17.2" r="11.5" class="icon-58-3 fill-primary"/>
  <path d="M28.5 15.3c0-1.1-.7-2.2-1.7-2.6v-1.9H25v1.7h-1.1v-1.7h-1.7v1.7h-1.8v1.7h1.2v5.7h-1.2v1.7H22v1.6h1.7v-1.7H25v1.6h1.7v-1.9c1-.4 1.7-1.4 1.7-2.6 0-.7-.3-1.4-.7-1.9.5 0 .8-.7.8-1.4zm-2.8-1c.6 0 1.1.6 1 1.2-.1.5-.6.8-1 .8h-2.5v-2h2.5zm0 5.8h-2.5v-2h2.5c.6 0 1.1.6 1 1.2 0 .4-.5.8-1 .8z" class="icon-58-4 fill-white"/>
</svg>