<svg xmlns="http://www.w3.org/2000/svg" viewBox="-498 131.6 1002 756.4">
  <ellipse cx="-371.7" cy="371.4" fill="#6c63ff" rx="23.7" ry="11.8" transform="scale(-1) rotate(52.82 747.793 748.425)"/>
  <ellipse cx="-371.7" cy="371.4" opacity=".1" rx="23.7" ry="11.8" transform="scale(-1) rotate(52.82 747.793 748.425)"/>
  <ellipse cx="-371.7" cy="371.4" fill="#6c63ff" rx="23.1" ry="10.9" transform="scale(-1) rotate(52.82 747.874 748.545)"/>
  <path fill="#407d3b" d="M-385.8 353.3c4.5 8.9 10.1 17.1 16.9 24.4 1.3 1.4 2.6 2.7 3.9 4.1l7.3 7.5" opacity=".3"/>
  <ellipse cx="-403.2" cy="331.9" fill="#6c63ff" rx="23.7" ry="11.8" transform="scale(-1) rotate(52.82 668.427 811.933)"/>
  <ellipse cx="-403.2" cy="331.9" opacity=".1" rx="23.7" ry="11.8" transform="scale(-1) rotate(52.82 668.427 811.933)"/>
  <ellipse cx="-403.3" cy="332" fill="#6c63ff" rx="23.1" ry="10.9" transform="scale(-1) rotate(52.82 668.509 812.035)"/>
  <path fill="#407d3b" d="M-417.3 313.9c4.5 8.9 10.1 17.1 16.9 24.4 1.3 1.4 2.6 2.7 3.9 4.1l7.3 7.5" opacity=".3"/>
  <ellipse cx="-371.8" cy="339" fill="#6c63ff" rx="10.1" ry="20.3" transform="rotate(-127.193 -371.802 338.997)"/>
  <ellipse cx="-371.8" cy="339" opacity=".1" rx="10.1" ry="20.3" transform="rotate(-127.193 -371.802 338.997)"/>
  <ellipse cx="-371.8" cy="339" fill="#6c63ff" rx="9.3" ry="19.7" transform="rotate(-127.193 -371.84 338.948)"/>
  <path fill="#407d3b" d="M-356.4 326.9c-7.6 3.8-14.6 8.7-20.9 14.4-1.2 1.1-2.3 2.2-3.5 3.3l-6.4 6.2" opacity=".3"/>
  <ellipse cx="-403.7" cy="362.4" fill="#6c63ff" rx="10.1" ry="20.3" transform="rotate(-119.901 -403.74 362.382)"/>
  <ellipse cx="-403.7" cy="362.4" opacity=".1" rx="10.1" ry="20.3" transform="rotate(-119.901 -403.74 362.382)"/>
  <ellipse cx="-403.8" cy="362.3" fill="#6c63ff" rx="9.3" ry="19.7" transform="rotate(-119.901 -403.77 362.332)"/>
  <path fill="#407d3b" d="M-420.9 371.9c6.5-5.5 13.7-10.1 21.4-13.6 1.5-.7 2.9-1.3 4.4-1.9l8.3-3.5" opacity=".3"/>
  <ellipse cx="-393.3" cy="345.1" fill="#6c63ff" rx="8.7" ry="4.4" transform="rotate(-127.72 -393.274 345.105)"/>
  <ellipse cx="-393.3" cy="345.1" opacity=".1" rx="8.7" ry="4.4" transform="rotate(-127.72 -393.274 345.105)"/>
  <ellipse cx="-393.3" cy="345.1" fill="#6c63ff" rx="8.5" ry="4" transform="rotate(-127.72 -393.257 345.096)"/>
  <path fill="#407d3b" d="M-398.3 338.4c2.7 2.4 5.1 5.2 7.1 8.3.4.6.7 1.2 1.1 1.8l2 3.3" opacity=".3"/>
  <ellipse cx="-382.4" cy="359.1" fill="#6c63ff" rx="8.7" ry="4.4" transform="rotate(-127.72 -382.405 359.116)"/>
  <ellipse cx="-382.4" cy="359.1" opacity=".1" rx="8.7" ry="4.4" transform="rotate(-127.72 -382.405 359.116)"/>
  <ellipse cx="-382.4" cy="359.1" fill="#6c63ff" rx="8.5" ry="4" transform="rotate(-127.72 -382.378 359.095)"/>
  <path fill="#407d3b" d="M-387.5 352.4c2.7 2.4 5.1 5.2 7.1 8.3.4.6.7 1.2 1.1 1.8l2 3.3" opacity=".3"/>
  <circle cx="-387.8" cy="352.2" r="1.8" fill="#6c63ff"/>
  <circle cx="-387.8" cy="352.2" r="1.8" fill="#407d3b" opacity=".3"/>
  <g fill="#6c63ff" opacity=".1">
    <path d="M-391.8 818.3c-.6-6.8-.5-13.6.2-20.4 0-.3.1-.6.1-.9.1-.6.1-1.1.2-1.7 0-.2 0-.4.1-.5l.3-2.1v-.1c1.7-11.5 4.8-22.7 9.3-33.4l.3-.8c.1-.3.2-.6.4-.8s.1-.3.2-.5.1-.3.2-.4l.9-2.1v-.1c4.2-11.1 4.2-20.1 2.4-27.3-.1-.2-.1-.5-.2-.7-1.1-4.1-3-7.9-5.4-11.4l-.4-.6c-.3-.4-.6-.7-.9-1.1-2.5-3.1-5.5-5.9-8.8-8.2l-.5-.4c-.3-.2-.6-.4-.8-.5s-.5-.3-.7-.4c-.4-.2-.8-.5-1.1-.6l-.5-.3c-.7-.4-1.1-.6-1.2-.6l-.1.2-.2.4v.1l-.1.2v.2l-.1.3v.1l-.1.2v.1l-.2.5-.4 1-.1.1-.1.2-.1.2-.2.5.3.2.2.1h.2l.1.1.2.1.6.3.4.2c.7.4 1.6 1 2.5 1.6l.9.7.4.3c.4.3.9.7 1.3 1l.4.3c.2.2.5.4.7.7l.1.1 2.2 2.2c.9 1 1.8 2.1 2.6 3.2.3.4.5.8.8 1.2.9 1.3 1.7 2.8 2.3 4.2.9 1.9 1.6 3.9 2 6 0 .1.1.3.1.4 1.6 7.3.6 15.6-3.1 24.5v.1c-.2.5-.4.9-.6 1.4v.1c-.1.1-.1.2-.1.4l-.6 1.5c-.1.3-.3.6-.4.9-4.4 10.7-7.5 21.9-9.2 33.3v.1c-.1.7-.2 1.3-.3 1.9v.5c-.1.5-.1 1-.2 1.5l-.1.5v.4c-.1.6-.1 1.2-.2 1.8 0 .4-.1.8-.1 1.2-.5 5.3-.5 10.6-.2 15.9l4.4 2.7z"/>
    <path d="M-371.5 752.9c6.6-.6 12-1.2 12.2.9.2 2-5 6-11.6 6.5-6.6.6-12-.6-12.2-2.7-.2-2 5-4.1 11.6-4.7z"/>
    <path d="M-371.5 752.9c6.6-.6 12-1.2 12.2.9.2 2-5 6-11.6 6.5-6.6.6-12-.6-12.2-2.7-.2-2 5-4.1 11.6-4.7z" opacity=".1"/>
    <path d="M-371.5 752.9c6.4-.6 11.7-1.4 11.9.3s-4.9 5.4-11.3 5.9-11.7-.4-11.9-2.2 4.9-3.4 11.3-4z"/>
    <path d="M-382.7 757.1c5 .1 10-.2 14.9-.9l2.8-.4c1.8-.3 3.5-2.4 5.2-2.6l-22.9 3.9z" opacity=".3"/>
    <path d="M-383 791c6.6-.6 12-1.2 12.2.9.2 2-5 6-11.6 6.5-6.6.6-12-.6-12.2-2.7s5-4.1 11.6-4.7z"/>
    <path d="M-383 791c6.6-.6 12-1.2 12.2.9.2 2-5 6-11.6 6.5-6.6.6-12-.6-12.2-2.7s5-4.1 11.6-4.7z" opacity=".1"/>
    <path d="M-383 791.1c6.4-.5 11.7-1.4 11.9.3.1 1.7-4.9 5.4-11.3 6-6.4.6-11.7-.4-11.8-2.2s4.8-3.6 11.2-4.1z"/>
    <path d="M-394.2 795.3c5 .1 10-.2 14.9-.9.9-.1 1.9-.3 2.8-.4 1.8-.3 3.5-2.4 5.2-2.6l-22.9 3.9z" opacity=".3"/>
    <path d="M-392.9 749.5c-6.1-2.4-11.2-4.5-11.9-2.6-.7 1.9 3.1 7.1 9.2 9.5 6.1 2.4 11.7 2.8 12.5.9s-3.7-5.4-9.8-7.8z"/>
    <path d="M-392.9 749.5c-6.1-2.4-11.2-4.5-11.9-2.6-.7 1.9 3.1 7.1 9.2 9.5 6.1 2.4 11.7 2.8 12.5.9s-3.7-5.4-9.8-7.8z" opacity=".1"/>
    <path d="M-392.9 749.6c-6-2.3-10.8-4.6-11.5-3-.6 1.6 3.2 6.6 9.2 8.9 6 2.3 11.3 2.9 12 1.3.6-1.7-3.8-4.9-9.7-7.2z"/>
    <path d="M-383.4 756.7c-4.8-1.3-9.5-3-14-5l-2.6-1.2c-1.6-.7-2.6-3.2-4.2-4l20.8 10.2z" opacity=".3"/>
    <path d="M-403.1 787.8c-6.1-2.4-11.2-4.5-12-2.6-.7 1.9 3.1 7.1 9.3 9.5 6.1 2.4 11.7 2.8 12.5.9.7-2-3.7-5.4-9.8-7.8z"/>
    <path d="M-403.1 787.8c-6.1-2.4-11.2-4.5-12-2.6-.7 1.9 3.1 7.1 9.3 9.5 6.1 2.4 11.7 2.8 12.5.9.7-2-3.7-5.4-9.8-7.8z" opacity=".1"/>
    <path d="M-403.2 787.8c-6-2.3-10.8-4.6-11.5-3-.6 1.6 3.2 6.6 9.2 8.9 6 2.3 11.3 2.9 12 1.3.6-1.7-3.7-4.9-9.7-7.2z"/>
    <path d="M-393.6 795c-4.8-1.3-9.5-3-14-5l-2.6-1.2c-1.6-.7-2.6-3.2-4.2-4l20.8 10.2z" opacity=".3"/>
    <path d="M-405.5 795.7c-6.3 2.1-11.5 3.6-10.9 5.6.6 2 6.9 3.5 13.2 1.5 6.3-2 10.8-5.3 10.2-7.3s-6.2-1.8-12.5.2z"/>
    <path d="M-405.5 795.7c-6.3 2.1-11.5 3.6-10.9 5.6.6 2 6.9 3.5 13.2 1.5 6.3-2 10.8-5.3 10.2-7.3s-6.2-1.8-12.5.2z" opacity=".1"/>
    <path d="M-405.5 795.8c-6.1 2-11.3 3.3-10.8 5 .6 1.7 6.6 3 12.7 1s10.6-5 10.1-6.6-5.9-1.5-12 .6z"/>
    <path d="M-393.5 795.2c-4.5 2.1-9.2 3.7-14.1 5-.9.2-1.8.5-2.7.7-1.7.4-4.1-.8-5.8-.4l22.6-5.3z" opacity=".3"/>
    <ellipse cx="-375.5" cy="707.6" rx="18.5" ry="9.2" transform="rotate(-166.337 -375.51 707.588)"/>
    <ellipse cx="-375.5" cy="707.6" opacity=".1" rx="18.5" ry="9.2" transform="rotate(-166.337 -375.51 707.588)"/>
    <ellipse cx="-375.5" cy="707.6" rx="18" ry="8.5" transform="rotate(-166.337 -375.525 707.643)"/>
    <path d="M-393 703.6c7.1 3.2 14.6 5.4 22.2 6.5 1.4.2 2.9.4 4.4.6l8.1.9-34.7-8z" opacity=".3"/>
    <ellipse cx="-393.7" cy="683.7" rx="9.2" ry="18.5" transform="rotate(-167.239 -393.644 683.714)"/>
    <ellipse cx="-393.7" cy="683.7" opacity=".1" rx="9.2" ry="18.5" transform="rotate(-167.239 -393.644 683.714)"/>
    <ellipse cx="-393.6" cy="683.7" rx="8.5" ry="18" transform="rotate(-167.239 -393.597 683.726)"/>
    <path d="M-397.4 701.2c3.1-7.1 5.1-14.6 6.1-22.3.2-1.5.3-2.9.5-4.4l.8-8.1-7.4 34.8z" opacity=".3"/>
    <ellipse cx="-402.9" cy="723.9" rx="9.2" ry="18.5" transform="rotate(-167.239 -402.862 723.881)"/>
    <ellipse cx="-402.9" cy="723.9" opacity=".1" rx="9.2" ry="18.5" transform="rotate(-167.239 -402.862 723.881)"/>
    <ellipse cx="-402.8" cy="723.9" rx="8.5" ry="18" transform="rotate(-167.239 -402.81 723.904)"/>
    <path d="M-406.6 741.4c3.1-7.1 5.1-14.6 6.1-22.3.2-1.5.3-2.9.5-4.4l.8-8.1-7.4 34.8z" opacity=".3"/>
    <ellipse cx="-420.5" cy="697.9" rx="18.5" ry="9.2" transform="rotate(-166.337 -420.457 697.944)"/>
    <ellipse cx="-420.5" cy="697.9" opacity=".1" rx="18.5" ry="9.2" transform="rotate(-166.337 -420.457 697.944)"/>
    <ellipse cx="-420.5" cy="698" rx="18" ry="8.5" transform="rotate(-166.337 -420.471 697.998)"/>
    <path d="M-437.9 693.9c7.1 3.2 14.6 5.4 22.2 6.5 1.4.2 2.9.4 4.4.5l8.1 1-34.7-8z" opacity=".3"/>
    <ellipse cx="-388.1" cy="716.3" rx="15.8" ry="7.9" transform="scale(-1) rotate(52.82 1442.338 781.6)"/>
    <ellipse cx="-388.1" cy="716.3" opacity=".1" rx="15.8" ry="7.9" transform="scale(-1) rotate(52.82 1442.338 781.6)"/>
    <ellipse cx="-388.2" cy="716.3" rx="15.4" ry="7.3" transform="scale(-1) rotate(52.82 1442.388 781.677)"/>
    <path d="M-397.5 704.2c3 5.9 6.8 11.4 11.2 16.3.9.9 1.8 1.8 2.6 2.7l4.9 5-18.7-24z" opacity=".3"/>
    <ellipse cx="-409.2" cy="690" rx="15.8" ry="7.9" transform="scale(-1) rotate(52.82 1389.396 823.943)"/>
    <ellipse cx="-409.2" cy="690" opacity=".1" rx="15.8" ry="7.9" transform="scale(-1) rotate(52.82 1389.396 823.943)"/>
    <ellipse cx="-409.2" cy="690" rx="15.4" ry="7.3" transform="scale(-1) rotate(52.82 1389.46 824.01)"/>
    <path d="M-418.6 677.9c3 5.9 6.8 11.4 11.2 16.3.9.9 1.8 1.8 2.6 2.7l4.9 5-18.7-24z" opacity=".3"/>
    <ellipse cx="-388.2" cy="694.7" rx="6.7" ry="13.5" transform="rotate(-127.193 -388.249 694.674)"/>
    <ellipse cx="-388.2" cy="694.7" opacity=".1" rx="6.7" ry="13.5" transform="rotate(-127.193 -388.249 694.674)"/>
    <ellipse cx="-388.3" cy="694.7" rx="6.2" ry="13.2" transform="rotate(-127.193 -388.277 694.642)"/>
    <path d="M-377.9 686.6c-5.1 2.5-9.7 5.8-13.9 9.6-.8.7-1.6 1.5-2.3 2.2l-4.3 4.2 20.5-16z" opacity=".3"/>
    <ellipse cx="-409.5" cy="710.3" rx="6.7" ry="13.5" transform="rotate(-119.901 -409.541 710.275)"/>
    <ellipse cx="-409.5" cy="710.3" opacity=".1" rx="6.7" ry="13.5" transform="rotate(-119.901 -409.541 710.275)"/>
    <ellipse cx="-409.6" cy="710.2" rx="6.2" ry="13.2" transform="rotate(-119.901 -409.556 710.236)"/>
    <path d="M-420.9 716.6c4.3-3.7 9.1-6.7 14.3-9.1 1-.4 2-.9 2.9-1.3l5.5-2.3-22.7 12.7z" opacity=".3"/>
    <ellipse cx="-402.5" cy="698.7" rx="5.8" ry="2.9" transform="rotate(-127.72 -402.53 698.738)"/>
    <ellipse cx="-402.5" cy="698.7" opacity=".1" rx="5.8" ry="2.9" transform="rotate(-127.72 -402.53 698.738)"/>
    <ellipse cx="-402.5" cy="698.7" rx="5.7" ry="2.7" transform="rotate(-127.72 -402.52 698.734)"/>
    <path d="M-405.9 694.2c1.8 1.6 3.4 3.5 4.7 5.6.2.4.5.8.7 1.2l1.3 2.2-6.7-9z" opacity=".3"/>
    <ellipse cx="-395.3" cy="708.1" rx="5.8" ry="2.9" transform="rotate(-127.72 -395.276 708.072)"/>
    <ellipse cx="-395.3" cy="708.1" opacity=".1" rx="5.8" ry="2.9" transform="rotate(-127.72 -395.276 708.072)"/>
    <ellipse cx="-395.3" cy="708.1" rx="5.7" ry="2.7" transform="rotate(-127.72 -395.271 708.061)"/>
    <path d="M-398.7 703.6c1.8 1.6 3.4 3.5 4.7 5.6.2.4.5.8.7 1.2l1.3 2.2-6.7-9z" opacity=".3"/>
    <circle cx="-398.9" cy="703.5" r="1.2"/>
    <circle cx="-398.9" cy="703.5" r="1.2" opacity=".3"/>
  </g>
  <linearGradient id="a" x1="-1268.008" x2="-1268.008" y1="30.321" y2="325.063" gradientTransform="rotate(180 -775 454.06)" gradientUnits="userSpaceOnUse">
    <stop offset="0" stop-color="gray" stop-opacity=".25"/>
    <stop offset=".54" stop-color="gray" stop-opacity=".12"/>
    <stop offset="1" stop-color="gray" stop-opacity=".1"/>
  </linearGradient>
  <path fill="url(#a)" d="M-354.6 690.2c1.6 2.4 3.1 7.7 3 8.6-.1.9 4.4 5.9 5.6 7.4 1 1.4 2 3 2.7 4.5l4.1 7.7c2.6-.9 5.1-2 7.4-3.3l1.5.2c1.1-.1 2.3-.3 3.4-.5 0 .2-.1.4-.1.6-.7 5.8-1.2 10.5-1.2 10.5s1.4 5.1 3.4 3.5l.1-.1c.1.2.1.5.2.9.8 3.9 1.1 8 1 12-.4 5.9.9 15 .9 15s2.7-.2 6.7-.5l.3.9c.4 1 .8 2.1 1.3 3.2l.1.2c.1.1.1.3.2.4l.1.3.2.4.2.4.1.3.2.6c0 .1.1.1.1.2.1.2.1.3.2.5l.1.2.2.5.1.1c.3.6.6 1.2.8 1.7v.1l.2.4v.1l.2.4c.1.1.1.2.2.4 1.8 2.7 3 7.6 3 7.6l1.6 9.9s.3 2.4.5 4.6c.1.8.1 1.5.1 2.1v1.2c.1 1.8.5 5.3 1 9.3.1.8.2 1.6.3 2.5-.3 5-.2 10.1.3 15.1 0 0-1.2 18.7-.9 20.5.2 1-.7 3.3-1.4 5.3l-.2-.2s-4.2 4.4-4.1 9.4c.1 5 .5 11.9.5 11.9s.4 2.8-.5 3.5c-.9.7 0 4.6 0 4.6s7.3 6.7 13.5-.6c0 0 1.2-4.2.7-6.8 0-.2-.1-.5-.1-.9-.1-2.9-.3-5.8-.7-8.7l-.7-5.3c.8-.1 1.9-4.2 1.4-5.3-.5-1 .5-5.3.5-5.3l1.8-5.7c.1.2.2.4.2.6v.1c0 .1.1.2.1.2v.1l.3.9.1.3v.1c.1.3.2.6.3 1l.1.3v.1c.1.3.2.6.2.9v.1l.1.3v1.7c-.3 2-.1 4.1.6 6v.1c0 .1.1.2.1.2 0 .1 0 .1.1.1 0 .1.1.2.1.3l.3.6-.2 20.1s2.9 4.4 9.5 3.5c6.6-.9 5.7-8.2 4.8-9.3-.9-1.2-1.4-6.2-1.4-6.2s-1.2-8.3-2-11.3c-.2-1.1-.8-2.1-1.8-2.6-.3-.9-.7-1.8-.8-2-.7-1.3-1.3-2.6-1.7-4-.1-.5-.2-1-.1-1.4v-.9-.6-.3c-.2-5-1.4-19-2-26.2 1-5.3 1.7-9.5 1.6-10-.4-1.4.6-11.5.6-11.5s1.3-10.2 3-13.5c1.1-2.1 3.4-10.2 4.7-15.4.1-.3.2-.6.2-.9 1.5 0 2.9-.4 4.2-1 0 0-1-8.9 1.5-13.6 1.8-3.2 2.9-17.2 3-26.5v-1.3c2.1 1.8 3.5 4.1 4 3.9 5.1-2.6 10-5.7 14.7-9 5.7-4.6-10.2-30.6-12-32.6-1.8-2-5.5-25.1-5.5-25.1.6.7 1.3 1.3 2.2 1.5 1.2.2 3.4 1.8 5.8 3.9 2.4 2 13.5 0 13.5 0 8 .4 9.5-6.5 9.5-6.5s4-9.2 4.1-12.6c.2-3.3 6.1-16.6 6.1-16.6-1.3-2.1-3.2-3.8-5.4-4.8.4-1.4 1.1-2.6 1.9-3 2.5-1.1 30.3-11.4 20.5-14.9s-25 7.9-25 7.9-.8.3-2 2.8c-.7 1.3-1.5 3.6-2.2 5.5-.1.2-.1.4-.2.6h-.4s-3.6 7.8-3.6 9.6c0 1.8-4.4 10.7-4.4 10.7s-2.2 2.2-1.4 4c.8 1.8-1.8 1.4-1.8 1.4l-3.4-2.7s-3-1.9-4.4-2.2c-1.4-.3-3.8-2.8-3.8-2.8s-2.8-1.9-2.6-2.2c.2-.3-1.6-1.8-2.6-2.2-1-.5-1.5-1.5-2.5-3.3-1-1.8-2.6-.5-3.4-.8s-10.5.9-11.5 1.2-4.5.3-6.3-.9c-1.2-.7-2.6-.9-4-.4-.4-.8-.7-1.6-.9-2.4 0-.1-.1-.3-.1-.4 6.1-2.6 10.1-8.7 10.2-15.4 0-4.1-1.5-8-4.2-11-.2-.3-.5-.5-.7-.8.9-.5 2.3-1.4 2.3-2.6 0-.4-.2-.8-.5-1.2-.4-.4-.9-.6-1.2-1-.4-.4-.5-1-.5-1.6 0-.7.2-1.5.2-2.2 0-.3 0-.6-.1-.9-.4-1.2-1.6-2.1-2.9-2.3v.1c-.5-.1-1-.1-1.6-.1-1.8.2-3.5 1-5.3 1.2-2.8.3-5.5-.9-8.2-1.6s-6-.7-7.9 1.3c-1.9 2.1-1.8 5.6-4.1 7.1-1.1.7-2.4.8-3.6 1.3-1.3.6-2.3 1.6-3.1 2.9-1.8 2.9-2.7 6.3-2.3 9.6.2 1.8.7 3.6.9 5.4.2 1.9.1 3.8-.4 5.7-.5 1.9-1.6 3.9-3.5 4.5-.4.1-.9.2-1.3.4-1.1.7-1 2.3-.7 3.5l1.2 5.1c-1.1.8-2.8.5-3.8 1.3-.4.4-.7.9-.9 1.4-1 2.7-.3 5.8 1.8 7.8 0 .1-.1.2-.1.3 0 .1-.1.4-.2.7-.9 4.5-.6 5-1.3 5.8-1.1 2-2.4 3.9-3.8 5.8-.9 1-1.4 2.3-1.4 3.7 0 0-4.7 6.9-6.1 7.6-1.4.8-3.7 6-3.7 6s-3.7 2.4-3.7 5.1c-.1 2.2-.3 4.5-.7 6.7.3 0 .9 4.8 2.5 7.2zm13.4-4.2c.7-1.1 0-3.2 0-3.2s4.6-6 5.3-9.5c.6-3.5 4.8-5.8 4.8-5.8s2.2-.9 2.3 0c.1.9.6 2.7.6 2.7s-.4 4.5 1.3 6.2 1.9 9.2 1.9 9.2 2.6 7.4 1.4 9.7c-.4.8-1.1 4.8-1.8 9.7-.6-.1-1.2-.2-1.8-.2-.5-.5-3.7-3.4-5.3-3.9-1.8-.6-3.5-5.7-3.6-6.9-.1-1.2-1.6-5-3.3-5.7-1.7-.5-2.5-1.2-1.8-2.3z"/>
  <path fill="#4c4981" d="M-226.5 622.6c-2.6-4.3-7.6-6.7-12.6-5.9v9h5.5l4.3-1.1 2.8-2z"/>
  <path d="M-226.5 622.6c-2.6-4.3-7.6-6.7-12.6-5.9v9h5.5l4.3-1.1 2.8-2z" opacity=".1"/>
  <path fill="#ae6e79" d="M-239.5 619.1l6.7 4.7s.1-.9.2-2.2c.3-2.4 1.1-6.1 2.7-6.8 2.5-1.1 29.8-11.4 20.1-14.8-9.7-3.5-24.6 7.9-24.6 7.9s-.8.3-2 2.8c-.6 1.3-1.5 3.6-2.1 5.5-.5 1.5-1 2.9-1 2.9z"/>
  <path fill="#4c4981" d="M-293 626.3l-.7-.4-2.2 2.5 1.8 3.7 2.9-1.2-.6-3z"/>
  <path fill="#444053" d="M-282.8 844.8s1.9-.2 2.7 2.8c.8 3 1.9 11.3 1.9 11.3s.5 5.1 1.4 6.2c.9 1.1 1.8 8.4-4.7 9.3-6.5.9-9.4-3.5-9.4-3.5l.2-20.1 7.9-6zM-305.7 845.7s-4.1 4.4-4 9.4.5 11.8.5 11.8.4 2.8-.5 3.5c-.8.7 0 4.6 0 4.6s7.2 6.7 13.3-.6c0 0 1.2-4.2.7-6.8-.5-2.7-1.8-14.7-1.8-14.7l-8.2-7.2z"/>
  <path fill="#ae6e79" d="M-315.8 753.7s4.2 11.6 5.9 14.3 3 7.5 3 7.5l1.6 9.9c.3 2.2.5 4.5.5 6.7-.1 2.2 4 34.8 4 34.8l6.5 8.2s2.8 5.8 2.4 8.2c-.5 2.4.3 6.2 1.2 7.4 0 0 .2 7.5.4 9.2.2 1.7-.9 6.5 0 7.3.9.8 12.2.5 12.5-.9.3-1.3-1.4-8.1-1.4-8.1l-1-6.5s-2-3.5-1.5-4.7-.9-3.8-.9-4.1c0-.2-2.2-4-1.8-5.5s-2.4-32.5-2.4-32.5l-7.9-55.6-21.1 4.4z"/>
  <path d="M-315.8 753.7s.6 1.8 1.5 4c1.4 3.6 3.3 8.6 4.4 10.3 1.8 2.7 3 7.5 3 7.5l1.6 9.9c.3 2.2.5 4.5.5 6.7 0 .9.6 6.5 1.3 13 1.2 9.9 2.6 21.8 2.6 21.8l6.5 8.2s.3.7.7 1.6c.8 1.9 2 4.9 1.6 6.5-.5 2.4.3 6.2 1.2 7.4 0 0 .2 7.5.4 9.2.2 1.7-.9 6.5 0 7.3.9.8 12.2.5 12.5-.9.3-1.3-1.4-8.1-1.4-8.1l-1-6.5s-2-3.5-1.5-4.7-.9-3.8-.9-4.1c0-.2-2.2-4-1.8-5.5.3-1.1-1.2-19.3-2-28-.2-2.7-.4-4.5-.4-4.5l-6.8-47.8-.5-3.9-.6-3.9-20.9 4.5z" opacity=".1"/>
  <path fill="#ae6e79" d="M-308.9 869.4c-.1.9 10.8 2.1 12.4 1.2s0-12.4 0-12.4l-.7-5.3c.8-.1 1.9-4.2 1.4-5.3s.5-5.3.5-5.3l1.8-5.7 1.1-3.5c1.8-4 4.4-15.3 6-23.7 1-5.3 1.7-9.5 1.5-10-.4-1.4.6-11.5.6-11.5s1.2-10.2 2.9-13.5c1.1-2.1 3.3-10.2 4.7-15.4.7-2.6 1.2-4.6 1.2-4.6s-11.6-1-18.7-1.3c-3.2-.2-5.5-.2-5.3.1.3.3.3 1.7.3 3.7 0 5.3-.8 14.6-1.5 17.1-1.1 3.5-2.2 13.8-1.7 14.8.5 1 .3 7.7.3 7.7-.8 2.7-1.2 5.5-1.3 8.4-.2 5-.2 10 .3 15 0 0-1.1 18.7-.9 20.5.3 1.8-2.5 7.3-2.5 8.4 0 1.1-.8 8.4-.8 8.4s-1.5 11.3-1.6 12.2zM-315 644.7l1.3 1.4.9.9 5 5.4 13 1.5 6.9-1.8 1.8-.5s0-3.5-.3-7.6c-.4-5.3-1.5-11.8-4-13.6-1.3-1-2.3-2.3-2.9-3.7-.5-1-.9-2-1.3-3.1-.1-.1-.1-.3-.1-.4-.6-1.9-1-3.8-1.2-5.7 0 0-1.7-.9-4-2-6-2.8-16.4-6.7-12.8 2 .5 1.3 1 2.6 1.4 3.9.1.2.1.4.1.6 1.2 4.8.4 7.8-.5 9.4-.2.3-.3.6-.5.8-.2.3-.5.6-.9.9l-1.5 9.5-.1.8-.3 1.3z"/>
  <path d="M-312.8 617.9c.7 1.7-.3-1.3 0 0 2.7 2 9.2 7.5 12.8 7.5 2.5 0 3.2-.4 5.3-1.4-.6-2-1.1-4.1-1.4-6.1.1 0-21.7-12-16.7 0z" opacity=".1"/>
  <path fill="#ae6e79" d="M-318.3 607.8c0 8.6 6.5 15.8 15 16.6.6.1 1.2.1 1.8.1 9.3 0 16.8-7.5 16.8-16.8s-7.5-16.8-16.8-16.8c-9.3.1-16.8 7.6-16.8 16.9z"/>
  <path d="M-320.7 682.2l2.4 6.2s2 .1 5 .2c10.2.3 32.8.7 33.8-1.9.2-.7.3-1.4.4-2.1.1-4-1.8-10.2-1.8-10.2s-1.1-12.3-1.1-12.8.9-9.2.9-9.2l-1.8-6.9-5.2-3.6s-2.3 3.5-3.7 3.8c-1.2.5-2.3 1.1-3.2 2 0 0-4.5 2.8-6 1.2-1.5-1.5-12.8-8.3-12.8-8.3l-6 6.6-.9 35z" opacity=".1"/>
  <path fill="#fff" d="M-320.7 683.1l2.4 6.2s2 .1 5 .2h.3c1.3 0 2.8.1 4.4.1 8.1.2 19.3.2 25.2-.6 2.2-.3 3.6-.8 3.9-1.4.1-.4.2-.8.3-1.1 0-.3.1-.6.1-.9.1-4-1.8-10.2-1.8-10.2s-1.1-12.3-1.1-12.8.9-9.2.9-9.2l-1.8-6.9-3.5-2.5-1.6-1.1c-.5.8-1.1 1.6-1.8 2.3-.5.7-1.2 1.2-1.9 1.5-1.2.4-2.3 1.1-3.2 2 0 0-4.5 2.8-6 1.2-1.1-1.2-8-5.4-11.2-7.3l-1.6-1-.8.9-5.2 5.7-1 34.9z"/>
  <path d="M-239.5 619.1l6.7 4.7s.1-.9.2-2.2c-2.5-1.2-4.5-3.1-5.9-5.5-.5 1.6-1 3-1 3z" opacity=".1"/>
  <path fill="#3f3d56" d="M-263 635l1.5-.4s2.4 2.5 3.8 2.8c1.4.3 4.3 2.2 4.3 2.2l3.4 2.7s2.5.4 1.8-1.4c-.8-1.8 1.4-4 1.4-4s4.3-8.8 4.3-10.7c0-1.8 3.5-9.6 3.5-9.6s4.5 8.7 12.6 5.9c0 0-5.9 13.3-6.1 16.6-.1 3.3-4.1 12.5-4.1 12.5s-1.5 6.8-9.4 6.5c0 0-10.9 2-13.3 0-2.4-2-4.5-3.6-5.7-3.9-.9-.3-1.6-.8-2.2-1.5v-9.2l4.2-8.5z"/>
  <path d="M-249.3 643.7s-1.9 7.2-.7 7.9l.7-7.9zM-313.3 689.5c10.2.3 32.8.7 33.8-1.9.2-.7.3-1.4.4-2.1l-33.4 1.8-.8 2.2zM-315.8 753.7s.6 1.8 1.5 4.1c4.2-.3 9.9-.5 15.2-.6 1.9 0 3.7 0 5.5.1 3 0 6 .3 9 1 2.6.8 5.3 1.1 8 1 .7-2.6 1.2-4.6 1.2-4.6s-11.6-1-18.7-1.3l-.6-3.9-21.1 4.2z" opacity=".1"/>
  <path fill="#65617d" d="M-324.8 725.5l1.3 2.8s.2.8.4 2.1c.8 3.9 1.1 7.9 1 11.9-.4 5.9.9 14.9.9 14.9s28.3-2.4 36.6 0 12.4 0 12.4 0-1-8.9 1.5-13.5c1.7-3.2 2.9-17.2 2.9-26.4 0-4.3-.2-7.5-.8-8.1-1.7-2.1-8.9-22.9-8.9-22.9l-1.7.1-4.4.2-25 1.3-3.9.2-.4 1.3-11.9 36.1z"/>
  <path fill="#4c4981" d="M-337.3 716.3l-.2 2.5s12.4-4 11.8-9c-.6-5 0-4.4 0-4.4l-10 .9-1.6 10z"/>
  <path d="M-337.3 716.3l-.2 2.5s12.4-4 11.8-9c-.6-5 0-4.4 0-4.4l-10 .9-1.6 10zM-257.6 645.7c-1.3 1.1-2.8 1.9-4.4 2.3.5-.1.9-.3 1.3-.6.9-.6 1.8-1.3 2.6-2 .7-.7 1.5-1.3 2.4-1.7-.5.7-1.2 1.4-1.9 2zM-257.8 648.9c-.4.5-.7 1-1 1.5-.2.6-.3 1.3-.3 2-.1.9 0 1.9.3 2.8l2-4.8c.3-.8.7-1.6 1.1-2.4.2-.3 1.3-1.8 1.2-2-.2-.8-2.9 2.5-3.3 2.9zM-313.2 675.5c-1.4-.2-2.6-.7-3.6-1.7 2 .3 4 1.1 6 1.5 1.9.4 3.8.3 5.6-.5-2.4 1.1-5.5 1.1-8 .7zM-307.5 661.4c.4.1.7 0 1-.3 1.5-.9 3-1.8 4.5-2.8 1.6-.9 3.1-1.9 4.4-3.1-2.9 2.9-5.7 5.2-9.9 6.2zM-311.7 677.7c-.8 0-1.6 0-2.4-.2-.8-.2-1.5-.6-2-1.3.3-.1.6 0 .8.1 2.4 1 5.1 1.3 7.7.9-1.3.5-2.7.6-4.1.5zM-297.1 713.4c1.6.5 3.2.8 4.9 1 1.3.1 2.6 0 3.9-.1l6.3-.4 3.2-.2c.4 0 1.9 0 1.1-.7-.4-.4-2.5-.1-3-.1-1 0-2.1-.1-3.1-.1-2.1 0-4.2 0-6.3.1-2.4.1-4.7.3-7 .5zM-289.9 716.5c1.1 0 2.5.6 3.5.7 1.2.2 2.5.2 3.7.1 2.5-.1 4.9-.6 7.2-1.5-4.7.4-9.6.6-14.4.7zM-276.4 719.9c-.5.1-.9.2-1.4.4-2.6.8-5.5.1-8.2-.6.8 1 1.9 1.6 3.1 1.8 2 .5 4 .6 6 .2.6-.1 2.2-.4 2.5-1 .6-1.1-1.4-1-2-.8zM-291.3 724.8l-2.4.6c-3 .7-6.1-.3-9.1-1-3.6-.8-7.3-1.2-11-1 .8.2 1.6.4 2.4.8.9.3 1.7.5 2.6.7 1.7.4 3.4.8 5.1 1 3.5.5 7 .7 10.5.5 1.6-.1 4.4.1 5.8-.7-1.2-.8-2.5-1.1-3.9-.9zM-292.4 629.9s-.2 7.1 1 10.3c.4 1 .9 2.9 1.5 4.9.7 2.3 1.4 4.9 2 6.9l.9 3.4s2.6 21.2 3.3 31.2v.5c0 .6.1 1.2.2 1.8 1.5 10 10.1 25.5 13 26.7.9.4 1.7 1 2.4 1.7 0-4.3-.2-7.5-.8-8.1-1.7-2.1-8.9-22.9-8.9-22.9l-1.7.1c0-.3.1-.6.1-.9.1-4-1.8-10.2-1.8-10.2s-1.1-12.3-1.1-12.8.9-9.2.9-9.2l-1.8-6.9-3.5-2.5c-.4-5.3-1.5-11.8-4-13.6-1.3-1-2.3-2.3-2.9-3.7-.5.1.4-.4.4-.4l.8 3.7z" opacity=".1"/>
  <path fill="#3f3d56" d="M-293.7 625.9c1.3-.4 2.7-.3 3.9.4 1.8 1.2 5.3 1.2 6.1.9.9-.2 10.5-1.5 11.3-1.2.8.3 2.3-1.1 3.3.8 1 1.8 1.5 2.8 2.5 3.3s2.8 1.9 2.5 2.2c-.2.3 2.5 2.2 2.5 2.2l-5.6 18.2s3.6 23.1 5.4 25.1c1.8 2 17.5 27.9 11.8 32.5-4.4 3.5-9.2 6.7-14.1 9.5-.6.3-2.8-3.8-5.9-5.2-3.1-1.3-12.6-18.6-13.2-28.5-.6-9.8-3.3-31.8-3.3-31.8s-3.3-12-4.5-15.2-1-10.3-1-10.3l-1.7-2.9z"/>
  <path d="M-324.8 725.5l1.3 2.8s.2.8.4 2.1c.2 0 .5-.1.7-.3 1.9-1.5 13.2-13.1 13.8-23.5.4-7.6.2-14.2.1-17.1 0-.9-.1-1.5-.1-1.6 0 0-8.8-10.6-7.8-14.4s3.3-24 3.3-24l.3-2.6.6-4.5 1.4-10.8-1.4.3c-.2.3-.5.6-.9.9l-1.5 9.5-5.2 5.7-.9 34.8 2.4 6.2s2 .1 5 .2h.3l-11.8 36.3z" opacity=".1"/>
  <path fill="#3f3d56" d="M-329.7 668s2.2-.9 2.3 0c.1.9.5 2.7.5 2.7s-.4 4.5 1.2 6.3c1.6 1.8 1.9 9.2 1.9 9.2s2.6 7.4 1.4 9.7c-.4.8-1.1 5-1.8 10.1-.4 3.1-.9 6.6-1.3 9.8-.7 5.7-1.2 10.5-1.2 10.5s1.4 5.1 3.3 3.5c1.9-1.6 13.2-13.1 13.8-23.5.4-7.2.2-13.5.1-16.6-.1-1.3-.1-2.1-.1-2.1s-8.8-10.6-7.8-14.4c1-3.8 3.3-23.9 3.3-23.9l.4-3.1.4-3.3.1-.7 1.4-10.7c-.2.1-8.9 2-10 3.1-1.1 1.1-8.2 2.8-8.2 2.8-2.2.6-3.9 2.3-4.4 4.5-.1.2-.1.4-.2.7-.9 4.5-.6 5-1.2 5.8-.5.5 6.1 19.6 6.1 19.6z"/>
  <path d="M-325.5 715.7c3.2-.6 7.8-2.1 7.7-5.3-.1-3-3.7-4.1-6.4-4.5-.5 3.2-.9 6.6-1.3 9.8z" opacity=".1"/>
  <path fill="#ae6e79" d="M-335.2 714.1c.1.3.6.5 1.3.7 1.7.4 3.4.7 5.1.8 0 0 10.7-.9 10.5-5.7-.1-3.5-4.9-4.4-7.7-4.6-1.1-.1-1.8-.1-1.8-.1s-7.9 7.9-7.4 8.9z"/>
  <path d="M-335.2 714.1c.1.3.6.5 1.3.7 2.8-3.7 6.7-8.5 8.6-8.9 0 0-.2-.2-.6-.5-1.1-.1-1.8-.1-1.8-.1s-8 7.8-7.5 8.8z" opacity=".1"/>
  <path fill="#3f3d56" d="M-332.5 647.7l-3.2.5c-1.1 2-2.4 3.9-3.8 5.8-.8 1.1-1.3 2.3-1.4 3.7 0 0-4.6 6.8-6.1 7.6s-3.7 6-3.7 6-3.6 2.4-3.6 5.1c-.1 2.2-.3 4.5-.7 6.7-.1.4.5 5.2 2.1 7.5 1.5 2.4 3.1 7.7 3 8.6-.1.9 4.3 5.8 5.5 7.4 1 1.4 1.9 2.9 2.7 4.5l4.1 7.7s8.6-12.7 11.8-13.4c0 0-3.5-3.4-5.3-4s-3.5-5.7-3.5-6.8-1.6-5-3.2-5.7c-1.6-.7-2.5-1.4-1.8-2.5s0-3.2 0-3.2 4.5-6 5.2-9.5c.6-3.5 4.8-5.8 4.8-5.8l2.4-5.9-5.3-14.3z"/>
  <path d="M-344 676.4c-1.7-1.5-3.9-2.3-6.2-2.4 1.5.1 2.9.7 4.1 1.6.4.4.8.9 1.1 1.4.4.5 3.3 4.3 3.8 3.7.7-.8-2.2-3.8-2.8-4.3zM-337 672.8c-1-.1-1.8-.7-2.2-1.6-.4-.9-.6-1.8-.7-2.7-.2-1.6-.5-3.1-1-4.7-.1-.3-.2-.6-.2-1 0-.3.1-.6.3-.9.2-.5.4-1 .7-1.4.6.6.7 2.1 1 2.9.3 1.1.6 2.1.8 3.2.2.5 1.2 6.2 1.3 6.2zM-334.3 641.7c.3.4.7.8 1.1 1.1 1.2 1 2.9 1.8 3.1 3.4 0 .5 0 1 .2 1.5.4.7 1.4.6 2.2.5.7-.1 1.3-.3 1.8-.7.8-.7.9-2 1.5-2.8.8-.9 1.9-1.4 3.1-1.4 1.2 0 2.3.2 3.5.3.8 0 1.5 0 2.3-.2.2 0 .5-.1.7-.1.5-.1 1-.3 1.5-.5.3-.1.5-.2.7-.4.8-.4 1.5-.9 2.2-1.5 1.2-1 2-2.5 2-4.1-.2-.9-.4-1.9-.7-2.8-.5-2.7 1.3-5.3 3.3-7.2.8-.8 1.6-1.5 2.4-2.3 1.2-1.1 2.2-2.5 2.8-4 .5-1.6.7-3.3.5-5-.2-1.7-.2-3.4-.1-5.2.6-6.1 5.8-10.8 11-13.3l.2-.1c-6.1-7-16.6-7.8-23.6-1.7s-7.8 16.6-1.7 23.6c.8 1 1.8 1.8 2.8 2.6.1.2.1.4.1.6 1.2 4.8.4 7.8-.5 9.4-.2.1-8.9 2-10 3.1s-8.2 2.8-8.2 2.8c-2 .5-3.7 2.2-4.2 4.4z" opacity=".1"/>
  <path fill="#444053" d="M-287.7 592.4c-.4-.4-.9-.6-1.2-1-1.1-1.2 0-3.1-.4-4.7-.4-1.8-2.5-2.5-4.3-2.3-1.8.2-3.4 1-5.2 1.2-2.8.3-5.4-.9-8.1-1.6s-5.9-.7-7.8 1.3c-1.9 2.1-1.8 5.6-4 7.1-1.1.7-2.4.8-3.5 1.3-1.3.7-2.3 1.6-3 2.9-1.8 2.9-2.6 6.3-2.3 9.6.2 1.8.7 3.6.9 5.4.2 1.9.1 3.8-.4 5.7-.5 1.9-1.5 3.9-3.4 4.5-.4.1-.9.2-1.3.4-1.1.7-.9 2.3-.7 3.5l1.1 5.1c-1.1.8-2.8.5-3.8 1.3-.4.4-.7.9-.9 1.4-1.1 3-.2 6.3 2.3 8.3 1.2 1 2.9 1.8 3.1 3.4 0 .5 0 1 .2 1.5.4.7 1.4.6 2.2.5.7-.1 1.3-.3 1.8-.7.9-.7.9-2 1.5-2.8.8-.9 1.9-1.4 3.1-1.4 1.2 0 2.3.2 3.5.3 2.7.1 5.4-.8 7.4-2.7 1.2-1 2-2.5 2-4.1-.2-.9-.4-1.9-.7-2.8-.5-2.7 1.3-5.3 3.3-7.2 2-2 4.2-3.7 5.2-6.3 1.2-3.2 0-6.8.4-10.2.6-6.1 5.8-10.8 11-13.4 1.4-.5 3.3-2 2-3.5z"/>
  <path d="M-328.8 645.2c.9-.7.9-2 1.5-2.8.8-.9 1.9-1.4 3.1-1.4 1.2 0 2.3.2 3.5.3 2.7.1 5.4-.8 7.4-2.7 1.2-1 2-2.5 2-4.1-.2-.9-.4-1.9-.7-2.8-.5-2.7 1.3-5.3 3.3-7.2s4.2-3.7 5.2-6.3c1.2-3.2 0-6.8.4-10.2.6-6.1 5.8-10.8 11-13.4 1.2-.6 3.2-2.1 1.8-3.7-.3-.4-.9-.6-1.2-1-1.1-1.2 0-3.1-.4-4.7-.1-.3-.2-.6-.4-.9 1.3.1 2.4 1 2.8 2.2.4 1.6-.7 3.5.4 4.7.4.4.9.6 1.2 1 1.3 1.5-.6 3.1-1.8 3.7-5.3 2.5-10.4 7.2-11 13.4-.3 3.4.8 7-.4 10.2-1 2.6-3.3 4.4-5.2 6.3-2 1.9-3.8 4.5-3.3 7.2.3.9.5 1.9.7 2.8 0 1.6-.8 3.1-2 4.1-2 1.8-4.7 2.8-7.4 2.7-1.2-.1-2.3-.3-3.5-.3-1.2 0-2.3.5-3.1 1.4-.6.9-.7 2.1-1.5 2.8-.5.4-1.2.6-1.8.7-.8.1-1.8.2-2.2-.5-.1-.3-.2-.6-.2-.9.6 0 1.2-.2 1.8-.6z" opacity=".1"/>
  <path fill="#6c63ff" d="M-365.4 525.3c-13.2 4-25.5 13.6-28.8 27-3.8 15.4 4.9 30.9 6.2 46.6 4.1 51.7-69.5 88.2-59 139 4.2 20.2 21 35 37.6 47.3 26.6 19.6 56.1 36.9 88.7 41.8 49.6 7.4 101.4-14.4 149.6-.6 38.9 11.1 68.6 43.8 107.2 55.8 29.4 9.2 61 5.6 91.6 1.8 16.5-2 33.7-4.3 47-14.2 24.7-18.4 26.2-54.7 42.8-80.7C143 749 199 741.1 246 748.9s92.5 27 140.1 25.4c10.2-.3 20.6-1.7 29.4-6.7 10.8-6.1 18.1-16.7 24.5-27.3 40.2-66.3 62.3-142 64.1-219.5.3-13.3-.2-27.2-6.5-39-7.9-14.9-23.8-23.8-39.5-29.8-37.8-14.4-79.7-16.8-116.7-33-35.8-15.7-64.7-43.1-95.9-66.7-62.1-46.8-134-78.9-210.4-93.7-17.9-3.5-36.5-5.9-54.2-1.9-20.5 4.6-38.1 17.4-54 31.1-42.2 36.6-76.1 81.7-115 121.7-26.8 27.6-56.1 52.8-87.4 75.3-14.4 10.4-29.7 22.7-45.8 30.4-14.8 7.2-28.6 5.4-44.1 10.1z" opacity=".2"/>
  <path fill="none" stroke="#535461" stroke-miterlimit="10" stroke-width="2" d="M-177.2 200.4s-39.8 52.8-11.3 114.4S-238 475.2-238 475.2"/>
  <path fill="#8ed16f" d="M-159.3 180.6c-3.2 13.6-18.3 21.7-18.3 21.7s-10-13.9-6.8-27.5 11.3-23.3 18.3-21.7 9.9 13.9 6.8 27.5z"/>
  <ellipse cx="-172.4" cy="177.6" fill="#8ed16f" rx="3" ry="7.9" transform="scale(-1) rotate(13.102 1546.168 1500.893)"/>
  <ellipse cx="-172.4" cy="177.6" opacity=".3" rx="3" ry="7.9" transform="scale(-1) rotate(13.102 1546.168 1500.893)"/>
  <path fill="#8ed16f" d="M-166.2 241c-13.1 4.7-28.1-3.6-28.1-3.6s6.3-16 19.4-20.7 25.7-3.1 28.1 3.6c2.4 6.7-6.3 16-19.4 20.7z"/>
  <ellipse cx="-170.9" cy="227.7" fill="#8ed16f" rx="3" ry="7.9" transform="rotate(-109.883 -170.893 227.719)"/>
  <ellipse cx="-170.9" cy="227.7" opacity=".3" rx="3" ry="7.9" transform="rotate(-109.883 -170.893 227.719)"/>
  <path fill="#8ed16f" d="M-169.3 289.1c-13.1 4.7-28.1-3.6-28.1-3.6s6.3-16 19.4-20.7 25.7-3.1 28.1 3.6c2.5 6.7-6.2 16-19.4 20.7z"/>
  <ellipse cx="-173.8" cy="276.6" fill="#8ed16f" rx="3" ry="7.9" transform="rotate(-109.798 -173.792 276.56)"/>
  <ellipse cx="-173.8" cy="276.6" opacity=".3" rx="3" ry="7.9" transform="rotate(-109.798 -173.792 276.56)"/>
  <path fill="#8ed16f" d="M-153.9 345.5c-13.1 4.7-28.1-3.6-28.1-3.6s6.3-16 19.4-20.7c13.1-4.7 25.7-3.1 28.1 3.6 2.4 6.7-6.3 16-19.4 20.7z"/>
  <ellipse cx="-158.5" cy="333" fill="#8ed16f" rx="3" ry="7.9" transform="rotate(-109.798 -158.45 333.032)"/>
  <ellipse cx="-158.5" cy="333" opacity=".3" rx="3" ry="7.9" transform="rotate(-109.798 -158.45 333.032)"/>
  <path fill="#8ed16f" d="M-163.9 397.2c-13.1 4.7-28.1-3.6-28.1-3.6s6.3-16 19.4-20.7c13.1-4.7 25.7-3.1 28.1 3.6 2.4 6.6-6.3 15.9-19.4 20.7z"/>
  <ellipse cx="-168.4" cy="383.8" fill="#8ed16f" rx="3" ry="7.9" transform="rotate(-109.883 -168.402 383.78)"/>
  <ellipse cx="-168.4" cy="383.8" opacity=".3" rx="3" ry="7.9" transform="rotate(-109.883 -168.402 383.78)"/>
  <path fill="#8ed16f" d="M-225.5 254.7c9.7 10 26.8 9.3 26.8 9.3s1.4-17.1-8.3-27.1c-9.7-10-21.7-14.2-26.8-9.3-5.1 4.8-1.4 17 8.3 27.1z"/>
  <ellipse cx="-215.8" cy="245.4" fill="#8ed16f" rx="7.9" ry="3" transform="rotate(-133.987 -215.823 245.395)"/>
  <ellipse cx="-215.8" cy="245.4" opacity=".3" rx="7.9" ry="3" transform="rotate(-133.987 -215.823 245.395)"/>
  <path fill="#8ed16f" d="M-231 414.1c9.7 10 26.8 9.3 26.8 9.3s1.4-17.1-8.3-27.1c-9.7-10-21.7-14.2-26.8-9.3-5.1 4.9-1.4 17.1 8.3 27.1z"/>
  <ellipse cx="-221.4" cy="404.8" fill="#8ed16f" rx="7.9" ry="3" transform="rotate(-133.987 -221.398 404.857)"/>
  <ellipse cx="-221.4" cy="404.8" opacity=".3" rx="7.9" ry="3" transform="rotate(-133.987 -221.398 404.857)"/>
  <path fill="#8ed16f" d="M-218.2 311c12.5 6.2 28.4-.2 28.4-.2s-4.4-16.6-16.9-22.8c-12.5-6.2-25.2-6.2-28.4.2-3.1 6.4 4.4 16.6 16.9 22.8z"/>
  <ellipse cx="-212.2" cy="299" fill="#8ed16f" rx="7.9" ry="3" transform="rotate(-153.483 -212.225 299.024)"/>
  <ellipse cx="-212.2" cy="299" opacity=".3" rx="7.9" ry="3" transform="rotate(-153.483 -212.225 299.024)"/>
  <path fill="#8ed16f" d="M-212.9 367.2c12.5 6.2 28.4-.2 28.4-.2s-4.4-16.6-16.9-22.8c-12.5-6.2-25.2-6.2-28.4.2s4.4 16.6 16.9 22.8z"/>
  <ellipse cx="-207" cy="355.2" fill="#8ed16f" rx="7.9" ry="3" transform="rotate(-153.483 -206.985 355.17)"/>
  <ellipse cx="-207" cy="355.2" opacity=".3" rx="7.9" ry="3" transform="rotate(-153.483 -206.985 355.17)"/>
  <path fill="#8ed16f" d="M-368.7 313.9s72.6 72.6 31.6 180.4 70.3 287 70.3 287-1.2-.2-3.4-.6c-149.1-26.4-223.2-197-140.3-323.7 30.8-47.1 56.2-102.4 41.8-143.1z"/>
  <path fill="#8ed16f" d="M-498 607.6s82.9-13.2 90.4 61.1c7.6 74.3 159.3 84.6 159.3 84.6s-1 .7-2.8 1.9c-125.3 82.3-245.1 52.4-227.1-56.8 6.7-40.7 6.2-81.5-19.8-90.8z"/>
  <path fill="#fff" d="M-498 607.6s82.9-13.2 90.4 61.1c7.6 74.3 159.3 84.6 159.3 84.6s-1 .7-2.8 1.9c-125.3 82.3-245.1 52.4-227.1-56.8 6.7-40.7 6.2-81.5-19.8-90.8z" opacity=".3"/>
  <ellipse cx="-389.6" cy="547.2" fill="#8ed16f" rx="22.8" ry="59.5"/>
  <ellipse cx="-389.6" cy="547.2" opacity=".3" rx="22.8" ry="59.5"/>
  <ellipse cx="-415.9" cy="739" fill="#8ed16f" rx="34.2" ry="15.4" transform="rotate(-134.999 -415.892 738.97)"/>
  <ellipse cx="-415.9" cy="739" opacity=".3" rx="34.2" ry="15.4" transform="rotate(-134.999 -415.892 738.97)"/>
  <linearGradient id="b" x1="89.993" x2="89.993" y1="137.102" y2="502.422" gradientTransform="matrix(1 0 0 -1 -113 928.418)" gradientUnits="userSpaceOnUse">
    <stop offset="0" stop-color="gray" stop-opacity=".25"/>
    <stop offset=".54" stop-color="gray" stop-opacity=".12"/>
    <stop offset="1" stop-color="gray" stop-opacity=".1"/>
  </linearGradient>
  <path fill="url(#b)" d="M246.7 426h-539.4c-13.6 0-24.6 11-24.6 24.6v316.2c0 13.6 11 24.6 24.6 24.6h539.4c13.6 0 24.6-11 24.6-24.6V450.6c0-13.6-11-24.6-24.6-24.6z"/>
  <path fill="#6c63ff" d="M-284.8 430.3h523.7c14.1 0 25.5 11.4 25.5 25.5v305.7c0 14.1-11.4 25.5-25.5 25.5h-523.7c-14.1 0-25.5-11.4-25.5-25.5V455.8c-.1-14.1 11.4-25.5 25.5-25.5z"/>
  <path fill="#6c63ff" d="M-310.4 492.7h574.7v65.4h-574.7z"/>
  <path d="M-310.4 492.7h574.7v65.4h-574.7z" opacity=".3"/>
  <path fill="#d6d6e3" d="M-255.9 606.7h465.7v31.7h-465.7z"/>
  <circle cx="-217.2" cy="717.7" r="45.6" fill="#6c63ff"/>
  <circle cx="-217.2" cy="717.7" r="45.6" opacity=".3"/>
  <linearGradient id="c" x1="1457.909" x2="1457.909" y1="91.319" y2="659.453" gradientTransform="rotate(180 900.5 464.21)" gradientUnits="userSpaceOnUse">
    <stop offset="0" stop-color="gray" stop-opacity=".25"/>
    <stop offset=".54" stop-color="gray" stop-opacity=".12"/>
    <stop offset="1" stop-color="gray" stop-opacity=".1"/>
  </linearGradient>
  <path fill="url(#c)" d="M231.7 342.3c.7 2.3 2.3 4.3 4.4 5.6 9.5 6.2 30 4.9 32.5 4.9.5 0 1.2.9 2 2.5 3.6 7.5 9.3 29.4 9.6 34.4.5 6 6.1 33.9 15.2 44.4.3.3.6.6.8.9 8.9 9 19.4-.9 19.4-.9l1.5-5.2c-.4 2.1-.9 4.5-1.4 7.1-.2 1.3-.5 2.8-.7 4.2-1.4 8.3-2.1 16.7-2.1 25.1 0 3 .1 6.1.4 9.1.1.8.2 1.7.3 2.5.5 3.7.7 7.4.7 11.2-.1 22.1-5.7 49.7-5.7 49.7l.2-.1c-.1.7-.2 1-.2 1l.3-.1c-.2 1-.3 2.1-.5 3.1-1.9 13.9-3 31.2-3.5 41.2-.3 5.3 0 10.5.7 15.8l10 70.7v32.9c0 5 .6 10 1.8 14.8 3.3 12.4.6 55.9-.9 76.4-.4 5.6-.8 9.5-.8 10.7v.3l.3-.1v.4c.4-.2.9-.3 1.3-.4-4 6.2-11.2 16.4-16.7 18.1-3.3 1-6.2 2.9-8.4 5.5l-.1.2-.2.3c-.7.9-1.1 2-1.2 3.1-.1-.2-.1-.4-.2-.6-.4 2.3 1 4.4 5.3 5.4 2.5.5 5.1.7 7.7.6 15 0 41.7-4.6 44.6-9.6v-17.1l.5.2v.2l1.8.6 5.1-17c6.1-4.5 1-84.8 0-103.2-.9-16.8 9.5-83.7 11.3-95.5l-.2-.3.3-1.7c.4.3.7.6 1 .9.6.7 1.1 1.5 1.6 2.3.9 1.5 1.6 3 2.2 4.6 10.2 25.3 14.7 97.8 14.7 104.3V774c0 6.7.9 13.4 2.8 19.9.9 3.4 1.7 6.9 2.2 10.3.2 1.4.4 2.7.6 4 .2 1.3.3 2.8.5 4 0 .3.1.6.1.9v.4c.3 2.7.4 4.4.4 4.4 0-.1.1-.3.2-.4l.1.6c.1-.2.2-.5.4-.6.4-.4.9-.8 1.4-1.1v8.7l-.2-.2v1.5c10.5 7.9 27.5 10.3 40.6 10.2 8.5 0 15.4-1 17.7-2.2 3.4-1.7 1.5-5.6-1.6-8.6-2.4-2.3-5.5-4.1-7.5-3.9-3.3.4-14.6-12.5-20.6-19.5l.7-.3.9-.4V688.1s1.5-44.9 6.1-89.3c2.2-22.4-.5-44.9-7.8-66.2l-.1-.4 1.4.2c1.5.2 2.2.4 2.2.4s0-.3-.1-1h.1s-1.8-19.2-1.8-43.4c0-27.4 2.3-60.8 11.9-79.7 5.5-10.9 7.4-19.5 7.2-26.4.2-6-1.5-11.9-4.9-16.9-1.4-2-3.4-3.5-5.7-4.5l-.2-.1h-.4c-1.7-.7-3.4-1-5.2-1h-20.7c-2.4 0-4.7-.6-6.8-1.8l-8.1-4.6c-2.7-5.9-3.1-13.2-2.5-20.1 0-.5.1-1.1.2-1.6l.6-.6c.5-.5.9-1 1.3-1.5 0 .4 0 .8-.1 1.2-.1.6-.3 1-.6 1.1 4.4-.6 9.4-1.5 12.1-4.9.1-.1.2-.3.3-.4.8-1.3 1.5-2.7 2-4.1.4-1 .9-1.9 1.5-2.8.7-.9 1.6-1.6 2.3-2.4l.1-.1c2.6-3.1 2.7-7.5 2.8-11.5.1-9.8-.2-20.6-6.8-27.9-5.4-6.1-14.1-8.4-22.4-8.7-8.2-.3-16.5 1.2-24.7 1.3-5.6 0-12.3-.1-15.4 4.5-1.5 2.3-1.7 5.2-3.3 7.4-.9 1.3-2.4 2.3-2.5 3.9 0 .7.2 1.4.5 2.1v.1c2 3.9 6.2 6.4 10.7 7.1-.7.9-1.4 1.8-2.1 2.8-2.7 4.3-4.1 9.3-4.1 14.4 0 .6 0 1.2.1 1.8.5 6.9 3.5 13.4 8.6 18.1-.1.6-.2 1.2-.3 1.7l.2.2 1.8 1.5.2.2v1c0 .6 0 1.2-.1 1.8-.1.6 0 .9-.1 1.4l-.1-.1-10.1-8.4-16.2-15s-40.4-29.4-42.4-15.4c-.2 2.5.4 5 1.9 7 7.4 11.3 32.9 20.9 32.9 20.9s15.2 16.1 25.4 33.4c-.4.2-.7.4-1.1.6-9.1 4.2-22.3 2.4-22.3 2.4-15.3 2.4-16.6 19.1-16.6 25.9v1.4l-20.2-47.5-.1-.1c-1.3-3.1-4.2-5.4-7.6-5.9-13.3-2.5-47.2-7.3-44.3 2.7zm84.7 461.9c.3-.1.6-.1.9-.2l-.1.1-.8.1z"/>
  <path fill="#aca9c9" d="M417.6 794.5s19.2 24.1 23.6 23.6c4.4-.5 14.8 9.3 8.9 12.3s-39.8 4.9-56.6-7.9v-19.3l24.1-8.7zM320.7 796s-11.3 20.2-19.2 22.6c-7.9 2.5-14.8 11.3-4.4 13.8 10.3 2.5 47.2-3 50.7-8.9v-26.1l-27.1-1.4z"/>
  <path fill="#618fd8" d="M306.5 597.9l9.8 69.7V700c0 4.9.6 9.8 1.8 14.6 3.2 12.3.6 55.1-.9 75.4-.5 6.6-.9 10.9-.9 10.9 6.4-3 33.4 6.4 33.4 6.4l2.7-9.3 2.2-7.4c5.9-4.4 1-83.6 0-101.8-.7-12.5 4.9-52.8 8.4-77.1 1-6.8 1.9-12.3 2.4-15.7.3-2.1.5-3.2.5-3.2 1.1.9 2 2 2.7 3.2.8 1.5 1.6 3 2.2 4.5 9.9 25 14.4 96.5 14.4 102.9v67.2c0 6.6.9 13.2 2.7 19.6 1.2 4.7 2.1 9.4 2.7 14.2.7 5.3 1 9.6 1 9.6.5-3 31-16.2 31-16.2V685.7s1.5-44.2 5.9-88c1.9-19.9 0-40-5.7-59.2-1.2-4.2-2.4-7.7-3.5-10.5-1.8-4.8-3.1-7.4-3.1-7.4H315.7c-1.7.3-3.1 3.7-4.4 8.9-.8 3.5-1.5 7.7-2.2 12.3-1.9 13.7-2.9 30.7-3.4 40.6-.2 5.1.1 10.3.8 15.5z"/>
  <g opacity=".1">
    <path d="M420.8 798.2V686.1s1.5-44.2 5.9-88-12.3-77.2-12.3-77.2h2s16.7 33.4 12.3 77.2-5.9 88-5.9 88v112.1s-30.5 13.3-31 16.2c0 0 0-.7-.2-1.8 6.6-4.6 29.2-14.4 29.2-14.4zM319.2 800.6c-.9 0-1.8.2-2.7.6v-.5c.9-.1 1.8-.1 2.7-.1zM352.9 790.8c5.9-4.4 1-83.6 0-101.8-1-18.2 11.3-95.9 11.3-95.9.6.5 1.2 1.1 1.7 1.7-1.8 11.6-11.9 77.6-11 94.2 1 18.2 5.9 97.4 0 101.8l-4.9 16.7-1.8-.6 4.7-16.1z"/>
  </g>
  <path fill="#f7c4a7" d="M326.6 399.1l-10.3 36.4s-10.8 10.3-19.7 0c-8.8-10.3-14.3-37.9-14.8-43.8s-8.4-36.4-11.3-36.4-32.5 2-35.9-10.3c-2.8-9.9 30.2-5.1 43.4-2.9 3.3.6 6.1 2.8 7.4 5.9l20.2 48.3c-.1 0 10.7-12.5 21 2.8zM393 314.5s-12.8 35.9 3.4 48.7c16.2 12.8-58.1 16.2-58.1 16.2l10.1-9.6s7.1-28.3 2.2-51.9l42.4-3.4z"/>
  <path d="M377.2 363.2s13-3.2 13-6.6l11.6 6.6h29s21.2 11.8 3.4 47.2-9.8 122.4-9.8 122.4-62.9-11.3-115.1 5.9c0 0 7.9-38.9 4.9-61s4.9-53.1 4.9-53.1l4.4-18.7s-.2-17.5-18.4-8.6c0 0-2.7-25.3 16-28.3 0 0 21.6 3 28-7.9.1.1 14.4 8.5 28.1 2.1z" opacity=".1"/>
  <path fill="#e14b5a" d="M377.2 362.2s13-3.2 13-6.6l8.5 4.9c2 1.2 4.3 1.8 6.6 1.8h20.3c4.3 0 8.4 2 10.9 5.5 4.7 6.6 8.8 19.5-2.3 41.7-17.7 35.4-9.8 122.4-9.8 122.4s-62.9-11.3-115.1 5.9c0 0 7.9-38.9 4.9-61s4.9-53 4.9-53l4.4-18.7s-.2-17.5-18.4-8.6c0 0-2.6-24.6 15.2-28.1.5-.1 1-.1 1.5-.1 3.8.4 21.6 1.7 27.3-8 .1-.1 14.4 8.3 28.1 1.9z"/>
  <path d="M426.9 407s-15.7 9.8-41.3 0c0 0-28-10.3-36.9-30.5s44.8 3.4 44.8 3.4 11.3 0 14.8-2.5c3.4-2.4 27.5 18.7 18.6 29.6z" opacity=".1"/>
  <path fill="#f7c4a7" d="M426.9 405s-15.7 9.8-41.3 0c0 0-28-10.3-36.9-30.5-8.9-20.2-29.5-42.3-29.5-42.3s-35.9-13.8-33.9-27.5 41.3 15.2 41.3 15.2l15.7 14.8 51.1 43.3s11.3 0 14.8-2.5 27.6 18.7 18.7 29.5z"/>
  <path d="M350.2 319.4l42.3-3.4c-2.2 6.5-3.7 13.2-4.4 20-10.2 10.6-27.1 11.1-37.9 1 1.1-5.8 1.1-11.8 0-17.6z" opacity=".1"/>
  <circle cx="369.1" cy="315.7" r="27" fill="#f7c4a7"/>
  <path d="M384 321.6c-1.6-2.6 1.6-6 .6-8.9-1-2.6-4.9-3.1-6.2-5.5-1-2 0-4.4-.4-6.6-.6-2.8-3.6-4.6-6.5-4.7-2.9-.1-5.7.9-8.4 1.9-4.5 1.5-9.2 2.7-13.9 2.1-4.7-.5-9.4-3.1-11.5-7.3-.3-.6-.5-1.3-.5-2 .1-1.5 1.5-2.6 2.4-3.8 1.6-2.2 1.8-5.1 3.3-7.3 3-4.6 9.5-4.5 15-4.5 8 0 16-1.5 24-1.2s16.5 2.5 21.8 8.6c6.4 7.3 6.7 17.9 6.6 27.5 0 4-.2 8.3-2.7 11.4-.7.9-1.6 1.6-2.4 2.6-1.5 2.1-2 4.7-3.4 6.8-2.6 3.7-7.6 4.6-12.1 5.2 1.3-.2.2-9 0-9.8-.9-4.2-1.8-4.1-5.7-4.5z" opacity=".1"/>
  <path fill="#281c1c" d="M384 320.6c-1.6-2.6 1.6-6 .6-8.9-1-2.6-4.9-3.1-6.2-5.5-1-2 0-4.4-.4-6.6-.6-2.8-3.6-4.6-6.5-4.7-2.9-.1-5.7.9-8.4 1.9-4.5 1.5-9.2 2.7-13.9 2.1-4.7-.5-9.4-3.1-11.5-7.3-.3-.6-.5-1.3-.5-2 .1-1.5 1.5-2.6 2.4-3.8 1.6-2.2 1.8-5.1 3.3-7.3 3-4.6 9.5-4.5 15-4.5 8 0 16-1.5 24-1.2s16.5 2.5 21.8 8.6c6.4 7.3 6.7 17.9 6.6 27.5 0 4-.2 8.3-2.7 11.4-.7.9-1.6 1.6-2.4 2.6-1.5 2.1-2 4.7-3.4 6.8-2.6 3.7-7.6 4.6-12.1 5.2 1.3-.2.2-9 0-9.8-.9-4.2-1.8-4.1-5.7-4.5z"/>
  <path d="M426.7 408.2s-13.3-34.4-23.6-35.4 19.7 0 19.7 0l9.8 17.7-5.9 17.7z" opacity=".1"/>
  <path fill="#e14b5a" d="M427.7 408.2s-13.3-34.4-23.6-35.4 19.7 0 19.7 0l9.8 17.7-5.9 17.7z"/>
  <path fill="#618fd8" d="M390.5 804.6c.7 5.3 1 9.6 1 9.6.5-3 31-16.2 31-16.2v-8c-.8 0-1.6 0-2.3.1-5.9.8-11.4 3.7-16.5 6.7-4.3 2.8-8.7 5.4-13.2 7.8z"/>
  <path d="M390.5 804.6c.7 5.3 1 9.6 1 9.6.5-3 31-16.2 31-16.2v-8c-.8 0-1.6 0-2.3.1-5.9.8-11.4 3.7-16.5 6.7-4.3 2.8-8.7 5.4-13.2 7.8z" opacity=".3"/>
  <path fill="#618fd8" d="M316.3 800.9c6.4-3 33.4 6.4 33.4 6.4l2.7-9.3c-4.7-1-9.4-2.2-14-3.6-2.2-.6-4.3-1.4-6.3-2.3-1.4-.7-2.8-1.4-4.2-2-3.5-1.2-7.2-.7-10.8-.1-.5 6.7-.8 10.9-.8 10.9z"/>
  <path d="M316.3 800.9c6.4-3 33.4 6.4 33.4 6.4l2.7-9.3c-4.7-1-9.4-2.2-14-3.6-2.2-.6-4.3-1.4-6.3-2.3-1.4-.7-2.8-1.4-4.2-2-3.5-1.2-7.2-.7-10.8-.1-.5 6.7-.8 10.9-.8 10.9z" opacity=".3"/>
  <path fill="#fff" d="M449.8 828.9c.8-.4 1.5-1.1 1.7-2 .4 1.4-.3 2.9-1.7 3.4-5.9 3-39.8 4.9-56.6-7.9v-1.5c16.8 13 50.7 11 56.6 8zM296.8 830.9c10.3 2.5 47.2-3 50.7-8.9v1.5c-3.4 5.9-40.3 11.3-50.7 8.9-4.2-1-5.6-3.1-5.1-5.3.3 1.6 1.9 3 5.1 3.8z" opacity=".4"/>
  <path d="M356.8 472.6s-10.8-3.4-13.8 0-28.2 11.5-28.2 11.5" opacity=".1"/>
  <path fill="#8ed16f" d="M234.4 336.4H287v1.1h-52.6zM234.4 337.5H287v1.1h-52.6z"/>
  <path d="M234.4 337.5H287v1.1h-52.6z" opacity=".1"/>
  <path fill="#8ed16f" d="M234.4 338.6H287v1.1h-52.6z"/>
  <path fill="#8ed16f" d="M234.4 339.7H287v1.1h-52.6z"/>
  <path d="M234.4 339.7H287v1.1h-52.6z" opacity=".1"/>
  <path fill="#8ed16f" d="M234.4 340.8H287v1.1h-52.6z"/>
  <path fill="#8ed16f" d="M234.4 341.9H287v1.1h-52.6z"/>
  <path d="M234.4 341.9H287v1.1h-52.6z" opacity=".1"/>
  <path fill="#8ed16f" d="M234.4 343H287v1.1h-52.6zM234.4 344.1H287v1.1h-52.6z"/>
  <path d="M234.4 344.1H287v1.1h-52.6z" opacity=".1"/>
  <path fill="#8ed16f" d="M234.4 327.5H287v1.1h-52.6zM272.32 301.496l40.438 33.632-.703.846-40.439-33.633zM235.422 283.788l40.439 33.632-.703.846-40.44-33.633z"/>
  <path fill="#8ed16f" d="M234.4 328.6H287v1.1h-52.6z"/>
  <path d="M234.4 328.6H287v1.1h-52.6z" opacity=".1"/>
  <path fill="#8ed16f" d="M234.4 329.8H287v1.1h-52.6z"/>
  <path fill="#8ed16f" d="M234.4 330.9H287v1.1h-52.6z"/>
  <path d="M234.4 330.9H287v1.1h-52.6z" opacity=".1"/>
  <path fill="#8ed16f" d="M234.4 332H287v1.1h-52.6zM234.4 333.1H287v1.1h-52.6z"/>
  <path d="M234.4 333.1H287v1.1h-52.6z" opacity=".1"/>
  <path fill="#8ed16f" d="M234.4 334.2H287v1.1h-52.6zM234.4 335.3H287v1.1h-52.6z"/>
  <path d="M234.4 335.3H287v1.1h-52.6z" opacity=".1"/>
  <path fill="#8ed16f" d="M234.57 342.78l18.878 3.505-6.83 36.772-18.877-3.506z"/>
  <ellipse cx="240.8" cy="363" fill="#8ed16f" rx="3.9" ry="7.9" transform="rotate(-169.483 240.81 363.02)"/>
  <ellipse cx="240.8" cy="363" opacity=".1" rx="3.9" ry="7.9" transform="rotate(-169.483 240.81 363.02)"/>
  <path fill="#8ed16f" d="M237.763 420.375l18.877 3.506-6.83 36.772-18.877-3.506z"/>
  <ellipse cx="244" cy="440.6" fill="#8ed16f" rx="3.9" ry="7.9" transform="rotate(-169.483 244.027 440.572)"/>
  <ellipse cx="244" cy="440.6" opacity=".1" rx="3.9" ry="7.9" transform="rotate(-169.483 244.027 440.572)"/>
  <path fill="#8ed16f" d="M195.612 284.217l-9.138 16.887-32.893-17.799 9.137-16.886z"/>
  <ellipse cx="177.8" cy="284.5" fill="#8ed16f" rx="7.9" ry="3.9" transform="scale(-1) rotate(28.613 1115.57 -697.275)"/>
  <ellipse cx="177.8" cy="284.5" opacity=".1" rx="7.9" ry="3.9" transform="scale(-1) rotate(28.613 1115.57 -697.275)"/>
  <path fill="#8ed16f" d="M123.416 617.13l-9.137 16.887-32.894-17.799 9.138-16.886z"/>
  <ellipse cx="102.3" cy="616.8" fill="#8ed16f" rx="7.9" ry="3.9" transform="rotate(-151.582 102.32 616.824)"/>
  <ellipse cx="102.3" cy="616.8" opacity=".1" rx="7.9" ry="3.9" transform="rotate(-151.582 102.32 616.824)"/>
  <path fill="#8ed16f" d="M79.228 342.398l-9.137 16.886-32.894-17.798 9.138-16.887z"/>
  <ellipse cx="58.2" cy="342.2" fill="#8ed16f" rx="7.9" ry="3.9" transform="rotate(-151.582 58.158 342.15)"/>
  <ellipse cx="58.2" cy="342.2" opacity=".1" rx="7.9" ry="3.9" transform="rotate(-151.582 58.158 342.15)"/>
  <path fill="#8ed16f" d="M134.624 284.199l-9.137 16.886-32.894-17.798 9.138-16.887z"/>
  <ellipse cx="113.5" cy="284" fill="#8ed16f" rx="7.9" ry="3.9" transform="rotate(-151.582 113.504 283.98)"/>
  <ellipse cx="113.5" cy="284" opacity=".1" rx="7.9" ry="3.9" transform="rotate(-151.582 113.504 283.98)"/>
  <path fill="#8ed16f" d="M161.091 372.236l-19.087 2.087-4.065-37.179 19.087-2.087z"/>
  <ellipse cx="149.3" cy="354.7" fill="#8ed16f" rx="7.9" ry="3.9" transform="scale(-1) rotate(83.76 395.623 -166.464)"/>
  <ellipse cx="149.3" cy="354.7" opacity=".1" rx="7.9" ry="3.9" transform="scale(-1) rotate(83.76 395.623 -166.464)"/>
  <path fill="#8ed16f" d="M291.769 575.621l-19.087 2.087-4.065-37.18 19.086-2.086z"/>
  <ellipse cx="280" cy="558.2" fill="#8ed16f" rx="7.9" ry="3.9" transform="scale(-1) rotate(83.76 622.52 -312.234)"/>
  <ellipse cx="280" cy="558.2" opacity=".1" rx="7.9" ry="3.9" transform="scale(-1) rotate(83.76 622.52 -312.234)"/>
  <path fill="#8ed16f" d="M115.249 431.869l-9.138 16.886-32.893-17.798 9.137-16.887z"/>
  <ellipse cx="94.1" cy="431.6" fill="#8ed16f" rx="7.9" ry="3.9" transform="rotate(-151.582 94.11 431.554)"/>
  <ellipse cx="94.1" cy="431.6" opacity=".1" rx="7.9" ry="3.9" transform="rotate(-151.582 94.11 431.554)"/>
  <path fill="#8ed16f" d="M32.245 408.087l-9.137 16.886-32.893-17.798 9.137-16.887z"/>
  <ellipse cx="13.9" cy="409" fill="#8ed16f" rx="7.9" ry="3.9" transform="scale(-1) rotate(28.613 1603.602 -54.551)"/>
  <ellipse cx="13.9" cy="409" opacity=".1" rx="7.9" ry="3.9" transform="scale(-1) rotate(28.613 1603.602 -54.551)"/>
  <path fill="#8ed16f" d="M5.736 806.95l-9.137 16.886-32.894-17.8 9.138-16.886z"/>
  <ellipse cx="-15.4" cy="806.7" fill="#8ed16f" rx="7.9" ry="3.9" transform="rotate(-151.582 -15.404 806.706)"/>
  <ellipse cx="-15.4" cy="806.7" opacity=".1" rx="7.9" ry="3.9" transform="rotate(-151.582 -15.404 806.706)"/>
  <path fill="#8ed16f" d="M-14.282 802.519l-3.502 18.877-36.772-6.822 3.502-18.877z"/>
  <path d="M-14.282 802.519l-3.502 18.877-36.772-6.822 3.502-18.877z" opacity=".05"/>
  <ellipse cx="-34.5" cy="808.7" fill="#8ed16f" rx="7.9" ry="3.9" transform="rotate(-169.483 -34.475 808.753)"/>
  <ellipse cx="-34.5" cy="808.7" opacity=".1" rx="7.9" ry="3.9" transform="rotate(-169.483 -34.475 808.753)"/>
  <path fill="#8ed16f" d="M-10.824 813.785l-3.502 18.877-36.772-6.822 3.502-18.877z"/>
  <ellipse cx="-31" cy="820.1" fill="#8ed16f" rx="7.9" ry="3.9" transform="rotate(-169.483 -31.042 820.06)"/>
  <ellipse cx="-31" cy="820.1" opacity=".1" rx="7.9" ry="3.9" transform="rotate(-169.483 -31.042 820.06)"/>
  <path fill="#8ed16f" d="M44.472 855.435l-9.137 16.887-32.893-17.799 9.137-16.886z"/>
  <ellipse cx="23.4" cy="855.2" fill="#8ed16f" rx="7.9" ry="3.9" transform="rotate(-151.582 23.378 855.179)"/>
  <ellipse cx="23.4" cy="855.2" opacity=".1" rx="7.9" ry="3.9" transform="rotate(-151.582 23.378 855.179)"/>
  <path fill="#8ed16f" d="M24.457 850.99l-3.502 18.878-36.772-6.822 3.502-18.877z"/>
  <path d="M24.457 850.99l-3.502 18.878-36.772-6.822 3.502-18.877z" opacity=".05"/>
  <ellipse cx="4.3" cy="857.2" fill="#8ed16f" rx="7.9" ry="3.9" transform="rotate(-169.483 4.295 857.214)"/>
  <ellipse cx="4.3" cy="857.2" opacity=".1" rx="7.9" ry="3.9" transform="rotate(-169.483 4.295 857.214)"/>
  <path fill="#8ed16f" d="M27.924 862.272l-3.502 18.878-36.772-6.822 3.502-18.877z"/>
  <ellipse cx="7.7" cy="868.5" fill="#8ed16f" rx="7.9" ry="3.9" transform="rotate(-169.483 7.747 868.533)"/>
  <ellipse cx="7.7" cy="868.5" opacity=".1" rx="7.9" ry="3.9" transform="rotate(-169.483 7.747 868.533)"/>
  <path fill="#8ed16f" d="M102.69 824.25l-9.137 16.886-32.893-17.799 9.137-16.886z"/>
  <ellipse cx="81.5" cy="823.9" fill="#8ed16f" rx="7.9" ry="3.9" transform="rotate(-151.582 81.533 823.937)"/>
  <ellipse cx="81.5" cy="823.9" opacity=".1" rx="7.9" ry="3.9" transform="rotate(-151.582 81.533 823.937)"/>
  <path fill="#8ed16f" d="M82.704 819.702l-3.502 18.877-36.772-6.822 3.503-18.877z"/>
  <path d="M82.704 819.702l-3.502 18.877-36.772-6.822 3.503-18.877z" opacity=".05"/>
  <ellipse cx="62.5" cy="826" fill="#8ed16f" rx="7.9" ry="3.9" transform="rotate(-169.483 62.465 825.981)"/>
  <ellipse cx="62.5" cy="826" opacity=".1" rx="7.9" ry="3.9" transform="rotate(-169.483 62.465 825.981)"/>
  <path fill="#8ed16f" d="M86.053 831.061l-3.502 18.878-36.771-6.822 3.502-18.877z"/>
  <ellipse cx="65.9" cy="837.3" fill="#8ed16f" rx="7.9" ry="3.9" transform="rotate(-169.483 65.916 837.3)"/>
  <ellipse cx="65.9" cy="837.3" opacity=".1" rx="7.9" ry="3.9" transform="rotate(-169.483 65.916 837.3)"/>
</svg>