<svg xmlns="http://www.w3.org/2000/svg" viewBox="0 0 200.4 66.5">
  <path fill="#fff" d="M31.5 14.5v23.1c0 7.7-3.4 10.9-11.4 10.9S8.7 45.3 8.7 37.6V13.5H1c-.7 0-1 .3-1 1v23.4c0 12.9 8.2 17.4 20.1 17.4 11.9 0 20.1-4.5 20.1-17.4V13.5h-7.7c-.6 0-1 .3-1 1"/>
  <path fill="#fff" d="M143.2 20.2c.6 0 .9-.2 1.1-.7l2.2-5.5c.1-.3 0-.5-.3-.5h-31c-2.9 0-4 .9-4 2.9v35.8c0 1.7.8 2.4 3.1 2.4h28.9c.6 0 .9-.2 1.1-.7l2.2-5.5c.1-.3 0-.5-.3-.5h-26.5v-7.3c0-2.5 1.4-3.7 5.1-3.7h11.5c.6 0 .9-.2 1.1-.7l2.1-5.3c.1-.3 0-.5-.3-.5h-19.6V20.2h23.6M80.5 48H65.3v-7.5c0-2.5 1.4-3.7 5.1-3.7h10.1c4.8 0 6.2 1.9 6.2 5.6 0 3.8-1.4 5.6-6.2 5.6zM65.3 20.1h13.6c4.5 0 5.8 1.7 5.8 5.3 0 3.5-1.3 5.3-5.8 5.3H65.3V20.1zm23.3 12.8c3.4-1.8 4.8-5.1 4.8-9 0-9.1-7.4-10.4-15.1-10.4H60.7c-2.9 0-4 .9-4 2.9v35.8c0 1.7.8 2.4 3.1 2.4h21.5c8.1 0 13.9-3.2 13.9-11.4.1-4.9-2-9-6.6-10.3zM184.2 32.6h-14.3V20.1h14.3c5.3 0 6.5 2.1 6.5 6.2 0 4.2-1.1 6.3-6.5 6.3zm16.1 21.3l-9.2-15.8c4.6-1.2 8.3-4.2 8.3-11.9 0-10-6.2-12.7-16.4-12.7h-17.6c-2.9 0-4 .9-4 2.9v37.2c0 .7.3 1 1 1h7.5v-12c0-2.5 1.4-3.7 5.1-3.7h7.6l8.3 15c.3.4.5.7 1.1.7h7.8c.7 0 .7-.5.5-.7z"/>
</svg>