<svg xmlns="http://www.w3.org/2000/svg" viewBox="-178 180.1 155 152.9">
  <g fill="#ffc107">
    <path d="M-117.4 281c5.2 4.7 10.7 8.8 16.4 12.3 13.9-6 27.4-15 39.3-27 24.6-24.6 36.9-55.9 35.8-83.8-27.9-1.1-59.1 11.2-83.8 35.8-12 12-20.9 25.5-27 39.3 3.6 5.8 7.7 11.4 12.4 16.5"/>
    <path d="M-56.2 186.4c3.3 5.5 7.1 10.4 11.7 14.9 4.6 4.6 9.5 8.4 14.9 11.6"/>
  </g>
  <path fill="none" stroke="#18ab63" stroke-linecap="round" stroke-linejoin="round" stroke-miterlimit="10" stroke-width="4" d="M-168.3 308.5l-6.9 6.8M-164.9 321.7l-3 2.9" opacity=".5"/>
  <circle cx="-69.4" cy="226.2" r="21.8" fill="#fff"/>
  <path fill="none" stroke="#18ab63" stroke-linecap="round" stroke-linejoin="round" stroke-miterlimit="10" stroke-width="4" d="M-72.9 212.1c2.5-.6 5.2-.5 7.8.3M-79.7 236.5c-5.7-5.7-5.7-14.9 0-20.6"/>
  <g fill="none" stroke="#ffc107" stroke-linecap="round" stroke-linejoin="round" stroke-miterlimit="10" stroke-width="4">
    <path d="M-122.7 233.9c-12.5-2-25.7 1.8-35.4 11.5-3.9 3.7-6.7 8.1-8.7 12.7 8.9-1.7 19.2-1.9 30.3-.5 3.6-8.2 8.2-16.2 13.8-23.7zM-100 315.6c-.1.6-.8 5.1-.9 5.6-.1.8-.3 1.7-.4 2.4 4.6-2 9-4.8 12.7-8.7 9.7-9.7 13.5-22.8 11.5-35.4-7.6 5.6-15.5 10.2-23.7 13.6.8 6 1 11.7.9 17.2"/>
  </g>
  <g fill="none" stroke="#fff" stroke-linecap="round" stroke-linejoin="round" stroke-miterlimit="10" stroke-width="4">
    <path d="M-110.5 274.1c6.1 5.6 12.6 10.2 19.6 14.1M-131.4 247.6c3.8 6.9 8.5 13.5 14.1 19.6"/>
  </g>
  <path fill="none" stroke="#fff" stroke-linecap="round" stroke-linejoin="round" stroke-miterlimit="10" stroke-width="4" d="M-133.6 290.4h0c-1.9-1.9-1.9-5 0-6.9l25.5-25.4c1.9-1.9 5-1.9 6.9 0h0c1.9 1.9 1.9 5 0 6.9l-25.5 25.5c-1.9 1.8-5 1.8-6.9-.1z"/>
  <path fill="none" stroke="#18ab63" stroke-linecap="round" stroke-linejoin="round" stroke-miterlimit="10" stroke-width="4" d="M-105.8 299.7c-4.3-2.7-8.7-5.9-12.9-9.4l-4.2 4.2c-3.9 3.9-10.4 3.9-14.4 0h0c-3.9-3.9-3.9-10.4 0-14.4l4.2-4.2c-3.7-4.3-7-8.9-9.9-13.5-3.7 2-7.4 4.7-10.7 8.1-9.5 9.5-14 21.6-12.2 30.7 1.9.4 3.9.5 6.1.4-1.8 5.7-2.2 11.2-1.1 16 4.8 1 10.4.5 16-1.1-.1 2.2-.1 4.2.4 6.1 9 1.9 21.1-2.5 30.7-12.2 3.3-3.2 5.9-6.9 8-10.7zM-152.2 250.2L-164 262" opacity=".5"/>
  <path fill="none" stroke="#ffc107" stroke-linecap="round" stroke-linejoin="round" stroke-miterlimit="10" stroke-width="4" d="M-156.1 263.9l-8.8 8.8M-169.8 267.9l-2 1.9"/>
  <path fill="none" stroke="#18ab63" stroke-linecap="round" stroke-linejoin="round" stroke-miterlimit="10" stroke-width="4" d="M-93.5 309l-18.8 18.9" opacity=".5"/>
  <path fill="none" stroke="#ffc107" stroke-linecap="round" stroke-linejoin="round" stroke-miterlimit="10" stroke-width="4" d="M-107.1 312.9l-8.9 8.8M-121.9 327.6l-2.9 3"/>
</svg>