<?xml version="1.0" encoding="utf-8"?>
<!-- Generator: Adobe Illustrator 19.0.0, SVG Export Plug-In . SVG Version: 6.00 Build 0)  -->
<svg version="1.1" id="Layer_1" xmlns="http://www.w3.org/2000/svg" xmlns:xlink="http://www.w3.org/1999/xlink" x="0px" y="0px"
	 viewBox="0 0 500 500" style="enable-background:new 0 0 500 500;" xml:space="preserve">
<g>
	<title>Layer 1</title>
	<path id="svg_1" style="opacity:0.1;fill:#44A147;enable-background:new    ;" d="M500,292.7c0,14.5-3.9,28.7-11.4,41
		c0,15.1-7.1,28.8-18.5,38.8c-2.9,2.5-5.9,4.7-9.2,6.7c-0.1,0.1-0.3,0.2-0.4,0.2c-0.2,0.1-0.5,0.3-0.7,0.4l-0.2,0.1
		c-1,0.6-2.1,1.2-3.2,1.7c-10,4.9-21.1,7.5-32.2,7.4H94.9c-2.6,0-5.2-0.1-7.8-0.3c-9.2-0.7-18.1-2.8-26.7-6.2
		c-1.7-0.7-3.3-1.4-4.9-2.1c-0.8-0.4-1.5-0.7-2.3-1.1c-0.5-0.2-0.9-0.5-1.4-0.7c-2.8-1.5-5.5-3.1-8.2-5c-2.4-1.6-4.7-3.4-6.9-5.3
		c-14.9-12.8-24.1-30.4-24.1-49.9C4.4,305.8,0,290.8,0,275.5C0,232.1,34.6,197,77.4,197c1.3,0,2.6,0,3.9,0.1c0.2,0,0.4,0,0.6,0
		c7.2-12.3,16.8-23.6,28.4-33.5c31.6-27.1,77.7-44.1,129.1-44.1c43.2,0,82.7,12,112.9,31.9c11.5-6.5,24.4-9.9,37.6-9.9
		c42.7,0,77.4,35.1,77.4,78.5c0,2.7-0.2,5.5-0.4,8.2C487.7,243.1,500.1,267.1,500,292.7z"/>
	<path id="svg_2" style="opacity:0.1;fill:#44A147;enable-background:new    ;" d="M398,230.5v-4.7c8.7-3.5,12.9-13.5,9.4-22.2
		c-3.5-8.7-13.5-12.9-22.2-9.4c-8.7,3.5-12.9,13.5-9.4,22.2c1.7,4.3,5.1,7.7,9.4,9.4v4.7c-4.3,1.2-8.1,3.5-11.2,6.8
		c-3.2-4.8-8-8.3-13.6-9.8v-4.7c8.7-3.5,12.9-13.5,9.4-22.2c-3.5-8.7-13.5-12.9-22.2-9.4s-12.9,13.5-9.4,22.2
		c1.7,4.3,5.1,7.7,9.4,9.4v4.7c-3.8,1.1-7.3,3-10.1,5.8c-3.2-4.3-7.7-7.4-12.9-8.8v-4.7c8.7-3.5,12.9-13.5,9.4-22.2
		c-3.5-8.7-13.5-12.9-22.2-9.4c-8.7,3.5-12.9,13.5-9.4,22.2c1.7,4.3,5.1,7.7,9.4,9.4v4.7c-4.4,1.2-8.3,3.7-11.4,7
		c-2.8-7.1-8.7-12.4-16-14.4v-4.7c8.7-3.5,12.9-13.5,9.4-22.2c-3.5-8.7-13.5-12.9-22.2-9.4c-8.7,3.5-12.9,13.5-9.4,22.2
		c1.7,4.3,5.1,7.7,9.4,9.4v4.7c-9.6,2.7-16.5,11-17.5,20.9c-2.2-1.5-4.7-2.7-7.2-3.4v-4.7c8.7-3.5,12.9-13.5,9.4-22.2
		c-3.5-8.7-13.5-12.9-22.2-9.4c-8.7,3.5-12.9,13.5-9.4,22.2c1.7,4.3,5.1,7.7,9.4,9.4v4.7c-6.6,1.8-12.1,6.4-15.1,12.5
		c-2-1.3-4.2-2.3-6.6-2.9v-4.7c8.7-3.5,12.9-13.5,9.4-22.2c-3.5-8.7-13.5-12.9-22.2-9.4c-8.7,3.5-12.9,13.5-9.4,22.2
		c1.7,4.3,5.1,7.7,9.4,9.4v4.7c-2.2,0.6-4.3,1.5-6.2,2.7c-3.1-6-8.5-10.5-15-12.3v-4.7c8.7-3.5,12.9-13.5,9.4-22.2
		c-3.5-8.7-13.5-12.9-22.2-9.4c-8.7,3.5-12.9,13.5-9.4,22.2c1.7,4.3,5.1,7.7,9.4,9.4v4.7c-7,2-12.8,7-15.7,13.7
		c-2.4-1.9-5.2-3.3-8.2-4.1v-4.7c8.7-3.5,12.9-13.5,9.4-22.2c-3.5-8.7-13.5-12.9-22.2-9.4c-8.7,3.5-12.9,13.5-9.4,22.2
		c1.7,4.3,5.1,7.7,9.4,9.4v4.7c-10.4,2.9-17.6,12.4-17.6,23.2v108.4h48.1V366h22.7v9.6h48.1V366h34.5v-17.5h29.7v7.4H330v3.1h37.6
		v3.1h48.1V253.7C415.6,242.9,408.4,233.4,398,230.5L398,230.5z"/>
	<path id="svg_3" style="fill:#302E41;" d="M214.5,184.6h40c41.1,0,74.4,33.3,74.4,74.4c0,0,0,0,0,0v100.8H140.1V259.1
		C140.1,218,173.4,184.6,214.5,184.6L214.5,184.6z"/>
	<path id="svg_4" style="opacity:0.2;fill:#010101;enable-background:new    ;" d="M218.9,188.7h31.2c41.1,0,74.4,33.3,74.4,74.4
		c0,0,0,0,0,0v92.7H144.4v-92.7C144.4,222,177.8,188.7,218.9,188.7L218.9,188.7L218.9,188.7z"/>
	<path id="svg_5" style="fill:#302E41;" d="M456.3,374.1v7.6c-10,4.9-21.1,7.5-32.2,7.4H94.9c-2.6,0-5.2-0.1-7.8-0.3
		c-9.2-0.7-18.1-2.8-26.7-6.2c-1.7-0.7-3.3-1.4-4.9-2.1c-0.8-0.4-1.5-0.7-2.3-1.1c-0.5-0.2-0.9-0.5-1.4-0.7
		c-2.8-1.5-5.5-3.1-8.2-4.9v-20.7c0-7,5.7-12.6,12.6-12.6h0h363.3c3.1,0,6,1.1,8.3,3.1l24,21.1C454.7,367.1,456.3,370.5,456.3,374.1
		L456.3,374.1z"/>
	<path id="svg_6" style="fill:#44A147;" d="M211,209.5c-9.5,0.6-19,1.6-28.5,3.1c-2.7,0.4-5.4,0.8-7.9,2c-1.9,1-3.7,2.3-5.2,3.7
		c-7,6.3-12.7,14-16.6,22.5c-2.4,5.3-4.2,10.9-6.5,16.3c-8.2,19.1-23,34.8-31.6,53.7c-1.9,4.1-3.4,8.4-4.1,12.8
		c-0.6,4.6,0.1,10,3.9,12.7c1.7,1.2,3.9,1.7,6,2.2c26.2,5.8,52.7,10.1,79.4,13c-2.9-2.8-3.9-7.1-3.5-11.1c0.4-4,1.9-7.8,3.5-11.5
		c-15.1-3.3-30.2-6.8-45.2-10.5c-2.2-0.5-4.9-1.6-5.2-3.9c-0.1-1.2,0.4-2.3,1-3.3c6.4-11.6,14.1-22.4,22.9-32.3
		c0,12.3-0.6,26.1-0.6,38.4h141.7c-1.7-7-2.7-14.2-3-21.4c-0.7-23.5,7.3-46.8,5.2-70.3c-0.2-2.2-0.5-4.4-1.6-6.2
		c-2-3.2-5.9-4.5-9.4-5.6c-13.7-4.2-27.8-8.4-42.1-8.1c-4.3,0.1-8.5,0.6-12.8,1.1C237.7,208.3,224,208.6,211,209.5L211,209.5z"/>
	<path id="svg_7" style="fill:#666578;" d="M144.6,350.4l10.3,33c0.1,0.4,0.5,0.7,1,0.7h44.3l-10.5-38.5l-44.2,3.4
		c-0.6,0-1,0.5-0.9,1.1C144.6,350.3,144.6,350.4,144.6,350.4z"/>
	<path id="svg_8" style="fill:#F9BEBF;" d="M220.3,223.7c-1.9,1.1-4.2,1.5-6.4,1.9l-14.1,2.4c-2.7,0.5-5.6,1-7.7,2.8
		c-4.3,3.7-3.4,10.5-2.1,16.1l2.6,11.1c2,8.4,4,16.8,8,24.4c7.1,13.2,20.1,22.7,34.3,27.3c5.1,1.6,10.5,2.7,15.8,2.1
		c10.4-1.1,19.3-8.6,24.8-17.5s8.1-19.3,10.5-29.5c2.3-9.8,4.5-19.7,4.3-29.8c0-3.1-0.4-6.4-2-9.1c-3.7-5.8-11.9-6.3-18.7-5.2
		c-1.1,0.2-2.2,0.4-3.2,0c-3.1-1-3.1-5.2-4.4-8.1c-2.5-5.5-9.8-6.5-15.8-6c-6,0.5-15.4,1.1-20.6,4.5
		C220.7,214.6,226.2,220.3,220.3,223.7L220.3,223.7z"/>
	<path id="svg_9" style="opacity:0.1;fill:#010101;enable-background:new    ;" d="M220.3,223.7c-1.9,1.1-4.2,1.5-6.4,1.9l-14.1,2.4
		c-2.7,0.5-5.6,1-7.7,2.8c-4.3,3.7-3.4,10.5-2.1,16.1l2.6,11.1c2,8.4,4,16.8,8,24.4c7.1,13.2,20.1,22.7,34.3,27.3
		c5.1,1.6,10.5,2.7,15.8,2.1c10.4-1.1,19.3-8.6,24.8-17.5s8.1-19.3,10.5-29.5c2.3-9.8,4.5-19.7,4.3-29.8c0-3.1-0.4-6.4-2-9.1
		c-3.7-5.8-11.9-6.3-18.7-5.2c-1.1,0.2-2.2,0.4-3.2,0c-3.1-1-3.1-5.2-4.4-8.1c-2.5-5.5-9.8-6.5-15.8-6c-6,0.5-15.4,1.1-20.6,4.5
		C220.7,214.6,226.2,220.3,220.3,223.7L220.3,223.7z"/>
	<path id="svg_10" style="fill:#44A147;" d="M208.6,236.2c2.1,4.5,3.7,9.2,6.3,13.5c2,3.4,4.7,6.3,7.3,9.3
		c6.8,7.7,13.6,15.4,22,21.2c3.5-17.8,11.9-34.3,24.2-47.6c3.6-3.9,8.1-7.7,13.4-7.6c3.3,0.1,6.3,1.7,9.1,3.5c3.1,2,6,4.4,8.2,7.3
		c3.5,4.6,5,10.5,5.2,16.3c0.3,5.8-0.6,11.6-1.5,17.3l-4.6,29.6c-0.3,1.7-0.6,3.6-2,4.6c-0.8,0.5-1.7,0.8-2.6,0.9
		c-16.7,3.2-33.9,1.1-50.9,1c-18.8-0.2-38.1,2-55.9-4c-0.9-0.3-1.9-0.7-2.5-1.4c-0.4-0.6-0.7-1.2-0.9-1.9
		c-4.1-13.4-0.8-27.9,1.6-41.7c1.9-11,3.3-22,4.2-33.1c0.1-1,11.1,1.2,12.3,1.9C204.8,227.3,207,232.8,208.6,236.2L208.6,236.2z"/>
	<g id="svg_11" style="opacity:0.2;">
		<path id="svg_12" style="fill:#403E56;" d="M72.9,345.4c0,0.2,0,0.4,0,0.6c-1.7-0.7-3.3-1.4-4.9-2.1c-0.9-0.1-1.7-0.5-2.3-1.1
			c-0.5-0.2-0.9-0.5-1.4-0.7c0.1-0.2,0.2-0.4,0.4-0.6c0.9-1.4,2.3-2.3,3.8-2.3s2.8,1,3.6,2.5C72.7,342.8,73,344.1,72.9,345.4
			L72.9,345.4z"/>
		<path id="svg_13" style="fill:#403E56;" d="M73.2,337.9c0,1.3-0.4,2.6-1.1,3.7c-0.9,1.4-2.3,2.3-3.8,2.3l-0.3,0
			c-0.9-0.1-1.7-0.5-2.3-1.1c-0.4-0.4-0.8-0.9-1-1.4c-1.2-2.4-1.1-5.2,0.2-7.5c0.9-1.4,2.3-2.3,3.8-2.3s2.8,1,3.6,2.5
			C72.9,335.3,73.2,336.6,73.2,337.9L73.2,337.9z"/>
		
			<ellipse id="svg_14" transform="matrix(-0.9995 -3.158516e-002 3.158516e-002 -0.9995 126.9945 662.5855)" style="fill:#403E56;" cx="68.7" cy="330.3" rx="4.7" ry="6.1"/>
		
			<ellipse id="svg_15" transform="matrix(-0.9995 -3.158516e-002 3.158516e-002 -0.9995 127.7081 647.6319)" style="fill:#403E56;" cx="69" cy="322.8" rx="4.7" ry="6.1"/>
		
			<ellipse id="svg_16" transform="matrix(-0.9995 -3.158516e-002 3.158516e-002 -0.9995 128.412 632.6771)" style="fill:#403E56;" cx="69.2" cy="315.3" rx="4.7" ry="6.1"/>
		<path id="svg_17" style="fill:#44A147;" d="M53.3,263.6c-0.6-0.8-1.2-1.7-1.7-2.6l12.4-1.6L50.7,259c-2.4-5.7-2.3-12.1,0.1-17.8
			l17.5,9.8l-16.1-12.6c6.5-10.5,20.3-13.8,30.8-7.3s13.8,20.3,7.3,30.8c-0.6,0.9-1.2,1.8-1.9,2.7c1,1.3,1.8,2.7,2.4,4.2l-16.2,7.8
			l17.2-5.2c2.2,7.3,0.6,15.1-4.3,20.9c7.3,10,5.2,24-4.7,31.3c-10,7.3-24,5.2-31.3-4.7c-6.1-8.3-5.8-19.8,0.9-27.7
			C46.3,282.9,46.7,271.5,53.3,263.6L53.3,263.6z"/>
		<path id="svg_18" style="opacity:0.1;fill:#010101;enable-background:new    ;" d="M92.9,278.7c-0.2,5-2,9.9-5.2,13.7
			c7.4,10,5.2,24-4.7,31.3c-10,7.4-24,5.2-31.3-4.7c-6.2-8.3-5.8-19.8,0.9-27.7C49.5,287.3,93,276.2,92.9,278.7z"/>
	</g>
	<circle id="svg_19" style="opacity:0.1;fill:#44A147;enable-background:new    ;" cx="29.7" cy="172.5" r="9.5"/>
	<circle id="svg_20" style="opacity:0.1;fill:#44A147;enable-background:new    ;" cx="69.1" cy="120.2" r="9.5"/>
	<circle id="svg_21" style="opacity:0.1;fill:#44A147;enable-background:new    ;" cx="65.9" cy="156.1" r="15.8"/>
	<circle id="svg_22" style="fill:#F9BEBF;" cx="237.3" cy="191.9" r="36.7"/>
	<path id="svg_23" style="fill:#444276;" d="M222.4,119.8c-9.8,1.2-20.4,2.9-27.3,9.9c-3.9,3.9-6.1,9.2-8,14.4
		c-2.9,8.1-5,16.6-4.4,25.2c0.6,7.7,3.4,15.5,1.1,22.9c-1.1,3.4-3.1,6.3-4.7,9.5c-3,5.9-4.4,12.4-4.9,19c-0.4,4.5-0.3,9.1,1.2,13.4
		c1.6,4.5,4.7,8.4,6.6,12.8c2.9,6.5,3.2,13.8,3.4,20.9c0.2,7.1,0.4,14.2,0.6,21.2c0.1,4.4,0.1,9.2-2.3,12.9
		c9.1-3.6,18.3-7.4,26.1-13.3c7.8-5.9,14.1-14.5,15.1-24.3c0.8-7.9-1.9-15.7-4.2-23.3c-5.7-18.8-9.4-38.8-5.2-58
		c1.5-6.9,5.1-14.6,12.1-15.9c4.2-0.8,8.5,1.2,12.3,3.2c9,4.7,18.4,10.8,21.7,20.5c3.1,8.7,0.5,18.4-3.5,26.7
		c-4,8.3-9.4,16-12.5,24.6c-4.8,13.3-3.4,28.9,4.5,40.7c7.9,11.7,22.5,19,36.5,17.1c-1.1-4.7-4.5-8.6-6.4-13.1
		c-3.4-8.2-1.1-17.6,2.5-25.7c3.6-8.1,8.5-15.6,10.8-24.2c1.6-6,1.8-12.3,1.8-18.6c0-9.8-0.5-19.6-1.4-29.4
		c-0.9-9.8-2.4-19.7-5.5-29.1c-2.5-7.5-6.1-14.8-11.6-20.6c-5.8-6.2-13.3-10.3-20.7-14.4c-4.4-2.4-9-4.9-13.9-5.8
		c-3.9-0.7-8.1-1.7-12.1-1.8C227.2,117.3,224.3,117.9,222.4,119.8L222.4,119.8z"/>
	<path id="svg_24" style="fill:#666578;" d="M267.9,162.6l23.6,4.6c0.7,0.1,1.1,0.8,1,1.5L281.2,227c-0.1,0.7-0.8,1.1-1.5,1
		l-23.6-4.6c-0.7-0.1-1.1-0.8-1-1.5l11.3-58.3C266.5,162.9,267.2,162.5,267.9,162.6z"/>
	<path id="svg_25" style="fill:#403E56;" d="M269.7,163l23.6,4.6c0.7,0.1,1.1,0.8,1,1.5L283,227.4c-0.1,0.7-0.8,1.1-1.5,1l-23.6-4.6
		c-0.7-0.1-1.1-0.8-1-1.5l11.3-58.3C268.3,163.3,269,162.8,269.7,163z"/>
	
		<ellipse id="svg_26" transform="matrix(-0.9817 -0.1905 0.1905 -0.9817 518.7185 406.698)" style="fill:#44A147;" cx="278.9" cy="178.4" rx="1.8" ry="4.4"/>
	<path id="svg_27" style="fill:#F9BEBF;" d="M286.3,198.6c-1.2-2-2.4-4.2-4.3-5.5c-1.1-0.7-2.3-1.2-3.6-1.6c-4.2-1.5-8.5-3-13-3.2
		c-0.7,0-1.6,0-2,0.6c-1,1.1,0.6,2.7,1.9,3.4l10.7,5.5l-9.8-1c-1.4-0.2-3.5,0.2-3.4,1.7c0.1,0.9,1.1,1.5,2,1.7
		c6.3,2.2,13.6,3.9,17.1,9.6c-4.6-0.4-9.3-0.9-13.8,0.1c-1.2,0.3-2.5,0.7-3.3,1.7c-0.8,1-0.9,2.6,0.1,3.4c0.6,0.5,1.5,0.5,2.3,0.4
		c3.2-0.2,6.5-0.8,9.6,0.1c3.1,0.9,5.8,4.1,4.7,7.2c2.7,0.2,6,0,8.5-1.2c2.8-1.3,2.7-3.8,2.5-6.7C292,209,289.1,203.6,286.3,198.6
		L286.3,198.6z"/>
	<path id="svg_28" style="opacity:0.1;fill:#010101;enable-background:new    ;" d="M283.5,293.9c-2.4-17.2-5.8-34.3-10.1-51.1
		c-2.2-8.7-4.7-17.6-4-26.6c9,1.1,17.1,2,25.4-1.7c0.1,4.7,3.6,8.7,4.8,13.3c0.8,3.1,0.5,6.3,0.8,9.4c0.3,3.2,1.3,6.2,2.2,9.3
		c4.2,15.2,5.2,31.1,2.9,46.7C297.8,294.1,291.2,295.1,283.5,293.9z"/>
	<path id="svg_29" style="fill:#44A147;" d="M282.2,293.9c-2.4-17.2-5.8-34.3-10.1-51.1c-2.2-8.7-4.7-17.6-4-26.6
		c9,1.1,17.1,2,25.4-1.7c0.1,4.7,3.6,8.7,4.8,13.3c0.8,3.1,0.5,6.3,0.8,9.4c0.3,3.2,1.3,6.2,2.2,9.3c4.2,15.2,5.2,31.1,2.9,46.7
		C296.5,294.1,289.9,295.1,282.2,293.9z"/>
	<path id="svg_30" style="fill:#403E56;" d="M155.9,379l4.3-106.1c0.1-3.5,3-6.3,6.6-6.2l168.9,1.6c3.6,0,6.5,3,6.4,6.6
		c0,0.2,0,0.3,0,0.5L333.1,377c-0.3,3.3-3,5.9-6.4,5.9l-164.3,2.8c-3.6,0.1-6.5-2.8-6.6-6.4C155.9,379.3,155.9,379.2,155.9,379
		L155.9,379z"/>
	<ellipse id="svg_31" style="fill:#44A147;" cx="250.2" cy="314.9" rx="7.4" ry="8.7"/>
	<path id="svg_32" style="fill:#403E56;" d="M409.1,308.9l-0.3,3l-5.7,48.5c-14.8,10.3-26.3,0.4-26.4,0l-7.2-48.7l-0.4-2.8H409.1
		L409.1,308.9z"/>
	<path id="svg_33" style="opacity:0.1;fill:#010101;enable-background:new    ;" d="M409.1,308.9l-0.3,3
		c-16.7,9.7-34.5,2.2-39.3-0.2l-0.4-2.8H409.1z"/>
	<path id="svg_34" style="fill:#44A147;" d="M368.2,306.3v4.4c0,0,22.1,12.8,42,0v-4.4H368.2z"/>
	<path id="svg_35" style="fill:#44A147;" d="M370.8,300.5c0,0-0.6,3-2.6,3.2v3.7h42v-3.3c0,0-2.6-0.6-2.2-3.6H370.8z"/>
	<ellipse id="svg_36" style="fill:#44A147;" cx="389.1" cy="300.8" rx="18.9" ry="5.5"/>
	<ellipse id="svg_37" style="opacity:0.1;fill:#010101;enable-background:new    ;" cx="389.1" cy="300.8" rx="18.9" ry="5.5"/>
	<path id="svg_38" style="opacity:0.1;fill:#010101;enable-background:new    ;" d="M405.7,300.5c0,2.2-7.2,4-16,4h-0.5
		c-5.9,0-11.1-0.9-13.7-2.1c-1.2-0.6-1.9-1.2-1.9-1.9c0-1.1,1.8-2.1,4.8-2.8c3.7-0.8,7.5-1.2,11.2-1.1
		C398.5,296.5,405.7,298.3,405.7,300.5L405.7,300.5z"/>
	<path id="svg_39" style="opacity:0.1;fill:#010101;enable-background:new    ;" d="M389.2,304.5c-5.9,0-11.1-0.9-13.7-2.1l2.9-4.7
		L389.2,304.5z M372.4,300.8c-0.2,0-0.5,0-0.6,0.3c0,0.1,0,0.2,0.1,0.3c0.5,0.8,1.2,1.4,2.1,1.8c0.1,0.1,0.3,0.1,0.5,0.2
		c0.2,0,0.4-0.1,0.4-0.2c0-0.1,0-0.3,0-0.4c-0.1-0.2-0.3-0.4-0.5-0.6C373.8,301.6,373.2,300.9,372.4,300.8L372.4,300.8z"/>
	<circle id="svg_40" style="fill:#44A147;" cx="389.7" cy="336.2" r="11.3"/>
	<path id="svg_41" style="fill:#403E56;" d="M82.3,336.2h5.3c6,0,10.9,4.9,10.9,10.9v16.2H71.4v-16.2
		C71.4,341.1,76.3,336.2,82.3,336.2z"/>
	<path id="svg_42" style="opacity:0.1;fill:#010101;enable-background:new    ;" d="M82.3,336.2h5.3c6,0,10.9,4.9,10.9,10.9v16.2
		H71.4v-16.2C71.4,341.1,76.3,336.2,82.3,336.2z"/>
	<circle id="svg_43" style="fill:#403E56;" cx="83.9" cy="340" r="2.2"/>
	<circle id="svg_44" style="fill:#403E56;" cx="83.9" cy="337.3" r="2.2"/>
	<circle id="svg_45" style="fill:#403E56;" cx="83.9" cy="334.6" r="2.2"/>
	<circle id="svg_46" style="fill:#403E56;" cx="83.9" cy="331.9" r="2.2"/>
	<circle id="svg_47" style="fill:#403E56;" cx="83.9" cy="329.2" r="2.2"/>
	<circle id="svg_48" style="fill:#403E56;" cx="83.9" cy="326.5" r="2.2"/>
	<circle id="svg_49" style="fill:#403E56;" cx="83.9" cy="323.8" r="2.2"/>
	<circle id="svg_50" style="fill:#403E56;" cx="87.1" cy="324.8" r="2.2"/>
	<circle id="svg_51" style="fill:#403E56;" cx="89.3" cy="323.8" r="2.2"/>
	<circle id="svg_52" style="fill:#403E56;" cx="91.5" cy="322.7" r="2.2"/>
	<circle id="svg_53" style="fill:#403E56;" cx="83.9" cy="321" r="2.2"/>
	<circle id="svg_54" style="fill:#403E56;" cx="83.9" cy="318.3" r="2.2"/>
	<circle id="svg_55" style="fill:#403E56;" cx="83.9" cy="315.6" r="2.2"/>
	<circle id="svg_56" style="fill:#403E56;" cx="83.9" cy="312.9" r="2.2"/>
	<path id="svg_57" style="fill:#44A147;" d="M92.9,305.9c-0.5,0.1-1.1,0.1-1.6,0.2c0.5-0.4,1-0.9,1.4-1.4c-0.3-0.9-0.7-1.8-1.3-2.5
		c-0.5,0.3-1.1,0.5-1.7,0.6c-0.5,0.1-1.1,0.1-1.6,0.2c0.7-0.6,1.4-1.5,2.1-2.2c-3.8-3.4-9.6-3.1-13,0.6c-3.4,3.8-3.1,9.6,0.6,13
		c3.8,3.4,9.6,3.1,13-0.6C92.6,311.5,93.4,308.7,92.9,305.9L92.9,305.9L92.9,305.9z M100.1,316.7c-0.6,0.3-1.2,0.5-1.8,0.6
		c-0.5,0.1-1.1,0.1-1.6,0.2c0.6-0.5,1.1-1.1,1.6-1.7c-2.9-0.8-5.9,1-6.6,3.9c-0.8,2.9,1,5.9,3.9,6.6c2.9,0.8,5.9-1,6.6-3.9
		C102.7,320.3,101.9,318,100.1,316.7L100.1,316.7z"/>
	<circle id="svg_58" style="fill:#403E56;" cx="80.6" cy="324.8" r="2.2"/>
	<circle id="svg_59" style="fill:#403E56;" cx="78.4" cy="323.8" r="2.2"/>
	<circle id="svg_60" style="fill:#403E56;" cx="76.3" cy="322.7" r="2.2"/>
	<path id="svg_61" style="fill:#44A147;" d="M67.6,316.7c0.6,0.3,1.2,0.5,1.8,0.6c0.5,0.1,1.1,0.1,1.6,0.2c-0.6-0.5-1.1-1.1-1.6-1.7
		c2.9-0.8,5.9,1,6.6,3.9c0.8,2.9-1,5.9-3.9,6.6s-5.9-1-6.6-3.9C65,320.3,65.8,318,67.6,316.7L67.6,316.7z"/>
	<path id="svg_62" style="fill:#403E56;" d="M82.3,337.9h5.3c6,0,10.9,4.9,10.9,10.9v14.4c0,1-0.8,1.9-1.9,1.9H73.2
		c-1,0-1.9-0.8-1.9-1.9v-14.4C71.4,342.8,76.3,337.9,82.3,337.9L82.3,337.9z"/>
	<g id="svg_63" style="opacity:0.1;">
		<path id="svg_64" style="fill:#010101;" d="M93,306.5c-0.2,0.2-0.5,0.5-0.7,0.7c0.2,0,0.5,0,0.7-0.1
			C93.1,306.9,93.1,306.7,93,306.5L93,306.5z M89.1,303.9c0.5,0,1.1-0.1,1.6-0.2c0.5-0.1,1-0.2,1.4-0.4c-0.2-0.4-0.5-0.9-0.8-1.3
			c-0.3,0.2-0.6,0.3-0.9,0.4C90.1,303,89.6,303.4,89.1,303.9L89.1,303.9z M75.7,308.6c0-5.1,4.1-9.2,9.2-9.2c1.8,0,3.5,0.5,5,1.5
			l0.1-0.1c-3.8-3.4-9.6-3-13,0.8c-3.4,3.8-3,9.6,0.8,13c0,0,0.1,0.1,0.1,0.1C76.5,312.8,75.7,310.7,75.7,308.6L75.7,308.6z"/>
	</g>
	<g id="svg_65" style="opacity:0.1;">
		<path id="svg_66" style="fill:#010101;" d="M96.7,318.5c0.5,0,1.1-0.1,1.6-0.2c0.6-0.1,1.3-0.3,1.8-0.6c1.2,0.9,2,2.3,2.2,3.8
			c0-0.2,0-0.4,0-0.6c0-1.7-0.8-3.3-2.2-4.4c-0.6,0.3-1.2,0.5-1.8,0.6l-0.4,0.1C97.5,317.8,97.1,318.2,96.7,318.5L96.7,318.5z
			 M96.9,316.7c0.2,0,0.4,0,0.5,0c0.3-0.3,0.6-0.6,0.8-0.9c-2.9-0.8-5.9,0.9-6.6,3.8c-0.1,0.5-0.2,0.9-0.2,1.4c0,0.2,0,0.4,0,0.5
			C91.8,318.8,94.1,316.7,96.9,316.7z"/>
	</g>
	<g id="svg_67" style="opacity:0.1;">
		<path id="svg_68" style="fill:#010101;" d="M71.1,318.5c-0.5,0-1.1-0.1-1.6-0.2c-0.6-0.1-1.3-0.3-1.8-0.6c-1.2,0.9-2,2.3-2.2,3.8
			c0-0.2,0-0.4,0-0.6c0-1.7,0.8-3.3,2.2-4.4c0.6,0.3,1.2,0.5,1.8,0.6l0.4,0.1C70.2,317.8,70.6,318.2,71.1,318.5L71.1,318.5z
			 M70.8,316.7c-0.2,0-0.4,0-0.5,0c-0.3-0.3-0.6-0.6-0.8-0.9c2.9-0.8,5.9,0.9,6.6,3.8c0.1,0.5,0.2,0.9,0.2,1.4c0,0.2,0,0.4,0,0.5
			C76,318.8,73.6,316.7,70.8,316.7L70.8,316.7z"/>
	</g>
</g>
</svg>
