<?xml version="1.0" encoding="utf-8"?>
<!-- Generator: Adobe Illustrator 19.0.0, SVG Export Plug-In . SVG Version: 6.00 Build 0)  -->
<svg version="1.1" id="Layer_2" xmlns="http://www.w3.org/2000/svg" xmlns:xlink="http://www.w3.org/1999/xlink" x="0px" y="0px"
	 viewBox="0 0 2000 1018" style="enable-background:new 0 0 2000 1018;" xml:space="preserve">
<g id="XMLID_1_">
	<line id="XMLID_28_" style="fill:none;stroke:#FFFFFF;stroke-miterlimit:10;" x1="1072" y1="390.7" x2="176.6" y2="63.6"/>
	<line id="XMLID_17_" style="fill:none;stroke:#FFFFFF;stroke-miterlimit:10;" x1="1374.5" y1="317" x2="1720" y2="401.7"/>
	<g id="XMLID_6_">
		<path id="XMLID_11_" style="fill:#F59092;" d="M326.2,20.6c-10.7,30.6-25.6,57.7-44.5,80.6c-19.7,23.8-61.5,63.8-121,63.8
			s-101.3-40-121-63.8C23.5,81.5,10.2,58.6,0,33.2v205.5C46.9,273.2,101.9,293,160.8,293c147.8,0,271.5-125.2,303-293H332.6
			C330.7,7,328.6,13.8,326.2,20.6z"/>
		<path id="XMLID_9_" style="fill:#E5F4F1;" d="M1315.5,261v64h64v-64H1315.5z M1363.5,309h-32v-32h32V309z"/>
		<path id="XMLID_13_" style="fill:#E5F4F1;" d="M619,470.8v26.4h28.6v-26.4H619z M643.6,493.1H623v-18.4h20.6V493.1z"/>
		<path id="XMLID_16_" style="fill:#E5F4F1;" d="M1023.8,819v90h96.4v-90H1023.8z M1104.2,893h-64.4v-58h64.4V893z"/>
		<rect id="XMLID_4_" x="1053.5" y="375.5" style="fill:#E5F4F1;" width="38" height="38"/>
		<path id="XMLID_20_" style="fill:#E5F4F1;" d="M1717.5,386.7v30h30v-30H1717.5z M1743.5,412.7h-22v-22h22V412.7z"/>
		<polygon id="XMLID_21_" style="fill:#A5DAD1;" points="1930.6,829.5 2000,898.9 2000,760.1 		"/>
		<path id="XMLID_24_" style="fill:#F59092;" d="M1842.7,640c-9.4,0-17,7.6-17,17s7.6,17,17,17c9.4,0,17-7.6,17-17
			S1852.1,640,1842.7,640z M1842.7,670c-7.2,0-13-5.8-13-13s5.8-13,13-13s13,5.8,13,13S1849.8,670,1842.7,670z"/>
		<path id="XMLID_27_" style="fill:#F59092;" d="M1514.7,433c-9,0-16.3,7.3-16.3,16.3c0,9,7.3,16.3,16.3,16.3
			c9,0,16.3-7.3,16.3-16.3C1531,440.3,1523.7,433,1514.7,433z M1514.7,459.7c-5.7,0-10.3-4.6-10.3-10.3s4.6-10.3,10.3-10.3
			c5.7,0,10.3,4.6,10.3,10.3S1520.4,459.7,1514.7,459.7z"/>
		<polygon id="XMLID_5_" style="fill:#F59092;" points="645.3,806.8 577.3,806.8 611.3,746.8 		"/>
		<path id="XMLID_31_" style="fill:#F59092;" d="M1373.3,980c-8.3,0-15,6.7-15,15c0,8.3,6.7,15,15,15s15-6.7,15-15
			C1388.3,986.7,1381.5,980,1373.3,980z M1373.3,1006c-6.1,0-11-4.9-11-11s4.9-11,11-11s11,4.9,11,11S1379.3,1006,1373.3,1006z"/>
	</g>
</g>
</svg>
