<svg xmlns="http://www.w3.org/2000/svg" viewBox="219 100 1050 594">
  <ellipse cx="744" cy="661" fill="#18ab63" opacity=".1" rx="525" ry="33"/>
  <path fill="#d0d2d5" d="M716.1 650l-178.2-2.3.5-4.6 8.6-75.4h156.5l11.5 75.4.9 5.7.2 1.2z"/>
  <path d="M715.9 648.8H627l-89.1-1.1.5-4.6H715l.9 5.7z" opacity=".1"/>
  <path fill="#d0d2d5" d="M508.2 644.3h236.5v5.7H508.2v-5.7z"/>
  <path fill="#3f3d56" d="M970.2 114.9c0-8.2-6.6-14.9-14.8-14.9H295.1c-8.2 0-14.8 6.7-14.8 14.9v400.3h689.9V114.9z"/>
  <path fill="#d0d2d5" d="M280.3 511.2v46.9c0 8.2 6.6 14.8 14.8 14.8h660.3c8.2 0 14.8-6.6 14.8-14.8v-46.9H280.3z"/>
  <path fill="#fff" d="M308.9 125.1h636.2v359.8H308.9V125.1z"/>
  <path fill="#18ab63" d="M628.7 555.1c4.7 0 9.2-2.2 12.1-5.9.4-.6.8-1.1 1.2-1.8l-8.5-1.4 9.1.1c1.8-3.9 1.9-8.3.3-12.2l-12.3 6.4 11.3-8.3c-4.3-7.4-13.7-9.9-21.1-5.6-7.4 4.3-9.9 13.7-5.6 21.1l1.2 1.8c3.1 3.6 7.6 5.8 12.3 5.8z"/>
  <path d="M644.1 572.9l71.1 71.4-10.9-71.4h-60.2z" opacity=".1"/>
  <path fill="#18ab63" d="M853.9 311.1v-.2c-.2-5-1.1-9.9-2.7-14.6-.1-.3-.2-.5-.3-.8-3.9-11.4-11.4-21.2-21.3-28-23-15.7-54.2-11.8-72.7 9-.9-5.3-2.4-10.5-4.4-15.5-14.6 1.8-29.3 2.4-44 1.6 9 4.2 18.3 7.5 27.9 10.1l-.3 1.3c-10.7-2.9-21.2-6.8-31.2-11.7l-3-1.5 3.4.2c15.6 1 31.3.6 46.8-1.3-3.4-8-8-15.4-13.8-21.9-25.2-2.5-50.2-7.8-73.5-18.3l.5-1.2c22.7 10.2 47 15.4 71.6 18-29.6-31.8-79.4-33.5-111.1-3.9-5.4 5-10.1 10.8-13.9 17.2-2.4-22.5-11.8-43.8-26.8-60.7-13.4 5.4-27.3 9.6-41.4 12.6-21.3 4.5-43.1 6.2-64.8 5.1 9 4.2 18.3 7.5 27.9 10.1l-.3 1.3c-10.7-2.9-21.2-6.8-31.2-11.7l-3-1.5 3.4.2c37 2.4 74.1-3.4 108.6-17.2-1.3-1.4-2.6-2.8-4-4.2-43.1.9-90 .4-132.4-15-32 19.7-51.4 54.6-51.4 92.2 0 20.3 5.6 48.3 15.3 76.3 4.3 12.5 9.4 24.8 15.3 36.8 3 6 6.1 11.9 9.4 17.5 4 6.8 8.4 13.4 13.2 19.7.9 1.1 1.7 2.2 2.6 3.3 4.9 6.2 10.4 11.9 16.4 17 1.2 1 2.4 2 3.7 2.9 3.3 2.5 6.8 4.6 10.5 6.5 6.1 3.2 12.9 5 19.8 5.4h1.6v.2h294v-.2h.2c1.7 0 3.4-.3 5-.9 10.4-3.7 20-18.5 27.9-37.2 1.8-4.1 3.4-8.5 5-13 1.4-3.9 2.8-8 4-12 3.7-11.9 6.8-23.9 9.3-36.1 2.8-13.9 4.3-26 4.3-33.7 0-.6 0-1.4-.1-2.2z" opacity=".1"/>
  <path fill="#18ab63" d="M578.9 182.5c-35-33.4-88-39.4-129.6-14.6 41.5 14.9 87.4 15.4 129.6 14.6zM819.7 424l-45.4-78.6c-.4-.7-1.3-.9-2-.5-.2.1-.4.3-.5.5L726.5 424c-.4.7-.2 1.6.5 2 .2.1.5.2.7.2h13.5c.8 0 1.4.6 1.5 1.4v16.8c0 .8.6 1.4 1.4 1.4h17.7c.8 0 1.5-.6 1.5-1.4v-8.1c0-.8.6-1.4 1.4-1.4h16.8c.8 0 1.5.6 1.5 1.4v8.1c0 .8.6 1.5 1.5 1.5H802c.6 0 1.2-.4 1.4-1 .1-.1.1-.3.1-.5v-16.8c0-.8.7-1.4 1.5-1.4h13.5c.8 0 1.5-.6 1.5-1.4-.1-.3-.1-.5-.3-.8zm-63.2 8.7c-.3.3-.6.4-1 .4h-6.4c-.8 0-1.5-.6-1.5-1.4 0-.8.7-1.4 1.5-1.5h6.4c.8 0 1.5.6 1.5 1.4-.1.5-.3.9-.5 1.1zm41.6 0c-.3.3-.6.4-1 .4h-6.4c-.8 0-1.4-.7-1.4-1.5 0-.4.2-.7.4-1 .3-.3.6-.4 1-.4h6.4c.8 0 1.5.6 1.5 1.4 0 .5-.2.9-.5 1.1zm-258.8-8l-45.4-78.6c-.4-.7-1.3-.9-2-.5-.2.1-.4.3-.5.5L452.2 414c4.9 6.2 10.4 11.9 16.4 17h6.4c.8 0 1.5.6 1.5 1.4 0 .8-.7 1.4-1.4 1.5h-2.7c3.3 2.5 6.8 4.7 10.5 6.5V437c0-.8.6-1.4 1.4-1.4h16.8c.8 0 1.4.6 1.4 1.4v8.1c0 .2 0 .4.1.6.2.5.8.8 1.3.8h17.7c.5 0 .9-.2 1.2-.6.2-.3.3-.6.3-.9v-16.7c0-.8.6-1.5 1.4-1.5H538c.8 0 1.5-.6 1.5-1.4 0-.2-.1-.4-.2-.7zm-30 6.7c.3-.3.6-.4 1-.4h6.4c.8 0 1.5.6 1.5 1.4 0 .8-.6 1.5-1.4 1.5h-6.4c-.8 0-1.5-.6-1.5-1.4-.1-.5.1-.9.4-1.1zm-28.5-29.1c-.8 0-1.4-.6-1.4-1.4v-11c0-.8.6-1.4 1.4-1.4h23.7c.8 0 1.4.7 1.4 1.5v11c0 .8-.6 1.4-1.4 1.5h-23.7zm237.8-118.7h-56.2v-12.1c0-1.6-1.3-2.9-2.9-2.9H643v-12.9c0-1-.8-1.8-1.8-1.8H620c-1 0-1.8.8-1.8 1.8v12.9h-19.4c-1.6 0-2.9 1.3-2.9 2.9v12.1h-53.5c-.3 0-.6.2-.6.6v161.2c0 .3.2.6.6.6H578c.3 0 .6-.2.6-.6v-21.7c0-.3.3-.6.6-.6h15c.3 0 .6.3.6.6v21.7c0 .3.2.6.6.6h70.3c.3 0 .6-.3.6-.6v-21.7c0-.3.3-.6.6-.6h15c.3 0 .6.3.6.6v21.7c0 .3.3.6.6.6h35.6c.3 0 .6-.3.6-.6V284.1c-.1-.3-.3-.5-.7-.5zm-146.4 132c0 .3-.2.6-.6.6h-22c-.3 0-.6-.2-.6-.6v-7.5c0-.3.3-.6.6-.6h22c.3 0 .6.3.6.6v7.5zm0-19.4c0 .3-.3.6-.6.6h-22c-.3 0-.6-.3-.6-.6v-7.5c0-.3.3-.6.6-.6h22c.3 0 .6.3.6.6v7.5zm0-19.4c0 .3-.2.6-.6.6h-22c-.3 0-.6-.2-.6-.6v-7.5c0-.3.2-.6.6-.6h22c.3 0 .6.2.6.6v7.5zm0-19.4c0 .3-.2.6-.6.6h-22c-.3 0-.6-.2-.6-.6v-7.5c0-.3.2-.6.6-.6h22c.3 0 .6.2.6.6v7.5zm0-19.4c0 .3-.3.6-.6.6h-22c-.3 0-.6-.3-.6-.6v-7.5c0-.3.3-.6.6-.6h22c.3 0 .6.3.6.6v7.5zm0-19.4c0 .3-.2.6-.6.6h-22c-.3 0-.6-.2-.6-.6v-7.5c0-.3.2-.6.6-.6h22c.3 0 .6.2.6.6v7.5zm0-19.4c0 .3-.2.6-.6.6h-22c-.3 0-.6-.2-.6-.6v-7.5c0-.3.2-.6.6-.6h22c.3 0 .6.2.6.6v7.5zm52.1 116.4c0 .3-.2.6-.6.6h-22c-.3 0-.6-.2-.6-.6v-7.5c0-.3.3-.6.6-.6h22c.3 0 .6.3.6.6v7.5zm0-19.4c0 .3-.3.6-.6.6h-22c-.3 0-.6-.3-.6-.6v-7.5c0-.3.3-.6.6-.6h22c.3 0 .6.3.6.6v7.5zm0-19.4c0 .3-.2.6-.6.6h-22c-.3 0-.6-.2-.6-.6v-7.5c0-.3.2-.6.6-.6h22c.3 0 .6.2.6.6v7.5zm0-19.4c0 .3-.2.6-.6.6h-22c-.3 0-.6-.2-.6-.6v-7.5c0-.3.2-.6.6-.6h22c.3 0 .6.2.6.6v7.5zm0-19.4c0 .3-.3.6-.6.6h-22c-.3 0-.6-.3-.6-.6v-7.5c0-.3.3-.6.6-.6h22c.3 0 .6.3.6.6v7.5zm0-19.4c0 .3-.2.6-.6.6h-22c-.3 0-.6-.2-.6-.6v-7.5c0-.3.2-.6.6-.6h22c.3 0 .6.2.6.6v7.5zm0-19.4c0 .3-.2.6-.6.6h-22c-.3 0-.6-.2-.6-.6v-7.5c0-.3.2-.6.6-.6h22c.3 0 .6.2.6.6v7.5zm35.6 116.4c0 .3-.3.6-.6.6h-22c-.3 0-.6-.3-.6-.6v-7.5c0-.3.3-.6.6-.6h22c.3 0 .6.3.6.6v7.5zm0-19.4c0 .3-.3.6-.6.6h-22c-.3 0-.6-.3-.6-.6v-7.5c0-.3.3-.6.6-.6h22c.3 0 .6.3.6.6v7.5zm0-19.4c0 .3-.3.6-.6.6h-22c-.3 0-.6-.3-.6-.6v-7.5c0-.3.3-.6.6-.6h22c.3 0 .6.3.6.6v7.5zm0-19.4c0 .3-.3.6-.6.6h-22c-.3 0-.6-.3-.6-.6v-7.5c0-.3.3-.6.6-.6h22c.3 0 .6.3.6.6v7.5zm0-19.4c0 .3-.3.6-.6.6h-22c-.3 0-.6-.3-.6-.6v-7.5c0-.3.3-.6.6-.6h22c.3 0 .6.3.6.6v7.5zm0-19.4c0 .3-.3.6-.6.6h-22c-.3 0-.6-.3-.6-.6v-7.5c0-.3.3-.6.6-.6h22c.3 0 .6.3.6.6v7.5zm0-19.4c0 .3-.3.6-.6.6h-22c-.3 0-.6-.3-.6-.6v-7.5c0-.3.3-.6.6-.6h22c.3 0 .6.3.6.6v7.5zM712 415.5c0 .3-.3.6-.6.6h-22c-.3 0-.6-.2-.6-.6V408c0-.3.3-.6.6-.6h22c.3 0 .6.3.6.6v7.5zm0-19.3c0 .3-.3.6-.6.6h-22c-.3 0-.6-.3-.6-.6v-7.5c0-.3.3-.6.6-.6h22c.3 0 .6.3.6.6v7.5zm0-19.4c0 .3-.3.6-.6.6h-22c-.3 0-.6-.2-.6-.6v-7.5c0-.3.2-.6.6-.6h22c.3 0 .6.3.6.6v7.5zm0-19.4c0 .3-.3.6-.6.6h-22c-.3 0-.6-.2-.6-.6v-7.5c0-.3.2-.6.6-.6h22c.3 0 .6.3.6.6v7.5zm0-19.4c0 .3-.3.6-.6.6h-22c-.3 0-.6-.3-.6-.6v-7.5c0-.3.3-.6.6-.6h22c.3 0 .6.3.6.6v7.5zm0-19.4c0 .3-.3.6-.6.6h-22c-.3 0-.6-.2-.6-.6v-7.5c0-.3.2-.6.6-.6h22c.3 0 .6.3.6.6v7.5zm0-19.4c0 .3-.3.6-.6.6h-22c-.3 0-.6-.2-.6-.6v-7.5c0-.3.2-.6.6-.6h22c.3 0 .6.3.6.6v7.5zm-153.3-59.3c-2.5-.5-5-.2-7.3.8-2.8 1.3-6 1.3-8.8 0-3.3-1.5-7.1-1.4-10.4.2-.9.5-2 .8-3 .8-4.2 0-7.7-4.2-8.4-9.8.8-.6 1.5-1.4 2.1-2.3 2.5-4 6.3-6.5 10.6-6.5s8.1 2.5 10.5 6.4c1.5 2.4 4.2 3.9 7 3.8h.1c3.3 0 6.2 2.7 7.6 6.6z" opacity=".1"/>
  <path fill="#18ab63" d="M571.5 222.3l-6.8 4.3 4.1-7.5c-1.2-.9-2.6-1.4-4.1-1.5h-.1c-.5 0-.9 0-1.4-.1l-2.3 1.4 1-1.8c-1.6-.6-3-1.6-4-3l-4.1 2.6 2.6-4.7c-2.2-2.9-5.6-4.6-9.2-4.7-4.3 0-8.1 2.6-10.6 6.5-1.5 2.4-4.2 3.9-7 3.8h-.2c-4.7 0-8.6 5.4-8.6 12s3.8 12 8.6 12c1 0 2.1-.3 3-.7 3.3-1.6 7-1.7 10.4-.2 2.8 1.2 6 1.2 8.8 0 3.3-1.4 7-1.4 10.3.2.9.5 2 .7 3 .7 4.7 0 8.6-5.4 8.6-12-.1-2.5-.8-5-2-7.3z" opacity=".1"/>
  <path fill="#3f3d56" d="M744.3 202.9h331.9c10.9 0 19.8 8.9 19.8 19.8v407.8c0 10.9-8.9 19.8-19.8 19.8H744.3c-10.9 0-19.8-8.9-19.8-19.8V222.7c0-10.9 8.8-19.8 19.8-19.8z"/>
  <path fill="#fff" d="M741 248.1h336v357.2H741V248.1z"/>
  <circle cx="910.2" cy="628.8" r="13.1" fill="#fff"/>
  <path fill="#fff" d="M910.2 235.2c-3.3 0-6-2.7-6-6s2.7-6 6-6 6 2.7 6 6-2.7 6-6 6z"/>
  <path fill="#fff" d="M910.2 223.6c3.1 0 5.6 2.5 5.6 5.5 0 3.1-2.5 5.6-5.5 5.6-3.1 0-5.6-2.5-5.6-5.5 0-3.1 2.5-5.6 5.5-5.6m0-1c-3.6 0-6.6 2.9-6.6 6.5s2.9 6.6 6.5 6.6 6.6-2.9 6.6-6.5c.1-3.7-2.8-6.6-6.5-6.6z"/>
  <path fill="#18ab63" d="M1043.2 433.3v-.1c-.1-2.9-.7-5.7-1.5-8.5l-.2-.5c-2.3-6.6-6.6-12.3-12.4-16.3-13.4-9.1-31.5-6.9-42.3 5.2-.6-3.1-1.4-6.1-2.6-9-8.5 1.1-17 1.4-25.6 1 5.2 2.4 10.7 4.3 16.2 5.8l-.2.7c-6.2-1.7-12.3-3.9-18.1-6.7l-1.8-.9 2 .1c9.1.6 18.2.3 27.2-.8-2-4.7-4.7-9-8-12.7-14.6-1.5-29.2-4.5-42.7-10.6l.3-.7c13.2 5.9 27.3 9 41.6 10.5-17.2-18.5-46.1-19.5-64.6-2.3-3.1 2.9-5.9 6.3-8.1 10-1.4-13.1-6.8-25.5-15.6-35.3-7.8 3.1-15.9 5.6-24.1 7.3-12.4 2.6-25 3.6-37.7 3 5.2 2.4 10.7 4.4 16.2 5.9l-.2.7c-6.2-1.7-12.3-4-18.1-6.8l-1.8-.9 2 .1c21.5 1.4 43.1-2 63.2-10-.8-.8-1.5-1.6-2.3-2.4-25 .5-52.3.3-77-8.7-18.6 11.5-29.9 31.8-29.9 53.6 0 11.8 3.3 28.1 8.9 44.4 2.5 7.3 5.4 14.4 8.8 21.4 1.7 3.5 3.5 6.9 5.5 10.2 2.3 4 4.9 7.8 7.7 11.5.5.6 1 1.3 1.5 1.9 2.8 3.6 6 6.9 9.5 9.9.7.6 1.4 1.1 2.1 1.7 1.9 1.4 4 2.7 6.1 3.8 3.6 1.9 7.5 3 11.6 3.2h1v.1h170.9v-.1h.1c1 0 2-.2 2.9-.5 6-2.1 11.6-10.8 16.2-21.6 1-2.4 2-4.9 2.9-7.5.8-2.3 1.6-4.6 2.3-7 2.1-6.9 3.9-13.9 5.4-21 1.4-6.4 2.3-13 2.5-19.6.2-.5.2-1 .2-1.5z" opacity=".1"/>
  <path fill="#18ab63" d="M883.3 358.5c-20.4-19.4-51.1-22.9-75.3-8.5 24.1 8.7 50.8 9 75.3 8.5zm140 140.5l-26.4-45.7c-.2-.4-.7-.5-1.1-.3l-.3.3-26.4 45.7c-.2.4-.1.9.3 1.1.1.1.3.1.4.1h7.9c.5 0 .8.4.8.8v9.8c0 .5.4.8.8.8h10.3c.5 0 .8-.4.8-.8v-4.7c0-.5.4-.8.8-.8h9.8c.5 0 .8.4.8.8v4.7c0 .5.4.8.8.8h10.2c.4 0 .7-.2.8-.6V500.9c0-.5.4-.8.8-.8h7.9c.5 0 .9-.3.9-.8.2 0 .2-.2.1-.3zm-36.8 5c-.2.2-.4.2-.6.3h-3.7c-.5 0-.8-.4-.8-.8 0-.2.1-.4.3-.6.2-.2.4-.2.6-.3h3.7c.5 0 .8.4.8.9 0 .1-.1.3-.3.5zm24.3 0c-.2.2-.4.2-.6.3h-3.7c-.5-.1-.8-.5-.8-.9s.4-.7.8-.8h3.7c.5 0 .8.4.8.9 0 .1-.1.3-.2.5zm-150.5-4.6l-26.4-45.7c-.2-.4-.7-.5-1.1-.3l-.3.3-22.8 39.5c2.8 3.6 6 6.9 9.5 9.9h3.7c.5 0 .8.4.8.8 0 .2-.1.4-.2.6-.2.2-.4.3-.6.3h-1.6c1.9 1.4 4 2.7 6.1 3.8v-2c0-.5.4-.8.8-.8h9.8c.5 0 .8.4.8.8v4.7c0 .1 0 .2.1.4.1.3.4.5.8.5H850c.3 0 .5-.1.7-.3.1-.1.2-.3.2-.5v-9.8c0-.5.4-.8.8-.8h7.9c.5 0 .8-.4.8-.9 0-.3-.1-.4-.1-.5zm-17.5 3.8c.2-.2.4-.2.6-.2h3.7c.5 0 .8.4.8.8 0 .2-.1.5-.3.6-.2.2-.4.3-.6.3h-3.7c-.5 0-.8-.4-.8-.8.1-.3.2-.5.3-.7zm-16.5-16.9c-.5 0-.8-.4-.8-.8v-6.4c0-.5.4-.8.8-.8h13.8c.5 0 .8.4.8.8v6.4c0 .5-.4.8-.8.9h-13.8zm138.2-69h-32.6v-7c0-.9-.8-1.7-1.7-1.7h-9.6V401c0-.6-.5-1.1-1.1-1.1h-12.3c-.6 0-1.1.5-1.1 1v7.5h-11.3c-.9 0-1.7.8-1.7 1.7v7H862c-.2 0-.3.2-.3.3v93.7c0 .2.2.3.3.3h20.7c.2 0 .3-.2.3-.3v-12.6c0-.2.2-.3.3-.3h8.7c.2 0 .3.2.3.3v12.6c0 .2.2.3.3.3h40.9c.2 0 .3-.2.3-.3v-12.6c0-.2.2-.3.3-.3h8.7c.2 0 .3.2.3.3v12.6c0 .2.2.3.3.3h20.7c.2 0 .3-.2.3-.3v-93.7c.5 0 .3-.1.1-.1zM879.4 494c0 .2-.2.3-.3.3h-12.8c-.2 0-.3-.2-.3-.3v-4.4c0-.2.2-.3.3-.3H879c.2 0 .3.2.3.3v4.4zm0-11.3c0 .2-.2.3-.3.3h-12.8c-.2 0-.3-.2-.3-.3v-4.4c0-.2.2-.3.3-.3H879c.2 0 .3.2.3.3v4.4zm0-11.3c0 .2-.2.3-.3.3h-12.8c-.2 0-.3-.2-.3-.3V467c0-.2.2-.3.3-.3H879c.2 0 .3.2.3.3v4.4zm0-11.2c0 .2-.2.3-.3.4h-12.8c-.2 0-.3-.2-.3-.4v-4.4c0-.2.2-.3.3-.3H879c.2 0 .3.2.3.3v4.4zm0-11.3c0 .2-.2.3-.3.3h-12.8c-.2 0-.3-.2-.3-.3v-4.4c0-.2.2-.3.3-.3H879c.2 0 .3.2.3.3v4.4zm0-11.3c0 .2-.2.3-.3.3h-12.8c-.2 0-.3-.2-.3-.3v-4.4c0-.2.2-.3.3-.3H879c.2 0 .3.2.3.3v4.4zm0-11.3c0 .2-.2.3-.3.3h-12.8c-.2 0-.3-.2-.3-.3V422c0-.2.2-.3.3-.3H879c.2 0 .3.2.3.3v4.3zm30.3 67.7c0 .2-.2.3-.3.3h-12.8c-.2 0-.3-.2-.3-.3v-4.4c0-.2.2-.3.3-.3h12.8c.2 0 .3.2.3.3v4.4zm0-11.3c0 .2-.2.3-.3.3h-12.8c-.2 0-.3-.2-.3-.3v-4.4c0-.2.2-.3.3-.3h12.8c.2 0 .3.2.3.3v4.4zm0-11.3c0 .2-.2.3-.3.3h-12.8c-.2 0-.3-.2-.3-.3V467c0-.2.2-.3.3-.3h12.8c.2 0 .3.2.3.3v4.4zm0-11.2c0 .2-.2.3-.3.4h-12.8c-.2 0-.3-.2-.3-.4v-4.4c0-.2.2-.3.3-.3h12.8c.2 0 .3.2.3.3v4.4zm0-11.3c0 .2-.2.3-.3.3h-12.8c-.2 0-.3-.2-.3-.3v-4.4c0-.2.2-.3.3-.3h12.8c.2 0 .3.2.3.3v4.4zm0-11.3c0 .2-.2.3-.3.3h-12.8c-.2 0-.3-.2-.3-.3v-4.4c0-.2.2-.3.3-.3h12.8c.2 0 .3.2.3.3v4.4zm0-11.3c0 .2-.2.3-.3.3h-12.8c-.2 0-.3-.2-.3-.3V422c0-.2.2-.3.3-.3h12.8c.2 0 .3.2.3.3v4.3zm20.7 67.7c0 .2-.2.3-.3.3h-12.8c-.2 0-.3-.2-.3-.3v-4.4c0-.2.2-.3.3-.3H930c.2 0 .3.2.3.3l.1 4.4zm0-11.3c0 .2-.2.3-.3.3h-12.8c-.2 0-.3-.2-.3-.3v-4.4c0-.2.2-.3.3-.3H930c.2 0 .3.2.3.3l.1 4.4zm0-11.3c0 .2-.2.3-.3.3h-12.8c-.2 0-.3-.2-.3-.3V467c0-.2.2-.3.3-.3H930c.2 0 .3.2.3.3l.1 4.4zm0-11.2c0 .2-.2.3-.3.4h-12.8c-.2 0-.3-.2-.3-.4v-4.4c0-.2.2-.3.3-.3H930c.2 0 .3.2.3.3l.1 4.4zm0-11.3c0 .2-.2.3-.3.3h-12.8c-.2 0-.3-.2-.3-.3v-4.4c0-.2.2-.3.3-.3H930c.2 0 .3.2.3.3l.1 4.4zm0-11.3c0 .2-.2.3-.3.3h-12.8c-.2 0-.3-.2-.3-.3v-4.4c0-.2.2-.3.3-.3H930c.2 0 .3.2.3.3l.1 4.4zm0-11.3c0 .2-.2.3-.3.3h-12.8c-.2 0-.3-.2-.3-.3V422c0-.2.2-.3.3-.3H930c.2 0 .3.2.3.3l.1 4.3zm30.3 67.7c0 .2-.2.3-.3.3h-12.8c-.2 0-.3-.2-.3-.3v-4.4c0-.2.2-.3.3-.3h12.8c.2 0 .3.2.3.3v4.4zm0-11.3c0 .2-.2.3-.3.3h-12.8c-.2 0-.3-.2-.3-.3v-4.4c0-.2.2-.3.3-.3h12.8c.2 0 .3.2.3.3v4.4zm0-11.3c0 .2-.2.3-.3.3h-12.8c-.2 0-.3-.2-.3-.3V467c0-.2.2-.3.3-.3h12.8c.2 0 .3.2.3.3v4.4zm0-11.2c0 .2-.2.3-.3.4h-12.8c-.2 0-.3-.2-.3-.4v-4.4c0-.2.2-.3.3-.3h12.8c.2 0 .3.2.3.3v4.4zm0-11.3c0 .2-.2.3-.3.3h-12.8c-.2 0-.3-.2-.3-.3v-4.4c0-.2.2-.3.3-.3h12.8c.2 0 .3.2.3.3v4.4zm0-11.3c0 .2-.2.3-.3.3h-12.8c-.2 0-.3-.2-.3-.3v-4.4c0-.2.2-.3.3-.3h12.8c.2 0 .3.2.3.3v4.4zm0-11.3c0 .2-.2.3-.3.3h-12.8c-.2 0-.3-.2-.3-.3V422c0-.2.2-.3.3-.3h12.8c.2 0 .3.2.3.3v4.3zm-89.1-34.4c-1.4-.3-2.9-.1-4.3.5-.8.4-1.7.5-2.5.5-.9 0-1.8-.2-2.6-.5-1.9-.8-4.1-.8-6 .1-.5.3-1.1.4-1.7.4-2.4 0-4.5-2.5-4.9-5.7.5-.4.9-.8 1.2-1.3 1.7-3.4 5.8-4.7 9.2-3 1.3.7 2.4 1.7 3 3 .9 1.4 2.4 2.2 4 2.2h.1c2 0 3.6 1.5 4.5 3.8z" opacity=".1"/>
  <path fill="#18ab63" d="M879 381.7l-4 2.5 2.4-4.4c-.7-.5-1.5-.8-2.4-.9-.3 0-.5 0-.8-.1l-1.3.8.6-1c-.9-.3-1.8-.9-2.3-1.8l-2.4 1.5 1.5-2.8c-1.3-1.7-3.3-2.7-5.4-2.7-2.6.1-4.9 1.5-6.1 3.8-.9 1.4-2.4 2.2-4.1 2.2h-.1c-2.8 0-5 3.1-5 7s2.2 7 5 7c.6 0 1.2-.2 1.7-.4 1.9-.9 4.1-1 6-.1.8.4 1.7.5 2.6.5.9 0 1.7-.2 2.5-.5 1.9-.8 4.1-.8 6 .1.5.3 1.1.4 1.7.4 2.8 0 5-3.1 5-7 0-1.3-.4-2.8-1.1-4.1z" opacity=".1"/>
  <path fill="#3f3d56" d="M1209.9 369.1h.8c1.3 0 2.3 1 2.3 2.3V411c0 1.3-1 2.3-2.3 2.3h-.8c-1.3 0-2.3-1-2.3-2.3v-39.6c0-1.2 1.1-2.3 2.3-2.3zM1031.1 334.5c.8 0 1.5.7 1.5 1.5v11.5c0 .8-.7 1.5-1.5 1.5s-1.5-.7-1.5-1.5V336c0-.8.6-1.5 1.5-1.5zM1031.1 361.2c.9 0 1.7.8 1.7 1.7v21.9c0 .9-.8 1.7-1.7 1.7-.9 0-1.7-.8-1.7-1.7v-21.9c0-1 .8-1.7 1.7-1.7zM1031.1 395.3c.9 0 1.6.7 1.6 1.6v22.3c0 .9-.7 1.6-1.6 1.6-.9 0-1.6-.7-1.6-1.6v-22.3c0-.8.7-1.6 1.6-1.6z"/>
  <path fill="#3f3d56" d="M1049.8 286.5H1192c10.2 0 18.5 8.3 18.5 18.5v327.3c0 10.2-8.3 18.5-18.5 18.5h-142.2c-10.2 0-18.5-8.3-18.5-18.5V305c0-10.2 8.3-18.5 18.5-18.5z"/>
  <path fill="#e6e8ec" d="M1106.1 297.4h20c1.4 0 2.5 1.1 2.5 2.5s-1.1 2.5-2.5 2.5h-20c-1.4 0-2.5-1.1-2.5-2.5s1.1-2.5 2.5-2.5z"/>
  <circle cx="1135.3" cy="299.9" r="2.9" fill="#e6e8ec"/>
  <path fill="#fff" d="M1185.2 296h-20.5v2.5c0 6.5-5.2 11.7-11.7 11.7h-65.5c-6.5 0-11.7-5.3-11.7-11.7V296h-19.3c-7.9 0-14.2 6.4-14.2 14.2v316.9c0 7.9 6.4 14.2 14.2 14.2h128.7c7.9 0 14.2-6.4 14.2-14.2V310.2c.1-7.8-6.3-14.2-14.2-14.2z"/>
  <path fill="#18ab63" d="M1181.2 471.7c-.1-1.3-.3-2.6-.7-3.8 0-.1 0-.1-.1-.2-2.6-7.6-10.9-11.7-18.5-9.1-2.4.8-4.5 2.2-6.2 4.1-.2-1.4-.6-2.8-1.2-4.1-3.8.5-7.7.6-11.5.4 2.4 1.1 4.8 2 7.3 2.7l-.1.3c-2.8-.8-5.6-1.8-8.2-3.1l-.8-.4.9.1c4.1.3 8.2.2 12.3-.4-.9-2.1-2.1-4-3.6-5.8-6.6-.5-13.1-2.2-19.3-4.8l.1-.3c6 2.6 12.3 4.2 18.8 4.7-7.8-8.3-20.8-8.8-29.2-1-1.4 1.3-2.6 2.8-3.6 4.5-.6-5.9-3.1-11.5-7-15.9-8.8 3.5-18.4 5.1-27.9 4.6 2.4 1.1 4.8 2 7.3 2.7l-.1.3c-2.8-.8-5.6-1.8-8.2-3.1l-.8-.4.9.1c9.7.6 19.4-.9 28.5-4.5-.3-.4-.7-.7-1-1.1-11.3.2-23.6.1-34.7-3.9-8.4 5.2-13.5 14.3-13.5 24.2 0 5.3 1.5 12.7 4 20 1.1 3.3 2.5 6.5 4 9.6.8 1.6 1.6 3.1 2.5 4.6 1 1.8 2.2 3.5 3.5 5.2l.7.9c1.3 1.6 2.7 3.1 4.3 4.5.3.3.6.5 1 .8.9.7 1.8 1.2 2.8 1.7 1.6.8 3.4 1.3 5.2 1.4h77.6c.4 0 .9-.1 1.3-.2 2.7-1 5.2-4.9 7.3-9.8.5-1.1.9-2.2 1.3-3.4s.7-2.1 1.1-3.1c1-3.2 1.8-6.5 2.4-9.5.6-2.9 1-5.9 1.1-8.8v-.7z" opacity=".1"/>
  <path fill="#18ab63" d="M1109.1 438c-9.2-8.8-23.1-10.3-34-3.8 10.9 3.8 22.9 4 34 3.8zm63.1 63.3l-11.9-20.6c-.1-.2-.3-.2-.5-.1-.1 0-.1.1-.1.1l-11.9 20.6c-.1.2 0 .4.1.5.1 0 .1.1.2.1h3.5c.2 0 .4.2.4.4v4.4c0 .2.2.4.4.4h4.6c.2 0 .4-.2.4-.4v-2.1c0-.2.2-.4.4-.4h4.4c.2 0 .4.2.4.4v2.1c0 .2.2.4.4.4h4.6c.2 0 .3-.1.4-.3v-4.5c0-.2.2-.4.4-.4h3.6c.2 0 .4-.1.4-.3-.1-.1-.1-.2-.2-.3zm-16.6 2.3c-.1.1-.2.1-.3.1h-1.7c-.2 0-.4-.2-.4-.4 0-.1 0-.2.1-.3.1-.1.2-.1.3-.1h1.7c.2 0 .4.2.4.4.1.1 0 .2-.1.3zm11 0c-.1.1-.2.1-.3.1h-1.7c-.2 0-.4-.2-.4-.4 0-.1 0-.2.1-.3.1-.1.2-.1.3-.1h1.7c.2 0 .4.2.4.4 0 .1-.1.2-.1.3zm-67.9-2.1l-11.9-20.6c-.1-.2-.3-.2-.5-.1-.1 0-.1.1-.1.1l-10.3 17.8c1.3 1.6 2.7 3.1 4.3 4.5h1.7c.2 0 .4.1.4.3 0 .2-.1.4-.3.4H1081.2c.9.7 1.8 1.2 2.8 1.7v-.9c0-.2.2-.4.4-.4h4.4c.2 0 .4.2.4.4v2.1c0 .2.2.4.4.4h4.6c.1 0 .2-.1.3-.1 0-.1.1-.1.1-.2v-4.4c0-.2.2-.4.4-.4h3.6c.2 0 .4-.2.4-.4-.3-.1-.3-.2-.3-.2zm-7.9 1.7c.1-.1.2-.1.3-.1h1.7c.2 0 .4.1.4.3 0 .2-.1.4-.3.4h-1.8c-.2 0-.4-.2-.4-.4 0 0 0-.1.1-.2zm-7.5-7.6c-.2 0-.4-.2-.4-.4v-2.9c0-.2.2-.4.4-.4h6.2c.2 0 .4.2.4.4v2.9c0 .2-.2.4-.4.4h-6.2zm62.4-31.2H1131v-3.2c0-.4-.3-.8-.8-.8h-4.3V457c0-.3-.2-.5-.5-.5h-5.6c-.3 0-.5.2-.5.5v3.4h-5.1c-.4 0-.8.3-.8.8v3.2h-14c-.1 0-.2.1-.2.1v42.3c0 .1.1.2.2.2h9.3c.1 0 .2-.1.2-.2v-5.7c0-.1.1-.1.1-.1h3.9c.1 0 .2.1.2.1v5.7c0 .1.1.2.1.2h18.4c.1 0 .2-.1.2-.2v-5.7c0-.1.1-.1.1-.1h3.9c.1 0 .2.1.2.1v5.7c0 .1.1.2.1.2h9.3c.1 0 .2-.1.2-.2v-42.3c.3 0 .2-.1.1-.1.1 0 0 0 0 0zm-38.4 34.7c0 .1-.1.2-.2.2h-5.8c-.1 0-.2-.1-.2-.2v-2c0-.1.1-.2.2-.1h5.8c.1 0 .2.1.2.1v2zm0-5.1c0 .1-.1.2-.2.1h-5.8c-.1 0-.2-.1-.2-.1v-2c0-.1.1-.2.2-.2h5.8c.1 0 .2.1.2.2v2zm0-5.1c0 .1-.1.2-.2.2h-5.8c-.1 0-.2-.1-.2-.2v-2c0-.1.1-.2.2-.1h5.8c.1 0 .2.1.2.1v2zm0-5.1c0 .1-.1.2-.2.2h-5.8c-.1 0-.2-.1-.2-.2v-2c0-.1.1-.2.2-.2h5.8c.1 0 .2.1.2.2v2zm0-5.1c0 .1-.1.2-.2.1h-5.8c-.1 0-.2-.1-.2-.1v-2c0-.1.1-.2.2-.1h5.8c.1 0 .2.1.2.1v2zm0-5.1c0 .1-.1.2-.2.2h-5.8c-.1 0-.2-.1-.2-.2v-2c0-.1.1-.2.2-.1h5.8c.1 0 .2.1.2.1v2zm0-5.1c0 .1-.1.2-.2.1h-5.8c-.1 0-.2-.1-.2-.1v-2c0-.1.1-.2.2-.2h5.8c.1 0 .2.1.2.2v2zm13.7 30.6c0 .1-.1.2-.2.2h-5.8c-.1 0-.2-.1-.2-.2v-2c0-.1.1-.1.2-.1h5.8c.1 0 .2.1.2.1v2zm0-5.1c0 .1-.1.1-.2.1h-5.8c-.1 0-.2-.1-.2-.1v-2c0-.1.1-.2.2-.2h5.8c.1 0 .2.1.2.2v2zm0-5.1c0 .1-.1.2-.2.2h-5.8c-.1 0-.2-.1-.2-.2v-2c0-.1.1-.1.2-.1h5.8c.1 0 .2.1.2.1v2zm0-5.1c0 .1-.1.2-.2.2h-5.8c-.1 0-.2-.1-.2-.2v-2c0-.1.1-.2.2-.2h5.8c.1 0 .2.1.2.2v2zm0-5.1c0 .1-.1.1-.2.1h-5.8c-.1 0-.2-.1-.2-.1v-2c0-.1.1-.1.2-.1h5.8c.1 0 .2.1.2.1v2zm0-5.1c0 .1-.1.2-.2.2h-5.8c-.1 0-.2-.1-.2-.2v-2c0-.1.1-.1.2-.1h5.8c.1 0 .2.1.2.1v2zm0-5c0 .1-.1.1-.2.1h-5.8c-.1 0-.2-.1-.2-.1v-2c0-.1.1-.2.2-.2h5.8c.1 0 .2.1.2.2v2zm9.3 30.5c0 .1-.1.2-.2.2h-5.8c-.1 0-.2-.1-.2-.2v-2c0-.1.1-.2.2-.1h5.8c.1 0 .2.1.2.1v2zm0-5.1c0 .1-.1.2-.2.1h-5.8c-.1 0-.2-.1-.2-.1v-2c0-.1.1-.2.2-.2h5.8c.1 0 .2.1.2.2v2zm0-5.1c0 .1-.1.2-.2.2h-5.8c-.1 0-.2-.1-.2-.2v-2c0-.1.1-.2.2-.1h5.8c.1 0 .2.1.2.1v2zm0-5.1c0 .1-.1.2-.2.2h-5.8c-.1 0-.2-.1-.2-.2v-2c0-.1.1-.2.2-.2h5.8c.1 0 .2.1.2.2v2zm0-5.1c0 .1-.1.2-.2.1h-5.8c-.1 0-.2-.1-.2-.1v-2c0-.1.1-.2.2-.1h5.8c.1 0 .2.1.2.1v2zm0-5.1c0 .1-.1.2-.2.2h-5.8c-.1 0-.2-.1-.2-.2v-2c0-.1.1-.2.2-.1h5.8c.1 0 .2.1.2.1v2zm0-5c0 .1-.1.2-.2.1h-5.8c-.1 0-.2-.1-.2-.1v-2c0-.1.1-.2.2-.2h5.8c.1 0 .2.1.2.2v2zm13.7 30.5c0 .1-.1.2-.2.2h-5.8c-.1 0-.2-.1-.2-.2v-2c0-.1.1-.1.2-.1h5.8c.1 0 .2.1.2.1v2zm0-5.1c0 .1-.1.1-.2.1h-5.8c-.1 0-.2-.1-.2-.1v-2c0-.1.1-.2.2-.2h5.8c.1 0 .2.1.2.2v2zm0-5.1c0 .1-.1.2-.2.2h-5.8c-.1 0-.2-.1-.2-.2v-2c0-.1.1-.1.2-.1h5.8c.1 0 .2.1.2.1v2zm0-5.1c0 .1-.1.2-.2.2h-5.8c-.1 0-.2-.1-.2-.2v-2c0-.1.1-.2.2-.2h5.8c.1 0 .2.1.2.2v2zm0-5.1c0 .1-.1.1-.2.1h-5.8c-.1 0-.2-.1-.2-.1v-2c0-.1.1-.1.2-.1h5.8c.1 0 .2.1.2.1v2zm0-5.1c0 .1-.1.2-.2.2h-5.8c-.1 0-.2-.1-.2-.2v-2c0-.1.1-.1.2-.1h5.8c.1 0 .2.1.2.1v2zm0-5c0 .1-.1.1-.2.1h-5.8c-.1 0-.2-.1-.2-.1v-2c0-.1.1-.2.2-.2h5.8c.1 0 .2.1.2.2v2zm-40.2-15.6c-.6-.1-1.3 0-1.9.2-.4.2-.8.2-1.2.2-.4 0-.8-.1-1.2-.3-.9-.4-1.9-.4-2.7.1-.2.1-.5.2-.8.2-1.1 0-2-1.1-2.2-2.6.2-.2.4-.4.5-.6.8-1.5 2.6-2.1 4.2-1.4.6.3 1.1.8 1.4 1.4.4.6 1.1 1 1.8 1 1 .2 1.8.8 2.1 1.8z" opacity=".1"/>
  <path fill="#18ab63" d="M1107.1 448.4l-1.8 1.1 1.1-2c-.3-.2-.7-.4-1.1-.4h-.4l-.6.4.3-.5c-.4-.2-.8-.4-1-.8l-1.1.7.7-1.2c-.6-.7-1.5-1.2-2.4-1.2-1.2.1-2.2.7-2.8 1.7-.4.6-1.1 1-1.8 1h-.1c-1.2 0-2.3 1.4-2.3 3.1s1 3.1 2.3 3.1c.3 0 .5-.1.8-.2.9-.4 1.9-.4 2.7 0 .7.3 1.6.3 2.3 0 .9-.4 1.8-.4 2.7 0 .2.1.5.2.8.2 1.2 0 2.3-1.4 2.3-3.1-.1-.6-.2-1.3-.6-1.9z" opacity=".1"/>
  <path fill="#3f3d56" d="M318.6 640.6c0 2.6-.3 5.2-.8 7.8-.1.5-.2 1-.3 1.4-2.8 11.4-10.9 19.7-20.4 20.3h-1c-10.1 0-18.7-8.7-21.5-20.7-.1-.3-.1-.6-.2-1-.5-2.6-.8-5.2-.8-7.8 0-16.3 10.1-29.5 22.5-29.5s22.5 13.2 22.5 29.5z"/>
  <path d="M318.6 640.6c0 2.6-.3 5.2-.8 7.8-.1.5-.2 1-.3 1.4h-1c-2.5-.1-4.9-.5-7.4-1-2.1.7-4.3 1.2-6.6 1.5-1.7.3-3.4.4-5.1.5h-1.7c-2.1 0-4.1-.1-6.2-.4-3.3-.4-6.5-1.2-9.7-2.4-1.7.6-3.5 1-5.2 1.4-.1-.3-.1-.6-.2-1-.5-2.6-.8-5.2-.8-7.8 0-16.3 10.1-29.5 22.5-29.5s22.5 13.2 22.5 29.5z" opacity=".1"/>
  <path fill="#18ab63" d="M366.6 585.7c0-7.2-1.7-14.2-4.9-20.6l-26.5 8.2 23.2-13.6c-7.9-11.4-20.5-18.6-34.4-19.6-1.1-1.6-2.3-3.2-3.6-4.7l-38 11.8 31.2-18.3c-20-15.4-48.7-11.6-64.1 8.4-3.6 4.8-6.3 10.2-7.9 16l32.5 37.5-35.1-25.6c-20.6 14.6-25.5 43.2-10.8 63.8 11.7 16.4 32.7 23.3 51.8 16.9 9.4 3.5 19.7 3.7 29.3.8 24.7 5.5 49.1-10.1 54.5-34.8.7-3.2 1.1-6.6 1.1-9.9 0-1 0-2-.1-3 1.2-4.3 1.9-8.8 1.8-13.3z"/>
  <path d="M365.9 594.2c-14-2.6-28.3-2.8-42.3-.5-15.9 2.6-32.1 8.4-47.7 4.2-9.1-2.5-17-8.2-25.9-11.4-8.6-3-17.9-3.6-26.8-1.6-9.7 23.3 1.3 50.1 24.6 59.9 10.2 4.3 21.6 4.7 32.1 1.2 9.4 3.5 19.7 3.7 29.3.8 24.7 5.5 49.1-10.1 54.5-34.8.7-3.2 1.1-6.6 1.1-9.9 0-1 0-2-.1-3 .5-1.7.9-3.3 1.2-4.9z" opacity=".1"/>
  <path fill="#393859" d="M712.7 306.1l-19-.8c-4.3-.2-9.3-.1-12.2 3.1-3.1 3.4-2.3 8.9-.5 13.1 1.8 4.3 4.5 8.4 4.6 13 .2 7.3-5.8 13.1-11.2 18-5.4 4.9-11.2 11-10.4 18.3.6 5.7 5.1 10 9.6 13.6 6.8 5.4 14.1 10.1 21.9 14 4.4 2.2 9.1 4.3 14.1 4.3 4.4 0 8.6-1.4 12.7-2.9 7.1-2.6 14.5-5.3 19.9-10.6 2.8-2.8 5.1-6 6.9-9.5 9.3-17 11.8-38.3 4.2-56.1-1.6-4-4-7.6-7-10.7-8.1-7.7-20.5-8-31.6-7.9-2-.1-4.1.2-5.9 1.1-1.8 1-3 3.2-2.2 5.1"/>
  <path fill="#a0616a" d="M688.4 541.4c-.7 20.1 0 40.3 2.2 60.3.3 2.3.5 4.6 1 6.8 1.3 7 3.9 13.7 6 20.5s3.6 14 2.6 21.1c4.4-.5 8.8-.8 13.2-1.1l.1-3.4c.1-6.5-2.4-12.9-1.8-19.4.6-6.1 2.6-12.1 2.5-18.3-.1-5.8-2-11.5-2.9-17.2-.5-3.8-.8-7.7-.8-11.6-.3-5.3-.2-10.7.1-16 .8-10.8 4.1-21.6 2.6-32.3-8.3 3.7-16.7 6.8-24.8 10.6z"/>
  <path fill="#3f3d56" d="M708.4 673.4c.5 0 1 0 1.5-.2.7-.5 1.1-1.3 1.2-2.2.7-2.7 1.8-5.2 3.4-7.5 1.1-1.7 2.5-3.5 2.5-5.5 0-3.3-3.5-5.7-4.2-8.9-.1-1-.3-2.1-.6-3.1-.8-1.8-3-2.3-4.9-2.7-2.6-.5-5.9-.8-7.1 1.5-1.1 1.9.1 4.3.3 6.5.2 3-1.6 5.8-3.5 8.1-2.3 2.7-8.2 9.2-4.6 13 1.3 1.4 4.3.9 6 1h10z"/>
  <path fill="#a0616a" d="M747 541.4c.7 20.1 0 40.3-2.3 60.3-.3 2.3-.5 4.6-.9 6.8-1.3 7-3.9 13.7-6 20.5s-3.6 14-2.5 21.1c-4.4-.5-8.8-.8-13.2-1.1l-.1-3.4c-.1-6.5 2.4-12.9 1.8-19.4-.6-6.1-2.6-12.1-2.5-18.3.1-5.8 2-11.5 2.9-17.2.5-3.8.8-7.7.8-11.6.3-5.3.2-10.7-.1-16-.8-10.8-4.1-21.6-2.6-32.3 8.2 3.7 16.6 6.8 24.7 10.6z"/>
  <path fill="#3f3d56" d="M727.1 673.4c-.5 0-1 0-1.5-.2-.7-.5-1.1-1.3-1.2-2.2-.7-2.7-1.8-5.2-3.4-7.5-1.1-1.7-2.5-3.5-2.5-5.5 0-3.3 3.5-5.7 4.2-8.9.1-1 .3-2.1.6-3.1.8-1.8 3-2.3 4.9-2.7 2.6-.5 5.9-.8 7.1 1.5 1.1 1.9-.1 4.3-.3 6.5-.2 3 1.6 5.8 3.5 8.1 2.3 2.7 8.2 9.2 4.6 13-1.3 1.4-4.3.9-6 1h-10z"/>
  <circle cx="711.3" cy="343.6" r="20.5" fill="#a0616a"/>
  <path fill="#a0616a" d="M699.7 362c.3 1 .4 2 .3 3-.3 1-.9 2-1.7 2.7-2.9 2.9-6.3 5.2-10.2 6.8-.4 1.3.3 2.6 1.1 3.7 2.5 3.8 5.1 7.5 7.7 11.2 4.7 7.2 10.6 13.6 17.4 18.8l6-7.5c1.3-1.5 2.4-3.1 3.5-4.7 1.2-2 2.2-4.2 3.1-6.4l7.3-17c-4.4.9-8.9-1.1-12.7-3.6-.8-.4-1.4-1-1.8-1.8-.3-.7-.4-1.4-.4-2.2-.1-3.5-.2-7.1-.1-10.6-5.3-.7-10.6-1.1-16-1.3-2.1 0-3.5-.4-4 1.8-.5 2.1.1 5 .5 7.1z"/>
  <path fill="#ff6f61" d="M708.8 400.6c-3.3-5.8-7.3-11.2-12-16-1-.9-1.9-2-2.5-3.3-.4-1-.5-2.1-.6-3.2l-.4-5.3c0-.3-.1-.6-.3-.8-.2-.2-.5-.3-.8-.2-1.3-.2-2.5 0-3.7.5-.7.5-1.4 1.1-2 1.8-2.3 2.4-5.5 3.5-8.5 4.7-2.2.9-4.4 2-6.6 3.2-1.7.9-3.4 2-4.2 3.8-.4 1.1-.6 2.4-.5 3.6L666 432c.2 1.1-.6 2.2-1.7 2.5-.9.4-1.7 1-2.3 1.8-.6.8-.6 1.9-.1 2.8.3.4.8.6 1.1 1 1 1.2.1 2.9-.5 4.3-1 1.8-1.3 3.8-1 5.8.4 2 1.9 3.6 3.9 4 .8-2.5-1-5.4 0-7.9.7-1.4 1.9-2.4 3.4-2.9 2-.8 4.1-1 6.2-.7l1.2 4.4c4.3 15.7 1.3 32.6-2.6 48.5-.9 3.7-2.1 7.3-2.7 11.1-1 5.6-1 11.4-1 17.1v15.6c0 1.9.1 4 1.6 5.3 1.5 1.2 4.1 1.1 5.2 2.8.6 1 .5 2.3 1.1 3.3.4.7 1 1.2 1.7 1.6 5.2 2.8 11.6 1.2 14.9-3.7 1.1-1.7 1.7-3.8 3.3-5 1.8-1.4 4.4-1.4 6.7-1.3l13.6.7c2.3 0 4.7.3 6.9.9 2 .7 4 1.6 5.9 2.5 4.3 1.9 9 2.8 13.8 2.5 1.3 0 2.6-.3 3.7-.9 1.3-.8 2.2-2.2 3.6-2.7 1.6-.6 3.7 0 4.9-1.2.7-.9 1.1-2 1-3.2l.6-13.4c.6-13.8 1.1-28-3.4-41-1.1-3.2-2.5-6.2-3.4-9.5-.7-3.4-1.3-6.8-1.6-10.2-1.4-9.5-4.6-18.9-4-28.5 0-.7.6-.9 1.4-1 2.5-.3 5.3.2 7.1 2 1.6 1.6 2.2 4 2.4 6.2.3 1.6 0 3.3-.9 4.7l3.8-2.8c1.2-.9 2.5-2.1 2.3-3.6-.7-4.4-.5-9.3-1-13.6-.8-7.4-2-14.8-3.6-22.2-.6-2.1-1.1-4.2-1.5-6.3-.4-2.9-.2-5.9-.3-8.8-.3-4.2-1.3-8.2-3.1-12-.5-1.2-1.2-2.2-2-3.2-1.1-1.1-2.4-2-3.9-2.7-6.2-3.2-12.8-5.6-19.6-7.1-1.4-.3-2.9-.5-4 .3-1.4 1.1-1.2 3.3-.6 4.9s1.6 3.3 1.3 5.1-1.8 3.1-3 4.5c-3.2 3.7-4.6 8.7-8 12.3-1.6 1.8-3.7 3.3-4 5.5z"/>
  <path fill="#393859" d="M696.1 333.4c1.7 1.4 3.2 3.4 5.4 3.9 5.3 1.1 9.4-7.5 14.5-5.6 1.9.7 3 2.5 4.4 3.8 3.6 2.9 8.9 2.6 12-.9 2.7-3.1 2.7-7.6 2.6-11.8.1-1.5-.2-3-.9-4.4-.5-.7-1.1-1.4-1.8-1.9-6-4.7-14.2-5.4-21.9-5.9-1.7-.2-3.4-.1-5 .2-2.3.6-4.2 2.1-6 3.6-3.4 2.9-11.8 8.3-12.9 12.9s6.2 3.3 9.6 6.1z"/>
  <path fill="#18ab63" d="M674.7 395h69.1c1.4 0 2.6 1.2 2.6 2.6v75.2c0 1.4-1.2 2.6-2.6 2.6h-69.1c-1.4 0-2.6-1.2-2.6-2.6v-75.2c0-1.4 1.2-2.6 2.6-2.6z"/>
  <path fill="#fff" d="M681.1 402h56.3c1.4 0 2.6 1.2 2.6 2.6V448c0 1.4-1.2 2.6-2.6 2.6h-56.3c-1.4 0-2.6-1.2-2.6-2.6v-43.4c0-1.4 1.2-2.6 2.6-2.6z"/>
  <path fill="#18ab63" d="M732 427.4c0-.5-.1-1-.3-1.5v-.1c-1-2.9-4.1-4.4-7-3.5-.9.3-1.7.8-2.3 1.6-.1-.5-.2-1-.4-1.5-1.5.2-2.9.2-4.4.2.9.4 1.8.8 2.8 1v.1c-1.1-.3-2.1-.7-3.1-1.2l-.3-.1h.3c1.6.1 3.1.1 4.7-.1-.3-.8-.8-1.5-1.4-2.2-2.5-.2-5-.8-7.3-1.8l.1-.1c2.3 1 4.7 1.6 7.1 1.8-2.9-3.2-7.9-3.3-11.1-.4-.5.5-1 1.1-1.4 1.7-.2-2.2-1.2-4.4-2.7-6-3.4 1.3-7 1.9-10.6 1.8.9.4 1.8.7 2.8 1v.1c-1.1-.3-2.1-.7-3.1-1.2l-.3-.1h.3c3.7.2 7.4-.3 10.8-1.7l-.4-.4c-4.3.1-9 0-13.2-1.5-3.2 2-5.1 5.4-5.1 9.2.1 2.6.6 5.2 1.5 7.6.4 1.2.9 2.5 1.5 3.7.3.6.6 1.2.9 1.7.4.7.8 1.4 1.3 2l.3.3c.5.6 1 1.2 1.6 1.7.1.1.2.2.4.3.3.2.7.5 1 .7.6.3 1.3.5 2 .5h29.4c.2 0 .3 0 .5-.1 1-.4 2-1.9 2.8-3.7.2-.4.3-.8.5-1.3s.3-.8.4-1.2c.4-1.2.7-2.5.9-3.6.2-1.1.4-2.2.4-3.4l.1-.3z" opacity=".3"/>
  <path fill="#18ab63" d="M702.6 420.3c-.2 0-.5 0-.7.1-.3.1-.6.1-.9 0-.3-.1-.7-.1-1 0-.1.1-.2.1-.3.1-.4 0-.8-.4-.8-1 .1-.1.2-.1.2-.2.2-.4.6-.6 1-.6s.8.3 1 .6c.1.2.4.4.7.4.4 0 .8.2.8.6z" opacity=".1"/>
  <path fill="#18ab63" d="M703.9 418.6l-.7.4.4-.8c-.1-.1-.3-.1-.4-.1h-.2l-.2.1.1-.2c-.2-.1-.3-.2-.4-.3l-.4.3.3-.5c-.2-.3-.6-.5-.9-.5-.4 0-.8.3-1 .6-.1.2-.4.4-.7.4-.5 0-.8.5-.8 1.2s.4 1.2.8 1.2c.1 0 .2 0 .3-.1.3-.1.7-.1 1 0 .1.1.3.1.4.1.2 0 .3 0 .4-.1.3-.1.7-.1 1 0 .1 0 .2.1.3.1.5 0 .8-.5.8-1.2.1-.1 0-.4-.1-.6z" opacity=".1"/>
  <ellipse cx="669.8" cy="450.6" fill="#a0616a" rx="6.1" ry="10.3"/>
  <ellipse cx="750.8" cy="445.5" fill="#a0616a" rx="6.2" ry="10.3"/>
</svg>