<svg xmlns="http://www.w3.org/2000/svg" viewBox="-142 144.1 225.9 225.9">
  <g fill="#1e2022">
    <circle cx="-140.1" cy="146" r="1.9"/>
    <circle cx="-115.4" cy="146" r="1.9"/>
    <circle cx="-90.7" cy="146" r="1.9"/>
    <circle cx="-140.1" cy="170.7" r="1.9"/>
    <circle cx="-115.4" cy="170.7" r="1.9"/>
    <circle cx="-90.7" cy="170.7" r="1.9"/>
    <circle cx="-140.1" cy="195.4" r="1.9"/>
    <circle cx="-115.4" cy="195.4" r="1.9"/>
    <circle cx="-90.7" cy="195.4" r="1.9"/>
    <circle cx="-140.1" cy="220" r="1.9"/>
    <circle cx="-115.4" cy="220" r="1.9"/>
    <circle cx="-90.7" cy="220" r="1.9"/>
    <circle cx="-140.1" cy="244.7" r="1.9"/>
    <circle cx="-115.4" cy="244.7" r="1.9"/>
    <circle cx="-90.7" cy="244.7" r="1.9"/>
    <circle cx="-140.1" cy="269.4" r="1.9"/>
    <circle cx="-115.4" cy="269.4" r="1.9"/>
    <circle cx="-90.7" cy="269.4" r="1.9"/>
    <circle cx="-140.1" cy="294" r="1.9"/>
    <circle cx="-115.4" cy="294" r="1.9"/>
    <circle cx="-90.7" cy="294" r="1.9"/>
    <circle cx="-140.1" cy="318.7" r="1.9"/>
    <circle cx="-115.4" cy="318.7" r="1.9"/>
    <circle cx="-90.7" cy="318.7" r="1.9"/>
    <circle cx="-140.1" cy="343.4" r="1.9"/>
    <circle cx="-115.4" cy="343.4" r="1.9"/>
    <circle cx="-90.7" cy="343.4" r="1.9"/>
    <circle cx="-140.1" cy="368" r="1.9"/>
    <circle cx="-115.4" cy="368" r="1.9"/>
    <circle cx="-90.7" cy="368" r="1.9"/>
    <circle cx="-66.1" cy="146" r="1.9"/>
    <circle cx="-41.4" cy="146" r="1.9"/>
    <circle cx="-66.1" cy="170.7" r="1.9"/>
    <circle cx="-41.4" cy="170.7" r="1.9"/>
    <circle cx="-66.1" cy="195.4" r="1.9"/>
    <circle cx="-41.4" cy="195.4" r="1.9"/>
    <circle cx="-66.1" cy="220" r="1.9"/>
    <circle cx="-41.4" cy="220" r="1.9"/>
    <circle cx="-66.1" cy="244.7" r="1.9"/>
    <circle cx="-41.4" cy="244.7" r="1.9"/>
    <circle cx="-66.1" cy="269.4" r="1.9"/>
    <circle cx="-41.4" cy="269.4" r="1.9"/>
    <circle cx="-66.1" cy="294" r="1.9"/>
    <circle cx="-41.4" cy="294" r="1.9"/>
    <circle cx="-66.1" cy="318.7" r="1.9"/>
    <circle cx="-41.4" cy="318.7" r="1.9"/>
    <circle cx="-66.1" cy="343.4" r="1.9"/>
    <circle cx="-41.4" cy="343.4" r="1.9"/>
    <circle cx="-66.1" cy="368" r="1.9"/>
    <circle cx="-41.4" cy="368" r="1.9"/>
    <circle cx="-16.7" cy="146" r="1.9"/>
    <circle cx="7.9" cy="146" r="1.9"/>
    <circle cx="32.6" cy="146" r="1.9"/>
    <circle cx="-16.7" cy="170.7" r="1.9"/>
    <circle cx="7.9" cy="170.7" r="1.9"/>
    <circle cx="32.6" cy="170.7" r="1.9"/>
    <circle cx="-16.7" cy="195.4" r="1.9"/>
    <circle cx="7.9" cy="195.4" r="1.9"/>
    <circle cx="32.6" cy="195.4" r="1.9"/>
    <circle cx="-16.7" cy="220" r="1.9"/>
    <circle cx="7.9" cy="220" r="1.9"/>
    <circle cx="32.6" cy="220" r="1.9"/>
    <circle cx="-16.7" cy="244.7" r="1.9"/>
    <circle cx="7.9" cy="244.7" r="1.9"/>
    <circle cx="32.6" cy="244.7" r="1.9"/>
    <circle cx="-16.7" cy="269.4" r="1.9"/>
    <circle cx="7.9" cy="269.4" r="1.9"/>
    <circle cx="32.6" cy="269.4" r="1.9"/>
    <circle cx="-16.7" cy="294" r="1.9"/>
    <circle cx="7.9" cy="294" r="1.9"/>
    <circle cx="32.6" cy="294" r="1.9"/>
    <circle cx="-16.7" cy="318.7" r="1.9"/>
    <circle cx="7.9" cy="318.7" r="1.9"/>
    <circle cx="32.6" cy="318.7" r="1.9"/>
    <circle cx="-16.7" cy="343.4" r="1.9"/>
    <circle cx="7.9" cy="343.4" r="1.9"/>
    <circle cx="32.6" cy="343.4" r="1.9"/>
    <circle cx="-16.7" cy="368" r="1.9"/>
    <circle cx="7.9" cy="368" r="1.9"/>
    <circle cx="32.6" cy="368" r="1.9"/>
    <circle cx="57.3" cy="146" r="1.9"/>
    <circle cx="81.9" cy="146" r="1.9"/>
    <circle cx="57.3" cy="170.7" r="1.9"/>
    <circle cx="81.9" cy="170.7" r="1.9"/>
    <circle cx="57.3" cy="195.4" r="1.9"/>
    <circle cx="81.9" cy="195.4" r="1.9"/>
    <circle cx="57.3" cy="220" r="1.9"/>
    <circle cx="81.9" cy="220" r="1.9"/>
    <circle cx="57.3" cy="244.7" r="1.9"/>
    <circle cx="81.9" cy="244.7" r="1.9"/>
    <circle cx="57.3" cy="269.4" r="1.9"/>
    <circle cx="81.9" cy="269.4" r="1.9"/>
    <circle cx="57.3" cy="294" r="1.9"/>
    <circle cx="81.9" cy="294" r="1.9"/>
    <circle cx="57.3" cy="318.7" r="1.9"/>
    <circle cx="81.9" cy="318.7" r="1.9"/>
    <circle cx="57.3" cy="343.4" r="1.9"/>
    <circle cx="81.9" cy="343.4" r="1.9"/>
    <circle cx="57.3" cy="368" r="1.9"/>
    <circle cx="81.9" cy="368" r="1.9"/>
  </g>
</svg>