<svg xmlns="http://www.w3.org/2000/svg" viewBox="122 -397.6 2244.6 1813.6">
  <path fill="#1b1464" d="M1951.7 1413.4L168.3 868.8c-31.8-9.7-49.8-43.4-40.1-75.3L465.2-310c9.7-31.8 43.4-49.8 75.3-40.1l1783.4 544.6c31.8 9.7 49.8 43.4 40.1 75.3l-337 1103.5c-9.7 31.8-43.4 49.8-75.3 40.1z"/>
  <path fill="#fff" d="M716 8.4L770.2 25l13.6-44.7-68.5-20.9-8.3 27.3 9 21.7zm-39.9-31.2l-20.9 68.5 65.1 19.9c18.9 5.8 38.9-4.8 44.7-23.8l3-9.9-57.5-17.6-12.4-30.2-22-6.9zm41.3-24.6l68.5 20.9 13.6-44.7-54.2-16.6-19.6 13.2-8.3 27.2zm-98.6 26.2l19.6-13.1 8.3-27.3-68.5-20.9-13.6 44.7 54.2 16.6zM599-150.8l-3.1 10 57.5 17.6L665.8-93l22.1 6.7 20.9-68.5-65.1-19.9c-18.9-5.6-38.9 5-44.7 23.9zm49.1 33.4L593.9-134l-13.6 44.7 68.5 20.9 8.3-27.3-9-21.7zm68.8 40.1l27.2-18.2 57.5 17.6 3.1-10c5.8-18.8-4.8-38.9-23.8-44.7l-65.1-20-20.9 68.5 22 6.8zm-69.7 45.7L620-13.5l-57.5-17.6-3 9.9c-5.8 18.9 4.8 38.9 23.8 44.7l65.1 19.9 20.9-68.5-22.1-6.5zm1349.7 373.8c-4.1 12.7 5.3 23.4 12.7 30.2 7.6 7 9.8 10.8 8.5 14.6-1.9 5.9-9.7 6.4-16.3 4.5-11.5-3.3-17.2-8.6-21.8-12.7l-10 18.2c4.6 4.1 13.8 9.2 24 12.5 24.1 7.4 43.4.3 49.1-18.1 7.2-23.3-24.8-34.5-21.4-44.9 1.1-3.1 5-5.6 12-4.4 3.4.5 12.6 3 21.4 10.8l9.7-17.5c-4.9-3.7-11.4-7.8-20.2-10.5-22.7-7.1-42.2.1-47.7 17.3m107.4 2.5c-4.4-1.3-8.9.1-11.7 3.5l-59.4 71.6 24 7.3 8.8-11.7 29.4 9-1.3 14 21.2 6.5 8.6-94.2-19.6-6m-4 25l-3.2 35.4-19-5.8 22.2-29.6m-124-64.1l-46 82.8 23 7 46-82.8-23-7m-34-10.3l-42.2 53 6-54.2c.6-6.1-2.9-10.7-7.8-12.2l-39-11.9-1.4 2.4c7.5 4.2 15.7 9.7 20.3 14.4 2.8 2.8 3.3 4.8 3.1 9.4l-3.3 76.3 24.2 7.4 64.2-77.2-24.1-7.4"/>
  <circle cx="450.3" cy="429.9" r="21.6" fill="#fff"/>
  <circle cx="545.1" cy="458.8" r="21.6" fill="#fff"/>
  <circle cx="639.8" cy="487.7" r="21.6" fill="#fff"/>
  <circle cx="734.4" cy="516.7" r="21.6" fill="#fff"/>
  <circle cx="906.6" cy="569.2" r="21.6" fill="#fff"/>
  <circle cx="1001.3" cy="598.2" r="21.6" fill="#fff"/>
  <circle cx="1096" cy="627.1" r="21.6" fill="#fff"/>
  <circle cx="1190.6" cy="656" r="21.6" fill="#fff"/>
  <circle cx="1362.8" cy="708.5" r="21.6" fill="#fff"/>
  <circle cx="1457.5" cy="737.5" r="21.6" fill="#fff"/>
  <circle cx="1552.2" cy="766.4" r="21.6" fill="#fff"/>
  <circle cx="1646.8" cy="795.3" r="21.6" fill="#fff"/>
  <path fill="#fff" d="M1835.3 829.7l-4.1 13.6c-1 3.2-2.7 5.4-5.3 6.7 1.3 2.8 1.6 5.6.8 8.3l-4.3 14.2c-.6 2-1.9 3.5-3.7 4.4-1.9 1-3.8 1.1-5.8.5l-25.6-7.8c-1.1-.3-1.7-.9-2.3-1.8-.5-.9-.6-1.9-.3-2.9.3-1.1.9-1.7 1.8-2.3.9-.5 1.9-.6 2.9-.3l25.5 7.8 4.3-14.2c.3-1.1.2-2-.3-2.9-.4-1-1.2-1.5-2.3-1.8l-14.5-4.4c-1.1-.3-1.7-.9-2.3-1.8s-.6-1.9-.3-2.9c.3-1.1.9-1.7 1.8-2.3.9-.5 1.9-.6 2.9-.3l14.6 4.5c1 .3 1.9.2 2.9-.3 1-.4 1.5-1.2 1.8-2.3l4.3-14-25.8-7.9c-1.1-.3-1.7-.9-2.3-1.8-.5-.9-.6-1.9-.3-2.9.3-1.1.9-1.7 1.8-2.3.9-.5 1.9-.6 2.9-.3l25.8 7.9c2 .6 3.5 1.8 4.5 3.7 1.4 2 1.5 3.9.9 5.9zm22.8-1l3.6 1.1c1 .3 1.7.9 2.3 1.8.4 1 .6 1.9.3 2.9-.3 1.1-.9 1.7-1.8 2.3-.9.5-1.9.6-2.9.3l-7.3 23.9 25.5 7.8c1 .3 1.7.9 2.3 1.8.5 1 .6 1.9.3 2.9l-5.7 18.7c-.3 1.1-.9 1.7-1.8 2.3-1 .4-1.9.6-2.9.3l-29.1-8.9c-1.1-.3-1.8-1-2.3-1.8-.5-1-.6-1.9-.3-2.9l15.2-49.9c.3-1.1.9-1.7 1.8-2.3.8-.5 1.7-.6 2.8-.3zm-8.2 39.6l-3.5 11.5 21.9 6.7 3.5-11.5-21.9-6.7zm73.2 42.7l-3.6-1.1c-1-.3-1.7-.9-2.3-1.8-.6-.9-.6-1.9-.3-2.9.3-1.1.9-1.7 1.8-2.3.9-.5 1.9-.6 2.9-.3l7.3-23.9-25.5-7.8c-1-.3-1.7-.9-2.3-1.8-.5-1-.6-1.9-.3-2.9l5.7-18.7c.3-1 .9-1.7 1.8-2.3 1-.5 1.9-.6 2.9-.3l29.1 8.9c1 .3 1.7.9 2.3 1.8.5 1 .6 1.9.3 2.9l-15.2 49.9c-.3 1.1-.9 1.7-1.8 2.3-.9.5-1.8.6-2.8.3zm8.2-39.5l3.5-11.4-22-6.7-3.5 11.4 22 6.7zm63.9 7l-4.1 13.6c-1 3.2-2.7 5.4-5.3 6.7 1.3 2.8 1.6 5.6.8 8.3l-4.3 14.2c-.6 2-1.9 3.5-3.7 4.4-1.9 1-3.8 1.1-5.8.5l-25.6-7.8c-1.1-.3-1.7-.9-2.3-1.8-.5-.9-.6-1.9-.3-2.9.3-1.1.9-1.7 1.8-2.3.9-.5 1.9-.6 2.9-.3l25.5 7.8 4.3-14.2c.3-1.1.2-2-.3-2.9-.4-1-1.2-1.5-2.3-1.8l-14.5-4.4c-1.1-.3-1.7-.9-2.3-1.8-.6-.9-.6-1.9-.3-2.9.3-1.1.9-1.7 1.8-2.3.9-.5 1.9-.6 2.9-.3l14.6 4.5c1 .3 1.9.2 2.9-.3 1-.4 1.5-1.2 1.8-2.3l4.3-14-25.8-7.9c-1.1-.3-1.7-.9-2.3-1.8-.5-.9-.6-1.9-.3-2.9.3-1.1.9-1.7 1.8-2.3.9-.5 1.9-.6 2.9-.3l25.8 7.9c2 .6 3.5 1.8 4.5 3.7 1.3 2 1.5 3.9.9 5.9zM328.6 752.8l13.2-43.3c.6-1.9 1.7-3.3 3.6-4.2 1.8-.9 3.7-1.2 5.5-.6l22.6 6.9c1.9.6 3.2 1.7 4.2 3.6.9 1.7 1.1 3.7.5 5.5L365 764c-.6 1.9-1.8 3.3-3.5 4.4-1.7.9-3.6 1.1-5.6.5l-22.5-6.9c-1.9-.6-3.4-1.8-4.4-3.5-.8-1.9-1-3.8-.4-5.7zm29.4 8.7l13-42.7-22.1-6.7-13 42.7 22.1 6.7zm54.8 24.5l-3.6-1.1c-1-.3-1.7-.9-2.3-1.8s-.6-1.9-.3-2.9c.3-1.1.9-1.7 1.8-2.3.9-.5 1.9-.6 2.9-.3l7.3-23.9-25.5-7.8c-1-.3-1.7-.9-2.3-1.8-.5-1-.6-1.9-.3-2.9l5.7-18.7c.3-1 .9-1.7 1.8-2.3 1-.5 1.9-.6 2.9-.3l29.1 8.9c1 .3 1.7.9 2.3 1.8.5 1 .6 1.9.3 2.9l-15.2 49.9c-.3 1.1-.9 1.7-1.8 2.3-.8.6-1.8.6-2.8.3zm8.2-39.5l3.5-11.4-22-6.7-3.5 11.4 22 6.7zm64.1 6l-44.6 40.9c-.7.6-1.5.8-2.6.5-1-.3-1.7-.8-2.4-1.8-.7-.9-.8-1.8-.5-2.9.3-.9.8-1.7 1.7-2.6l44.5-40.8c.7-.6 1.6-.8 2.6-.4 1 .3 1.7.8 2.3 1.7.7.8.8 1.8.5 2.8-.1 1-.6 1.9-1.5 2.6zm34.3 66.1l-32.9-10 7.6-25c.6-2 1.8-3.5 3.7-4.5 1.9-1 3.8-1.2 5.7-.7l22 6.7 5.4-17.6-25.8-7.9c-1.1-.3-1.8-1-2.3-1.8s-.6-1.9-.3-2.9c.3-1.1.9-1.7 1.8-2.3.9-.5 1.9-.6 2.9-.3l25.8 7.9c2 .6 3.5 1.8 4.5 3.7 1 1.9 1.2 3.8.7 5.7l-5.4 17.6c-.6 2-1.9 3.5-3.8 4.5s-3.8 1.1-5.8.5l-22-6.7-5.4 17.8 25.6 7.8c1 .3 1.7.9 2.3 1.8s.6 1.9.3 2.9c-.3 1.1-.9 1.7-1.8 2.3-.9.8-1.9.8-2.8.5zm53.3 16.3l-32.9-10 7.6-25c.6-2 1.8-3.5 3.7-4.5 1.9-1 3.8-1.2 5.7-.7l22 6.7 5.4-17.6-25.8-7.9c-1.1-.3-1.8-1-2.3-1.8-.5-.9-.6-1.9-.3-2.9s.9-1.7 1.8-2.3c.9-.5 1.9-.6 2.9-.3l25.8 7.9c2 .6 3.5 1.8 4.5 3.7 1 1.9 1.2 3.8.7 5.7l-5.4 17.6c-.6 2-1.9 3.5-3.8 4.5s-3.8 1.1-5.8.5l-22-6.7-5.4 17.8 25.6 7.8c1 .3 1.7.9 2.3 1.8s.6 1.9.3 2.9-.9 1.7-1.8 2.3c-.9.8-1.9.8-2.8.5zM782.9 897.1l14.3-47c.3-1 .8-1.7 1.7-2.2s1.8-.6 2.7-.3c1 .3 1.6.8 2.1 1.7.5.9.5 1.7.2 2.7l-4.9 16.1 27.5-12c1-.4 1.9-.5 2.8-.1 1 .3 1.6.9 2.1 1.8s.5 1.8.2 2.7c-.3 1-.9 1.6-1.8 1.9l-31.1 13.5 18.3 28.9c.5.8.6 1.7.3 2.5-.3.9-.8 1.6-1.7 2.1-.9.6-1.8.6-2.8.3-1-.3-1.6-.8-2.2-1.7l-16-25.4-5 16.3c-.3 1-.8 1.6-1.7 2.1s-1.7.5-2.7.2-1.6-.8-2.1-1.7c-.5-.6-.5-1.4-.2-2.4zm94.4-18.8l-24.1-7.4-5.1 16.5 10.4 3.2c1 .3 1.6.9 2.1 1.8s.6 1.8.3 2.7c-.3 1-.8 1.7-1.7 2.2s-1.8.6-2.7.3l-10.4-3.2-5.1 16.7 24.2 7.4c1 .3 1.6.8 2.1 1.7s.6 1.8.3 2.7-.9 1.6-1.8 2.1-1.8.5-2.8.2l-30.9-9.4 16.4-53.8 30.9 9.4c1 .3 1.6.9 2.2 1.8.5.9.6 1.9.3 2.8-.3 1-.9 1.6-1.8 2.1-1 .4-1.9.4-2.8.2zm4.9 52.8l15.4-50.5c.3-1 .9-1.6 1.8-2.1s1.8-.6 2.7-.3c1 .3 1.6.9 2.1 1.8s.6 1.8.3 2.7l-13.3 43.6 24.1 7.4c1 .3 1.6.8 2.2 1.7.5.9.6 1.8.3 2.7-.3 1-.9 1.6-1.8 2.1s-1.8.5-2.8.2l-31-9.5v.2zm50.1 15.3l15.4-50.5c.3-1 .9-1.6 1.8-2.1s1.8-.6 2.7-.3 1.6.9 2.1 1.8.6 1.8.3 2.7l-13.3 43.6 24.1 7.4c1 .3 1.6.8 2.2 1.7.5.9.6 1.8.3 2.7-.3 1-.9 1.6-1.8 2.1s-1.8.5-2.8.2l-31-9.5v.2zm78.7-4.2l-6.9 22.5c-.3 1-.9 1.6-1.8 2.1s-1.7.5-2.7.2-1.7-.8-2.2-1.7c-.5-.9-.6-1.8-.3-2.7l6.8-22.4-8.4-21.5 2.2-7.2c.3-1 .8-1.7 1.7-2.2s1.8-.6 2.7-.3c1 .3 1.6.9 2.2 1.8.6.9.6 1.9.3 2.8l-1.4 4.7 6.2 16.2 14.3-9.9 1.4-4.7c.3-1 .9-1.6 1.8-2.2.9-.5 1.8-.6 2.7-.3.9.3 1.6.8 2.1 1.7.5.9.6 1.8.3 2.8l-2.2 7.2-18.8 13.1zm73.3 45.5l27.9-42.4c1.1-1.5 2.5-2 4.2-1.4 1.7.5 2.6 1.5 2.5 3.1l-.9 51.5c0 .4 0 .7-.1 1.1-.3 1-.8 1.6-1.7 2.1-.9.5-1.7.5-2.5.3-1.8-.6-2.6-1.7-2.7-3.5l.2-10.1-15.6-4.8-6 9c-.2.4-.6.7-1.4.9-.7.2-1.4.2-2.1 0-1.1-.3-1.7-.9-2.2-1.8s-.5-1.8-.2-2.8c.2-.4.4-.9.6-1.2zm27.3-28.2l-11.8 17.7 11.5 3.5.3-21.2zm70.9 8.3l-15.4 50.4-9.1-2.8-5.6-47.4-11.7 38.4c-.3 1-.8 1.6-1.7 2.1s-1.7.5-2.7.2-1.6-.8-2.1-1.7c-.5-.9-.5-1.7-.2-2.7l15.4-50.5 9 2.7 5.6 47.4 11.7-38.3c.3-1 .9-1.6 1.8-2.2s1.9-.6 2.8-.3c1 .3 1.6.9 2.1 1.8.4 1 .4 1.8.1 2.9zm20.3 2.3l13.5 4.1c1.7.5 3.3 1.6 4.6 3.3 1.3 1.6 2.1 3.4 2.4 5.1l2.5 15.6c.5 2.9.4 5.7-.5 8.3-.8 2.5-2.2 4.9-4.3 7l-10.9 11.4c-1.4 1.5-3.1 2.5-5 3-1.9.6-3.9.5-5.9-.1l-13-4c-1-.3-1.6-.9-2.1-1.8s-.5-1.7-.2-2.7.8-1.6 1.7-2.2c.9-.5 1.8-.6 2.7-.3l3.5 1.1 12.2-40.1-3.4-1.1c-1-.3-1.6-.9-2.1-1.8s-.5-1.8-.2-2.8.8-1.6 1.7-2.1c.9 0 1.9-.2 2.8.1zm8.2 10l-12.3 40.2 2.4.7c1.5.5 2.9.1 4.1-1.1l10.8-11.3c1.4-1.5 2.2-2.9 2.6-4 .5-1.5.5-3 .2-4.5l-2.7-16c-.4-1.6-1.3-2.7-2.9-3.2l-2.2-.8zm67.4 20.6l-24.1-7.4-5.1 16.5 10.4 3.2c1 .3 1.6.9 2.1 1.8s.6 1.8.3 2.7c-.3 1-.8 1.7-1.7 2.2-.9.5-1.8.6-2.7.3l-10.4-3.2-5.1 16.7 24.2 7.4c1 .3 1.6.8 2.1 1.7.5.9.6 1.8.3 2.7-.3 1-.9 1.6-1.8 2.1s-1.8.5-2.8.2l-30.9-9.4 16.4-53.8 30.9 9.4c1 .3 1.6.9 2.2 1.8.5.9.6 1.9.3 2.8s-.9 1.6-1.8 2.1-1.9.5-2.8.2zm6 49.5l15.4-50.5 24.1 7.4c2.8.8 4.8 2.6 6.2 5.3s1.7 5.3.8 8.2l-1.2 3.9c-.9 2.9-2.6 5-5.2 6.4s-5.3 1.7-8.1.9l-4.3-1.3 6.6 28.1c.3.8.2 1.6 0 2.3-.3 1-.9 1.6-1.8 2.1s-1.8.5-2.7.2c-1.3-.4-2.2-1.3-2.5-2.8l-7.6-32.4-4.9-1.5-7.9 26c-.3 1-.9 1.6-1.8 2.1s-1.8.5-2.8.2-1.6-.8-2.1-1.7c-.3-.9-.5-1.9-.2-2.9zm16.8-30.7l17.3 5.3c1 .3 1.8.2 2.7-.2.9-.5 1.4-1.1 1.7-2.1l1.2-4c.3-1 .2-1.8-.2-2.7-.5-.9-1.1-1.4-2.1-1.7l-17.3-5.3-3.3 10.7zm56.4-2.1l17.7 5.4c2.2.7 3.9 2.2 5.3 4.6s1.6 4.9.9 7.5c-.3 1-.9 1.7-1.8 2.2s-1.8.6-2.6.4c-1.1-.4-1.8-.9-2.2-1.5-.3-.7-.4-1.8-.3-3.3.1-1.6-.6-2.5-1.9-2.9l-16.8-5.1c-.8-.2-1.3-.1-1.5.4-.1.3 0 .7.1 1.3l15.5 40.1c.8 1.9.8 3.8.3 5.6-.6 2-1.9 3.6-3.8 4.7s-3.9 1.3-5.6.8l-18.4-5.6c-2.4-.7-4.3-2.4-5.5-4.7-1.3-2.4-1.5-4.7-.8-6.9.8-2.6 2.3-3.5 4.7-2.7 1 .3 1.6.8 2.1 1.7.5.9.5 1.7.3 2.6-.2.8-.1 1.4.2 2.1.3.6.9 1.1 1.7 1.3l16.9 5.2c.8.2 1.1 0 1.3-.5.1-.3 0-.7-.2-1.2l-15.4-40c-.7-1.9-.8-3.8-.3-5.6.6-2.1 2-3.7 4-4.8s4-1.8 6.1-1.1zm66.2 25.6l2.8 17.6c.4 2.4.3 4.8-.4 7.3-.7 2.4-2 4.4-3.7 6.2l-12.1 12.8c-2.6 2.9-5.8 3.7-9.6 2.5-1.8-.6-3.3-1.5-4.4-2.9s-1.8-2.9-2.2-4.5l-2.9-17.4c-.3-2.3-.2-4.7.5-7.2.8-2.5 1.9-4.6 3.6-6.3l12.2-13c2.7-2.8 5.9-3.6 9.6-2.5s5.9 3.7 6.6 7.4zm-11.5.3l-11.5 12.2c-1.1 1.2-1.8 2.6-2.2 3.9-.5 1.5-.6 3-.4 4.6l2.8 16.8c.1 1 .6 1.7 1.7 2 .9.3 1.7 0 2.4-.7l11.7-12.3c1.1-1.2 1.9-2.5 2.4-4s.5-3 .2-4.5l-2.8-16.5c-.2-1.2-.7-2-1.6-2.3-.9-.4-1.8-.1-2.7.8zm71.1 16.4l-15.4 50.4-9.1-2.8-5.6-47.4-11.7 38.4c-.3 1-.8 1.6-1.7 2.1-.9.5-1.7.5-2.7.2s-1.6-.8-2.1-1.7c-.5-.9-.5-1.7-.2-2.7l15.4-50.5 9 2.7 5.6 47.4 11.7-38.3c.3-1 .9-1.6 1.8-2.2s1.9-.6 2.8-.3c1 .3 1.6.9 2.1 1.8.3.9.4 1.8.1 2.9z"/>
  <path fill="#fff" d="M385.9 630.6l-14.3-4.4-3 9.9 6.1 1.9c.6.2 1 .5 1.3 1s.3 1 .1 1.6-.5 1-1 1.3-1 .3-1.6.1l-6.1-1.9-3 9.9 14.3 4.4c.6.2 1 .5 1.3 1s.3 1 .1 1.6c-.2.6-.5 1-1 1.3s-1 .3-1.6.1l-18.3-5.6 9.7-31.8 18.3 5.6c.6.2 1 .5 1.3 1s.3 1 .1 1.6c-.2.6-.5 1-1 1.3-.6.2-1.1.2-1.7.1zm17 22.5l-9.8 9c-.6.6-1.2.7-2 .4-.6-.2-1-.5-1.2-1.1-.3-.5-.3-1-.2-1.5.1-.4.3-.7.7-1l11.6-10.5-3.5-14.9c-.1-.6-.2-1.1-.1-1.5.1-.5.5-.9 1-1.2s1-.3 1.6-.1c.8.2 1.3.7 1.4 1.5l3.2 12.9 9.7-8.9c.6-.6 1.2-.7 2-.4.6.2 1 .5 1.3 1s.4 1.1.2 1.6c-.1.4-.3.7-.6 1L406.7 650l3.6 15.2c.1.3.1.8 0 1.1-.2.6-.5 1-1 1.3s-1 .3-1.6.1c-.8-.2-1.3-.7-1.4-1.5l-3.4-13.1zm16.2 15.7l9.1-29.8 14.3 4.4c1.6.5 2.9 1.5 3.7 3.1.8 1.6 1 3.2.5 4.9l-2.3 7.6c-.5 1.6-1.5 2.9-3.1 3.7-1.5.8-3.1 1-4.9.5l-10.2-3.1-3.1 10.1c-.2.6-.5 1-1 1.3s-1 .3-1.6.1c-.6-.2-1-.5-1.3-1-.2-.7-.3-1.2-.1-1.8zm8.4-12.9l10.2 3.1c.6.2 1.1.1 1.6-.1.5-.3.8-.7 1-1.3l2.3-7.6c.2-.6.1-1.1-.1-1.6-.3-.5-.7-.8-1.3-1l-10.2-3.1-3.5 11.6zm32.3-7.3l16.4 5c.6.2.9.5 1.3 1s.3 1 .1 1.6c-.2.6-.5 1-1 1.3s-1 .3-1.6.1l-6.1-1.9-7.3 23.8 6.1 1.9c.6.2 1 .5 1.3 1s.3 1 .1 1.6-.5 1-1 1.3-1 .3-1.6.1l-16.4-5c-.6-.2-1-.5-1.3-1s-.3-1-.1-1.6c.2-.6.5-1 1-1.3s1-.3 1.6-.1l6.2 1.9 7.2-23.7-6.2-1.9c-.6-.2-1-.5-1.3-1s-.3-1-.1-1.6c.2-.6.5-1 1-1.3.6-.3 1.2-.3 1.7-.2zm18.7 38.4l9.1-29.8 14.3 4.4c1.6.5 2.9 1.5 3.7 3.1.8 1.6 1 3.2.5 4.9l-.7 2.3c-.5 1.7-1.5 3-3.1 3.7-1.5.8-3.1 1-4.9.5l-2.6-.8 3.9 16.7c.2.5.1 1 0 1.4-.2.6-.5 1-1.1 1.2-.5.3-1 .3-1.6.1-.8-.2-1.3-.8-1.5-1.6l-4.5-19.2-2.9-.9-4.7 15.4c-.2.6-.5 1-1 1.3s-1 .3-1.6.1c-.6-.2-1-.5-1.3-1-.1-.7-.1-1.3 0-1.8zm10-18.1l10.2 3.1c.6.2 1.1.1 1.6-.1.5-.3.8-.7 1-1.3l.7-2.4c.2-.6.1-1.1-.1-1.6s-.7-.8-1.3-1l-10.2-3.1-1.9 6.4zm45.7 6.9l-14.3-4.4-3 9.9 6.1 1.9c.6.2 1 .5 1.3 1 .3.5.3 1 .1 1.6-.2.6-.5 1-1 1.3s-1 .3-1.6.1l-6.1-1.9-3 9.9 14.3 4.4c.6.2 1 .5 1.3 1s.3 1 .1 1.6c-.2.6-.5 1-1 1.3s-1 .3-1.6.1l-18.3-5.6 9.7-31.8 18.3 5.6c.6.2 1 .5 1.3 1s.3 1 .1 1.6c-.2.6-.5 1-1 1.3-.6.3-1.1.3-1.7.1zm17.3.8l10.5 3.2c1.2.4 2.3 1.3 3.1 2.7.8 1.4 1 2.9.5 4.4-.2.6-.5 1-1 1.3s-1 .3-1.5.2c-.7-.2-1.1-.5-1.3-.9-.2-.4-.2-1-.2-2 .1-.9-.4-1.5-1.2-1.7l-9.9-3c-.5-.1-.8 0-.9.2-.1.2 0 .4.1.8l9.2 23.7c.5 1.2.5 2.2.1 3.3-.4 1.2-1.2 2.1-2.3 2.7-1.2.7-2.2.8-3.3.5l-10.9-3.3c-1.4-.4-2.5-1.4-3.2-2.8s-.9-2.8-.5-4.1c.5-1.5 1.4-2.1 2.8-1.7.6.2 1 .5 1.3 1s.3 1 .2 1.5c-.1.5 0 .8.2 1.2s.5.7 1 .8l10 3.1c.5.1.7 0 .8-.3.1-.2 0-.4-.1-.8l-9.1-23.7c-.4-1.2-.5-2.2-.1-3.3.4-1.2 1.2-2.1 2.3-2.8 1.1-.6 2.1-.6 3.4-.2zM823.9 790.2l7.3 2.2c.6.2 1 .5 1.3 1s.3 1 .1 1.6-.5 1-1 1.3-1 .3-1.6.1l-7.6-2.3c-1-.3-1.8-.9-2.7-1.9s-1.3-1.8-1.5-2.7l-1.9-10.4c-.3-1.5-.2-2.9.3-4.3.5-1.5 1.1-2.7 2.1-3.7l7.4-7.5c.7-.7 1.6-1.2 2.8-1.6s2.1-.4 3.1-.1l7.9 2.4c.6.2 1 .5 1.3 1s.3 1 .1 1.6-.5 1-1 1.3-1 .3-1.6.1L831 766c-.7-.2-1.3 0-1.9.7l-7 6.9c-.6.6-1 1.3-1.2 2.1-.3 1-.4 1.9-.2 2.7l1.8 9.5c-.1 1.5.5 2.1 1.4 2.3zm18.3 7l16.5-25.1c.6-.9 1.4-1.2 2.5-.9 1 .3 1.5.9 1.5 1.8l-.5 30.5c0 .2 0 .4-.1.6-.2.6-.5 1-1 1.3s-1 .3-1.5.2c-1.1-.3-1.6-1-1.6-2v-5.9l-9.2-2.8-3.5 5.3c-.1.3-.4.4-.8.6-.4.2-.9.1-1.3 0-.6-.2-1-.5-1.3-1s-.3-1-.1-1.6.3-.7.4-1zm16.2-16.6l-7 10.5 6.8 2.1.2-12.6zm13.2 26.4l9.1-29.8 14.3 4.4c1.6.5 2.9 1.5 3.7 3.1s1 3.2.5 4.9l-.7 2.3c-.5 1.7-1.5 3-3.1 3.7-1.5.8-3.1 1-4.9.5l-2.6-.8 3.9 16.7c.2.5.1 1 0 1.4-.2.6-.5 1-1.1 1.2-.5.3-1 .3-1.6.1-.8-.2-1.3-.8-1.5-1.6l-4.5-19.2-2.9-.9-4.7 15.4c-.2.6-.5 1-1 1.3s-1 .3-1.6.1c-.6-.2-1-.5-1.3-1-.1-.7-.1-1.2 0-1.8zm9.9-18.1l10.2 3.1c.6.2 1.1.1 1.6-.1s.8-.7 1-1.3l.7-2.4c.2-.6.1-1.1-.1-1.6s-.7-.8-1.3-1l-10.2-3.1-1.9 6.4zm30.8-2.1l7.9 2.4c1.1.3 1.9 1 2.7 2s1.3 2 1.5 3.1l1.6 9.3c.3 1.7.2 3.3-.3 4.9-.4 1.4-1.3 2.8-2.6 4.1l-6.4 6.7c-.8.9-1.8 1.4-3 1.8-1.1.3-2.3.3-3.5 0l-7.7-2.4c-.6-.2-1-.5-1.3-1s-.3-1-.1-1.6.5-1 1-1.3 1-.3 1.6-.1l2.1.6 7.3-23.8-2.1-.6c-.6-.2-1-.5-1.3-1s-.3-1-.1-1.6.5-1 1-1.3c.6-.3 1.1-.4 1.7-.2zm4.9 6l-7.3 23.8 1.4.4c.9.3 1.7 0 2.4-.7l6.4-6.7c.8-.9 1.3-1.7 1.6-2.3.3-.9.3-1.8.2-2.7l-1.6-9.5c-.2-1-.8-1.6-1.7-1.9l-1.4-.4zm13.6 32.3l8.5-27.8c.2-.6.5-1 1-1.3s1-.3 1.6-.1c.6.2 1 .5 1.3 1s.3 1 .1 1.6l-3.6 11.9 12.2 3.7 3.6-11.9c.2-.6.5-1 1-1.3s1-.3 1.6-.1c.6.2 1 .5 1.3 1s.3 1 .1 1.6l-8.5 27.8c-.2.6-.5 1-1 1.3s-1 .3-1.6.1c-.6-.2-1-.5-1.3-1s-.3-1-.1-1.6l3.7-12-12.2-3.7-3.7 12c-.2.6-.5 1-1 1.3s-1 .3-1.6.1c-.6-.2-1-.5-1.3-1-.2-.5-.2-1.1-.1-1.6zm52.9-13.3l1.6 10.4c.3 1.4.2 2.9-.3 4.3s-1.1 2.7-2.2 3.7l-7.1 7.6c-1.6 1.7-3.5 2.2-5.7 1.5-1.1-.3-1.9-.9-2.6-1.7-.7-.8-1.2-1.7-1.3-2.7l-1.8-10.4c-.2-1.3-.1-2.7.4-4.3.5-1.5 1.2-2.8 2.1-3.8l7.3-7.7c1.7-1.7 3.5-2.2 5.7-1.5 2.3.9 3.6 2.3 3.9 4.6zm-6.7.2l-6.8 7.2c-.6.7-1.1 1.5-1.3 2.3-.3.9-.3 1.8-.2 2.7l1.7 9.9c0 .6.4 1 1 1.1.5.1.9 0 1.4-.4l6.9-7.3c.6-.7 1.1-1.5 1.3-2.3.3-.9.3-1.8.2-2.7l-1.6-9.8c-.1-.8-.4-1.2-1-1.3-.6-.1-1.2.1-1.6.6zm12.7 33.3l9.1-29.8c.2-.6.5-1 1-1.3s1-.3 1.6-.1c.6.2 1 .5 1.3 1s.3 1 .1 1.6l-7.9 25.8 14.3 4.4c.6.2 1 .5 1.3 1s.3 1 .1 1.6-.5 1-1 1.3-1 .3-1.6.1l-18.3-5.6zM1031 823l7.9 2.4c1.1.3 1.9 1 2.7 2 .8 1 1.3 2 1.5 3.1l1.6 9.3c.3 1.7.2 3.3-.3 4.9-.4 1.4-1.3 2.8-2.6 4.1l-6.4 6.7c-.8.9-1.8 1.4-3 1.8-1.1.3-2.3.3-3.5 0l-7.7-2.3c-.6-.2-1-.5-1.3-1s-.3-1-.1-1.6.5-1 1-1.3 1-.3 1.6-.1l2.1.6 7.3-23.8-2.1-.6c-.6-.2-1-.5-1.3-1s-.3-1-.1-1.6.5-1 1-1.3c.7-.4 1.2-.4 1.7-.3zm4.9 6l-7.3 23.8 1.4.4c.9.3 1.7 0 2.4-.7l6.4-6.7c.8-.9 1.3-1.7 1.6-2.3.3-.9.3-1.8.2-2.7l-1.6-9.5c-.2-1-.8-1.6-1.7-1.9l-1.4-.4zm39.8 12.2l-14.3-4.4-3 9.9 6.1 1.9c.6.2 1 .5 1.3 1 .3.5.3 1 .1 1.6-.2.6-.5 1-1 1.3s-1 .3-1.6.1l-6.1-1.9-3 9.9 14.3 4.4c.6.2 1 .5 1.3 1 .3.5.3 1 .1 1.6-.2.6-.5 1-1 1.3s-1 .3-1.6.1l-18.3-5.6 9.7-31.8 18.3 5.6c.6.2 1 .5 1.3 1 .3.5.3 1 .1 1.6-.2.6-.5 1-1 1.3-.5.2-1.1.3-1.7.1zm3.7 29.2l9.1-29.8 14.3 4.4c1.6.5 2.9 1.5 3.7 3.1s1 3.2.5 4.9l-.7 2.3c-.5 1.7-1.5 3-3.1 3.7-1.5.8-3.1 1-4.9.5l-2.6-.8 3.9 16.7c.2.5.1 1 0 1.4-.2.6-.5 1-1.1 1.2-.5.3-1 .3-1.6.1-.8-.2-1.3-.8-1.5-1.6l-4.5-19.2-2.9-.9-4.7 15.4c-.2.6-.5 1-1 1.3s-1 .3-1.6.1c-.6-.2-1-.5-1.3-1-.2-.7-.2-1.2 0-1.8zm9.9-18.1l10.2 3.1c.6.2 1.1.1 1.6-.1.5-.3.8-.7 1-1.3l.7-2.4c.2-.6.1-1.1-.1-1.6s-.7-.8-1.3-1l-10.2-3.1-1.9 6.4zm78.1 14.7l-9.1 29.8-5.5-1.7-3.3-28.1-7 22.8c-.2.6-.5 1-1 1.3s-1 .3-1.6.1c-.6-.2-1-.5-1.3-1-.3-.5-.3-1-.1-1.6l9.1-29.8 5.4 1.6 3.4 28 6.9-22.7c.2-.6.5-1 1-1.3s1-.3 1.6-.1c.6.2 1 .5 1.3 1 .3.6.4 1.1.2 1.7zm1.3 29.9l16.5-25.1c.6-.9 1.4-1.2 2.5-.9 1 .3 1.5.9 1.5 1.8l-.5 30.5c0 .2 0 .4-.1.6-.2.6-.5 1-1 1.3s-1 .3-1.5.2c-1.1-.3-1.6-1-1.6-2v-5.9l-9.2-2.8-3.5 5.3c-.1.3-.4.4-.8.6s-.9.1-1.3 0c-.6-.2-1-.5-1.3-1s-.3-1-.1-1.6c.1-.6.3-.8.4-1zm16.1-16.7l-7 10.5 6.8 2.1.2-12.6zm26.6 11.6l.3-1.1-2.4-7.2-7.4 24.3c-.2.6-.5 1-1 1.3s-1 .3-1.6.1c-.6-.2-1-.5-1.3-1s-.3-1-.1-1.6l9.1-29.8 5.3 1.6 2.8 8.8 7.3-5.7 5.1 1.5-9.1 29.8c-.2.6-.5 1-1 1.3s-1 .3-1.6.1c-.6-.2-1-.5-1.3-1s-.3-1-.1-1.6l7.4-24.2-5.9 4.5-.4 1.1c-.2.6-.5 1-1 1.3s-1 .3-1.6.1c-.6-.2-1-.5-1.3-1s-.4-1-.2-1.6zm42.4 3.8l-14.3-4.4-3 9.9 6.1 1.9c.6.2 1 .5 1.3 1s.3 1 .1 1.6c-.2.6-.5 1-1 1.3s-1 .3-1.6.1l-6.1-1.9-3 9.9 14.3 4.4c.6.2 1 .5 1.3 1s.3 1 .1 1.6-.5 1-1 1.3-1 .3-1.6.1l-18.3-5.6 9.7-31.8 18.3 5.6c.6.2 1 .5 1.3 1s.3 1 .1 1.6c-.2.6-.5 1-1 1.3-.6.2-1.1.2-1.7.1z" opacity=".7"/>
  <path fill="#18ab63" d="M2047 876.8H182.3c-33.3 0-60.3-27-60.3-60.3V-337.3c0-33.3 27-60.3 60.3-60.3H2047c33.3 0 60.3 27 60.3 60.3V816.5c0 33.3-27 60.3-60.3 60.3z"/>
  <path fill="#fff" d="M454.8-106h56.7v-46.7h-71.6v28.5l14.9 18.2zm-47.2-18.2v71.6h68.1c19.8 0 35.8-16 35.8-35.8v-10.4h-60.1l-20.7-25.3h-23.1v-.1zm32.3-35.6h71.6v-46.7h-56.7l-14.9 18.2v28.5zM353.2-106l14.9-18.2v-28.5h-71.6v46.7h56.7zm-56.7-118.1v10.5h60.1l20.7 25.3h23.1v-71.6h-68.1c-19.8 0-35.8 16-35.8 35.8zm56.7 17.6h-56.7v46.7h71.6v-28.5l-14.9-18.2zm77.5 18.2l20.7-25.3h60.1v-10.5c0-19.7-16-35.8-35.8-35.8h-68.1v71.6h23.1zm-53.4 64.1l-20.7 25.3h-60.1v10.4c0 19.8 16 35.8 35.8 35.8h68.1v-71.6h-23.1v.1zm1400.1-36.7c-.2 13.3 11.9 20.8 21 25.2 9.3 4.5 12.5 7.5 12.4 11.5-.1 6.2-7.4 9-14.3 9.1-12 .2-19-3.2-24.6-5.8l-4.3 20.3c5.6 2.6 15.9 4.8 26.6 4.9 25.2 0 41.6-12.4 41.7-31.7.1-24.4-33.8-25.8-33.6-36.7.1-3.3 3.2-6.8 10.2-7.7 3.4-.5 12.9-.8 23.6 4.1l4.2-19.6c-5.8-2.1-13.2-4.1-22.4-4.1-23.7-.1-40.3 12.5-40.5 30.5m103.4-28.9c-4.6 0-8.5 2.7-10.2 6.8l-35.9 85.8h25.1l5-13.8h30.7l2.9 13.8h22.2l-19.3-92.6h-20.5m3.5 25l7.3 34.8h-19.9l12.6-34.8m-137.3-25l-19.8 92.6h24l19.8-92.6h-24m-35.5 0l-24.9 63-10.1-53.6c-1.2-6-5.9-9.4-11-9.4h-40.8l-.6 2.7c8.4 1.8 17.9 4.7 23.6 7.9 3.5 1.9 4.5 3.6 5.7 8.1l19.1 73.9h25.3l38.8-92.6h-25.1"/>
  <circle cx="323.9" cy="374.7" r="21.6" fill="#fff"/>
  <circle cx="422.9" cy="374.7" r="21.6" fill="#fff"/>
  <circle cx="521.9" cy="374.7" r="21.6" fill="#fff"/>
  <circle cx="620.9" cy="374.7" r="21.6" fill="#fff"/>
  <circle cx="800.9" cy="374.7" r="21.6" fill="#fff"/>
  <circle cx="899.9" cy="374.7" r="21.6" fill="#fff"/>
  <circle cx="998.9" cy="374.7" r="21.6" fill="#fff"/>
  <circle cx="1097.9" cy="374.7" r="21.6" fill="#fff"/>
  <circle cx="1277.9" cy="374.7" r="21.6" fill="#fff"/>
  <circle cx="1376.9" cy="374.7" r="21.6" fill="#fff"/>
  <circle cx="1475.9" cy="374.7" r="21.6" fill="#fff"/>
  <circle cx="1574.9" cy="374.7" r="21.6" fill="#fff"/>
  <path fill="#fff" d="M1765.2 352.6v14.2c0 3.3-1 6-3.1 8 2.1 2.3 3.2 4.9 3.2 7.7v14.8c0 2.1-.8 3.9-2.3 5.3-1.5 1.5-3.3 2.2-5.4 2.2h-26.8c-1.1 0-1.9-.4-2.7-1.1-.7-.7-1.1-1.6-1.1-2.7s.4-1.9 1.1-2.7c.7-.7 1.6-1.1 2.7-1.1h26.7v-14.8c0-1.1-.4-2-1.1-2.7-.7-.8-1.6-1.1-2.7-1.1h-15.2c-1.1 0-1.9-.4-2.7-1.1s-1.1-1.6-1.1-2.7.4-1.9 1.1-2.7c.7-.7 1.6-1.1 2.7-1.1h15.3c1 0 1.9-.4 2.7-1.1.8-.7 1.1-1.6 1.1-2.7v-14.6h-27c-1.1 0-1.9-.4-2.7-1.1-.7-.7-1.1-1.6-1.1-2.7s.4-1.9 1.1-2.7c.7-.7 1.6-1.1 2.7-1.1h27c2.1 0 3.9.7 5.4 2.2s2.2 3.3 2.2 5.4zm21.5-7.6h3.8c1 0 1.9.4 2.7 1.1.7.8 1.1 1.6 1.1 2.7s-.4 1.9-1.1 2.7c-.7.7-1.6 1.1-2.7 1.1v25h26.7c1 0 1.9.4 2.7 1.1.8.8 1.1 1.7 1.1 2.7v19.5c0 1.1-.4 1.9-1.1 2.7-.8.7-1.7 1.1-2.7 1.1h-30.4c-1.1 0-2-.4-2.7-1.1-.8-.8-1.1-1.6-1.1-2.7v-52.2c0-1.1.4-1.9 1.1-2.7.6-.6 1.5-1 2.6-1zm3.7 40.2v12h22.9v-12h-22.9zm82.5 19.5h-3.8c-1 0-1.9-.4-2.7-1.1s-1.1-1.6-1.1-2.7.4-1.9 1.1-2.7c.7-.7 1.6-1.1 2.7-1.1v-25h-26.7c-1 0-1.9-.4-2.7-1.1-.8-.8-1.1-1.6-1.1-2.7v-19.6c0-1 .4-1.9 1.1-2.7.8-.8 1.6-1.1 2.7-1.1h30.4c1 0 1.9.4 2.7 1.1.8.8 1.1 1.6 1.1 2.7v52.2c0 1.1-.4 1.9-1.1 2.7-.7.7-1.6 1.1-2.6 1.1zm-3.7-40.2v-11.9h-23v11.9h23zm63.2-11.9v14.2c0 3.3-1 6-3.1 8 2.1 2.3 3.2 4.9 3.2 7.7v14.8c0 2.1-.8 3.9-2.3 5.3-1.5 1.5-3.3 2.2-5.4 2.2H1898c-1.1 0-1.9-.4-2.7-1.1-.7-.7-1.1-1.6-1.1-2.7s.4-1.9 1.1-2.7c.7-.7 1.6-1.1 2.7-1.1h26.7v-14.8c0-1.1-.4-2-1.1-2.7-.7-.8-1.6-1.1-2.7-1.1h-15.2c-1.1 0-1.9-.4-2.7-1.1s-1.1-1.6-1.1-2.7.4-1.9 1.1-2.7c.7-.7 1.6-1.1 2.7-1.1h15.3c1 0 1.9-.4 2.7-1.1.8-.7 1.1-1.6 1.1-2.7v-14.6h-27c-1.1 0-1.9-.4-2.7-1.1-.7-.7-1.1-1.6-1.1-2.7s.4-1.9 1.1-2.7c.7-.7 1.6-1.1 2.7-1.1h27c2.1 0 3.9.7 5.4 2.2 1.4 1.5 2.2 3.3 2.2 5.4zM301.7 719v-45.3c0-2 .7-3.7 2.2-5.1s3.2-2.2 5.1-2.2h23.6c2 0 3.6.7 5.1 2.2 1.4 1.4 2.1 3.2 2.1 5.1V719c0 2-.7 3.7-2.1 5.2-1.4 1.4-3.1 2.1-5.2 2.1H309c-2 0-3.8-.7-5.2-2.1-1.4-1.4-2.1-3.2-2.1-5.2zm30.7-.2v-44.6h-23.1v44.6h23.1zm59.5 7.4h-3.8c-1 0-1.9-.4-2.7-1.1s-1.1-1.6-1.1-2.7.4-1.9 1.1-2.7c.7-.7 1.6-1.1 2.7-1.1v-25h-26.7c-1 0-1.9-.4-2.7-1.1-.8-.8-1.1-1.6-1.1-2.7v-19.6c0-1 .4-1.9 1.1-2.7.8-.8 1.6-1.1 2.7-1.1h30.4c1 0 1.9.4 2.7 1.1.8.8 1.1 1.6 1.1 2.7v52.2c0 1.1-.4 1.9-1.1 2.7-.6.8-1.5 1.1-2.6 1.1zm-3.7-40.2v-11.9h-23V686h23zm63.1-12.9l-30.7 52.1c-.5.8-1.2 1.2-2.3 1.2-1 0-1.9-.3-2.8-1s-1.3-1.5-1.3-2.6c0-.9.3-1.9.9-3l30.7-52c.5-.8 1.3-1.2 2.4-1.2 1 0 1.9.3 2.7 1 .9.6 1.3 1.5 1.3 2.5s-.3 2-.9 3zm52.1 53.2H469v-26.1c0-2.1.7-3.9 2.2-5.4s3.3-2.3 5.3-2.3h23v-18.4h-27c-1.1 0-2-.4-2.7-1.1s-1.1-1.6-1.1-2.7.4-1.9 1.1-2.7c.7-.7 1.6-1.1 2.7-1.1h27c2.1 0 3.9.7 5.4 2.2s2.3 3.3 2.3 5.3v18.4c0 2.1-.8 3.9-2.3 5.4s-3.3 2.2-5.4 2.2h-23v18.6h26.8c1 0 1.9.4 2.7 1.1.8.7 1.1 1.6 1.1 2.7s-.4 1.9-1.1 2.7c-.7.9-1.6 1.2-2.6 1.2zm55.7 0h-34.4v-26.1c0-2.1.7-3.9 2.2-5.4s3.3-2.3 5.3-2.3h23v-18.4h-27c-1.1 0-2-.4-2.7-1.1s-1.1-1.6-1.1-2.7.4-1.9 1.1-2.7c.7-.7 1.6-1.1 2.7-1.1h27c2.1 0 3.9.7 5.4 2.2s2.3 3.3 2.3 5.3v18.4c0 2.1-.8 3.9-2.3 5.4s-3.3 2.2-5.4 2.2h-23v18.6H559c1 0 1.9.4 2.7 1.1s1.1 1.6 1.1 2.7-.4 1.9-1.1 2.7c-.7.9-1.6 1.2-2.6 1.2zM778.3 724.4v-49.1c0-1 .3-1.9 1-2.6s1.5-1.1 2.5-1.1 1.8.3 2.5 1 1 1.5 1 2.5v16.8l22.8-19.5c.8-.7 1.7-1 2.7-.9 1 0 1.8.4 2.5 1.1s1 1.6 1 2.5c0 1-.4 1.8-1.2 2.4l-25.8 22 25.9 22.3c.7.6 1.1 1.4 1 2.3 0 .9-.3 1.8-1 2.5-.7.8-1.5 1.1-2.6 1.1-1 0-1.8-.3-2.6-1l-22.7-19.6v17c0 1-.3 1.8-1 2.5s-1.5 1-2.5 1-1.8-.3-2.5-1c-.7-.4-1-1.2-1-2.2zm84.8-45.6h-25.2v17.3h10.9c1 0 1.8.4 2.5 1.1s1.1 1.5 1.1 2.5-.3 1.9-1 2.6-1.5 1.1-2.5 1.1H838v17.5h25.3c1 0 1.8.3 2.5 1s1.1 1.5 1.1 2.5-.4 1.8-1.1 2.5c-.7.7-1.6 1-2.6 1h-32.3v-56.3h32.3c1 0 1.8.4 2.6 1.1.7.7 1.1 1.6 1.1 2.6s-.4 1.8-1.1 2.5c-.9.7-1.7 1-2.7 1zm20.1 49.1v-52.8c0-1 .4-1.8 1.1-2.5.7-.7 1.5-1.1 2.5-1.1s1.8.4 2.5 1.1 1.1 1.5 1.1 2.5v45.6h25.2c1 0 1.8.3 2.6 1 .7.7 1.1 1.5 1.1 2.5s-.4 1.8-1.1 2.5c-.7.7-1.6 1-2.6 1h-32.4v.2zm52.4 0v-52.8c0-1 .4-1.8 1.1-2.5.7-.7 1.5-1.1 2.5-1.1s1.8.4 2.5 1.1 1.1 1.5 1.1 2.5v45.6H968c1 0 1.8.3 2.6 1 .7.7 1.1 1.5 1.1 2.5s-.4 1.8-1.1 2.5c-.7.7-1.6 1-2.6 1h-32.4v.2zm74.1-27v23.5c0 1-.4 1.8-1.1 2.5-.7.7-1.5 1-2.5 1s-1.9-.3-2.6-1c-.7-.7-1.1-1.5-1.1-2.5V701l-14.3-18.1v-7.5c0-1 .3-1.9 1-2.6s1.5-1.1 2.5-1.1 1.8.4 2.6 1.1 1.1 1.6 1.1 2.6v4.9L1006 694l10.8-13.7v-4.9c0-1 .4-1.8 1.1-2.6.7-.7 1.5-1.1 2.5-1.1.9 0 1.8.3 2.5 1s1.1 1.5 1.1 2.6v7.5l-14.3 18.1zm83.4 22.1l14.3-48.7c.6-1.8 1.8-2.6 3.6-2.6s2.9.7 3.3 2.2l14.2 49.5c.1.4.2.7.2 1.1 0 1-.3 1.8-1 2.5s-1.5 1-2.3 1c-1.9 0-3-.9-3.6-2.6l-2.8-9.7h-16.3l-3.1 10.4c-.1.5-.4.9-1.1 1.3-.6.4-1.3.6-2 .6-1.1 0-1.9-.4-2.6-1.1-.7-.7-1-1.6-1-2.6 0-.4.1-.9.2-1.3zm17.9-34.9l-6.1 20.4h12l-5.9-20.4zm70.2-12.8V728h-9.5l-19.2-43.7v40.2c0 1-.3 1.8-1 2.5s-1.5 1-2.5 1-1.8-.3-2.5-1-1-1.5-1-2.5v-52.8h9.4l19.2 43.7v-40c0-1 .4-1.8 1.1-2.6s1.6-1.1 2.6-1.1 1.8.4 2.5 1.1c.6.6.9 1.4.9 2.5zm20.1-3.7h14.1c1.8 0 3.6.6 5.4 1.8 1.7 1.2 3 2.6 3.8 4.2l7 14.2c1.3 2.6 2 5.3 2 8.1 0 2.6-.7 5.3-2.1 8l-7.1 14.1c-.9 1.8-2.2 3.3-3.9 4.3-1.7 1.1-3.6 1.6-5.7 1.6h-13.6c-1 0-1.8-.4-2.5-1.1s-1-1.5-1-2.5.3-1.8 1-2.6c.7-.7 1.5-1.1 2.5-1.1h3.7v-41.9h-3.6c-1 0-1.8-.4-2.5-1.1s-1-1.6-1-2.6.3-1.8 1-2.5c.6-.5 1.5-.9 2.5-.9zm10.7 7.2v42h2.5c1.6 0 2.8-.8 3.6-2.3l7-14c.9-1.8 1.3-3.4 1.3-4.6 0-1.6-.4-3-1.1-4.4L1218 681c-.8-1.4-2-2.2-3.7-2.2h-2.3zm70.5 0h-25.2v17.3h10.9c1 0 1.8.4 2.5 1.1s1.1 1.5 1.1 2.5-.3 1.9-1 2.6-1.5 1.1-2.5 1.1h-10.9v17.5h25.3c1 0 1.8.3 2.5 1s1.1 1.5 1.1 2.5-.4 1.8-1.1 2.5-1.6 1-2.6 1h-32.3v-56.3h32.3c1 0 1.8.4 2.6 1.1.7.7 1.1 1.6 1.1 2.6s-.4 1.8-1.1 2.5c-.8.7-1.7 1-2.7 1zm20.2 45.6v-52.8h25.2c2.9 0 5.4 1.1 7.5 3.2s3.2 4.6 3.2 7.6v4.1c0 3-1 5.5-3.1 7.6s-4.6 3.2-7.5 3.2h-4.5l14.5 25c.5.7.7 1.5.7 2.2 0 1-.4 1.8-1.1 2.5s-1.6 1-2.5 1c-1.4 0-2.5-.6-3.2-1.9l-16.7-28.8h-5.1v27.2c0 1-.4 1.8-1.1 2.5s-1.6 1-2.6 1-1.8-.3-2.5-1-1.2-1.6-1.2-2.6zm7.1-34.3h18.1c1 0 1.8-.3 2.5-1s1-1.5 1-2.5v-4.2c0-1-.3-1.8-1-2.5s-1.5-1-2.5-1h-18.1v11.2zm53.3-18.5h18.5c2.3 0 4.4 1 6.4 2.9s3 4.2 3 6.9c0 1-.4 1.9-1.1 2.6s-1.5 1.1-2.4 1.1c-1.2 0-2-.3-2.5-.8-.5-.6-.9-1.6-1.3-3.1s-1.3-2.2-2.7-2.2h-17.6c-.8 0-1.3.3-1.3.8 0 .3.2.7.5 1.2l26.5 33.8c1.3 1.6 1.9 3.4 1.9 5.3 0 2.1-.8 4-2.3 5.6s-3.3 2.4-5.1 2.4h-19.2c-2.5 0-4.8-1-6.6-2.9-1.9-1.9-2.8-4.1-2.8-6.4 0-2.7 1.2-4 3.7-4 1 0 1.8.3 2.5 1s1 1.5 1 2.4c0 .8.3 1.4.8 1.9s1.2.8 2 .8h17.7c.8 0 1.1-.3 1.1-.9 0-.3-.2-.7-.5-1.1l-26.4-33.8c-1.2-1.6-1.9-3.4-1.9-5.3 0-2.2.8-4.1 2.4-5.7s3.5-2.5 5.7-2.5zm70.8 5.2l7.8 16c1.1 2.2 1.7 4.5 1.7 7.1 0 2.5-.6 4.8-1.7 7l-7.8 15.8c-1.7 3.5-4.5 5.2-8.5 5.2-1.9 0-3.6-.5-5.1-1.5s-2.6-2.2-3.4-3.7l-7.9-15.8c-1-2.1-1.6-4.4-1.6-7s.5-5 1.6-7.1l7.9-16c1.8-3.5 4.6-5.2 8.5-5.2s6.8 1.8 8.5 5.2zm-10.9 3.6l-7.4 15c-.7 1.5-1 3-1 4.4 0 1.6.3 3 1 4.5l7.6 15.2c.4.9 1.1 1.4 2.2 1.4.9 0 1.6-.5 2.1-1.4l7.6-15.2c.7-1.5 1.1-3 1.1-4.5 0-1.6-.4-3-1.1-4.4l-7.5-15c-.5-1.1-1.2-1.7-2.2-1.7s-1.8.6-2.4 1.7zm72.8-5.1V728h-9.5l-19.2-43.7v40.2c0 1-.3 1.8-1 2.5s-1.5 1-2.5 1-1.8-.3-2.5-1-1-1.5-1-2.5v-52.8h9.4l19.2 43.7v-40c0-1 .4-1.8 1.1-2.6s1.6-1.1 2.6-1.1 1.8.4 2.5 1.1c.5.6.9 1.4.9 2.5z"/>
  <path fill="#fff" d="M320.8 585.4h-14.9v10.3h6.4c.6 0 1.1.2 1.5.6.4.4.6.9.6 1.5s-.2 1.1-.6 1.5c-.4.4-.9.6-1.5.6h-6.4v10.3h15c.6 0 1.1.2 1.5.6.4.4.6.9.6 1.5s-.2 1.1-.6 1.5c-.4.4-.9.6-1.5.6h-19.1v-33.3h19.1c.6 0 1.1.2 1.5.6.4.4.6.9.6 1.5s-.2 1.1-.6 1.5c-.5.5-1 .7-1.6.7zm22.9 16.6l-6.7 11.5c-.4.7-1 1-1.8 1-.6 0-1.1-.2-1.5-.7-.4-.4-.6-.9-.6-1.4 0-.4.1-.8.4-1.2l7.9-13.4-7.7-13.2c-.3-.5-.5-1-.5-1.4 0-.5.2-1 .6-1.4.4-.4.9-.6 1.5-.6.8 0 1.4.3 1.8 1l6.8 11.4 6.7-11.4c.4-.7 1-1 1.8-1 .6 0 1.1.2 1.5.6.4.4.7.9.7 1.5 0 .4-.1.8-.3 1.1l-7.9 13.5 7.9 13.5c.2.3.3.7.3 1.1 0 .6-.2 1.1-.6 1.5-.4.4-.9.6-1.5.6-.8 0-1.4-.3-1.8-1l-7-11.6zm20 10.3v-31.2h15c1.7 0 3.2.6 4.5 1.9 1.2 1.3 1.9 2.8 1.9 4.5v7.9c0 1.7-.6 3.2-1.9 4.5-1.2 1.2-2.7 1.9-4.5 1.9H368v10.6c0 .6-.2 1.1-.6 1.5s-.9.6-1.5.6-1.1-.2-1.5-.6c-.4-.5-.7-1-.7-1.6zm4.3-14.8h10.7c.6 0 1.1-.2 1.5-.6.4-.4.6-.9.6-1.5v-7.9c0-.6-.2-1.1-.6-1.5s-.9-.6-1.5-.6H368v12.1zm28.8-16.4h17.1c.6 0 1 .2 1.5.6s.6.9.6 1.5-.2 1.1-.6 1.5-.9.6-1.5.6h-6.4v24.9h6.4c.6 0 1.1.2 1.5.6.4.4.6.9.6 1.5s-.2 1.1-.6 1.5-.9.6-1.5.6h-17.1c-.6 0-1.1-.2-1.5-.6-.4-.4-.6-.9-.6-1.5s.2-1.1.6-1.5.9-.6 1.5-.6h6.5v-24.8h-6.5c-.6 0-1.1-.2-1.5-.6-.4-.4-.6-.9-.6-1.5s.2-1.1.6-1.5c.4-.5.9-.7 1.5-.7zm29.1 31.2v-31.2h14.9c1.7 0 3.2.6 4.5 1.9 1.2 1.3 1.9 2.8 1.9 4.5v2.4c0 1.8-.6 3.3-1.9 4.5-1.2 1.2-2.7 1.9-4.5 1.9h-2.7l8.6 14.8c.3.4.4.9.4 1.3 0 .6-.2 1.1-.7 1.5-.4.4-.9.6-1.5.6-.8 0-1.5-.4-1.9-1.1l-9.9-17.1h-3v16.1c0 .6-.2 1.1-.6 1.5s-.9.6-1.5.6-1.1-.2-1.5-.6c-.4-.5-.6-1-.6-1.6zm4.2-20.2h10.7c.6 0 1.1-.2 1.5-.6.4-.4.6-.9.6-1.5v-2.5c0-.6-.2-1.1-.6-1.5s-.9-.6-1.5-.6h-10.7v6.7zm45.8-6.7H461v10.3h6.4c.6 0 1.1.2 1.5.6.4.4.6.9.6 1.5s-.2 1.1-.6 1.5-.9.6-1.5.6H461v10.3h15c.6 0 1.1.2 1.5.6.4.4.6.9.6 1.5s-.2 1.1-.6 1.5-.9.6-1.5.6h-19.1v-33.3H476c.6 0 1.1.2 1.5.6.4.4.6.9.6 1.5s-.2 1.1-.6 1.5c-.5.5-1 .7-1.6.7zm16.7-4.3h11c1.3 0 2.6.6 3.8 1.7 1.2 1.1 1.8 2.5 1.8 4.1 0 .6-.2 1.1-.6 1.5s-.9.6-1.4.6c-.7 0-1.2-.2-1.5-.5s-.5-.9-.8-1.8c-.2-.9-.8-1.3-1.6-1.3h-10.4c-.5 0-.8.2-.8.5 0 .2.1.4.3.7l15.7 20c.8 1 1.1 2 1.1 3.1 0 1.3-.5 2.4-1.4 3.3-.9 1-1.9 1.4-3 1.4h-11.4c-1.5 0-2.8-.6-3.9-1.7s-1.7-2.4-1.7-3.8c0-1.6.7-2.4 2.2-2.4.6 0 1.1.2 1.5.6.4.4.6.9.6 1.4s.2.8.5 1.1.7.5 1.2.5h10.5c.5 0 .7-.2.7-.5 0-.2-.1-.4-.3-.7l-15.6-20c-.7-1-1.1-2-1.1-3.1 0-1.3.5-2.4 1.4-3.4s1.9-1.3 3.2-1.3zM786.3 610.2h7.6c.6 0 1.1.2 1.5.6.4.4.6.9.6 1.5s-.2 1.1-.6 1.5c-.4.4-.9.6-1.5.6H786c-1 0-2-.3-3.1-1s-1.8-1.3-2.2-2.1l-4.9-9.4c-.7-1.4-1-2.7-1-4.2 0-1.6.3-2.9.9-4.1l4.9-9.3c.5-.9 1.2-1.6 2.2-2.3s1.9-1 2.9-1h8.3c.6 0 1.1.2 1.5.6.4.4.6.9.6 1.5s-.2 1.1-.6 1.5c-.4.4-.9.6-1.5.6h-8c-.7 0-1.2.4-1.6 1.2l-4.7 8.7c-.4.7-.6 1.5-.5 2.4 0 1 .2 1.9.6 2.6l4.5 8.6c.4 1.1 1.1 1.5 2 1.5zm19.6 1.3l8.5-28.8c.3-1 1-1.6 2.1-1.6 1 0 1.7.4 2 1.3l8.4 29.3c.1.2.1.4.1.6 0 .6-.2 1.1-.6 1.5-.4.4-.9.6-1.4.6-1.1 0-1.8-.5-2.1-1.5l-1.7-5.7h-9.6l-1.8 6.1c0 .3-.3.5-.6.8s-.8.4-1.2.4c-.6 0-1.1-.2-1.5-.6-.4-.4-.6-.9-.6-1.5-.1-.4 0-.6 0-.9zm10.6-20.6l-3.6 12.1h7.1l-3.5-12.1zm20.4 21.4v-31.2h14.9c1.7 0 3.2.6 4.5 1.9 1.2 1.3 1.9 2.8 1.9 4.5v2.4c0 1.8-.6 3.3-1.9 4.5-1.2 1.2-2.7 1.9-4.5 1.9h-2.7l8.6 14.8c.3.4.4.9.4 1.3 0 .6-.2 1.1-.7 1.5-.4.4-.9.6-1.5.6-.8 0-1.5-.4-1.9-1.1l-9.9-17.1h-3v16.1c0 .6-.2 1.1-.6 1.5-.4.4-.9.6-1.5.6s-1.1-.2-1.5-.6c-.4-.5-.6-1-.6-1.6zm4.2-20.2h10.7c.6 0 1.1-.2 1.5-.6.4-.4.6-.9.6-1.5v-2.5c0-.6-.2-1.1-.6-1.5-.4-.4-.9-.6-1.5-.6h-10.7v6.7zm28.8-11h8.3c1.1 0 2.1.4 3.2 1.1 1 .7 1.8 1.5 2.3 2.5l4.2 8.4c.8 1.5 1.2 3.1 1.2 4.8 0 1.5-.4 3.1-1.3 4.7l-4.2 8.3c-.5 1.1-1.3 1.9-2.3 2.6-1 .6-2.1 1-3.4 1h-8.1c-.6 0-1.1-.2-1.5-.6-.4-.4-.6-.9-.6-1.5s.2-1.1.6-1.5c.4-.4.9-.6 1.5-.6h2.2v-24.9h-2.2c-.6 0-1.1-.2-1.5-.6-.4-.4-.6-.9-.6-1.5s.2-1.1.6-1.5c.5-.5 1-.7 1.6-.7zm6.4 4.3v24.9h1.5c.9 0 1.6-.5 2.1-1.4l4.2-8.3c.5-1.1.8-2 .8-2.7 0-.9-.2-1.8-.6-2.6l-4.3-8.6c-.5-.9-1.2-1.3-2.2-1.3h-1.5zm22.5 26.9v-29.1c0-.6.2-1.1.6-1.5.4-.4.9-.6 1.5-.6s1.1.2 1.5.6c.4.4.6.9.6 1.5v12.4h12.8v-12.4c0-.6.2-1.1.6-1.5.4-.4.9-.6 1.5-.6s1.1.2 1.5.6.6.9.6 1.5v29.1c0 .6-.2 1.1-.6 1.5-.4.4-.9.6-1.5.6s-1.1-.2-1.5-.6c-.4-.4-.6-.9-.6-1.5v-12.5H903v12.5c0 .6-.2 1.1-.6 1.5s-.9.6-1.5.6-1.1-.2-1.5-.6c-.4-.4-.6-.9-.6-1.5zm46.7-28.1l4.6 9.5c.7 1.3 1 2.7 1 4.2s-.3 2.9-1 4.2l-4.6 9.4c-1 2.1-2.7 3.1-5 3.1-1.1 0-2.1-.3-3-.9-.9-.6-1.6-1.3-2-2.2l-4.7-9.4c-.6-1.2-.9-2.6-.9-4.2s.3-3 .9-4.2l4.7-9.5c1.1-2.1 2.7-3.1 5-3.1 2.4 0 4 1 5 3.1zm-6.4 2.1l-4.4 8.9c-.4.9-.6 1.8-.6 2.6 0 .9.2 1.8.6 2.6l4.5 9c.2.6.7.8 1.3.8.5 0 .9-.3 1.2-.8l4.5-9c.4-.9.6-1.8.6-2.6 0-.9-.2-1.8-.6-2.6l-4.4-8.9c-.3-.7-.7-1-1.3-1s-1.1.4-1.4 1zm21.9 28.2v-31.2c0-.6.2-1.1.6-1.5s.9-.6 1.5-.6 1.1.2 1.5.6.6.9.6 1.5v27h14.9c.6 0 1.1.2 1.5.6.4.4.6.9.6 1.5s-.2 1.1-.6 1.5c-.4.4-.9.6-1.5.6H961zm33-33.4h8.3c1.1 0 2.1.4 3.2 1.1 1 .7 1.8 1.5 2.3 2.5l4.2 8.4c.8 1.5 1.2 3.1 1.2 4.8 0 1.5-.4 3.1-1.3 4.7l-4.2 8.3c-.5 1.1-1.3 1.9-2.3 2.6-1 .6-2.1 1-3.4 1h-8c-.6 0-1.1-.2-1.5-.6-.4-.4-.6-.9-.6-1.5s.2-1.1.6-1.5c.4-.4.9-.6 1.5-.6h2.2v-24.9H994c-.6 0-1.1-.2-1.5-.6-.4-.4-.6-.9-.6-1.5s.2-1.1.6-1.5c.5-.5 1-.7 1.5-.7zm6.4 4.3v24.9h1.5c.9 0 1.6-.5 2.1-1.4l4.2-8.3c.5-1.1.8-2 .8-2.7 0-.9-.2-1.8-.6-2.6l-4.3-8.6c-.5-.9-1.2-1.3-2.2-1.3h-1.5zm41.7 0h-14.9v10.3h6.4c.6 0 1.1.2 1.5.6.4.4.6.9.6 1.5s-.2 1.1-.6 1.5-.9.6-1.5.6h-6.4v10.3h15c.6 0 1.1.2 1.5.6.4.4.6.9.6 1.5s-.2 1.1-.6 1.5c-.4.4-.9.6-1.5.6H1023v-33.3h19.1c.6 0 1.1.2 1.5.6.4.4.6.9.6 1.5s-.2 1.1-.6 1.5c-.4.5-.9.7-1.5.7zm12 26.9v-31.2h14.9c1.7 0 3.2.6 4.5 1.9 1.2 1.3 1.9 2.8 1.9 4.5v2.4c0 1.8-.6 3.3-1.9 4.5-1.2 1.2-2.7 1.9-4.5 1.9h-2.7l8.6 14.8c.3.4.4.9.4 1.3 0 .6-.2 1.1-.7 1.5-.4.4-.9.6-1.5.6-.8 0-1.5-.4-1.9-1.1l-9.9-17.1h-3v16.1c0 .6-.2 1.1-.6 1.5-.4.4-.9.6-1.5.6s-1.1-.2-1.5-.6c-.4-.5-.6-1-.6-1.6zm4.2-20.2h10.7c.6 0 1.1-.2 1.5-.6.4-.4.6-.9.6-1.5v-2.5c0-.6-.2-1.1-.6-1.5-.4-.4-.9-.6-1.5-.6h-10.7v6.7zm79-8.8v31.2h-5.7l-11.4-25.9v23.8c0 .6-.2 1.1-.6 1.5s-.9.6-1.5.6-1.1-.2-1.5-.6c-.4-.4-.6-.9-.6-1.5v-31.2h5.6L1133 607v-23.7c0-.6.2-1.1.6-1.5s.9-.6 1.5-.6 1.1.2 1.5.6c.5.4.7.9.7 1.5zm10 28.2l8.5-28.8c.3-1 1-1.6 2.1-1.6 1 0 1.7.4 2 1.3l8.4 29.3c.1.2.1.4.1.6 0 .6-.2 1.1-.6 1.5s-.9.6-1.4.6c-1.1 0-1.8-.5-2.1-1.5l-1.7-5.7h-9.6l-1.8 6.1c0 .3-.3.5-.6.8s-.8.4-1.2.4c-.6 0-1.1-.2-1.5-.6-.4-.4-.6-.9-.6-1.5-.2-.4-.1-.6 0-.9zm10.5-20.6l-3.6 12.1h7.1l-3.5-12.1zm28.8 3.3v-1.1l-4.4-6.2v25.4c0 .6-.2 1.1-.6 1.5s-.9.6-1.5.6-1.1-.2-1.5-.6c-.4-.4-.6-.9-.6-1.5v-31.2h5.5l5.2 7.6 5.3-7.6h5.3v31.2c0 .6-.2 1.1-.6 1.5s-.9.6-1.5.6-1.1-.2-1.5-.6-.6-.9-.6-1.5V587l-4.3 6v1.2c0 .6-.2 1.1-.6 1.5s-.9.6-1.5.6-1.1-.2-1.5-.6c-.4-.4-.6-.9-.6-1.5zm41.7-8.8h-14.9v10.3h6.4c.6 0 1.1.2 1.5.6.4.4.6.9.6 1.5s-.2 1.1-.6 1.5-.9.6-1.5.6h-6.4v10.3h15c.6 0 1.1.2 1.5.6.4.4.6.9.6 1.5s-.2 1.1-.6 1.5-.9.6-1.5.6h-19.1v-33.3h19.1c.6 0 1.1.2 1.5.6.4.4.6.9.6 1.5s-.2 1.1-.6 1.5c-.5.5-1 .7-1.6.7z" opacity=".7"/>
</svg>