<svg xmlns="http://www.w3.org/2000/svg" x="0" y="0" version="1.1" viewBox="-499 140.2 1000.8 738.8" xml:space="preserve">
  <style>
    .st1{opacity:.2}.st2{fill:none;stroke:#535461;stroke-width:2;stroke-miterlimit:10}.st3{fill:#6c63ff}.st5{fill:#f6f7f9}.st7{fill:#797c9c}.st10,.st8{opacity:5.000000e-002;enable-background:new}.st10{opacity:.25}.st12{fill:#e8eaf1}.st13{fill:#ffb9b9}.st14{fill:#e4e2f3}.st15{fill:#4c4c78}.st16{opacity:.1;enable-background:new}.st19{fill:#db8b8b}.st20{fill:#474463}.st21{fill:#cbcdda}
  </style>
  <path fill="#6c63ff" d="M-471.3 604.1c-12 2-27 7.5-26.9 20.5.1 6.6 4.4 12.2 8.7 17 18.1 20.6 38.7 38.8 61.3 54.2 10.8 7.3 22.4 14.3 29.6 25.7s9 25.8 9.6 39.5c1.4 32.5-2.4 65-11.3 96.3 35.2 6.7 74.5 12.6 103.9-8.6 17.6-12.7 29.5-33.9 49.1-42.8 13.1-5.9 27.9-5.4 42.1-4.6 67.5 3.6 134.8 10.2 202 20 28.1 4.1 56.8 8.7 84.6 3.4 27.8-5.3 55.2-22.6 65.5-50.6 1.6-4.3 3-9.1 6.5-11.7 3.2-2.3 7.4-2.3 11.3-2.1l235.1 8.1c12.9.4 26.2.8 38-4.5 11.4-5.1 20.2-15 28.7-24.7 19.3-22.1 40.2-49.2 34.5-79.1-4.6-24-24.9-40.8-45.1-52.5s-42.4-21.3-57.2-40.1C376.2 538.9 377 498 375.6 461c-1.3-33.6-5.4-67-12.3-99.8-6.1-28.9-14.6-57.8-30.5-82.2s-40.2-43.9-67.8-47.5c-35.9-4.7-72.1 17.7-107.2 8.2-29.7-8-50.1-36.4-74.7-56.1-43.7-35-101.1-42.3-155.3-43-57.5-.7-116.5 5.1-167.8 32.1-11.7 6.2-23.2 13.7-31.4 24.6-12.5 16.8-15.5 39.3-23.6 58.8-32.8 78.8-139.7 95.8-174.4 173.8-12.3 27.7-12.2 59.9-3.2 89 9.6 31.3 36.8 48.5 47.6 75.8-11.8 7.1-32.3 7.1-46.3 9.4z" opacity=".1"/>
  <g class="st1">
    <path d="M386.6 511.1s4.8-63.8 40.8-98.4c15.2-14.4 25.3-33.4 28.8-54.1 1.6-9.8 2.2-19.8 2-29.7" class="st2"/>
    <path d="M480.8 306.9c-2.7 7-23.1 22.6-23.1 22.6s-5-25.2-2.4-32.2c2.7-7 10.5-10.6 17.6-7.9 7.1 2.6 10.6 10.4 7.9 17.5zM487.2 353.8c-6.1 4.5-31.7 6.4-31.7 6.4s9.5-23.9 15.5-28.4c6.1-4.5 14.6-3.2 19 2.9 4.5 6.1 3.2 14.6-2.8 19.1zM461.1 420c-7.5.8-30.6-10.5-30.6-10.5s20.3-15.8 27.7-16.6c7.5-.8 14.2 4.6 15 12.1.8 7.5-4.7 14.2-12.1 15zM430.1 465.7c-7.2 2-31.9-5.1-31.9-5.1s17.3-19 24.5-21.1c7.2-2 14.8 2.2 16.8 9.4s-2.2 14.7-9.4 16.8zM428.2 351.5c3.2 6.8 24.8 20.8 24.8 20.8s3.1-25.5-.1-32.3c-3.2-6.8-11.3-9.7-18.1-6.5-6.8 3.1-9.8 11.2-6.6 18zM392.6 405.3c5.1 5.5 29.8 12.4 29.8 12.4s-4.7-25.3-9.8-30.8c-5.1-5.5-13.7-5.9-19.2-.8-5.5 5.1-5.9 13.7-.8 19.2zM365.2 462.4c4.1 6.3 27.3 17.3 27.3 17.3s-.4-25.7-4.4-32c-4.1-6.3-12.5-8.1-18.8-4.1s-8.2 12.5-4.1 18.8z" class="st3"/>
  </g>
  <linearGradient id="SVGID_1_" x1="35.54" x2="35.54" y1="331.34" y2="792.34" gradientTransform="matrix(1 0 0 -1 0 1020.34)" gradientUnits="userSpaceOnUse">
    <stop offset="0" stop-color="gray" stop-opacity=".25"/>
    <stop offset=".54" stop-color="gray" stop-opacity=".12"/>
    <stop offset="1" stop-color="gray" stop-opacity=".1"/>
  </linearGradient>
  <path fill="url(#SVGID_1_)" d="M-334.9 228v461h740.8V228z"/>
  <path d="M-327 232.9h725.2v35.2H-327z" class="st5"/>
  <g class="st1">
    <path d="M-327 232.9h725.2v35.2H-327z" class="st3"/>
  </g>
  <path d="M-327 268.1h725.2v416H-327z" class="st5"/>
  <circle cx="-309.6" cy="250.3" r="7.8" class="st5"/>
  <circle cx="-288.8" cy="250.3" r="7.8" class="st5"/>
  <circle cx="-267.9" cy="250.3" r="7.8" class="st5"/>
  <g class="st1">
    <path d="M-301.8 319.8h373v26.9h-373z" class="st3"/>
  </g>
  <g class="st1">
    <path d="M166.8 319.8h195.6v26.9H166.8z" class="st3"/>
  </g>
  <g class="st1">
    <path d="M-229.2 574.6h26.1v86.1h-26.1zM-178.8 512.8h26.1v147.8h-26.1zM-128.4 451.1h26.1v209.5h-26.1zM-77.9 471.1h26.1v189.5h-26.1zM-27.5 530.2h26.1v130.4h-26.1z" class="st3"/>
  </g>
  <g class="st1">
    <path d="M166.4 405.9H362v240.4H166.4z" class="st3"/>
  </g>
  <linearGradient id="SVGID_2_" x1="529.822" x2="529.822" y1="64.617" y2="472.781" gradientTransform="matrix(1 0 0 -1 -99.6 939.75)" gradientUnits="userSpaceOnUse">
    <stop offset="0" stop-color="gray" stop-opacity=".25"/>
    <stop offset=".54" stop-color="gray" stop-opacity=".12"/>
    <stop offset="1" stop-color="gray" stop-opacity=".1"/>
  </linearGradient>
  <path fill="url(#SVGID_2_)" d="M498.8 577c-1.3-6.4-3.7-12.6-3.7-19.1-.1-10.5 5.5-22.7-1.8-30.5-1.7-1.8-3.9-3.1-5.2-5.2-.9-1.8-1.4-3.8-1.3-5.8-.1-12.3 6.6-24.7 2.6-36.4-.8-2.6-2.4-4.9-4.6-6.5-2.3-1.5-5-1.8-7.9-1.8-2.6 0-5.3.3-8 .3-1.5 0-3-.2-4.5-.6-3.1-.9-5.7-2.9-8.8-3.9-1.6-.5-3.3-.8-5-.7-6.7-.2-12.9 4.3-17.6 8.6-2.4 2-4.9 3.8-7.6 5.5.4-.3-9.3 6.4-5.7 6.5 2.6.1 5.1 1 7.2 2.5-4.5 7-4.1 16.1 1 22.7-1.6-1.6-3.3-3.3-5.2-5-5.4-5.3-12.8-12.3-16.4-14.3-5.8-3.1-14.1-9.9-14.1-9.9s-10.8 6-7.4 14.3c1.6.5 3.1 1.1 4.6 1.8 0 1.1.2 2.2.6 3.2 3.4 1.1 6.6 2.7 9.5 4.7.3.5.6.9.9 1.4 1.4 2.5 5.9 7.1 11.3 12.1 3.8 3.8 8.8 8.4 13.9 12.8-1.5 3-3.1 6-3.4 9-.4-.2-.8-.3-1.1-.5-7.4-4-24.8-3.6-24.8-3.6s-14.5-7.6-17.4-24.7c0 0-2.9-10.4-2.1-13.1l.4-.1 3.5-6.3c.7-1.4.2-3-1.1-3.8-.3-.2-.7-.3-1.1-.3-16.9-1.5-17.7 14-17.7 14h.2v.1c2.1 9.9 3.7 9.1 3.3 17.1l6.6 17.5s.4 6 12.4 13.9 25.6 20.3 25.6 20.3-7.2 3.8-4.5 21.1c3.3 21.2-1.7 51.3-1.7 51.3v19.5l.9-.3c-.1.7-.2 1.3-.3 2.1-1.5 9.8-1.7 19.8-.6 29.6 2.5 20.7 12.4 49 12.4 49s3.7 10 4.5 17.9c.1 1.6.5 3.1 1.1 4.6 1.9 4.4 2.8 9.1 2.9 13.8 0 11.9 2.1 23.8 6.4 34.9 4.2 10.6 5.8 16.9 6.2 20.5-3 3.9-6.9 8.1-9.9 8.5-5.8.8-17 1.6-9.5 11.1.3.3.5.6.9.9-5.7.9-11.9 2.9-5.8 10.6 7.4 9.6 51.3 5.2 51.3 5.2s.3-5.3 0-11.1c3.1-.2 5-.4 5-.4s1.2-23.1-4.1-25.9c-1 .1-2 .3-2.9.7-.6-3.2-1-7.2-1.3-10.1l2.1-.2v.5h.1v-34.8s-2.5-21.5-11.6-31c-1.2-1.2-2.2-2.5-3-4l-.1-.3c.1-2.7.1-6.4 0-10.6l.1-.2c.2-.3.3-.5.5-.7.2-.3.4-.5.7-.8l.1-.2s5-6 21.9-43.8c10.3-23.1 7.6-36 3.9-42.7-.8-3-2.4-9.7-4.4-21.2-.8-4.9-1.2-9.8-1.2-14.8 2.6.6 5.2.9 7.8.9 4.1.1 8.3-.8 12-2.6-2.7-3.9-5.5-8.6-4.2-13.1 1.5-5.2 7.6-7.5 11.2-11.7 4.2-4.9 4.3-12.1 3-18.4z"/>
  <path d="M394.1 487.8s-10.3 5.9-7.1 14.2c0 0 10.7 3.2 15 11 4.3 7.9 37.9 36.3 37.9 36.3l24.5-12.2s-8.5-11.4-35.4-19.3c0 0-15.9-17-21.4-20.2s-13.5-9.8-13.5-9.8z" class="st7"/>
  <path d="M399.1 492.8s-10.3 5.9-7.1 14.2c0 0 10.7 3.2 15 11 4.3 7.9 37.9 36.3 37.9 36.3l24.5-12.2s-8.5-11.4-35.4-19.3c0 0-15.9-17-21.4-20.2s-13.5-9.8-13.5-9.8z" class="st8"/>
  <path d="M-483.4 784s-57.7 34.8 48.6 88.3c0 0 23.4-43.5-2.5-78.9-10.4-14.3-29.9-18.6-45.3-9.9l-.8.5z" class="st3"/>
  <path fill="none" stroke="#535461" stroke-miterlimit="10" d="M-482.7 783.3s49.4 37.8 48 89.1"/>
  <path d="M-432 873s-18.1-61.4 3.4-106.5c9.1-18.9 11.9-40.2 7.8-60.8-2-9.8-4.9-19.3-8.6-28.5" class="st2"/>
  <path d="M-416 648.6c0 7.5-13.6 29.3-13.6 29.3s-13.6-21.8-13.6-29.3 6.1-13.6 13.6-13.6 13.6 6.1 13.6 13.6zM-393.5 690.3c-4.1 6.3-27.4 17.2-27.4 17.2s.4-25.7 4.5-32c4.1-6.3 12.5-8.1 18.8-4 6.4 4 8.2 12.5 4.1 18.8zM-394.5 761.4c-6.7 3.4-32.3 1-32.3 1s13.3-22 20.1-25.4c6.7-3.4 14.9-.7 18.3 6 3.3 6.8.6 15-6.1 18.4zM-407.3 815.1c-6 4.5-31.7 6.5-31.7 6.5s9.4-23.9 15.5-28.4c6-4.5 14.6-3.2 19 2.8 4.5 6.1 3.2 14.6-2.8 19.1zM-449.4 708.9c5.4 5.2 30.5 10.7 30.5 10.7s-6.1-25-11.5-30.2c-5.4-5.2-14-5.1-19.3.3s-5.2 14 .3 19.2zM-463.7 771.9c6.7 3.4 32.3 1 32.3 1s-13.3-22-20-25.4c-6.7-3.4-14.9-.7-18.3 6s-.7 15 6 18.4zM-469.1 835c6 4.5 31.7 6.5 31.7 6.5s-9.4-23.9-15.5-28.4c-6-4.5-14.6-3.2-19 2.8-4.6 6.1-3.3 14.6 2.8 19.1z" class="st3"/>
  <path d="M-416 648.6c0 7.5-13.6 29.3-13.6 29.3s-13.6-21.8-13.6-29.3 6.1-13.6 13.6-13.6 13.6 6.1 13.6 13.6zM-393.5 690.3c-4.1 6.3-27.4 17.2-27.4 17.2s.4-25.7 4.5-32c4.1-6.3 12.5-8.1 18.8-4 6.4 4 8.2 12.5 4.1 18.8zM-394.5 761.4c-6.7 3.4-32.3 1-32.3 1s13.3-22 20.1-25.4c6.7-3.4 14.9-.7 18.3 6 3.3 6.8.6 15-6.1 18.4zM-407.3 815.1c-6 4.5-31.7 6.5-31.7 6.5s9.4-23.9 15.5-28.4c6-4.5 14.6-3.2 19 2.8 4.5 6.1 3.2 14.6-2.8 19.1zM-449.4 708.9c5.4 5.2 30.5 10.7 30.5 10.7s-6.1-25-11.5-30.2c-5.4-5.2-14-5.1-19.3.3s-5.2 14 .3 19.2zM-463.7 771.9c6.7 3.4 32.3 1 32.3 1s-13.3-22-20-25.4c-6.7-3.4-14.9-.7-18.3 6s-.7 15 6 18.4zM-469.1 835c6 4.5 31.7 6.5 31.7 6.5s-9.4-23.9-15.5-28.4c-6-4.5-14.6-3.2-19 2.8-4.6 6.1-3.3 14.6 2.8 19.1z" class="st10"/>
  <path d="M-390.1 874.1s-18.1-61.3 3.4-106.5c9.1-18.9 11.9-40.2 7.8-60.8-2-9.8-4.9-19.3-8.6-28.5" class="st2"/>
  <path d="M-374.2 649.8c0 7.5-13.6 29.3-13.6 29.3s-13.6-21.8-13.6-29.3 6.1-13.6 13.6-13.6 13.6 6.1 13.6 13.6zM-351.7 691.4c-4.1 6.3-27.4 17.2-27.4 17.2s.4-25.7 4.5-32c4.1-6.3 12.5-8.1 18.8-4 6.4 4.1 8.2 12.5 4.1 18.8zM-352.7 762.6c-6.7 3.4-32.3 1-32.3 1s13.3-22 20.1-25.4c6.7-3.4 14.9-.7 18.3 6.1 3.4 6.7.7 14.9-6.1 18.3zM-365.5 816.3c-6 4.5-31.7 6.5-31.7 6.5s9.4-23.9 15.5-28.4c6-4.5 14.6-3.2 19 2.8 4.5 6.1 3.2 14.6-2.8 19.1zM-407.6 710.1c5.4 5.2 30.5 10.7 30.5 10.7s-6.1-25-11.6-30.2c-5.4-5.2-14-5.1-19.3.3s-5 13.9.4 19.2zM-421.9 773.1c6.7 3.4 32.3 1 32.3 1s-13.3-22-20-25.4c-6.7-3.4-14.9-.7-18.3 6s-.7 14.9 6 18.4zM-427.3 836.2c6 4.5 31.7 6.5 31.7 6.5s-9.4-23.9-15.5-28.4c-6-4.5-14.6-3.2-19 2.8-4.6 6.1-3.3 14.6 2.8 19.1zM-474.5 872h953v7h-953z" class="st3"/>
  <linearGradient id="SVGID_3_" x1="300.215" x2="300.215" y1="291.14" y2="539.34" gradientTransform="matrix(1 0 0 -1 0 1020.34)" gradientUnits="userSpaceOnUse">
    <stop offset="0" stop-color="gray" stop-opacity=".25"/>
    <stop offset=".54" stop-color="gray" stop-opacity=".12"/>
    <stop offset="1" stop-color="gray" stop-opacity=".1"/>
  </linearGradient>
  <path fill="url(#SVGID_3_)" d="M199.2 481h202v248.2h-202z"/>
  <path d="M202.4 484.9H398v240.4H202.4z" class="st3"/>
  <path d="M215.5 506h40v40h-40zM235.5 570h142v8h-142zM235.5 587h142v8h-142zM235.5 604h142v8h-142zM235.5 621h142v8h-142zM235.5 638h142v8h-142zM235.5 655h142v8h-142zM235.5 672h142v8h-142z" class="st12"/>
  <path d="M458.1 824.5s1.2 17.4 3.2 19.3c2 2-17.8 3.2-17.8 3.2l2.8-22.5h11.8z" class="st13"/>
  <path d="M458.1 824.5s1.2 17.4 3.2 19.3c2 2-17.8 3.2-17.8 3.2l2.8-22.5h11.8z" class="st8"/>
  <path d="M462.4 837.9s-2.8 0-12.6 5.1c0 0-6.7-1.2-9.5-10.7 0 0-8.3 14.2-13.8 15-5.5.8-16.2 1.6-9.1 11.1s48.9 5.1 48.9 5.1 1.2-22.8-3.9-25.6z" class="st14"/>
  <path d="M462.4 837.9s-2.8 0-12.6 5.1c0 0-6.7-1.2-9.5-10.7 0 0-8.3 14.2-13.8 15-5.5.8-16.2 1.6-9.1 11.1s48.9 5.1 48.9 5.1 1.2-22.8-3.9-25.6z" class="st8"/>
  <path d="M456.5 851.3l-2.8 7.5-18.2-5.1 1-7.4.3-1.8.7-5s15.4-3.9 15.4-2c.2 1.6.5 3.2 1 4.8.6 2.4 1.4 5.2 2 7 .3 1.2.6 2 .6 2z" class="st13"/>
  <path d="M446.6 748.4c-2 3.4-2 7.6 0 11 .8 1.4 1.7 2.7 2.8 3.9 8.7 9.5 11.1 30.8 11.1 30.8v34.3l-5.9.4-9.5.7-14.2-58.4s-8.3-42.6-4.3-50.1c3.9-7.5 7.5-54.5 7.5-54.5l3.3-3.4 7.8-8h22.5c1.8 1.3 3.3 3 4.4 4.9 3.8 6.3 7.2 19.3-3.2 43.3-16.2 37.5-20.9 43.4-20.9 43.4-.7.5-1.1 1.1-1.4 1.7z" class="st15"/>
  <path d="M446.7 748.2c-2 3.4-2 7.6 0 11 .8 1.4 1.7 2.7 2.8 3.9 8.7 9.5 11.1 30.8 11.1 30.8v34.3l-5.9.5-9.5.7L431 771s-8.3-42.6-4.3-50.1c4-7.5 7.5-54.5 7.5-54.5l3.3-3.4 7.8-8.1h22.5c1.8 1.3 3.3 3 4.4 4.9 3.8 6.3 7.2 19.3-3.2 43.3-16.2 37.5-20.9 43.4-20.9 43.4-.6.6-1.1 1.1-1.4 1.7z" class="st8"/>
  <path d="M453.9 842.3l-17.1 2.1.7-5s15.4-3.9 15.4-2c.2 1.7.6 3.3 1 4.9z" class="st16"/>
  <path d="M445.4 697.8s1 31.1 1.1 50.6v11c0 1.5-.1 2.9-.3 4.3-1.2 3.5 1.2 11.4 1.2 11.4 5.9 15.6 8.3 32.3 7.1 48.9v17.4l-18.9 2.4s3.2-2.4-5.5-25.3c-4.1-11.1-6.1-22.8-6.1-34.6 0-4.7-1-9.4-2.8-13.7-.5-1.5-.9-3-1-4.6-.8-7.9-4.3-17.8-4.3-17.8s-9.5-28-11.8-48.5c-1.1-9.8-.9-19.6.5-29.4.3-2.5.8-4.9 1.4-7.3 0 0 38.6-24.3 53.1-7.5 1.4 1.6 2.5 3.5 3.3 5.5.8 2 1.4 4 1.9 6.2 4.5 22.3-18.9 31-18.9 31z" class="st15"/>
  <circle cx="444.2" cy="504.8" r="20.1" class="st13"/>
  <path d="M433.2 517.4s8.3 23.3 0 35.5 26.4 8.3 26.4 8.3L473 545s-15.8 0-16.6-27.6-23.2 0-23.2 0z" class="st13"/>
  <path d="M473 664.6c-2.9 1-5.8 1.7-8.8 2.2-4.9.8-10.7.8-14.1-2.2-2-1.8-7-2-12.9-1.4-12.5 1.2-29.5 5.9-32.7 6.8.3-2.5.8-4.9 1.4-7.3 0 0 38.6-24.3 53.1-7.5h8.4c1.8 1.3 3.3 3 4.4 4.9.8 3.1 1.2 4.5 1.2 4.5zM456.5 851.3l-2.8 7.5-18.2-5.1 1-7.4c3.1 6.9 8.4 7.8 8.4 7.8 3.5-1.9 7.1-3.5 10.9-4.8.4 1.2.7 2 .7 2z" class="st16"/>
  <path d="M457.6 849.3s-2.8 0-12.6 5.1c0 0-6.7-1.2-9.5-10.7 0 0-8.3 14.2-13.8 15-5.5.8-16.2 1.6-9.1 11s48.9 5.1 48.9 5.1 1.3-22.7-3.9-25.5z" class="st14"/>
  <path d="M364 508.7s.8-15.4 16.9-13.9c1.5.2 2.6 1.5 2.5 3 0 .3-.1.7-.3 1l-3.3 6.2-15.8 3.7z" class="st13"/>
  <path d="M457.3 549.8s-19.3-3.2-24.5-7.1c0 0-3.9 7.5-11 3.6-7.1-4-23.7-3.6-23.7-3.6-8.8-5.4-14.8-14.3-16.6-24.5 0 0-2.8-10.3-2-13 0 0-10.3-10.7-15.4 3.5 2 9.9 3.5 9.1 3.2 17l6.3 17.4s.4 5.9 11.8 13.8c11.5 7.9 24.5 20.1 24.5 20.1s-6.9 3.8-4.3 20.9c3.1 21-1.6 50.9-1.6 50.9v19.3s39.5-11.4 46.2-5.5c6.7 5.9 22.9 0 22.9 0s-2-6.7-4.7-22.9.4-32 .4-32 10.3-27.2 15-38.3-3.6-26-11.8-31.6-11.4-2.2-11.4-2.2 14.4 10.6-3.3 14.2z" class="st7"/>
  <path d="M406.6 606.8s3.2-.8 18.9-3.1 43.4 3.2 43.4 3.2" class="st8"/>
  <path d="M420.2 491.8c9 .2 15.7 11.3 11.7 19.3-1.8 3.5-5.1 6.6-4.8 10.5.2 1.8 1.1 3.4 1.5 5.1 1.9 8-7.7 15.5-5.5 23.4.7 2.1 1.9 4.1 3.4 5.7l16.6 20.9c1 1.2 1.8 2.4 2.5 3.8.6 2 .9 4.1.7 6.2-.1 10 .6 20.7 6.5 28.8 7.1 9.7 21.5 13.2 32.3 7.8-2.6-3.9-5.3-8.5-4-13 1.5-5.1 7.3-7.5 10.7-11.6 4.1-5 4.2-12.1 3-18.4-1.2-6.3-3.5-12.5-3.5-18.9-.1-10.4 5.3-22.5-1.8-30.3-1.6-1.8-3.8-3.1-4.9-5.1-.9-1.8-1.3-3.8-1.2-5.8-.1-12.2 6.3-24.5 2.5-36.1-.7-2.6-2.3-4.8-4.4-6.4-5.5-3.7-13.1-.1-19.4-2-3-.9-5.5-2.9-8.4-3.9-7.9-2.7-15.2 2.7-20.7 7.8-2.3 2-4.7 3.8-7.2 5.4.2.1-9.1 6.7-5.6 6.8z" class="st16"/>
  <path fill="#b36362" d="M421.2 491.8c9 .2 15.7 11.3 11.7 19.3-1.8 3.5-5.1 6.6-4.8 10.5.2 1.8 1.1 3.4 1.5 5.1 1.9 8-7.7 15.5-5.5 23.4.7 2.1 1.9 4.1 3.4 5.7l16.6 20.9c1 1.2 1.8 2.4 2.5 3.8.6 2 .9 4.1.7 6.2-.1 10 .6 20.7 6.5 28.8 7.1 9.7 21.5 13.2 32.3 7.8-2.6-3.9-5.3-8.5-4-13 1.5-5.1 7.3-7.5 10.7-11.6 4.1-5 4.2-12.1 3-18.4-1.2-6.3-3.5-12.5-3.5-18.9-.1-10.4 5.3-22.5-1.8-30.3-1.6-1.8-3.8-3.1-4.9-5.1-.9-1.8-1.3-3.8-1.2-5.8-.1-12.2 6.3-24.5 2.5-36.1-.7-2.6-2.3-4.8-4.4-6.4-5.5-3.7-13.1-.1-19.4-2-3-.9-5.5-2.9-8.4-3.9-7.9-2.7-15.2 2.7-20.7 7.8-2.3 2-4.7 3.8-7.2 5.4.2.1-9.1 6.7-5.6 6.8z"/>
  <linearGradient id="SVGID_4_" x1="1726.358" x2="1726.358" y1="62.623" y2="457.012" gradientTransform="matrix(1 0 0 -1 -1655.6 939.75)" gradientUnits="userSpaceOnUse">
    <stop offset="0" stop-color="gray" stop-opacity=".25"/>
    <stop offset=".54" stop-color="gray" stop-opacity=".12"/>
    <stop offset="1" stop-color="gray" stop-opacity=".1"/>
  </linearGradient>
  <path fill="url(#SVGID_4_)" d="M119.1 682.1c-2.3-2.1-4.3-4.6-5.9-7.3-3.5-5.4-9.3-8.4-13.2-9.8v-1.8h.2l-.1-1.6h.1l-.3-4.3-1.4-21.7s-5.1-14.5 3.9-27.8.6-26.1-7.9-31.1c0 0-4-21.1-.6-26.1-4.6-2.7-9.3-5.1-14.2-7.2-.1-.3-.1-.5-.2-.8-.1-2-.2-3.9-.3-5.9.1-1 .3-2 .6-3 .1-.4.2-.8.4-1.3 8.3-3.2 13.8-11.2 13.8-20.1 0-2.5-.5-5.1-1.3-7.4.4-.7.8-1.5 1-2.4.4-2.4 0-4.9-1.3-6.9-2.2-5-7.9-9.6-12-11.2-5.9-2.4-14.7-1.8-20.8-1.1-3.4.4-7.3 1.6-8.6 4.7-.3 1.2-.6 2.4-.8 3.6-1.3 4.8-6.8 7.1-10.3 10.8-3 3.3-4.4 7.7-5.3 12-2.8 12.4-3.5 25.1-2 37.7.3 2.9.8 5.8 1.3 8.7-2.1 2.9-3.9 8-3.1 17L23.9 610l-2.8 18.8c-.8 5.3 1.1 10.7 5.1 14.4 4.3 4.2 9.6 11.4 12.8 16.1-1.4 4.1-2.1 8.4-2.1 12.8.1 2 .2 3.9.3 5.7.3 3.8 1 7.6 2.2 11.3.8 7.7 2.4 17.6 5.4 24l1.1 33.8s-1.7 31.1-5.1 37.2c-3.4 6.1 7.3 57.7 7.3 57.7v7.2l-1.8 5.3-.5-.3c-8.5 10.5 0 14.4 0 14.4s2.3.1 6 .3c-.6 3 .8 6.1 3.6 7.5 0 0 48 2.2 56.5 0s6.2-10 1.7-9.4c-2.3.1-4.6-.2-6.8-.9 2.6-3.1.5-7.3-2.8-6.9-4.5.5-14.7-3.5-14.7-3.5v.1c-.3-.1-.7-.2-1-.3-3.8-.9-7.5-1.9-11.2-3.2-2.2-4.7-7.2-17.2-3.6-27 1.6-4.4 2.2-10.3 2.2-15.9.1-17.1 2.6-34.2 7.4-50.6l6.8-23.3s9.6-28.3 10.2-36L100 688c7.9 5.1 14.2 3.6 18.3 1.2 2.1-1.2 2.8-3.8 1.6-5.9-.1-.5-.5-.9-.8-1.2zm-75.4-58.8c.2-.8.3-1.7.5-2.6h4c1.7 3.4 2.3 7.2 2 10.9-3-1-7.6-3.4-6.5-8.3z"/>
  <path d="M49.1 846.4l-2.2 6.5L54 860l23.4 5.4 16.8-1.6-1.1-6c-.7-2.6-2.7-4.6-5.3-5.3-6.9-1.6-20.1-5.3-22.9-10.5l-15.8 4.4z" class="st19"/>
  <path d="M49.1 846.4l-2.2 6.5L54 860l23.4 5.4 16.8-1.6-1.1-6c-.7-2.6-2.7-4.6-5.3-5.3-6.9-1.6-20.1-5.3-22.9-10.5l-15.8 4.4z" class="st16"/>
  <path d="M88.8 862.2l-3.3-4.3 3.3-5s9.8 4 14.1 3.4c4.3-.5 6.5 7.1-1.6 9.2-8.2 2.2-54.3 0-54.3 0s-8.2-3.8 0-14.1l7.1 5.4s12 6.5 17.9 5.4h16.8z" class="st20"/>
  <path d="M103.4 871.4L86.6 873l-23.3-5.5-7.1-7 .6-1.7.8-2.4.8-2.4 15.8-4.3c.8 1.3 1.9 2.4 3.2 3.2 5.1 3.5 14.3 6 19.7 7.3.2.1.5.1.7.2 2.3.8 4.1 2.7 4.7 5.1l.9 5.9z" class="st19"/>
  <path d="M103.4 871.4L86.6 873l-23.3-5.5-7.1-7 .6-1.7 6.5 5s12 6.5 17.9 5.4H98l-3.3-4.3 2.9-4.5c2.3.8 4.1 2.7 4.7 5.1l1.1 5.9z" class="st16"/>
  <path d="M98 869.8l-3.3-4.3 3.3-5s9.8 3.9 14.1 3.4c4.3-.6 6.5 7.1-1.6 9.2-8.2 2.2-54.3 0-54.3 0s-8.2-3.8 0-14.1l7.1 5.4s12 6.5 17.9 5.4H98z" class="st20"/>
  <path d="M84.4 554.7s-26.1 2.7-22.3-8.1c1.1-3.1 1.3-6.4.8-9.6-.7-4-2.3-7.8-4.6-11l24.5 3.8c-1.5 2.4-2.6 5.1-3.3 7.9-2.9 11.4 4.9 17 4.9 17z" class="st19"/>
  <path d="M39.9 678.6s.5 23.4 6 34.8l1.1 33.1s-1.6 30.4-4.9 36.4c-3.3 6 7.1 56.5 7.1 56.5v8.7s17.4 6.5 22.3-1.1l-4.9-64.7 2.2-89.6-28.9-14.1z" class="st20"/>
  <path d="M39.9 678.6s.5 23.4 6 34.8l1.1 33.1s-1.6 30.4-4.9 36.4c-3.3 6 7.1 56.5 7.1 56.5v8.7s17.4 6.5 22.3-1.1l-4.9-64.7 2.2-89.6-28.9-14.1z" class="st16"/>
  <path d="M29 603.6l-3.3 8.7-2.7 18.4c-.7 5.2 1.1 10.5 4.9 14.1 6.5 6.5 15.2 20.1 15.2 20.1l10.3-31s-10.3-1.6-8.7-8.7c1.6-7.1 1.1-20.1 1.1-20.1L29 603.6z" class="st21"/>
  <path d="M29 602.6l-3.3 8.7-2.7 18.4c-.7 5.2 1.1 10.5 4.9 14.1 6.5 6.5 15.2 20.1 15.2 20.1l10.3-31s-10.3-1.6-8.7-8.7c1.6-7.1 1.1-20.1 1.1-20.1L29 602.6z" class="st8"/>
  <path d="M77.3 852.9c-7 11-17.8 4.8-19.7 3.5l.8-2.4 15.8-4.3c.7 1.3 1.8 2.4 3.1 3.2z" class="st16"/>
  <path d="M99.1 699.8c-.5 7.6-9.8 35.3-9.8 35.3l-6.5 22.8c-4.7 16.1-7.1 32.8-7.2 49.6 0 5.6-.5 11.3-2.1 15.6-4.3 12 4.3 28.3 4.3 28.3-7.6 13.6-20.6 4.3-20.6 4.3V847s-10.3-47.3-7.6-56.5 3.8-34.2 3.8-34.2v-45.1c-8.7-8.7-14-20.2-14.9-32.4-.1-1.8-.2-3.7-.3-5.6-.4-12.3 7.9-26.6 11.2-31.8.8-1.2 1.3-1.9 1.3-1.9l48 19h.1v6l.3 35.3z" class="st20"/>
  <path d="M82.8 529.7c-1.5 2.4-2.6 5.1-3.3 7.9-5.4 2-11.3 1.8-16.5-.6-.7-4-2.3-7.8-4.6-11l24.4 3.7z" class="st16"/>
  <circle cx="71.9" cy="516.7" r="21.2" class="st19"/>
  <path d="M99.1 664.4h-.2c-22.8 4.7-51.4-19.1-51.4-19.1.8-1.3 1.4-2.6 2-4 .8-1.2 1.3-1.9 1.3-1.9l48 19 .1 1.9.2 4.1z" class="st16"/>
  <path d="M93.1 554.2s-30.4-18.5-40.2-10.9l-13.6 17.4s-8.7 2.7-7.1 20.1l-6.5 31.5 19.6 4.9s11.4 10.9 2.2 26.6c0 0 28.8 23.9 51.6 19l-1.7-25.5s-4.9-14.1 3.8-27.2c8.7-13 .5-25.5-7.6-30.4.1 0-3.8-20.7-.5-25.5z" class="st21"/>
  <path d="M94.7 665s11.4 2.2 16.8 10.9c1.6 2.6 3.5 5 5.7 7.1 1.8 1.6 1.9 4.3.3 6.1-.3.3-.6.6-1 .8-4.3 2.6-11.3 4.2-20.2-3.1-15.1-12.6-1.6-21.8-1.6-21.8z" class="st19"/>
  <path d="M77.9 564.5s-10.9-1.1-13.6 27.2-7.1 34.8-7.1 34.8-2.7 14.7 3.8 23.4 19 27.2 19 27.2 13.6 3.8 16.3-9.8l-16.8-31.5s-2.7-10.9 3.8-18.5 11.4-58.3-5.4-52.8z" class="st16"/>
  <path d="M79 562.8s-10.9-1.1-13.6 27.2-7.1 34.8-7.1 34.8-2.7 14.7 3.8 23.4 19 27.2 19 27.2 13.6 3.8 16.3-9.8L80.6 634s-2.7-10.9 3.8-18.4c6.5-7.6 11.4-58.2-5.4-52.8z" class="st21"/>
  <path d="M87.9 583.2s1.1 16.8-3.8 26.1-4.9 21.2 0 27.7M90.7 562.6s-4.3-4.3-16.8-4.9c-12.5-.5-17.9-4.3-17.9-4.3" class="st16"/>
  <path d="M60.4 489.3c-3.3.4-7.1 1.5-8.3 4.6-.3 1.2-.6 2.4-.8 3.6-1.2 4.8-6.6 7-9.9 10.6-2.9 3.2-4.2 7.5-5.1 11.8-2.7 12.1-3.4 24.6-1.9 36.9 1.1 9 3.2 17.9 3.8 26.9.6 9.1-.5 18.6-5.5 26.2-2.1 3.3-4.9 6.1-6.4 9.7 3.1 2.5 7.4 2.9 11.4 3 4.7.2 9.3.2 14 0 2.5-.1 5-.2 7.1-1.5 1.6-1 2.9-2.4 3.7-4 2.7-4.5 3.3-10 3.2-15.3s-1-10.5-1-15.8c0-2.9.2-5.9 1.8-8.3 1.2-1.7 3-2.8 4.5-4.2 5.8-5.1 7.8-13.4 8-21.2.2-7.8-1.1-15.6-.4-23.3.3-3 1.4-6.7 4.4-7.3 1 0 1.9-.2 2.8-.4 2.4-.9 2.2-4.3 2.8-6.8.8-2.8 3.1-4.9 3.8-7.7 1.6-6.6-6.8-14.4-12.3-16.7-5.3-2.1-13.8-1.5-19.7-.8z" class="st16"/>
  <path fill="#472727" d="M59.9 488.2c-3.3.4-7.1 1.5-8.3 4.6-.3 1.2-.6 2.4-.8 3.6-1.2 4.8-6.6 7-9.9 10.6-2.9 3.2-4.2 7.5-5.1 11.8-2.7 12.1-3.4 24.6-1.9 36.9 1.1 9 3.2 17.9 3.8 26.9s-.5 18.6-5.5 26.2c-2.1 3.3-4.9 6.1-6.4 9.7 3.1 2.5 7.4 2.9 11.4 3 4.7.2 9.3.2 14 0 2.5-.1 5-.2 7.1-1.5 1.6-1 2.9-2.4 3.7-4 2.7-4.5 3.3-10 3.2-15.3s-1-10.5-1-15.8c0-2.9.2-5.9 1.8-8.3 1.2-1.7 3-2.8 4.5-4.2 5.8-5.1 7.8-13.4 8-21.2.2-7.8-1.1-15.6-.4-23.3.3-3 1.4-6.7 4.4-7.3 1 0 1.9-.2 2.8-.4 2.4-.9 2.2-4.3 2.8-6.8.8-2.8 3.1-4.9 3.8-7.7 1.6-6.6-6.8-14.4-12.3-16.7-5.3-2.1-13.8-1.5-19.7-.8z"/>
</svg>