<svg xmlns="http://www.w3.org/2000/svg" viewBox="-498 131.6 1002 756.4">
  <ellipse cx="-286.9" cy="874.4" fill="#6c63ff" opacity=".1" rx="129.3" ry="9.2"/>
  <path fill="#6c63ff" d="M504 644.8c.1 29-7.9 57.4-22.9 82.2 0 30.3-14.1 57.8-37.1 77.8-5.7 5-11.9 9.5-18.5 13.4-.3.2-.5.3-.8.5l-1.5.9-.5.3a144.72 144.72 0 01-71 18.3h-659.6c-5.3 0-10.5-.2-15.6-.6-18.3-1.4-36.4-5.6-53.5-12.4-3.3-1.3-6.6-2.7-9.8-4.3-1.5-.7-3-1.5-4.5-2.2-.9-.5-1.9-1-2.8-1.5-10.8-5.7-20.9-12.6-30.2-20.5-29.8-25.6-48.2-61-48.2-100-16.7-25.7-25.6-55.8-25.5-86.5 0-86.8 69.4-157.2 155-157.2 2.6 0 5.3.1 7.9.2.4 0 .7 0 1.1.1 14.4-24.6 33.7-47.2 56.9-67.1 63.3-54.2 155.8-88.4 258.8-88.4 86.6 0 165.7 24.1 226.3 64 23-13 48.9-19.8 75.3-19.7 85.6 0 155 70.4 155 157.2 0 5.5-.3 11-.9 16.4 41.9 29.6 66.7 77.8 66.6 129.1z" opacity=".1"/>
  <path fill="#fff" d="M341.1 402.2V822c0 8.9-7.2 16.1-16.1 16.2h-644c-1.5 0-3-.2-4.4-.6-6.9-2-11.7-8.3-11.7-15.5V634.7 453.2c.4 0 .7 0 1.1.1 14.4-24.6 33.7-47.2 56.9-67.1h602c9-.1 16.2 7.1 16.2 16z"/>
  <path fill="none" stroke="#3f3d56" stroke-linecap="round" stroke-miterlimit="10" d="M-270.3 508.7h571.1M-270.3 614.3h571.1M-270.3 719.8h571.1M-270.3 828h571.1" opacity=".7"/>
  <ellipse cx="345.5" cy="878.8" fill="#6c63ff" opacity=".1" rx="129.3" ry="9.2"/>
  <path fill="#3f3d56" d="M-31.5 440.6h89.2c8.7 0 15.7 7.1 15.7 15.7 0 8.7-7.1 15.7-15.7 15.7h-89.2c-8.7 0-15.7-7.1-15.7-15.7s7-15.7 15.7-15.7z"/>
  <path d="M-28.9 445.9h84c5.8 0 10.5 4.7 10.5 10.5s-4.7 10.5-10.5 10.5h-84c-5.8 0-10.5-4.7-10.5-10.5.1-5.8 4.7-10.5 10.5-10.5z" opacity=".1"/>
  <path fill="#6c63ff" d="M34.4 447.1h19.3c5.2 0 9.3 4.2 9.3 9.3 0 5.2-4.2 9.3-9.3 9.3H34.4c-5.2 0-9.3-4.2-9.3-9.3 0-5.2 4.2-9.3 9.3-9.3z"/>
  <circle cx="43.8" cy="456.4" r="5.8" fill="#fff"/>
  <path fill="#3f3d56" d="M-31.5 648.3h89.2c8.7 0 15.7 7.1 15.7 15.7 0 8.7-7.1 15.7-15.7 15.7h-89.2c-8.7 0-15.7-7.1-15.7-15.7 0-8.7 7-15.7 15.7-15.7z"/>
  <path d="M-28.9 653.5h84c5.8 0 10.5 4.7 10.5 10.5s-4.7 10.5-10.5 10.5h-84c-5.8 0-10.5-4.7-10.5-10.5.1-5.8 4.7-10.5 10.5-10.5z" opacity=".1"/>
  <path fill="#6c63ff" d="M34.4 654.7h19.3c5.2 0 9.3 4.2 9.3 9.3 0 5.2-4.2 9.3-9.3 9.3H34.4c-5.2 0-9.3-4.2-9.3-9.3 0-5.1 4.2-9.3 9.3-9.3z"/>
  <circle cx="43.8" cy="664" r="5.8" fill="#fff"/>
  <path fill="#3f3d56" d="M-31.5 752.1h89.2c8.7 0 15.7 7.1 15.7 15.7 0 8.7-7.1 15.7-15.7 15.7h-89.2c-8.7 0-15.7-7.1-15.7-15.7 0-8.7 7-15.7 15.7-15.7z"/>
  <path d="M-28.9 757.3h84c5.8 0 10.5 4.7 10.5 10.5s-4.7 10.5-10.5 10.5h-84c-5.8 0-10.5-4.7-10.5-10.5.1-5.8 4.7-10.5 10.5-10.5z" opacity=".1"/>
  <path fill="#6c63ff" d="M34.4 758.5h19.3c5.2 0 9.3 4.2 9.3 9.3 0 5.2-4.2 9.3-9.3 9.3H34.4c-5.2 0-9.3-4.2-9.3-9.3 0-5.1 4.2-9.3 9.3-9.3z"/>
  <circle cx="43.8" cy="767.8" r="5.8" fill="#fff"/>
  <path fill="#3f3d56" d="M-31.5 544.4h89.2c8.7 0 15.7 7.1 15.7 15.7 0 8.7-7.1 15.7-15.7 15.7h-89.2c-8.7 0-15.7-7.1-15.7-15.7s7-15.7 15.7-15.7z"/>
  <path d="M-28.9 549.7h84c5.8 0 10.5 4.7 10.5 10.5s-4.7 10.5-10.5 10.5h-84c-5.8 0-10.5-4.7-10.5-10.5.1-5.8 4.7-10.5 10.5-10.5z" opacity=".1"/>
  <path fill="#6c63ff" d="M-8.1 569.5h-19.3c-5.2 0-9.3-4.2-9.3-9.3 0-5.2 4.2-9.3 9.3-9.3h19.3c5.2 0 9.3 4.2 9.3 9.3 0 5.2-4.2 9.3-9.3 9.3z"/>
  <circle cx="-17.5" cy="560.2" r="5.8" fill="#fff"/>
  <path fill="#434175" d="M-165.6 456.2c0 14.5-7.6 27.9-20.1 35.4l-.6.3-1.1.6-1 .5-.2.1c-.4.2-.8.4-1.3.6-1.4.6-2.8 1.2-4.3 1.7-1 .3-1.9.6-2.9.8-2 .5-4 .8-6.1 1-1.2.1-2.5.2-3.8.2-1.5 0-3-.1-4.5-.2h-.3c-.5-.1-1-.1-1.6-.2-1.6-.3-3.3-.6-4.9-1.1l-.8-.2-.7-.2-.2-.1c-1.4-.5-2.8-1-4.2-1.6-2.4-1.1-4.6-2.4-6.7-3.9l-.1-.1-.1-.1-.8-.6-.6-.4c-1.1-.9-2.2-1.8-3.2-2.8-.9-.9-1.8-1.9-2.7-2.9-14.8-17.2-12.9-43.2 4.4-58.1 17.2-14.8 43.2-12.9 58.1 4.4 6.8 7.5 10.3 17.1 10.3 26.9z"/>
  <linearGradient id="a" x1="-184.785" x2="-184.785" y1="410.705" y2="469.351" gradientTransform="matrix(1 0 0 -1 -28 908.118)" gradientUnits="userSpaceOnUse">
    <stop offset="0" stop-color="gray" stop-opacity=".25"/>
    <stop offset=".54" stop-color="gray" stop-opacity=".12"/>
    <stop offset="1" stop-color="gray" stop-opacity=".1"/>
  </linearGradient>
  <path fill="url(#a)" d="M-187.3 492.4l-1 .3c-.6 0-1.2-.2-1.6-.5l-.3-.3c-.2-.2-.5-.4-.8-.4h-.5-.1c-.1-.1-.2-.2-.2-.4-.2-.8-.4-1.6-.5-2.4-.1-.9-.1-1.8 0-2.6V484c.1-.8.2-1.6.2-2.4 0-.8 0-1.7-.2-2.5-.1-.5-.3-.9-.5-1.3-.1-1.2-.3-2.4-.5-3.5-.1-.9-.3-1.8-.4-2.6 0-.1.1-.3.1-.4.2-1.5-.4-2.9-1.5-3.8-.3-.3-.7-.5-1.1-.7-.3-.1-.7-.3-1-.4l-5.5-1.8c-.5-.8-1-1.5-1.5-2.3-.4-.7-.8-1.5-1.2-2.2 3.7-2.8 4.7-8 2.3-12-.1-.1-.2-.3-.3-.4 0-.7 0-1.4-.2-2v-.1c-.1-.6-.4-1.1-.8-1.5l-.2-.2-.3-.3c-.4-.4-.8-.7-1.2-1-1.8-1.4-4.3-3-6.5-3.6-1.1-.3-2.2-.3-3.3 0l-.2-.1-.3-.1.3.1c-1.2-.3-2.4-.3-3.6.1-1.4.4-2 1.6-2.6 2.9-1 2.1-2.5 3.9-4.4 5.2-1.2.8-2.6 1.5-3.2 2.9s-.2 2.7-.1 4.1c.3 3.8-1.2 7.5-4.2 9.9-1.6 1.3-3.8 2.4-4.2 4.5-.2 1.5.6 2.9 1.2 4.3 1.3 2.9 1.8 6.5.2 9.3-.1.3-.3.5-.5.8.8 1 1.8 2 2.6 2.9 1 1 2 1.9 3.1 2.8l.6.4.7.6.1.1.1.1c2.1 1.5 4.3 2.8 6.6 3.9 0-.1 0-.1.1-.1v.2c1.3.6 2.7 1.2 4.1 1.7l.2.1.7.2.8.2c1.6.5 3.2.8 4.8 1.1.5.1 1 .1 1.5.2h.3c1.5.2 3 .2 4.5.2 1.3 0 2.5-.1 3.7-.2 2-.2 4-.5 6-1 .2-.1.5-.1.7-.2l2.1-.6c1.4-.5 2.8-1 4.2-1.7.4-.2.9-.4 1.3-.6l.2-.1 1.2-.7zm-35.1-1.2v-.2-.7c0-.1.1-.3.2-.4v.4c0 .3-.1.6-.2.9z"/>
  <path fill="#6c63ff" d="M-187.3 492.4l-1.1.3c-.6 0-1.2-.2-1.6-.5-.1-.1-.2-.2-.4-.3-.2-.2-.5-.4-.8-.4h-.5-.1c-.1-.1-.2-.2-.2-.4-.2-.8-.4-1.6-.5-2.4-.1-.9-.1-1.8 0-2.6V484c.1-.8.2-1.6.2-2.3 0-.8 0-1.7-.2-2.5-.1-.4-.3-.9-.5-1.3-.1-1.2-.3-2.3-.5-3.5-.1-.9-.3-1.8-.4-2.6 0-.1.1-.3.1-.4.2-1.4-.4-2.9-1.5-3.8-.3-.3-.7-.5-1.1-.7-.3-.1-.7-.3-1-.4l-5.6-1.8c-.5-.8-1-1.5-1.5-2.3-.5-.7-.8-1.4-1.2-2.2 3.8-2.7 4.8-7.9 2.3-11.8-.1-.1-.2-.3-.3-.4 0-.7 0-1.4-.2-2v-.1c0-.2-.1-.4-.2-.6-.1-.3-.3-.6-.6-.8l-.2-.2-.3-.3c-.4-.3-.8-.7-1.2-1-1.8-1.3-4.3-3-6.6-3.5-1.1-.3-2.3-.3-3.4 0l-.2-.1-.3-.1.3.1c-1.2-.3-2.4-.3-3.6.1-1.5.4-2 1.6-2.6 2.9-1 2.1-2.5 3.8-4.4 5.1-1.2.8-2.6 1.5-3.2 2.9-.6 1.3-.2 2.7-.1 4.1.3 3.7-1.3 7.4-4.2 9.7-1.7 1.3-3.9 2.4-4.2 4.4-.3 1.5.6 2.9 1.2 4.3 1.3 2.9 1.8 6.4.2 9.2-.1.3-.3.5-.5.8.8 1 1.7 2 2.7 2.9 1 1 2.1 1.9 3.2 2.8l.6.4.8.6.1.1.1.1c2.1 1.5 4.3 2.8 6.7 3.9 0 0 0-.1.1-.1.1-.2.1-.3.2-.5.4-.5.6-1.1.8-1.8v-.2-.7c0-.1.1-.3.2-.4.1-.2.2-.3.4-.5.1-.1.1-.2.2-.3.1.1.2.3.3.4l.9 1.5c.3.3.4.7.5 1.1v.7c.1.3.6.6.4.9-.2.3-.2.7 0 1 .1.2.2.3.4.5l.2.1.7.2.8.2c1.6.4 3.2.8 4.9 1.1.5.1 1 .1 1.6.2h.3c1.5.2 3 .2 4.5.2 1.3 0 2.5-.1 3.8-.2 2-.2 4.1-.5 6.1-1 .2-.1.5-.1.7-.2.7-.2 1.4-.4 2.2-.6 1.5-.5 2.9-1 4.3-1.7.4-.2.9-.4 1.3-.6l.2-.1.5-.5z" opacity=".3"/>
  <path fill="#434175" d="M-166.5 560.5c0 6.9-1.7 13.7-5 19.8-.7 1.3-1.5 2.5-2.3 3.7-.8 1.2-1.7 2.4-2.7 3.5l-.2.2c-.4.4-.8.9-1.2 1.3l-.4.5c-.5.5-.9.9-1.4 1.3l-.2.2c-.2.2-.4.4-.7.6-1.2 1.1-2.5 2.1-3.9 3-.7.5-1.4.9-2.1 1.4l-.6.3-1.1.6-.7.4-.3.1-.2.1c-.3.1-.6.3-.9.4-.1.1-.3.1-.4.2l-.9.4-2.4.9-1.1.4h-.1c-.1 0-.2.1-.3.1l-.2.1-.6.2-.2.1-.3.1-.4.1c-.1 0-.2.1-.3.1l-.6.2c-.5.1-.9.2-1.4.3-1.5.3-3.1.6-4.7.7-1.2.1-2.4.2-3.6.2h-.3c-1.2 0-2.3-.1-3.4-.1l-1-.1h-.5l-1.4-.2-1.1-.2-.3-.1-1.5-.3h-.1c-.6-.1-1.2-.3-1.8-.5l-.8-.2-.7-.2-.2-.1c-1.4-.5-2.8-1-4.2-1.6-.9-.4-1.9-.9-2.8-1.4l-.4-.2-.6-.3-.3-.2c-.9-.5-1.8-1.1-2.6-1.8l-.1-.1-.1-.1-.8-.6-.6-.4c-1.1-.9-2.2-1.8-3.2-2.8-.9-.9-1.8-1.9-2.7-2.9-14.8-17.2-12.8-43.2 4.4-58.1 17.2-14.8 43.2-12.8 58.1 4.4 6.9 7.2 10.4 16.7 10.4 26.6z"/>
  <linearGradient id="b" x1="-182.31" x2="-182.31" y1="306.529" y2="359.961" gradientTransform="matrix(1 0 0 -1 -28 908.118)" gradientUnits="userSpaceOnUse">
    <stop offset="0" stop-color="gray" stop-opacity=".25"/>
    <stop offset=".54" stop-color="gray" stop-opacity=".12"/>
    <stop offset="1" stop-color="gray" stop-opacity=".1"/>
  </linearGradient>
  <path fill="url(#b)" d="M-190.6 597.1c-.1-.1-.1-.2-.2-.3l-.2-.2c-.6-.4-.9-1.2-.8-1.9v-.2c-.2-.9-.6-1.8-1-2.6-.2-.5-.5-1.2-.7-1.8-.3-.9-.6-1.7-.6-1.7v-.2c-.1-.6-.4-2.1-.6-3.6v-.3c-.3-1.9-3.4-6.8-3.4-6.8 0-.1-.1-.1-.1-.2-.7-.3-3.1-1.7-3.1-1.7-1.8-2.2-3.4-2.8-4.6-2.8h-.7c-.2 0-.3.1-.5.1l-.2.1c-.1 0-.2.1-.2.1l-.1.4c-.1-1.1 0-2.1.2-3.2l.1-.3h.5c4.7-.1 8.5-4 8.5-8.7 0-.8-.1-1.5-.3-2.2v-.1l.3-.1c1-.4 2.4.3 3.2-.4.3-.3.5-.7.6-1.1.2-.6.4-1.2.5-1.8v-.7c0-.4-.2-.8-.4-1.1-.6-.7-1.5-.8-2.2-1.3-.6-.5-1-1-1.4-1.7-.3-.6-.8-1.2-1.4-1.7-.6-.5-1.3-.6-2-.3-.2.1-.4.3-.7.3-.3 0-.5-.1-.7-.2-2.4-1.1-5.2-.9-7.9-.6-1.1.1-2.1.3-3.1.8-1 .4-1.8 1.3-2.1 2.3-.2.8-.1 1.8-.3 2.5-.2.6-.5 1-.7 1.6-.1.3-.2.6-.2.9v-.1V556.9c.1 1.1.3 2.1.6 3.2.3 1.7.2 3.6.9 5.2l.3.6c-.3.6-.5 1.1-.8 1.6-.1 0-.3-.1-.4-.1H-217.1c-.1 0-.2.1-.2.1l-.1.1h-.1l-.1.1v.1c0 .1-.1.2-.1.3v.1c0 .2 0 .4-.1.6s0 .2 0 .3v.4c0 .1 0 .2-.1.3l-.1.4-.1.1c-.1.1-.1.2-.2.3l-.3.3c-.1.1-.2.2-.2.3l-.1.1c-.1 0-.1 0-.2.1-.1-.1-.3-.1-1.1.8-1 1.1-2.2 2-3.5 2.7 0 0-5.1 3.7-5.4 5.4-.3 1.7-1.9 9-1.1 11.4.1.3.3.8.6 1.4v.1s.3 1 .7 2.4c.1.1.2.1.3.2l.6.3.4.2c.9.5 1.8 1 2.8 1.4 1.4.6 2.8 1.2 4.2 1.7l.2.1.7.2.8.2c.6.2 1.2.3 1.8.5h.1l1.5.3.3.1 1.1.2 1.4.2h.5l1 .1c1.1.1 2.3.1 3.4.1h.3c1.2 0 2.4-.1 3.6-.2 1.6-.1 3.1-.4 4.7-.7.5-.1.9-.2 1.4-.3l.6-.2c.1 0 .2 0 .3-.1l.4-.1.3-.1.2-.1.6-.2.2-.1c.1 0 .2 0 .3-.1h.1l1.1-.4 2.4-.9.9-.4c.1-.1.3-.1.4-.2-.3.1-.4-.1-.6-.2zm-17-23.2z"/>
  <path fill="#6c63ff" d="M-190.6 597.1c-.1-.1-.1-.2-.2-.2l-.2-.2c-.6-.4-.9-1.2-.8-1.9v-.2c-.2-.9-.6-1.7-1-2.5-.2-.5-.5-1.2-.7-1.8-.3-.9-.6-1.7-.6-1.7v-.2c-.1-.6-.4-2.1-.6-3.5v-.3c-.3-1.8-3.4-6.8-3.4-6.8 0-.1-.1-.1-.1-.2-.7-.3-3.1-1.7-3.1-1.7-1.8-2.2-3.4-2.7-4.6-2.8h-.7c-.2 0-.3.1-.5.1l-.2.1c-.1 0-.2.1-.2.1l-.1.4c-.1-1.1 0-2.1.2-3.1 0-.1.1-.2.1-.3h.5c4.7 0 8.5-3.8 8.5-8.5 0-.8-.1-1.6-.3-2.3v-.1h.1c1-.4 2.4.3 3.2-.4.3-.3.5-.7.6-1.1.2-.6.4-1.1.5-1.8v-.7c0-.4-.2-.8-.4-1.1-.6-.7-1.5-.8-2.2-1.3-.6-.4-1-1-1.4-1.6-.3-.6-.8-1.2-1.3-1.7-.6-.5-1.3-.6-2-.3-.2.1-.4.2-.7.3-.3 0-.5-.1-.7-.2-2.4-1.1-5.2-.9-7.9-.6-1.1.1-2.1.3-3.1.7-1 .4-1.8 1.3-2.1 2.3-.2.8-.1 1.7-.3 2.5-.2.5-.5 1-.7 1.6-.1.3-.2.6-.2.9v-.1V557.5c.1 1.1.3 2.1.6 3.2.3 1.7.2 3.5.9 5.1l.3.6c-.3.5-.5 1.1-.8 1.6-.1 0-.3-.1-.4-.1H-217.2c-.1 0-.1.1-.2.1l-.1.1h-.1l-.1.1v.1c0 .1-.1.2-.1.3v.1c0 .2 0 .4-.1.6-.1.2 0 .2 0 .3v.4s0 .2-.1.3l-.1.4-.1.1c0 .1-.1.2-.2.3-.1 0-.1.1-.2.1-.1.1-.2.2-.2.3l-.1.1c-.1 0-.1 0-.2.1-.1-.1-.3-.1-1.1.8-1 1.1-2.2 2-3.5 2.7 0 0-5.1 3.6-5.4 5.3s-1.9 8.9-1.1 11.3c.1.3.3.8.6 1.4v.1s.3 1 .7 2.4l.3.2.6.3.4.2c.9.5 1.8 1 2.8 1.4 1.4.6 2.8 1.2 4.2 1.6l.2.1.7.2.8.2c.6.2 1.2.3 1.8.5h.1l1.5.3.3.1 1.1.2 1.4.2h.5l1 .1c1.1.1 2.3.1 3.4.1h.3c1.2 0 2.4-.1 3.6-.2 1.6-.1 3.1-.4 4.7-.7.5-.1.9-.2 1.4-.3l.6-.2c.1 0 .2 0 .3-.1l.4-.1.3-.1.2-.1.6-.2.2-.1c.1 0 .2 0 .3-.1h.1l1.1-.4 2.4-.9.9-.4c.1-.1.3-.1.4-.2-.3.1-.4 0-.6-.2zm-17-22.9z" opacity=".3"/>
  <path fill="#434175" d="M-165.6 663.8c0 6.9-1.7 13.7-5 19.8-.7 1.3-1.5 2.5-2.3 3.7-.8 1.2-1.7 2.4-2.7 3.5l-.2.2c-.4.4-.8.9-1.2 1.3l-.4.5c-.5.5-.9.9-1.4 1.3l-.2.2c-.2.2-.4.4-.7.6-1.2 1.1-2.5 2.1-3.9 3-.7.5-1.4.9-2.1 1.4l-.6.3-1.1.6-.5.3h-.1l-.1.1-.3.1-.2.1-.9.4-.4.2-.9.4-1.2.5-.7.2-.4.2-1.1.4h-.1l-.3.1-.2.1-.6.2-.2.1H-195.9l-.4.1c-.1 0-.2.1-.3.1l-.6.2c-.5.1-.9.2-1.4.3-.8.2-1.5.3-2.3.4l-2.4.3c-1.2.1-2.4.2-3.6.2h-.3c-1.2 0-2.3-.1-3.4-.1l-1-.1h-.5c-.4 0-.9-.1-1.3-.2h-.1l-1.1-.2-.3-.1-1.5-.3h-.1c-.6-.1-1.2-.3-1.8-.5l-.8-.2-.7-.2-.2-.1-.6-.2-.4-.2c-.3-.1-.6-.2-1-.4l-.3-.1-.4-.2c-.5-.2-.9-.4-1.3-.6-.9-.4-1.9-.9-2.8-1.4l-.4-.2-.6-.3-.3-.2c-.4-.3-.9-.5-1.3-.9-.4-.3-.9-.6-1.3-.9l-.1-.1-.1-.1-.8-.6-.6-.4c-1.1-.9-2.2-1.8-3.2-2.8-.9-.9-1.8-1.9-2.7-2.9-14.9-17.2-13-43.2 4.2-58.1s43.2-13 58.1 4.2c6.8 7.4 10.3 17.1 10.3 27z"/>
  <g fill="#6c63ff" opacity=".3">
    <path d="M-195.6 703.4h.1-.1zM-189 698.3c-.1 0-.2-.1-.3-.2.2-.2.5-.4.8-.4.3-.1.4-.5.4-.9s-.1-.8-.3-1.1c-.1-.1-.1-.2-.2-.3.1-.3.3-.6.5-.9.1-.1.1-.2 0-.3.2-.6-.9-.5-.9-.5v-5.8s-.1-.5-.2-1.3c-.1-.9-.3-2.2-.5-3.8-.3-3.3-1.6-3.6-1.6-3.6-.7-.2-1.4-.5-2-.8-.7-.3-1.4-.6-2.1-.8-.9 0-1.9-.1-2.8-.4-.6-.2-1.2-.3-1.9-.4l-.2-.1c-1.5-.7-2.7-2-3.4-3.5.3-.3.5-.7.8-1v.7c.9-1.6 3.5-1.9 3.8-3.7v-.1-.5-.2-.2c0-.4-.2-.9-.2-1.4v-.1c0-.1 0-.3.1-.4v-.1c0-.1.1-.3.1-.4.4-1 1.1-1.9 1.4-2.9.1-.2.1-.5.2-.7v-.1c0-.2.1-.5.1-.7v-.1-.3.1-.1-.1-.1-.2c0-1.5-.7-2.9-1.8-3.9-.9-.8-2.1-1.3-2.7-2.3-.3-.5-.4-1-.8-1.5-.7-.8-1.7-1.3-2.7-1.3-1 0-2.1-.2-3.1-.4-.7-.2-1.3-.6-2-.9-1.6-.4-3.3.2-4.2 1.5-.3.6-.7 1.1-1.1 1.6-1 .9-2.8.5-3.7 1.5-.4.5-.6 1.2-.5 1.9v1.2c0 .2.1.5.1.7.1.4.1.8.1 1.2v.2c-.1 1.8-.5 3.5-1.3 5.1-.9 1.7-2.1 3.2-2.3 5.1v.8-.1 1.2l.1.4v.2l.1.5v.1c.2.9.6 1.8.8 2.7.1.3.1.6.2.9v.1c0 .3 0 .5.1.8v.2c-.4.2-.9.3-1.3.4-.8.1-3.1 2.2-2.9 2.7V681.5c-.3 1.3-.6 2.6-1.1 3.8l-1.9 12.8c.4.3.9.6 1.3.9l.3.2.6.3.4.2c.9.5 1.8 1 2.8 1.4.4.2.9.4 1.3.6l.4.2.3.1c.1.1.3.3.5.3H-220.6l.4.2.6.2.2.1.7.2.8.2c.6.2 1.2.3 1.8.5h.1l1.5.3.3.1 1.1.2h.1c.4.1.9.1 1.3.2h.5l1 .1c1.1.1 2.3.1 3.4.1h.3c1.2 0 2.4-.1 3.6-.2l2.4-.3c.8-.1 1.5-.3 2.3-.4.5-.1.9-.2 1.4-.3l.6-.2c.1 0 .2 0 .3-.1l.4-.1h.1c0-.6-.1-1.1-.1-1.5.1.2.3.3.4.4 0 .1.1.1.1.2-.1.3-.3.6-.3.9h.1l.2-.1.6-.2.2-.1.3-.1h.1l1.1-.4.4-.2.7-.2 1.2-.5.9-.4.4-.2.9-.4.2-.1.3-.1.1-.1h.1V699.1c-.3 0-.8-.6-1.5-.8zm-33.2-20.4zM-227.9 702l-.2-.1c.1.1.2.1.2.1z"/>
  </g>
  <path fill="#434175" d="M-165.6 768c0 6.9-1.7 13.7-5 19.8-.7 1.3-1.5 2.5-2.3 3.7-.8 1.2-1.7 2.4-2.7 3.5 0 .1-.1.1-.2.2-.4.4-.8.9-1.2 1.3l-.1.1-.3.3c-.5.5-.9.9-1.4 1.3l-.2.2c-.2.2-.4.4-.7.6-.9.8-1.9 1.6-2.9 2.3l-.2.1-.4.3c-.2.1-.3.2-.5.3-.7.5-1.4.9-2.1 1.4l-.3.2-.2.1-1.1.6-.5.3h-.1l-.1.1-.3.1-.2.1-.9.4-.4.2-.9.4-1.2.5-.7.2-.4.2-.2.1-.9.3h-.1l-.3.1-.2.1-.2.1-.4.1-.2.1H-195.9l-.4.1c-.1 0-.2.1-.3.1l-.6.2c-.5.1-.9.2-1.4.3-.8.2-1.5.3-2.3.4-.5.1-.9.1-1.4.2h-.2l-.9.1c-1.2.1-2.4.2-3.6.2h-1c-.9 0-1.8-.1-2.7-.1h-.3l-.7-.1h-.5l-.9-.1-.4-.1h-.1l-1.1-.2-.3-.1-.7-.1-.3-.1-.5-.1h-.1c-.6-.1-1.2-.3-1.8-.5l-.3-.1h-.1l-.4-.1-.3-.1-.4-.1-.2-.1-.6-.2-.4-.2-.4-.2-.5-.2-.3-.1-.4-.2c-.5-.2-.9-.4-1.3-.6-.7-.3-1.4-.6-2-1-.2-.1-.5-.2-.7-.4l-.2-.1-.2-.1-.6-.3-.3-.2c-.4-.3-.9-.5-1.3-.9-.4-.3-.9-.6-1.3-.9l-.1-.1-.1-.1-.4-.3-.4-.3-.1-.1c-.2-.1-.3-.3-.5-.4-1.1-.9-2.2-1.8-3.2-2.8-.9-.9-1.8-1.9-2.7-2.9-14.9-17.2-13-43.2 4.1-58.1 17.2-14.9 43.2-13 58.1 4.1 6.8 7.7 10.3 17.4 10.3 27.3z"/>
  <path fill="#6c63ff" d="M-180.2 786.4c-.3-.7-1.2-.9-1.8-.6l-12 6.1c0-.2-.1-.3-.1-.5 0-.4-.2-.7-.5-.9l-.3-.3v-.3c0-.2 0-.4-.1-.6 0-.5-.3-.9-.7-1.1v-.3c0-.2-.1-.4-.2-.6 0-.6-.5-1.1-1.3-1.9-.3-.3-.5-.7-.7-1.2v-.1c-.1-.6-.3-1.2-.5-1.9-.1-.4-.2-.7-.4-1.1-.6-1.7-1.4-1.5-1.6-1.8-.3-.3-2.2-.7-3.1-1.2-.8-.4-3.5 0-4.3.2v-.2c4-1.2 6.5-5.3 5.6-9.4l-.1-.2c.4 0 .8-.1 1.2-.2.3-.3.5-.6.6-1.1.2-.8.3-1.6.2-2.3 0-.1-.1-.2-.1-.2 0-.1 0-.1-.1-.2v-.2c-.1-.2-.2-.5-.3-.7v.1c-.6-.9-1.3-1.9-2-2.7-.7-1.1-1.1-2.4-2.2-3.1-1.1-.6-2.4-.6-3.6-.2-.6.2-1.1.3-1.7.4-1 0-1.9 0-2.9-.2-1.4-.1-2.7.3-3.9 1-.3.2-.5.4-.6.6-.2.4-.3.7-.3 1.1-.1.7-.4 1.4-.8 2.1-.3.5-.7 1-.9 1.5-.3.5-.4 1.1-.3 1.7.1.3.3.6.3.9 0 .7-.2 1.4-.6 2-.3.6-.4 1.2-.4 1.9 0 .5.2 1 .5 1.4 0 .1.1.2.2.4v.1c.1.1.1.2.2.2l.1.1.2.2c.5.4 1.1.5 1.7.5 0 .1.1.2.1.3V774.2c-.1 0-1.8.2-2.4 1-.6.5-1.3.8-2.1.9 0 0-1.7.6-1.7.7 0 .1-.5.4-1.6.6-1.1.3-2.8 1.3-2.8 1.6 0 .3-2.8 3-2.8 3.3-.5 1-.8 2.1-.8 3.2.1 1.9.2 4.3-.2 4.7s0 1.9 0 1.9c.2.3.2.8 0 1.1-.4.6.1 3.3.1 3.3v2.8c.1.4.1.8.2 1.2l.1.1.4.3.4.3.1.1.1.1c.4.3.9.6 1.3.9.4.3.9.6 1.3.9l.3.2.6.3.2.1.2.1c.2.1.5.3.7.4.7.4 1.3.7 2 1 .4.2.9.4 1.3.6l.4.2.3.1.5.2.4.2.4.2.6.2.2.1.4.1.3.1.4.1h.1l.3.1c.6.2 1.2.3 1.8.5h.1l.5.1.3.1.7.1.3.1 1.1.2h.1l.4.1.9.1h.5l.7.1h.3c.9.1 1.8.1 2.7.1h1c1.2 0 2.4-.1 3.6-.2l.9-.1h.2c.5-.1.9-.1 1.4-.2.8-.1 1.5-.3 2.3-.4.5-.1.9-.2 1.4-.3l.6-.2c.1 0 .2 0 .3-.1l.4-.1H-195.7l.2-.1.4-.1.2-.1.2-.1.3-.1h.1l.9-.3.2-.1.4-.2.7-.2 1.2-.5.9-.4.4-.2.9-.4.2-.1.3-.1.1-.1h.1l.5-.3 1.1-.6.2-.1.3-.2c.7-.4 1.4-.9 2.1-1.4.2-.1.3-.2.5-.3h.2l.2-.3.2-.1c1-.7 1.9-1.5 2.9-2.3.2-.2.5-.4.7-.6l.2-.2c.5-.4.9-.9 1.4-1.3l.3-.3.1-.1c.4-.4.8-.9 1.2-1.3l-4.3-8.5zm-20 13.8l-.2.1c0-.1 0-.1.1-.2 0 0-1.3.1-2.7.2 0-.2 0-.5.1-.7.3-1 .5-1.9.7-3l2.3 3.6h-.3zm.4 6.7v-.4l.1-.1c0-.4-.1-.8-.1-1.2h.2l2.5-.4s.3 0 .9-.1l.2.4c-1.1.3-2.2.8-3.2 1.4 0 .2-.2.3-.6.4z" opacity=".3"/>
  <path fill="#3acc6c" d="M254.3 443.8l-3.5-3.5c-.7-.7-1.9-.7-2.6 0l-21.8 21.6-9.2-9.3c-.7-.7-1.9-.7-2.6 0l-3.5 3.5c-.7.7-.7 1.9 0 2.6l14 14.1c.7.7 1.9.7 2.6 0l26.6-26.4c.7-.6.7-1.8 0-2.6 0 .1 0 .1 0 0zM254.3 546.4l-3.5-3.5c-.7-.7-1.9-.7-2.6 0l-21.7 21.6-9.2-9.3c-.7-.7-1.9-.7-2.6 0l-3.5 3.5c-.7.7-.7 1.9 0 2.6l14 14.1c.7.7 1.9.7 2.6 0l26.5-26.4c.7-.6.7-1.8 0-2.6 0 .1 0 0 0 0zM254.3 753.5l-3.5-3.5c-.7-.7-1.9-.7-2.6 0l-21.8 21.6-9.2-9.3c-.7-.7-1.9-.7-2.6 0l-3.5 3.5c-.7.7-.7 1.9 0 2.6l14 14.1c.7.7 1.9.7 2.6 0l26.6-26.4c.7-.6.7-1.8 0-2.6z"/>
  <ellipse cx="-371.7" cy="371.4" fill="#6c63ff" rx="23.7" ry="11.8" transform="scale(-1) rotate(52.82 747.793 748.425)"/>
  <ellipse cx="-371.7" cy="371.4" opacity=".1" rx="23.7" ry="11.8" transform="scale(-1) rotate(52.82 747.793 748.425)"/>
  <ellipse cx="-371.7" cy="371.4" fill="#6c63ff" rx="23.1" ry="10.9" transform="scale(-1) rotate(52.82 747.874 748.545)"/>
  <path fill="#407d3b" d="M-385.8 353.3c4.5 8.9 10.1 17.1 16.9 24.4 1.3 1.4 2.6 2.7 3.9 4.1l7.3 7.5" opacity=".3"/>
  <ellipse cx="-403.2" cy="331.9" fill="#6c63ff" rx="23.7" ry="11.8" transform="scale(-1) rotate(52.82 668.427 811.933)"/>
  <ellipse cx="-403.2" cy="331.9" opacity=".1" rx="23.7" ry="11.8" transform="scale(-1) rotate(52.82 668.427 811.933)"/>
  <ellipse cx="-403.3" cy="332" fill="#6c63ff" rx="23.1" ry="10.9" transform="scale(-1) rotate(52.82 668.509 812.035)"/>
  <path fill="#407d3b" d="M-417.3 313.9c4.5 8.9 10.1 17.1 16.9 24.4 1.3 1.4 2.6 2.7 3.9 4.1l7.3 7.5" opacity=".3"/>
  <ellipse cx="-371.8" cy="339" fill="#6c63ff" rx="10.1" ry="20.3" transform="rotate(-127.193 -371.802 338.997)"/>
  <ellipse cx="-371.8" cy="339" opacity=".1" rx="10.1" ry="20.3" transform="rotate(-127.193 -371.802 338.997)"/>
  <ellipse cx="-371.8" cy="339" fill="#6c63ff" rx="9.3" ry="19.7" transform="rotate(-127.193 -371.84 338.948)"/>
  <path fill="#407d3b" d="M-356.4 326.9c-7.6 3.8-14.6 8.7-20.9 14.4-1.2 1.1-2.3 2.2-3.5 3.3l-6.4 6.2" opacity=".3"/>
  <ellipse cx="-403.7" cy="362.4" fill="#6c63ff" rx="10.1" ry="20.3" transform="rotate(-119.901 -403.74 362.382)"/>
  <ellipse cx="-403.7" cy="362.4" opacity=".1" rx="10.1" ry="20.3" transform="rotate(-119.901 -403.74 362.382)"/>
  <ellipse cx="-403.8" cy="362.3" fill="#6c63ff" rx="9.3" ry="19.7" transform="rotate(-119.901 -403.77 362.332)"/>
  <path fill="#407d3b" d="M-420.9 371.9c6.5-5.5 13.7-10.1 21.4-13.6 1.5-.7 2.9-1.3 4.4-1.9l8.3-3.5" opacity=".3"/>
  <ellipse cx="-393.3" cy="345.1" fill="#6c63ff" rx="8.7" ry="4.4" transform="rotate(-127.72 -393.274 345.105)"/>
  <ellipse cx="-393.3" cy="345.1" opacity=".1" rx="8.7" ry="4.4" transform="rotate(-127.72 -393.274 345.105)"/>
  <ellipse cx="-393.3" cy="345.1" fill="#6c63ff" rx="8.5" ry="4" transform="rotate(-127.72 -393.257 345.096)"/>
  <path fill="#407d3b" d="M-398.3 338.4c2.7 2.4 5.1 5.2 7.1 8.3.4.6.7 1.2 1.1 1.8l2 3.3" opacity=".3"/>
  <ellipse cx="-382.4" cy="359.1" fill="#6c63ff" rx="8.7" ry="4.4" transform="rotate(-127.72 -382.405 359.116)"/>
  <ellipse cx="-382.4" cy="359.1" opacity=".1" rx="8.7" ry="4.4" transform="rotate(-127.72 -382.405 359.116)"/>
  <ellipse cx="-382.4" cy="359.1" fill="#6c63ff" rx="8.5" ry="4" transform="rotate(-127.72 -382.378 359.095)"/>
  <path fill="#407d3b" d="M-387.5 352.4c2.7 2.4 5.1 5.2 7.1 8.3.4.6.7 1.2 1.1 1.8l2 3.3" opacity=".3"/>
  <circle cx="-387.8" cy="352.2" r="1.8" fill="#6c63ff"/>
  <circle cx="-387.8" cy="352.2" r="1.8" fill="#407d3b" opacity=".3"/>
  <path fill="#6c63ff" d="M345.2 878.5c-.2-1.2-5.7-30.1 10.8-68.3 6.5-15 5.9-27.8-1.6-38.3-3.4-4.7-7.9-8.6-13.1-11.3l1.9-4.3c6 3 11.1 7.4 15.1 12.9 5.9 8.2 11 22.2 2.1 42.9-15.9 36.9-10.5 65.3-10.5 65.6l-4.7.8z"/>
  <path fill="#6c63ff" d="M369.7 807.3c6.6-.6 12.2-1.2 12.3.9.2 2.1-5.1 6-11.7 6.6-6.6.6-12.2-.6-12.3-2.7-.1-2.1 5.1-4.2 11.7-4.8z"/>
  <path d="M369.7 807.3c6.6-.6 12.2-1.2 12.3.9.2 2.1-5.1 6-11.7 6.6-6.6.6-12.2-.6-12.3-2.7-.1-2.1 5.1-4.2 11.7-4.8z" opacity=".1"/>
  <path fill="#6c63ff" d="M369.8 807.3c6.5-.6 11.8-1.4 12 .4.1 1.8-5 5.5-11.4 6s-11.8-.4-12-2.2c-.2-1.8 4.9-3.6 11.4-4.2z"/>
  <path fill="#407d3b" d="M358.4 811.6c5 .1 10.1-.2 15.1-.9.9-.1 1.9-.3 2.8-.4 1.8-.3 3.5-2.4 5.3-2.6" opacity=".3"/>
  <path fill="#6c63ff" d="M358.1 845.9c6.6-.6 12.2-1.2 12.3.9.2 2.1-5.1 6-11.7 6.6-6.6.6-12.1-.6-12.3-2.7-.2-2.1 5.1-4.3 11.7-4.8z"/>
  <path d="M358.1 845.9c6.6-.6 12.2-1.2 12.3.9.2 2.1-5.1 6-11.7 6.6-6.6.6-12.1-.6-12.3-2.7-.2-2.1 5.1-4.3 11.7-4.8z" opacity=".1"/>
  <path fill="#6c63ff" d="M358.1 845.9c6.5-.6 11.8-1.4 12 .3.1 1.8-5 5.5-11.4 6-6.4.6-11.8-.4-12-2.2s5-3.6 11.4-4.1z"/>
  <path fill="#407d3b" d="M346.8 850.1c5 .1 10.1-.2 15.1-.9.9-.1 1.9-.3 2.8-.4 1.8-.3 3.5-2.4 5.3-2.6" opacity=".3"/>
  <path fill="#6c63ff" d="M348.1 803.9c-6.2-2.4-11.3-4.6-12.1-2.6-.8 1.9 3.2 7.2 9.4 9.6s11.9 2.8 12.6.9-3.7-5.5-9.9-7.9z"/>
  <path d="M348.1 803.9c-6.2-2.4-11.3-4.6-12.1-2.6-.8 1.9 3.2 7.2 9.4 9.6s11.9 2.8 12.6.9-3.7-5.5-9.9-7.9z" opacity=".1"/>
  <path fill="#6c63ff" d="M348.1 804c-6-2.3-10.9-4.7-11.6-3s3.2 6.6 9.3 9c6 2.3 11.5 2.9 12.1 1.3s-3.7-5-9.8-7.3z"/>
  <path fill="#407d3b" d="M357.8 811.2c-4.9-1.3-9.6-3-14.2-5.1-.9-.4-1.8-.8-2.6-1.2-1.6-.8-2.7-3.3-4.3-4" opacity=".3"/>
  <path fill="#6c63ff" d="M337.8 842.6c-6.2-2.4-11.3-4.6-12.1-2.6-.8 1.9 3.2 7.2 9.4 9.6 6.2 2.4 11.8 2.8 12.6.9s-3.7-5.5-9.9-7.9z"/>
  <path d="M337.8 842.6c-6.2-2.4-11.3-4.6-12.1-2.6-.8 1.9 3.2 7.2 9.4 9.6 6.2 2.4 11.8 2.8 12.6.9s-3.7-5.5-9.9-7.9z" opacity=".1"/>
  <path fill="#6c63ff" d="M337.8 842.6c-6-2.3-10.9-4.7-11.6-3-.6 1.6 3.2 6.6 9.3 9 6 2.4 11.5 2.9 12.1 1.3.6-1.8-3.8-5-9.8-7.3z"/>
  <path fill="#407d3b" d="M347.4 849.8c-4.9-1.3-9.6-3-14.2-5.1-.9-.4-1.8-.8-2.6-1.2-1.6-.8-2.7-3.3-4.3-4" opacity=".3"/>
  <path fill="#6c63ff" d="M335.4 850.6c-6.3 2.1-11.6 3.7-11 5.6s7 3.6 13.3 1.5c6.3-2.1 10.9-5.4 10.3-7.3-.5-2-6.2-1.9-12.6.2z"/>
  <path d="M335.4 850.6c-6.3 2.1-11.6 3.7-11 5.6s7 3.6 13.3 1.5c6.3-2.1 10.9-5.4 10.3-7.3-.5-2-6.2-1.9-12.6.2z" opacity=".1"/>
  <path fill="#6c63ff" d="M335.4 850.6c-6.1 2-11.4 3.3-10.9 5s6.7 3.1 12.9 1.1 10.7-5 10.2-6.7c-.6-1.7-6-1.4-12.2.6z"/>
  <path fill="#407d3b" d="M347.5 850.1c-4.6 2.1-9.3 3.8-14.2 5.1l-2.8.7c-1.8.4-4.2-.8-5.9-.4" opacity=".3"/>
  <ellipse cx="365.8" cy="761.5" fill="#6c63ff" rx="18.7" ry="9.3" transform="rotate(-166.337 365.776 761.5)"/>
  <ellipse cx="365.8" cy="761.5" opacity=".1" rx="18.7" ry="9.3" transform="rotate(-166.337 365.776 761.5)"/>
  <ellipse cx="365.7" cy="761.6" fill="#6c63ff" rx="18.2" ry="8.6" transform="rotate(-166.337 365.763 761.548)"/>
  <path fill="#407d3b" d="M348.1 757.4c7.1 3.2 14.7 5.4 22.5 6.5 1.5.2 2.9.4 4.4.6l8.2 1" opacity=".3"/>
  <ellipse cx="347.4" cy="737.4" fill="#6c63ff" rx="9.3" ry="18.7" transform="rotate(-167.239 347.429 737.352)"/>
  <ellipse cx="347.4" cy="737.4" opacity=".1" rx="9.3" ry="18.7" transform="rotate(-167.239 347.429 737.352)"/>
  <ellipse cx="347.5" cy="737.4" fill="#6c63ff" rx="8.6" ry="18.2" transform="rotate(-167.239 347.475 737.364)"/>
  <path fill="#407d3b" d="M343.6 755c3.1-7.2 5.2-14.8 6.2-22.6.2-1.5.3-2.9.5-4.4l.9-8.2" opacity=".3"/>
  <ellipse cx="338.1" cy="778" fill="#6c63ff" rx="9.3" ry="18.7" transform="rotate(-167.239 338.106 777.963)"/>
  <ellipse cx="338.1" cy="778" opacity=".1" rx="9.3" ry="18.7" transform="rotate(-167.239 338.106 777.963)"/>
  <ellipse cx="338.1" cy="778" fill="#6c63ff" rx="8.6" ry="18.2" transform="rotate(-167.239 338.15 777.975)"/>
  <path fill="#407d3b" d="M334.3 795.6c3.1-7.2 5.2-14.8 6.2-22.6.2-1.5.3-2.9.5-4.4l.9-8.2" opacity=".3"/>
  <ellipse cx="320.3" cy="751.7" fill="#6c63ff" rx="18.7" ry="9.3" transform="rotate(-166.337 320.35 751.74)"/>
  <ellipse cx="320.3" cy="751.7" opacity=".1" rx="18.7" ry="9.3" transform="rotate(-166.337 320.35 751.74)"/>
  <ellipse cx="320.3" cy="751.8" fill="#6c63ff" rx="18.2" ry="8.6" transform="rotate(-166.337 320.338 751.795)"/>
  <path fill="#407d3b" d="M302.6 747.7c7.2 3.2 14.7 5.4 22.5 6.5 1.5.2 2.9.4 4.4.6l8.2 1" opacity=".3"/>
  <ellipse cx="353" cy="770.3" fill="#6c63ff" rx="16" ry="8" transform="scale(-1) rotate(52.82 1551.152 -710.793)"/>
  <ellipse cx="353" cy="770.3" opacity=".1" rx="16" ry="8" transform="scale(-1) rotate(52.82 1551.152 -710.793)"/>
  <ellipse cx="352.9" cy="770.3" fill="#6c63ff" rx="15.6" ry="7.3" transform="scale(-1) rotate(52.82 1551.201 -710.716)"/>
  <path fill="#407d3b" d="M343.5 758c3 6 6.8 11.5 11.4 16.5.9.9 1.8 1.8 2.6 2.8l4.9 5.1" opacity=".3"/>
  <ellipse cx="332.2" cy="749.2" fill="#6c63ff" rx="16" ry="8" transform="rotate(-127 332.162 749.192)"/>
  <ellipse cx="332.2" cy="749.2" opacity=".1" rx="16" ry="8" transform="rotate(-127 332.162 749.192)"/>
  <ellipse cx="331.7" cy="743.7" fill="#6c63ff" rx="15.6" ry="7.3" transform="scale(-1) rotate(52.82 1497.699 -667.93)"/>
  <path fill="#407d3b" d="M322.2 731.5c3 6 6.8 11.5 11.4 16.5.9.9 1.8 1.8 2.6 2.8l4.9 5.1" opacity=".3"/>
  <ellipse cx="352.9" cy="748.5" fill="#6c63ff" rx="6.8" ry="13.6" transform="rotate(-127.193 352.868 748.507)"/>
  <ellipse cx="352.9" cy="748.5" opacity=".1" rx="6.8" ry="13.6" transform="rotate(-127.193 352.868 748.507)"/>
  <ellipse cx="352.9" cy="748.5" fill="#6c63ff" rx="6.3" ry="13.3" transform="rotate(-127.193 352.843 748.477)"/>
  <path fill="#407d3b" d="M363.3 740.3c-5.1 2.6-9.9 5.8-14.1 9.7-.8.7-1.6 1.5-2.3 2.2l-4.4 4.2" opacity=".3"/>
  <ellipse cx="331.3" cy="764.3" fill="#6c63ff" rx="6.8" ry="13.6" transform="rotate(-119.901 331.346 764.259)"/>
  <ellipse cx="331.3" cy="764.3" opacity=".1" rx="6.8" ry="13.6" transform="rotate(-119.901 331.346 764.259)"/>
  <ellipse cx="331.3" cy="764.2" fill="#6c63ff" rx="6.3" ry="13.3" transform="rotate(-119.901 331.33 764.228)"/>
  <path fill="#407d3b" d="M319.8 770.6c4.4-3.7 9.2-6.8 14.4-9.2 1-.4 2-.9 3-1.3l5.6-2.4" opacity=".3"/>
  <ellipse cx="338.4" cy="752.5" fill="#6c63ff" rx="5.9" ry="2.9" transform="rotate(-127.72 338.4 752.549)"/>
  <ellipse cx="338.4" cy="752.5" opacity=".1" rx="5.9" ry="2.9" transform="rotate(-127.72 338.4 752.549)"/>
  <ellipse cx="338.4" cy="752.5" fill="#6c63ff" rx="5.7" ry="2.7" transform="rotate(-127.72 338.418 752.54)"/>
  <path fill="#407d3b" d="M335 748c1.8 1.6 3.4 3.5 4.8 5.6.2.4.5.8.7 1.2l1.3 2.2" opacity=".3"/>
  <ellipse cx="345.7" cy="762" fill="#6c63ff" rx="5.9" ry="2.9" transform="rotate(-127.72 345.737 761.988)"/>
  <ellipse cx="345.7" cy="762" opacity=".1" rx="5.9" ry="2.9" transform="rotate(-127.72 345.737 761.988)"/>
  <ellipse cx="345.7" cy="762" fill="#6c63ff" rx="5.7" ry="2.7" transform="rotate(-127.72 345.742 761.977)"/>
  <path fill="#407d3b" d="M342.3 757.4c1.8 1.6 3.4 3.5 4.8 5.6.2.4.5.8.7 1.2l1.3 2.2" opacity=".3"/>
  <circle cx="342.1" cy="757.3" r="1.2" fill="#6c63ff"/>
  <circle cx="342.1" cy="757.3" r="1.2" fill="#407d3b" opacity=".3"/>
  <g fill="#6c63ff" opacity=".1">
    <path d="M-391.8 818.3c-.6-6.8-.5-13.6.2-20.4 0-.3.1-.6.1-.9.1-.6.1-1.1.2-1.7 0-.2 0-.4.1-.5l.3-2.1v-.1c1.7-11.5 4.8-22.7 9.3-33.4l.3-.8c.1-.3.2-.6.4-.8s.1-.3.2-.5.1-.3.2-.4l.9-2.1v-.1c4.2-11.1 4.2-20.1 2.4-27.3-.1-.2-.1-.5-.2-.7-1.1-4.1-3-7.9-5.4-11.4l-.4-.6c-.3-.4-.6-.7-.9-1.1-2.5-3.1-5.5-5.9-8.8-8.2l-.5-.4c-.3-.2-.6-.4-.8-.5s-.5-.3-.7-.4c-.4-.2-.8-.5-1.1-.6l-.5-.3c-.7-.4-1.1-.6-1.2-.6l-.1.2-.2.4v.1l-.1.2v.2l-.1.3v.1l-.1.2v.1l-.2.5-.4 1-.1.1-.1.2-.1.2-.2.5.3.2.2.1h.2l.1.1.2.1.6.3.4.2c.7.4 1.6 1 2.5 1.6l.9.7.4.3c.4.3.9.7 1.3 1l.4.3c.2.2.5.4.7.7l.1.1 2.2 2.2c.9 1 1.8 2.1 2.6 3.2.3.4.5.8.8 1.2.9 1.3 1.7 2.8 2.3 4.2.9 1.9 1.6 3.9 2 6 0 .1.1.3.1.4 1.6 7.3.6 15.6-3.1 24.5v.1c-.2.5-.4.9-.6 1.4v.1c-.1.1-.1.2-.1.4l-.6 1.5c-.1.3-.3.6-.4.9-4.4 10.7-7.5 21.9-9.2 33.3v.1c-.1.7-.2 1.3-.3 1.9v.5c-.1.5-.1 1-.2 1.5l-.1.5v.4c-.1.6-.1 1.2-.2 1.8 0 .4-.1.8-.1 1.2-.5 5.3-.5 10.6-.2 15.9l4.4 2.7z"/>
    <path d="M-371.5 752.9c6.6-.6 12-1.2 12.2.9.2 2-5 6-11.6 6.5-6.6.6-12-.6-12.2-2.7-.2-2 5-4.1 11.6-4.7z"/>
    <path d="M-371.5 752.9c6.6-.6 12-1.2 12.2.9.2 2-5 6-11.6 6.5-6.6.6-12-.6-12.2-2.7-.2-2 5-4.1 11.6-4.7z" opacity=".1"/>
    <path d="M-371.5 752.9c6.4-.6 11.7-1.4 11.9.3s-4.9 5.4-11.3 5.9-11.7-.4-11.9-2.2 4.9-3.4 11.3-4z"/>
    <path d="M-382.7 757.1c5 .1 10-.2 14.9-.9l2.8-.4c1.8-.3 3.5-2.4 5.2-2.6l-22.9 3.9z" opacity=".3"/>
    <path d="M-383 791c6.6-.6 12-1.2 12.2.9.2 2-5 6-11.6 6.5-6.6.6-12-.6-12.2-2.7s5-4.1 11.6-4.7z"/>
    <path d="M-383 791c6.6-.6 12-1.2 12.2.9.2 2-5 6-11.6 6.5-6.6.6-12-.6-12.2-2.7s5-4.1 11.6-4.7z" opacity=".1"/>
    <path d="M-383 791.1c6.4-.5 11.7-1.4 11.9.3.1 1.7-4.9 5.4-11.3 6-6.4.6-11.7-.4-11.8-2.2s4.8-3.6 11.2-4.1z"/>
    <path d="M-394.2 795.3c5 .1 10-.2 14.9-.9.9-.1 1.9-.3 2.8-.4 1.8-.3 3.5-2.4 5.2-2.6l-22.9 3.9z" opacity=".3"/>
    <path d="M-392.9 749.5c-6.1-2.4-11.2-4.5-11.9-2.6-.7 1.9 3.1 7.1 9.2 9.5 6.1 2.4 11.7 2.8 12.5.9s-3.7-5.4-9.8-7.8z"/>
    <path d="M-392.9 749.5c-6.1-2.4-11.2-4.5-11.9-2.6-.7 1.9 3.1 7.1 9.2 9.5 6.1 2.4 11.7 2.8 12.5.9s-3.7-5.4-9.8-7.8z" opacity=".1"/>
    <path d="M-392.9 749.6c-6-2.3-10.8-4.6-11.5-3-.6 1.6 3.2 6.6 9.2 8.9 6 2.3 11.3 2.9 12 1.3.6-1.7-3.8-4.9-9.7-7.2z"/>
    <path d="M-383.4 756.7c-4.8-1.3-9.5-3-14-5l-2.6-1.2c-1.6-.7-2.6-3.2-4.2-4l20.8 10.2z" opacity=".3"/>
    <path d="M-403.1 787.8c-6.1-2.4-11.2-4.5-12-2.6-.7 1.9 3.1 7.1 9.3 9.5 6.1 2.4 11.7 2.8 12.5.9.7-2-3.7-5.4-9.8-7.8z"/>
    <path d="M-403.1 787.8c-6.1-2.4-11.2-4.5-12-2.6-.7 1.9 3.1 7.1 9.3 9.5 6.1 2.4 11.7 2.8 12.5.9.7-2-3.7-5.4-9.8-7.8z" opacity=".1"/>
    <path d="M-403.2 787.8c-6-2.3-10.8-4.6-11.5-3-.6 1.6 3.2 6.6 9.2 8.9 6 2.3 11.3 2.9 12 1.3.6-1.7-3.7-4.9-9.7-7.2z"/>
    <path d="M-393.6 795c-4.8-1.3-9.5-3-14-5l-2.6-1.2c-1.6-.7-2.6-3.2-4.2-4l20.8 10.2z" opacity=".3"/>
    <path d="M-405.5 795.7c-6.3 2.1-11.5 3.6-10.9 5.6.6 2 6.9 3.5 13.2 1.5 6.3-2 10.8-5.3 10.2-7.3s-6.2-1.8-12.5.2z"/>
    <path d="M-405.5 795.7c-6.3 2.1-11.5 3.6-10.9 5.6.6 2 6.9 3.5 13.2 1.5 6.3-2 10.8-5.3 10.2-7.3s-6.2-1.8-12.5.2z" opacity=".1"/>
    <path d="M-405.5 795.8c-6.1 2-11.3 3.3-10.8 5 .6 1.7 6.6 3 12.7 1s10.6-5 10.1-6.6-5.9-1.5-12 .6z"/>
    <path d="M-393.5 795.2c-4.5 2.1-9.2 3.7-14.1 5-.9.2-1.8.5-2.7.7-1.7.4-4.1-.8-5.8-.4l22.6-5.3z" opacity=".3"/>
    <ellipse cx="-375.5" cy="707.6" rx="18.5" ry="9.2" transform="rotate(-166.337 -375.51 707.588)"/>
    <ellipse cx="-375.5" cy="707.6" opacity=".1" rx="18.5" ry="9.2" transform="rotate(-166.337 -375.51 707.588)"/>
    <ellipse cx="-375.5" cy="707.6" rx="18" ry="8.5" transform="rotate(-166.337 -375.525 707.643)"/>
    <path d="M-393 703.6c7.1 3.2 14.6 5.4 22.2 6.5 1.4.2 2.9.4 4.4.6l8.1.9-34.7-8z" opacity=".3"/>
    <ellipse cx="-393.7" cy="683.7" rx="9.2" ry="18.5" transform="rotate(-167.239 -393.644 683.714)"/>
    <ellipse cx="-393.7" cy="683.7" opacity=".1" rx="9.2" ry="18.5" transform="rotate(-167.239 -393.644 683.714)"/>
    <ellipse cx="-393.6" cy="683.7" rx="8.5" ry="18" transform="rotate(-167.239 -393.597 683.726)"/>
    <path d="M-397.4 701.2c3.1-7.1 5.1-14.6 6.1-22.3.2-1.5.3-2.9.5-4.4l.8-8.1-7.4 34.8z" opacity=".3"/>
    <ellipse cx="-402.9" cy="723.9" rx="9.2" ry="18.5" transform="rotate(-167.239 -402.862 723.881)"/>
    <ellipse cx="-402.9" cy="723.9" opacity=".1" rx="9.2" ry="18.5" transform="rotate(-167.239 -402.862 723.881)"/>
    <ellipse cx="-402.8" cy="723.9" rx="8.5" ry="18" transform="rotate(-167.239 -402.81 723.904)"/>
    <path d="M-406.6 741.4c3.1-7.1 5.1-14.6 6.1-22.3.2-1.5.3-2.9.5-4.4l.8-8.1-7.4 34.8z" opacity=".3"/>
    <ellipse cx="-420.5" cy="697.9" rx="18.5" ry="9.2" transform="rotate(-166.337 -420.457 697.944)"/>
    <ellipse cx="-420.5" cy="697.9" opacity=".1" rx="18.5" ry="9.2" transform="rotate(-166.337 -420.457 697.944)"/>
    <ellipse cx="-420.5" cy="698" rx="18" ry="8.5" transform="rotate(-166.337 -420.471 697.998)"/>
    <path d="M-437.9 693.9c7.1 3.2 14.6 5.4 22.2 6.5 1.4.2 2.9.4 4.4.5l8.1 1-34.7-8z" opacity=".3"/>
    <ellipse cx="-388.1" cy="716.3" rx="15.8" ry="7.9" transform="scale(-1) rotate(52.82 1442.338 781.6)"/>
    <ellipse cx="-388.1" cy="716.3" opacity=".1" rx="15.8" ry="7.9" transform="scale(-1) rotate(52.82 1442.338 781.6)"/>
    <ellipse cx="-388.2" cy="716.3" rx="15.4" ry="7.3" transform="scale(-1) rotate(52.82 1442.388 781.677)"/>
    <path d="M-397.5 704.2c3 5.9 6.8 11.4 11.2 16.3.9.9 1.8 1.8 2.6 2.7l4.9 5-18.7-24z" opacity=".3"/>
    <ellipse cx="-409.2" cy="690" rx="15.8" ry="7.9" transform="scale(-1) rotate(52.82 1389.396 823.943)"/>
    <ellipse cx="-409.2" cy="690" opacity=".1" rx="15.8" ry="7.9" transform="scale(-1) rotate(52.82 1389.396 823.943)"/>
    <ellipse cx="-409.2" cy="690" rx="15.4" ry="7.3" transform="scale(-1) rotate(52.82 1389.46 824.01)"/>
    <path d="M-418.6 677.9c3 5.9 6.8 11.4 11.2 16.3.9.9 1.8 1.8 2.6 2.7l4.9 5-18.7-24z" opacity=".3"/>
    <ellipse cx="-388.2" cy="694.7" rx="6.7" ry="13.5" transform="rotate(-127.193 -388.249 694.674)"/>
    <ellipse cx="-388.2" cy="694.7" opacity=".1" rx="6.7" ry="13.5" transform="rotate(-127.193 -388.249 694.674)"/>
    <ellipse cx="-388.3" cy="694.7" rx="6.2" ry="13.2" transform="rotate(-127.193 -388.277 694.642)"/>
    <path d="M-377.9 686.6c-5.1 2.5-9.7 5.8-13.9 9.6-.8.7-1.6 1.5-2.3 2.2l-4.3 4.2 20.5-16z" opacity=".3"/>
    <ellipse cx="-409.5" cy="710.3" rx="6.7" ry="13.5" transform="rotate(-119.901 -409.541 710.275)"/>
    <ellipse cx="-409.5" cy="710.3" opacity=".1" rx="6.7" ry="13.5" transform="rotate(-119.901 -409.541 710.275)"/>
    <ellipse cx="-409.6" cy="710.2" rx="6.2" ry="13.2" transform="rotate(-119.901 -409.556 710.236)"/>
    <path d="M-420.9 716.6c4.3-3.7 9.1-6.7 14.3-9.1 1-.4 2-.9 2.9-1.3l5.5-2.3-22.7 12.7z" opacity=".3"/>
    <ellipse cx="-402.5" cy="698.7" rx="5.8" ry="2.9" transform="rotate(-127.72 -402.53 698.738)"/>
    <ellipse cx="-402.5" cy="698.7" opacity=".1" rx="5.8" ry="2.9" transform="rotate(-127.72 -402.53 698.738)"/>
    <ellipse cx="-402.5" cy="698.7" rx="5.7" ry="2.7" transform="rotate(-127.72 -402.52 698.734)"/>
    <path d="M-405.9 694.2c1.8 1.6 3.4 3.5 4.7 5.6.2.4.5.8.7 1.2l1.3 2.2-6.7-9z" opacity=".3"/>
    <ellipse cx="-395.3" cy="708.1" rx="5.8" ry="2.9" transform="rotate(-127.72 -395.276 708.072)"/>
    <ellipse cx="-395.3" cy="708.1" opacity=".1" rx="5.8" ry="2.9" transform="rotate(-127.72 -395.276 708.072)"/>
    <ellipse cx="-395.3" cy="708.1" rx="5.7" ry="2.7" transform="rotate(-127.72 -395.271 708.061)"/>
    <path d="M-398.7 703.6c1.8 1.6 3.4 3.5 4.7 5.6.2.4.5.8.7 1.2l1.3 2.2-6.7-9z" opacity=".3"/>
    <circle cx="-398.9" cy="703.5" r="1.2"/>
    <circle cx="-398.9" cy="703.5" r="1.2" opacity=".3"/>
  </g>
  <linearGradient id="c" x1="-1268.008" x2="-1268.008" y1="30.321" y2="325.063" gradientTransform="rotate(180 -775 454.06)" gradientUnits="userSpaceOnUse">
    <stop offset="0" stop-color="gray" stop-opacity=".25"/>
    <stop offset=".54" stop-color="gray" stop-opacity=".12"/>
    <stop offset="1" stop-color="gray" stop-opacity=".1"/>
  </linearGradient>
  <path fill="url(#c)" d="M-354.6 690.2c1.6 2.4 3.1 7.7 3 8.6-.1.9 4.4 5.9 5.6 7.4 1 1.4 2 3 2.7 4.5l4.1 7.7c2.6-.9 5.1-2 7.4-3.3l1.5.2c1.1-.1 2.3-.3 3.4-.5 0 .2-.1.4-.1.6-.7 5.8-1.2 10.5-1.2 10.5s1.4 5.1 3.4 3.5l.1-.1c.1.2.1.5.2.9.8 3.9 1.1 8 1 12-.4 5.9.9 15 .9 15s2.7-.2 6.7-.5l.3.9c.4 1 .8 2.1 1.3 3.2l.1.2c.1.1.1.3.2.4l.1.3.2.4.2.4.1.3.2.6c0 .1.1.1.1.2.1.2.1.3.2.5l.1.2.2.5.1.1c.3.6.6 1.2.8 1.7v.1l.2.4v.1l.2.4c.1.1.1.2.2.4 1.8 2.7 3 7.6 3 7.6l1.6 9.9s.3 2.4.5 4.6c.1.8.1 1.5.1 2.1v1.2c.1 1.8.5 5.3 1 9.3.1.8.2 1.6.3 2.5-.3 5-.2 10.1.3 15.1 0 0-1.2 18.7-.9 20.5.2 1-.7 3.3-1.4 5.3l-.2-.2s-4.2 4.4-4.1 9.4c.1 5 .5 11.9.5 11.9s.4 2.8-.5 3.5c-.9.7 0 4.6 0 4.6s7.3 6.7 13.5-.6c0 0 1.2-4.2.7-6.8 0-.2-.1-.5-.1-.9-.1-2.9-.3-5.8-.7-8.7l-.7-5.3c.8-.1 1.9-4.2 1.4-5.3-.5-1 .5-5.3.5-5.3l1.8-5.7c.1.2.2.4.2.6v.1c0 .1.1.2.1.2v.1l.3.9.1.3v.1c.1.3.2.6.3 1l.1.3v.1c.1.3.2.6.2.9v.1l.1.3v1.7c-.3 2-.1 4.1.6 6v.1c0 .1.1.2.1.2 0 .1 0 .1.1.1 0 .1.1.2.1.3l.3.6-.2 20.1s2.9 4.4 9.5 3.5c6.6-.9 5.7-8.2 4.8-9.3-.9-1.2-1.4-6.2-1.4-6.2s-1.2-8.3-2-11.3c-.2-1.1-.8-2.1-1.8-2.6-.3-.9-.7-1.8-.8-2-.7-1.3-1.3-2.6-1.7-4-.1-.5-.2-1-.1-1.4v-.9-.6-.3c-.2-5-1.4-19-2-26.2 1-5.3 1.7-9.5 1.6-10-.4-1.4.6-11.5.6-11.5s1.3-10.2 3-13.5c1.1-2.1 3.4-10.2 4.7-15.4.1-.3.2-.6.2-.9 1.5 0 2.9-.4 4.2-1 0 0-1-8.9 1.5-13.6 1.8-3.2 2.9-17.2 3-26.5v-1.3c2.1 1.8 3.5 4.1 4 3.9 5.1-2.6 10-5.7 14.7-9 5.7-4.6-10.2-30.6-12-32.6-1.8-2-5.5-25.1-5.5-25.1.6.7 1.3 1.3 2.2 1.5 1.2.2 3.4 1.8 5.8 3.9 2.4 2 13.5 0 13.5 0 8 .4 9.5-6.5 9.5-6.5s4-9.2 4.1-12.6c.2-3.3 6.1-16.6 6.1-16.6-1.3-2.1-3.2-3.8-5.4-4.8.4-1.4 1.1-2.6 1.9-3 2.5-1.1 30.3-11.4 20.5-14.9s-25 7.9-25 7.9-.8.3-2 2.8c-.7 1.3-1.5 3.6-2.2 5.5-.1.2-.1.4-.2.6h-.4s-3.6 7.8-3.6 9.6c0 1.8-4.4 10.7-4.4 10.7s-2.2 2.2-1.4 4c.8 1.8-1.8 1.4-1.8 1.4l-3.4-2.7s-3-1.9-4.4-2.2c-1.4-.3-3.8-2.8-3.8-2.8s-2.8-1.9-2.6-2.2c.2-.3-1.6-1.8-2.6-2.2-1-.5-1.5-1.5-2.5-3.3-1-1.8-2.6-.5-3.4-.8s-10.5.9-11.5 1.2-4.5.3-6.3-.9c-1.2-.7-2.6-.9-4-.4-.4-.8-.7-1.6-.9-2.4 0-.1-.1-.3-.1-.4 6.1-2.6 10.1-8.7 10.2-15.4 0-4.1-1.5-8-4.2-11-.2-.3-.5-.5-.7-.8.9-.5 2.3-1.4 2.3-2.6 0-.4-.2-.8-.5-1.2-.4-.4-.9-.6-1.2-1-.4-.4-.5-1-.5-1.6 0-.7.2-1.5.2-2.2 0-.3 0-.6-.1-.9-.4-1.2-1.6-2.1-2.9-2.3v.1c-.5-.1-1-.1-1.6-.1-1.8.2-3.5 1-5.3 1.2-2.8.3-5.5-.9-8.2-1.6s-6-.7-7.9 1.3c-1.9 2.1-1.8 5.6-4.1 7.1-1.1.7-2.4.8-3.6 1.3-1.3.6-2.3 1.6-3.1 2.9-1.8 2.9-2.7 6.3-2.3 9.6.2 1.8.7 3.6.9 5.4.2 1.9.1 3.8-.4 5.7-.5 1.9-1.6 3.9-3.5 4.5-.4.1-.9.2-1.3.4-1.1.7-1 2.3-.7 3.5l1.2 5.1c-1.1.8-2.8.5-3.8 1.3-.4.4-.7.9-.9 1.4-1 2.7-.3 5.8 1.8 7.8 0 .1-.1.2-.1.3 0 .1-.1.4-.2.7-.9 4.5-.6 5-1.3 5.8-1.1 2-2.4 3.9-3.8 5.8-.9 1-1.4 2.3-1.4 3.7 0 0-4.7 6.9-6.1 7.6-1.4.8-3.7 6-3.7 6s-3.7 2.4-3.7 5.1c-.1 2.2-.3 4.5-.7 6.7.3 0 .9 4.8 2.5 7.2zm13.4-4.2c.7-1.1 0-3.2 0-3.2s4.6-6 5.3-9.5c.6-3.5 4.8-5.8 4.8-5.8s2.2-.9 2.3 0c.1.9.6 2.7.6 2.7s-.4 4.5 1.3 6.2 1.9 9.2 1.9 9.2 2.6 7.4 1.4 9.7c-.4.8-1.1 4.8-1.8 9.7-.6-.1-1.2-.2-1.8-.2-.5-.5-3.7-3.4-5.3-3.9-1.8-.6-3.5-5.7-3.6-6.9-.1-1.2-1.6-5-3.3-5.7-1.7-.5-2.5-1.2-1.8-2.3z"/>
  <path fill="#4c4981" d="M-226.5 622.6c-2.6-4.3-7.6-6.7-12.6-5.9v9h5.5l4.3-1.1 2.8-2z"/>
  <path d="M-226.5 622.6c-2.6-4.3-7.6-6.7-12.6-5.9v9h5.5l4.3-1.1 2.8-2z" opacity=".1"/>
  <path fill="#ae6e79" d="M-239.5 619.1l6.7 4.7s.1-.9.2-2.2c.3-2.4 1.1-6.1 2.7-6.8 2.5-1.1 29.8-11.4 20.1-14.8-9.7-3.5-24.6 7.9-24.6 7.9s-.8.3-2 2.8c-.6 1.3-1.5 3.6-2.1 5.5-.5 1.5-1 2.9-1 2.9z"/>
  <path fill="#4c4981" d="M-293 626.3l-.7-.4-2.2 2.5 1.8 3.7 2.9-1.2-.6-3z"/>
  <path fill="#444053" d="M-282.8 844.8s1.9-.2 2.7 2.8c.8 3 1.9 11.3 1.9 11.3s.5 5.1 1.4 6.2c.9 1.1 1.8 8.4-4.7 9.3-6.5.9-9.4-3.5-9.4-3.5l.2-20.1 7.9-6zM-305.7 845.7s-4.1 4.4-4 9.4.5 11.8.5 11.8.4 2.8-.5 3.5c-.8.7 0 4.6 0 4.6s7.2 6.7 13.3-.6c0 0 1.2-4.2.7-6.8-.5-2.7-1.8-14.7-1.8-14.7l-8.2-7.2z"/>
  <path fill="#ae6e79" d="M-315.8 753.7s4.2 11.6 5.9 14.3 3 7.5 3 7.5l1.6 9.9c.3 2.2.5 4.5.5 6.7-.1 2.2 4 34.8 4 34.8l6.5 8.2s2.8 5.8 2.4 8.2c-.5 2.4.3 6.2 1.2 7.4 0 0 .2 7.5.4 9.2.2 1.7-.9 6.5 0 7.3.9.8 12.2.5 12.5-.9.3-1.3-1.4-8.1-1.4-8.1l-1-6.5s-2-3.5-1.5-4.7-.9-3.8-.9-4.1c0-.2-2.2-4-1.8-5.5s-2.4-32.5-2.4-32.5l-7.9-55.6-21.1 4.4z"/>
  <path d="M-315.8 753.7s.6 1.8 1.5 4c1.4 3.6 3.3 8.6 4.4 10.3 1.8 2.7 3 7.5 3 7.5l1.6 9.9c.3 2.2.5 4.5.5 6.7 0 .9.6 6.5 1.3 13 1.2 9.9 2.6 21.8 2.6 21.8l6.5 8.2s.3.7.7 1.6c.8 1.9 2 4.9 1.6 6.5-.5 2.4.3 6.2 1.2 7.4 0 0 .2 7.5.4 9.2.2 1.7-.9 6.5 0 7.3.9.8 12.2.5 12.5-.9.3-1.3-1.4-8.1-1.4-8.1l-1-6.5s-2-3.5-1.5-4.7-.9-3.8-.9-4.1c0-.2-2.2-4-1.8-5.5.3-1.1-1.2-19.3-2-28-.2-2.7-.4-4.5-.4-4.5l-6.8-47.8-.5-3.9-.6-3.9-20.9 4.5z" opacity=".1"/>
  <path fill="#ae6e79" d="M-308.9 869.4c-.1.9 10.8 2.1 12.4 1.2s0-12.4 0-12.4l-.7-5.3c.8-.1 1.9-4.2 1.4-5.3s.5-5.3.5-5.3l1.8-5.7 1.1-3.5c1.8-4 4.4-15.3 6-23.7 1-5.3 1.7-9.5 1.5-10-.4-1.4.6-11.5.6-11.5s1.2-10.2 2.9-13.5c1.1-2.1 3.3-10.2 4.7-15.4.7-2.6 1.2-4.6 1.2-4.6s-11.6-1-18.7-1.3c-3.2-.2-5.5-.2-5.3.1.3.3.3 1.7.3 3.7 0 5.3-.8 14.6-1.5 17.1-1.1 3.5-2.2 13.8-1.7 14.8.5 1 .3 7.7.3 7.7-.8 2.7-1.2 5.5-1.3 8.4-.2 5-.2 10 .3 15 0 0-1.1 18.7-.9 20.5.3 1.8-2.5 7.3-2.5 8.4 0 1.1-.8 8.4-.8 8.4s-1.5 11.3-1.6 12.2zM-315 644.7l1.3 1.4.9.9 5 5.4 13 1.5 6.9-1.8 1.8-.5s0-3.5-.3-7.6c-.4-5.3-1.5-11.8-4-13.6-1.3-1-2.3-2.3-2.9-3.7-.5-1-.9-2-1.3-3.1-.1-.1-.1-.3-.1-.4-.6-1.9-1-3.8-1.2-5.7 0 0-1.7-.9-4-2-6-2.8-16.4-6.7-12.8 2 .5 1.3 1 2.6 1.4 3.9.1.2.1.4.1.6 1.2 4.8.4 7.8-.5 9.4-.2.3-.3.6-.5.8-.2.3-.5.6-.9.9l-1.5 9.5-.1.8-.3 1.3z"/>
  <path d="M-312.8 617.9c.7 1.7-.3-1.3 0 0 2.7 2 9.2 7.5 12.8 7.5 2.5 0 3.2-.4 5.3-1.4-.6-2-1.1-4.1-1.4-6.1.1 0-21.7-12-16.7 0z" opacity=".1"/>
  <path fill="#ae6e79" d="M-318.3 607.8c0 8.6 6.5 15.8 15 16.6.6.1 1.2.1 1.8.1 9.3 0 16.8-7.5 16.8-16.8s-7.5-16.8-16.8-16.8c-9.3.1-16.8 7.6-16.8 16.9z"/>
  <path d="M-320.7 682.2l2.4 6.2s2 .1 5 .2c10.2.3 32.8.7 33.8-1.9.2-.7.3-1.4.4-2.1.1-4-1.8-10.2-1.8-10.2s-1.1-12.3-1.1-12.8.9-9.2.9-9.2l-1.8-6.9-5.2-3.6s-2.3 3.5-3.7 3.8c-1.2.5-2.3 1.1-3.2 2 0 0-4.5 2.8-6 1.2-1.5-1.5-12.8-8.3-12.8-8.3l-6 6.6-.9 35z" opacity=".1"/>
  <path fill="#fff" d="M-320.7 683.1l2.4 6.2s2 .1 5 .2h.3c1.3 0 2.8.1 4.4.1 8.1.2 19.3.2 25.2-.6 2.2-.3 3.6-.8 3.9-1.4.1-.4.2-.8.3-1.1 0-.3.1-.6.1-.9.1-4-1.8-10.2-1.8-10.2s-1.1-12.3-1.1-12.8.9-9.2.9-9.2l-1.8-6.9-3.5-2.5-1.6-1.1c-.5.8-1.1 1.6-1.8 2.3-.5.7-1.2 1.2-1.9 1.5-1.2.4-2.3 1.1-3.2 2 0 0-4.5 2.8-6 1.2-1.1-1.2-8-5.4-11.2-7.3l-1.6-1-.8.9-5.2 5.7-1 34.9z"/>
  <path d="M-239.5 619.1l6.7 4.7s.1-.9.2-2.2c-2.5-1.2-4.5-3.1-5.9-5.5-.5 1.6-1 3-1 3z" opacity=".1"/>
  <path fill="#3f3d56" d="M-263 635l1.5-.4s2.4 2.5 3.8 2.8c1.4.3 4.3 2.2 4.3 2.2l3.4 2.7s2.5.4 1.8-1.4c-.8-1.8 1.4-4 1.4-4s4.3-8.8 4.3-10.7c0-1.8 3.5-9.6 3.5-9.6s4.5 8.7 12.6 5.9c0 0-5.9 13.3-6.1 16.6-.1 3.3-4.1 12.5-4.1 12.5s-1.5 6.8-9.4 6.5c0 0-10.9 2-13.3 0-2.4-2-4.5-3.6-5.7-3.9-.9-.3-1.6-.8-2.2-1.5v-9.2l4.2-8.5z"/>
  <path d="M-249.3 643.7s-1.9 7.2-.7 7.9l.7-7.9zM-313.3 689.5c10.2.3 32.8.7 33.8-1.9.2-.7.3-1.4.4-2.1l-33.4 1.8-.8 2.2zM-315.8 753.7s.6 1.8 1.5 4.1c4.2-.3 9.9-.5 15.2-.6 1.9 0 3.7 0 5.5.1 3 0 6 .3 9 1 2.6.8 5.3 1.1 8 1 .7-2.6 1.2-4.6 1.2-4.6s-11.6-1-18.7-1.3l-.6-3.9-21.1 4.2z" opacity=".1"/>
  <path fill="#65617d" d="M-324.8 725.5l1.3 2.8s.2.8.4 2.1c.8 3.9 1.1 7.9 1 11.9-.4 5.9.9 14.9.9 14.9s28.3-2.4 36.6 0 12.4 0 12.4 0-1-8.9 1.5-13.5c1.7-3.2 2.9-17.2 2.9-26.4 0-4.3-.2-7.5-.8-8.1-1.7-2.1-8.9-22.9-8.9-22.9l-1.7.1-4.4.2-25 1.3-3.9.2-.4 1.3-11.9 36.1z"/>
  <path fill="#4c4981" d="M-337.3 716.3l-.2 2.5s12.4-4 11.8-9c-.6-5 0-4.4 0-4.4l-10 .9-1.6 10z"/>
  <path d="M-337.3 716.3l-.2 2.5s12.4-4 11.8-9c-.6-5 0-4.4 0-4.4l-10 .9-1.6 10zM-257.6 645.7c-1.3 1.1-2.8 1.9-4.4 2.3.5-.1.9-.3 1.3-.6.9-.6 1.8-1.3 2.6-2 .7-.7 1.5-1.3 2.4-1.7-.5.7-1.2 1.4-1.9 2zM-257.8 648.9c-.4.5-.7 1-1 1.5-.2.6-.3 1.3-.3 2-.1.9 0 1.9.3 2.8l2-4.8c.3-.8.7-1.6 1.1-2.4.2-.3 1.3-1.8 1.2-2-.2-.8-2.9 2.5-3.3 2.9zM-313.2 675.5c-1.4-.2-2.6-.7-3.6-1.7 2 .3 4 1.1 6 1.5 1.9.4 3.8.3 5.6-.5-2.4 1.1-5.5 1.1-8 .7zM-307.5 661.4c.4.1.7 0 1-.3 1.5-.9 3-1.8 4.5-2.8 1.6-.9 3.1-1.9 4.4-3.1-2.9 2.9-5.7 5.2-9.9 6.2zM-311.7 677.7c-.8 0-1.6 0-2.4-.2-.8-.2-1.5-.6-2-1.3.3-.1.6 0 .8.1 2.4 1 5.1 1.3 7.7.9-1.3.5-2.7.6-4.1.5zM-297.1 713.4c1.6.5 3.2.8 4.9 1 1.3.1 2.6 0 3.9-.1l6.3-.4 3.2-.2c.4 0 1.9 0 1.1-.7-.4-.4-2.5-.1-3-.1-1 0-2.1-.1-3.1-.1-2.1 0-4.2 0-6.3.1-2.4.1-4.7.3-7 .5zM-289.9 716.5c1.1 0 2.5.6 3.5.7 1.2.2 2.5.2 3.7.1 2.5-.1 4.9-.6 7.2-1.5-4.7.4-9.6.6-14.4.7zM-276.4 719.9c-.5.1-.9.2-1.4.4-2.6.8-5.5.1-8.2-.6.8 1 1.9 1.6 3.1 1.8 2 .5 4 .6 6 .2.6-.1 2.2-.4 2.5-1 .6-1.1-1.4-1-2-.8zM-291.3 724.8l-2.4.6c-3 .7-6.1-.3-9.1-1-3.6-.8-7.3-1.2-11-1 .8.2 1.6.4 2.4.8.9.3 1.7.5 2.6.7 1.7.4 3.4.8 5.1 1 3.5.5 7 .7 10.5.5 1.6-.1 4.4.1 5.8-.7-1.2-.8-2.5-1.1-3.9-.9zM-292.4 629.9s-.2 7.1 1 10.3c.4 1 .9 2.9 1.5 4.9.7 2.3 1.4 4.9 2 6.9l.9 3.4s2.6 21.2 3.3 31.2v.5c0 .6.1 1.2.2 1.8 1.5 10 10.1 25.5 13 26.7.9.4 1.7 1 2.4 1.7 0-4.3-.2-7.5-.8-8.1-1.7-2.1-8.9-22.9-8.9-22.9l-1.7.1c0-.3.1-.6.1-.9.1-4-1.8-10.2-1.8-10.2s-1.1-12.3-1.1-12.8.9-9.2.9-9.2l-1.8-6.9-3.5-2.5c-.4-5.3-1.5-11.8-4-13.6-1.3-1-2.3-2.3-2.9-3.7-.5.1.4-.4.4-.4l.8 3.7z" opacity=".1"/>
  <path fill="#3f3d56" d="M-293.7 625.9c1.3-.4 2.7-.3 3.9.4 1.8 1.2 5.3 1.2 6.1.9.9-.2 10.5-1.5 11.3-1.2.8.3 2.3-1.1 3.3.8 1 1.8 1.5 2.8 2.5 3.3s2.8 1.9 2.5 2.2c-.2.3 2.5 2.2 2.5 2.2l-5.6 18.2s3.6 23.1 5.4 25.1c1.8 2 17.5 27.9 11.8 32.5-4.4 3.5-9.2 6.7-14.1 9.5-.6.3-2.8-3.8-5.9-5.2-3.1-1.3-12.6-18.6-13.2-28.5-.6-9.8-3.3-31.8-3.3-31.8s-3.3-12-4.5-15.2-1-10.3-1-10.3l-1.7-2.9z"/>
  <path d="M-324.8 725.5l1.3 2.8s.2.8.4 2.1c.2 0 .5-.1.7-.3 1.9-1.5 13.2-13.1 13.8-23.5.4-7.6.2-14.2.1-17.1 0-.9-.1-1.5-.1-1.6 0 0-8.8-10.6-7.8-14.4s3.3-24 3.3-24l.3-2.6.6-4.5 1.4-10.8-1.4.3c-.2.3-.5.6-.9.9l-1.5 9.5-5.2 5.7-.9 34.8 2.4 6.2s2 .1 5 .2h.3l-11.8 36.3z" opacity=".1"/>
  <path fill="#3f3d56" d="M-329.7 668s2.2-.9 2.3 0c.1.9.5 2.7.5 2.7s-.4 4.5 1.2 6.3c1.6 1.8 1.9 9.2 1.9 9.2s2.6 7.4 1.4 9.7c-.4.8-1.1 5-1.8 10.1-.4 3.1-.9 6.6-1.3 9.8-.7 5.7-1.2 10.5-1.2 10.5s1.4 5.1 3.3 3.5c1.9-1.6 13.2-13.1 13.8-23.5.4-7.2.2-13.5.1-16.6-.1-1.3-.1-2.1-.1-2.1s-8.8-10.6-7.8-14.4c1-3.8 3.3-23.9 3.3-23.9l.4-3.1.4-3.3.1-.7 1.4-10.7c-.2.1-8.9 2-10 3.1-1.1 1.1-8.2 2.8-8.2 2.8-2.2.6-3.9 2.3-4.4 4.5-.1.2-.1.4-.2.7-.9 4.5-.6 5-1.2 5.8-.5.5 6.1 19.6 6.1 19.6z"/>
  <path d="M-325.5 715.7c3.2-.6 7.8-2.1 7.7-5.3-.1-3-3.7-4.1-6.4-4.5-.5 3.2-.9 6.6-1.3 9.8z" opacity=".1"/>
  <path fill="#ae6e79" d="M-335.2 714.1c.1.3.6.5 1.3.7 1.7.4 3.4.7 5.1.8 0 0 10.7-.9 10.5-5.7-.1-3.5-4.9-4.4-7.7-4.6-1.1-.1-1.8-.1-1.8-.1s-7.9 7.9-7.4 8.9z"/>
  <path d="M-335.2 714.1c.1.3.6.5 1.3.7 2.8-3.7 6.7-8.5 8.6-8.9 0 0-.2-.2-.6-.5-1.1-.1-1.8-.1-1.8-.1s-8 7.8-7.5 8.8z" opacity=".1"/>
  <path fill="#3f3d56" d="M-332.5 647.7l-3.2.5c-1.1 2-2.4 3.9-3.8 5.8-.8 1.1-1.3 2.3-1.4 3.7 0 0-4.6 6.8-6.1 7.6s-3.7 6-3.7 6-3.6 2.4-3.6 5.1c-.1 2.2-.3 4.5-.7 6.7-.1.4.5 5.2 2.1 7.5 1.5 2.4 3.1 7.7 3 8.6-.1.9 4.3 5.8 5.5 7.4 1 1.4 1.9 2.9 2.7 4.5l4.1 7.7s8.6-12.7 11.8-13.4c0 0-3.5-3.4-5.3-4s-3.5-5.7-3.5-6.8-1.6-5-3.2-5.7c-1.6-.7-2.5-1.4-1.8-2.5s0-3.2 0-3.2 4.5-6 5.2-9.5c.6-3.5 4.8-5.8 4.8-5.8l2.4-5.9-5.3-14.3z"/>
  <path d="M-344 676.4c-1.7-1.5-3.9-2.3-6.2-2.4 1.5.1 2.9.7 4.1 1.6.4.4.8.9 1.1 1.4.4.5 3.3 4.3 3.8 3.7.7-.8-2.2-3.8-2.8-4.3zM-337 672.8c-1-.1-1.8-.7-2.2-1.6-.4-.9-.6-1.8-.7-2.7-.2-1.6-.5-3.1-1-4.7-.1-.3-.2-.6-.2-1 0-.3.1-.6.3-.9.2-.5.4-1 .7-1.4.6.6.7 2.1 1 2.9.3 1.1.6 2.1.8 3.2.2.5 1.2 6.2 1.3 6.2zM-334.3 641.7c.3.4.7.8 1.1 1.1 1.2 1 2.9 1.8 3.1 3.4 0 .5 0 1 .2 1.5.4.7 1.4.6 2.2.5.7-.1 1.3-.3 1.8-.7.8-.7.9-2 1.5-2.8.8-.9 1.9-1.4 3.1-1.4 1.2 0 2.3.2 3.5.3.8 0 1.5 0 2.3-.2.2 0 .5-.1.7-.1.5-.1 1-.3 1.5-.5.3-.1.5-.2.7-.4.8-.4 1.5-.9 2.2-1.5 1.2-1 2-2.5 2-4.1-.2-.9-.4-1.9-.7-2.8-.5-2.7 1.3-5.3 3.3-7.2.8-.8 1.6-1.5 2.4-2.3 1.2-1.1 2.2-2.5 2.8-4 .5-1.6.7-3.3.5-5-.2-1.7-.2-3.4-.1-5.2.6-6.1 5.8-10.8 11-13.3l.2-.1c-6.1-7-16.6-7.8-23.6-1.7s-7.8 16.6-1.7 23.6c.8 1 1.8 1.8 2.8 2.6.1.2.1.4.1.6 1.2 4.8.4 7.8-.5 9.4-.2.1-8.9 2-10 3.1s-8.2 2.8-8.2 2.8c-2 .5-3.7 2.2-4.2 4.4z" opacity=".1"/>
  <path fill="#444053" d="M-287.7 592.4c-.4-.4-.9-.6-1.2-1-1.1-1.2 0-3.1-.4-4.7-.4-1.8-2.5-2.5-4.3-2.3-1.8.2-3.4 1-5.2 1.2-2.8.3-5.4-.9-8.1-1.6s-5.9-.7-7.8 1.3c-1.9 2.1-1.8 5.6-4 7.1-1.1.7-2.4.8-3.5 1.3-1.3.7-2.3 1.6-3 2.9-1.8 2.9-2.6 6.3-2.3 9.6.2 1.8.7 3.6.9 5.4.2 1.9.1 3.8-.4 5.7-.5 1.9-1.5 3.9-3.4 4.5-.4.1-.9.2-1.3.4-1.1.7-.9 2.3-.7 3.5l1.1 5.1c-1.1.8-2.8.5-3.8 1.3-.4.4-.7.9-.9 1.4-1.1 3-.2 6.3 2.3 8.3 1.2 1 2.9 1.8 3.1 3.4 0 .5 0 1 .2 1.5.4.7 1.4.6 2.2.5.7-.1 1.3-.3 1.8-.7.9-.7.9-2 1.5-2.8.8-.9 1.9-1.4 3.1-1.4 1.2 0 2.3.2 3.5.3 2.7.1 5.4-.8 7.4-2.7 1.2-1 2-2.5 2-4.1-.2-.9-.4-1.9-.7-2.8-.5-2.7 1.3-5.3 3.3-7.2 2-2 4.2-3.7 5.2-6.3 1.2-3.2 0-6.8.4-10.2.6-6.1 5.8-10.8 11-13.4 1.4-.5 3.3-2 2-3.5z"/>
  <path d="M-328.8 645.2c.9-.7.9-2 1.5-2.8.8-.9 1.9-1.4 3.1-1.4 1.2 0 2.3.2 3.5.3 2.7.1 5.4-.8 7.4-2.7 1.2-1 2-2.5 2-4.1-.2-.9-.4-1.9-.7-2.8-.5-2.7 1.3-5.3 3.3-7.2s4.2-3.7 5.2-6.3c1.2-3.2 0-6.8.4-10.2.6-6.1 5.8-10.8 11-13.4 1.2-.6 3.2-2.1 1.8-3.7-.3-.4-.9-.6-1.2-1-1.1-1.2 0-3.1-.4-4.7-.1-.3-.2-.6-.4-.9 1.3.1 2.4 1 2.8 2.2.4 1.6-.7 3.5.4 4.7.4.4.9.6 1.2 1 1.3 1.5-.6 3.1-1.8 3.7-5.3 2.5-10.4 7.2-11 13.4-.3 3.4.8 7-.4 10.2-1 2.6-3.3 4.4-5.2 6.3-2 1.9-3.8 4.5-3.3 7.2.3.9.5 1.9.7 2.8 0 1.6-.8 3.1-2 4.1-2 1.8-4.7 2.8-7.4 2.7-1.2-.1-2.3-.3-3.5-.3-1.2 0-2.3.5-3.1 1.4-.6.9-.7 2.1-1.5 2.8-.5.4-1.2.6-1.8.7-.8.1-1.8.2-2.2-.5-.1-.3-.2-.6-.2-.9.6 0 1.2-.2 1.8-.6z" opacity=".1"/>
</svg>