<?xml version="1.0" encoding="utf-8"?>
<!-- Generator: Adobe Illustrator 19.0.0, SVG Export Plug-In . SVG Version: 6.00 Build 0)  -->
<svg version="1.1" id="Layer_1" xmlns="http://www.w3.org/2000/svg" xmlns:xlink="http://www.w3.org/1999/xlink" x="0px" y="0px"
	 viewBox="0 0 500 500" style="enable-background:new 0 0 500 500;" xml:space="preserve">
<g id="XMLID_178_">
	<title>Layer 1</title>
	<path id="svg_1" style="opacity:0.1;fill:#44A147;enable-background:new    ;" d="M499.1,178.9h-46.1v55.9h42.8
		c0.1,0.6,0.2,1.2,0.3,1.7h-43.1v45.1l0.2-0.1c1.2-0.4,2.4-0.9,3.6-1.4l0.8-0.3c1.2-0.5,2.4-1,3.6-1.6c0.4-0.2,0.8-0.4,1.3-0.6
		c6.6-3.3,12.7-7.5,18.1-12.5c0.2-0.1,0.3-0.3,0.4-0.4c0.7-0.7,1.5-1.4,2.2-2.2l0.8-0.8c0.8-0.9,1.6-1.8,2.4-2.8l0.3-0.4
		c3.1-3.8,5.8-8,7.8-12.5c0.1-0.1,0.1-0.3,0.2-0.4c0.6-1.4,1.2-2.9,1.7-4.3c0.2-0.6,0.4-1.2,0.6-1.9c0.1-0.2,0.1-0.4,0.2-0.5
		c2.6-9,2.9-18.3,2.9-27.5v-3.2c0-3.7-0.1-7.5-0.1-11.3c0-1,0-1.9-0.1-2.9c-0.1-2.5-0.2-5-0.3-7.4c0-0.7-0.1-1.4-0.1-2.1
		c0-0.4,0-0.8-0.1-1.2C499.3,181.8,499.2,180.4,499.1,178.9L499.1,178.9z M452.9,116.7h25.3c-4.1-5.8-8.6-11.3-13.5-16.5
		c-3.8-4.1-7.7-8.1-11.8-12L452.9,116.7L452.9,116.7z M452.9,118.4v58.8h46c0-0.2,0-0.3,0-0.5c-0.1-1-0.2-2-0.3-3
		c-0.1-0.5-0.1-1.2-0.2-1.8s-0.1-1.2-0.2-1.8c-0.1-0.6-0.1-1.2-0.2-1.8c-0.1-0.6-0.2-1.2-0.2-1.8c-0.1-0.5-0.1-1-0.2-1.5
		c-0.1-0.7-0.2-1.4-0.3-2c0-0.1,0-0.2-0.1-0.3c-0.8-5-2-9.9-3.4-14.8c-1.5-5.1-3.4-10.2-5.7-15c-2.5-5.1-5.3-10-8.6-14.7
		L452.9,118.4L452.9,118.4z M343.4,178.9v55.9h98.5v-55.9H343.4z M343.4,236.6v37.9c11.5-3.7,24.6-2.2,36.5,0.8
		c9.2,2.3,18.2,5.5,27.4,7.8c4.1,1,8.3,1.8,12.5,2.4l1,0.1c0.5,0.1,1,0.1,1.5,0.1l1.5,0.1h0.8c0.1,0,0.2,0,0.2,0l0.8,0h0
		c0.4,0,0.8,0,1.2,0h3.2c0.3,0,0.6,0,0.9,0c0.5,0,0.9,0,1.4-0.1l0.9-0.1l1.1-0.1c0.8-0.1,1.5-0.1,2.3-0.2c0.3,0,0.6-0.1,0.9-0.1
		l0.4-0.1c0.8-0.1,1.5-0.2,2.3-0.3c0.6-0.1,1.1-0.2,1.7-0.3v-48L343.4,236.6L343.4,236.6z M416.7,116.7v1.7h-73.3v58.8h98.5v-58.8
		H437v-1.7h4.9v-38c-19.2-15.4-41.6-27.5-66.5-33.1c-10.5-2.3-21.3-3.4-32-3.3v74.5L416.7,116.7L416.7,116.7z M191.4,116.3l0.3,0.3
		h140.6V42.7c-25,2.1-49.5,10.5-69.1,24.4c-9.5,6.7-18,14.6-28.6,19.8c-5.6,2.8-11.7,4.3-17.9,4.6L191.4,116.3L191.4,116.3z
		 M190.4,86v16.7L204,89.5C198.9,87.7,194.9,86.5,190.4,86L190.4,86z M189.9,296.5h0.5v36.7c5.1-0.4,10.2-0.9,15.3-1.6
		c22.8-2.9,45-8.7,66.4-17.2c2.3-0.9,4.6-1.9,6.8-2.8c1.5-0.7,3-1.3,4.5-2c2.2-1,4.4-2.1,6.6-3.2c9.7-4.8,19.1-10.2,28-16.3
		c0.6-0.4,1.1-0.8,1.7-1.1c1.1-0.8,2.2-1.5,3.3-2.3c0.5-0.4,1.1-0.8,1.6-1.2l1.1-0.9c1.1-0.8,2.2-1.7,3.4-2.5c1-0.8,2.1-1.5,3.2-2.2
		v-43.4h-113c0.1-0.3,0.2-0.5,0.2-0.8c-0.1,0.3-0.2,0.5-0.2,0.8h-29v60L189.9,296.5L189.9,296.5z M190.4,118.4v58.8h142v-58.8
		L190.4,118.4L190.4,118.4z M190.4,178.9v55.9h142v-55.9L190.4,178.9L190.4,178.9z M162,87.7l17.3,16.9V85.9
		C173.5,86.3,167.8,86.9,162,87.7z M41.3,178.9v55.9h138.1v-55.9H41.3z M74.6,317c20.9,8,42.8,13.2,65.1,15.4h0.1
		c4.2,0.4,8.4,0.8,12.7,1h0.2c8.9,0.5,17.8,0.6,26.7,0.3v-97.2H41.3l0.5,64.4 M3,234.9h27.2v-55.9H19.5c-1.1,2-2.2,3.9-3.2,6
		c-0.6,1.1-1.1,2.1-1.6,3.2C7.5,202.8,3,219,3,234.9z M3,236.6c0.2,11.4,2.8,22.5,8.4,32.8c4.7,8.6,11.1,16.1,18.8,22.6v-55.4
		C30.2,236.6,3,236.6,3,236.6z M20.5,177.2h9.8v-14.6C26.7,167.3,23.5,172.2,20.5,177.2L20.5,177.2z M81.6,116.7h94.5l0.3-0.3
		l-0.5-0.5l-26.6-25.9c-7.9,1.6-15.7,3.7-23.3,6.2c-0.7,0.2-1.4,0.5-2.2,0.7C109.1,101.9,95,108.6,81.6,116.7L81.6,116.7z
		 M41.3,149.5v27.7h138.1V120l-1.9-1.6H78.9C65,127.1,52.4,137.6,41.3,149.5L41.3,149.5z"/>
	<path id="svg_2" style="opacity:0.1;fill:#44A147;enable-background:new    ;" d="M452.9,148.1v29.1h46c0-0.2,0-0.3,0-0.5
		c-0.1-1-0.2-2-0.3-3c-0.1-0.5-0.1-1.2-0.2-1.8s-0.1-1.2-0.2-1.8c-0.1-0.6-0.1-1.2-0.2-1.8c-0.1-0.6-0.2-1.2-0.2-1.8
		c-0.1-0.5-0.1-1-0.2-1.5c-0.1-0.7-0.2-1.4-0.3-2c0-0.1,0-0.2-0.1-0.3c-0.8-5-2-9.9-3.4-14.8L452.9,148.1L452.9,148.1z M499.1,178.9
		h-46.1v55.9h42.8c0.1,0.6,0.2,1.2,0.3,1.7h-43.1v45.1l0.2-0.1c1.2-0.4,2.4-0.9,3.6-1.4l0.8-0.3c1.2-0.5,2.4-1,3.6-1.6
		c0.4-0.2,0.8-0.4,1.3-0.6c6.6-3.3,12.7-7.5,18.1-12.5c0.2-0.1,0.3-0.3,0.4-0.4c0.7-0.7,1.5-1.4,2.2-2.2l0.8-0.8
		c0.8-0.9,1.6-1.8,2.4-2.8l0.3-0.4c3.1-3.8,5.8-8,7.8-12.5c0.1-0.1,0.1-0.3,0.2-0.4c0.6-1.4,1.2-2.9,1.7-4.3
		c0.2-0.6,0.4-1.2,0.6-1.9c0.1-0.2,0.1-0.4,0.2-0.5c2.6-9,2.9-18.3,2.9-27.5v-3.2c0-3.7-0.1-7.5-0.1-11.3c0-1,0-1.9-0.1-2.9
		c-0.1-2.5-0.2-5-0.3-7.4c0-0.7-0.1-1.4-0.1-2.1c0-0.4,0-0.8-0.1-1.2C499.3,181.8,499.2,180.4,499.1,178.9L499.1,178.9z
		 M407.2,126.8v50.4h34.7v-50.4H437v-17.1h-20.3v17.1H407.2L407.2,126.8z M407.2,178.9h34.7v55.9h-34.7V178.9z M441.9,236.6h-34.7
		v46.5c4.1,1,8.3,1.8,12.5,2.4l1,0.1c0.5,0.1,1,0.1,1.5,0.1l1.5,0.1h0.2c0.2,0,0.4,0,0.7,0h0.2c0.3,0,0.5,0,0.8,0c0.4,0,0.8,0,1.2,0
		h3.2l0.9,0c0.5,0,0.9,0,1.4-0.1l0.9-0.1l1.1-0.1c0.8-0.1,1.5-0.1,2.3-0.2l0.9-0.1l0.4-0.1c0.8-0.1,1.5-0.2,2.3-0.3
		c0.6-0.1,1.1-0.2,1.7-0.3L441.9,236.6L441.9,236.6z M190.4,120.9H219v56.3h-28.6V120.9z M190.4,178.9v55.9h142v-24.1h-75.6V225H219
		v-46H190.4z M189.9,296.5h0.5v36.7c5.1-0.4,10.2-0.9,15.3-1.6c22.8-2.9,45.1-8.7,66.4-17.2c6.1-2.4,12.1-5.1,17.9-8
		c9.7-4.8,19.1-10.2,28-16.3c2.2-1.5,4.4-3.1,6.6-4.7c1.5-1.1,3-2.2,4.5-3.3c1-0.8,2.1-1.5,3.2-2.2v-43.4h-113
		c0.1-0.3,0.2-0.5,0.2-0.8c-0.1,0.3-0.2,0.5-0.2,0.8h-29v59.9L189.9,296.5L189.9,296.5z M115.8,116.7h18.6v-5.2h-8.3V96.2
		c-0.7,0.2-1.4,0.5-2.2,0.7v14.6h-8.1V116.7z M70.9,177.2h91.5h0h17v-56.3h-4.8v41.6h-22v-24.6h-18.2v-19.5h-18.6v19.5H97.6v24.6
		H70.9L70.9,177.2L70.9,177.2z M70.9,178.9v55.9h108.5v-55.9L70.9,178.9L70.9,178.9z M74.7,317c20.9,8,42.8,13.2,65.1,15.4h0.1
		c4.2,0.4,8.4,0.8,12.7,1h0.2c8.9,0.5,17.8,0.6,26.7,0.3v-97.2H70.9v19.8H41.3l0.2,44.3 M28.3,236.6H3c0.2,11.4,2.8,22.5,8.4,32.8
		c4.7,8.6,11.2,16.1,18.8,22.6v-35.6h-1.9L28.3,236.6L28.3,236.6z M3,234.9h25.3v-46.7H14.6C7.5,202.8,3,219,3,234.9L3,234.9z"/>
	<path id="svg_3" style="opacity:0.1;fill:#44A147;enable-background:new    ;" d="M190.4,136.5h15.3v17.7h-15.3V136.5z
		 M190.4,173.1h15.3v4.1h-15.3V173.1z M190.4,178.9h15.3v11.9h-15.3V178.9z M190.4,209.7h15.3v17.7h-15.3V209.7z M190.4,246.4h15.3
		V264h-15.3V246.4z M190.4,296.5h-0.5H190.4v4.1h15.3V283h-15.3V296.5z M190.4,319.6v13.6c5.1-0.4,10.2-0.9,15.3-1.6v-12
		L190.4,319.6z M266.7,233.6h65.7v1.3h-65.7V233.6z M266.7,236.6h65.7v5h-65.7V236.6z M266.7,257.9h65.7v8h-65.7V257.9z
		 M266.7,282.2v8H318c2.2-1.5,4.4-3.1,6.6-4.7c1.5-1.1,3-2.2,4.5-3.3L266.7,282.2z M266.7,306.4v8h5.4c6.1-2.4,12.1-5.1,17.9-8
		H266.7z M152.7,195.9h-12.9v-11.5h12.9V195.9z M432.6,142.3h-12.9v-11.5h12.9V142.3z M432.6,169h-12.9v-11.5h12.9V169z
		 M432.6,195.7h-12.9v-11.5h12.9V195.7z M432.6,222.4h-12.9v-11.5h12.9V222.4z M432.6,249.1h-12.9v-11.5h12.9V249.1z M432.6,275.8
		h-12.9v-11.5h12.9V275.8z M103.3,195.9H90.4v-11.5h12.9V195.9z M152.7,224.2h-12.9v-11.5h12.9V224.2z M103.3,224.2H90.4v-11.5h12.9
		V224.2z M152.7,252.6h-12.9v-11.5h12.9V252.6z M103.3,252.6H90.4v-11.5h12.9V252.6z M152.7,280.9h-12.9v-11.5h12.9V280.9z
		 M103.3,280.9H90.4v-11.5h12.9V280.9z M152.7,309.3h-12.9v-11.5h12.9V309.3z M103.3,309.3H90.4v-11.5h12.9V309.3z M152.7,333.5
		v-7.4h-12.9v6.4L152.7,333.5L152.7,333.5z M452.9,162.8v6.6h44.2v-6.6H452.9z M492.8,163.2h3.6v5.8h-3.6L492.8,163.2z M488.4,163.2
		h3.6v5.8h-3.6L488.4,163.2z M484,163.2h3.6v5.8H484V163.2z M479.6,163.2h3.6v5.8h-3.6V163.2z M475.2,163.2h3.7v5.8h-3.6
		L475.2,163.2L475.2,163.2z M470.8,163.2h3.6v5.8h-3.6V163.2z M466.3,163.2h3.6v5.8h-3.6V163.2z M461.9,163.2h3.6v5.8h-3.6V163.2z
		 M457.5,163.2h3.6v5.8h-3.6V163.2z M453.1,163.2h3.6v5.8h-3.6V163.2z M452.9,182v6.6h44.2V182H452.9z M492.8,182.4h3.6v5.7h-3.6
		L492.8,182.4z M488.4,182.4h3.6v5.7h-3.6L488.4,182.4z M484,182.4h3.6v5.7H484V182.4z M479.6,182.4h3.6v5.7h-3.6V182.4z
		 M475.2,182.4h3.7v5.7h-3.6L475.2,182.4L475.2,182.4z M470.8,182.4h3.6v5.7h-3.6V182.4z M466.3,182.4h3.6v5.7h-3.6V182.4z
		 M461.9,182.4h3.6v5.7h-3.6V182.4z M457.5,182.4h3.6v5.7h-3.6V182.4z M453.1,182.4h3.6v5.7h-3.6V182.4z M452.9,201.1v6.6h44.2v-6.6
		H452.9z M492.8,201.5h3.6v5.8h-3.6L492.8,201.5z M488.4,201.5h3.6v5.8h-3.6L488.4,201.5z M484,201.5h3.6v5.8H484V201.5z
		 M479.6,201.5h3.6v5.8h-3.6V201.5z M475.2,201.5h3.7v5.8h-3.6L475.2,201.5L475.2,201.5z M470.8,201.5h3.6v5.8h-3.6V201.5z
		 M466.3,201.5h3.6v5.8h-3.6V201.5z M461.9,201.5h3.6v5.8h-3.6V201.5z M457.5,201.5h3.6v5.8h-3.6V201.5z M453.1,201.5h3.6v5.8h-3.6
		V201.5z M452.9,220.3v6.6h44.2v-6.6H452.9z M492.8,220.7h3.6v5.8h-3.6L492.8,220.7z M488.4,220.7h3.6v5.8h-3.6L488.4,220.7z
		 M484,220.7h3.6v5.8H484V220.7z M479.6,220.7h3.6v5.8h-3.6V220.7z M475.2,220.7h3.7v5.8h-3.6L475.2,220.7L475.2,220.7z
		 M470.8,220.7h3.6v5.8h-3.6V220.7z M466.3,220.7h3.6v5.8h-3.6V220.7z M461.9,220.7h3.6v5.8h-3.6V220.7z M457.5,220.7h3.6v5.8h-3.6
		V220.7z M453.1,220.7h3.6v5.8h-3.6V220.7z M452.9,239.4v6.6h41.6c0.1-0.1,0.1-0.3,0.2-0.4h-1.9v-5.8h3.6v1.4
		c0.2-0.6,0.4-1.2,0.6-1.8H452.9z M488.4,239.8h3.6v5.7h-3.6L488.4,239.8z M484,239.8h3.6v5.7H484V239.8z M479.6,239.8h3.6v5.7h-3.6
		V239.8z M475.2,239.8h3.7v5.7h-3.6L475.2,239.8L475.2,239.8z M470.8,239.8h3.6v5.7h-3.6V239.8z M466.3,239.8h3.6v5.7h-3.6V239.8z
		 M461.9,239.8h3.6v5.7h-3.6V239.8z M457.5,239.8h3.6v5.7h-3.6V239.8z M453.1,239.8h3.6v5.7h-3.6V239.8z M452.9,258.5v6.6h27.7
		c0.2-0.1,0.3-0.3,0.4-0.4h-1.5V259h3.6v3.6l0.8-0.8V259h2.4c0.1-0.1,0.2-0.3,0.3-0.4L452.9,258.5L452.9,258.5z M475.2,258.9h3.7
		v5.8h-3.6L475.2,258.9L475.2,258.9z M470.8,258.9h3.6v5.8h-3.6V258.9z M466.3,258.9h3.6v5.8h-3.6V258.9z M461.9,258.9h3.6v5.8h-3.6
		V258.9z M457.5,258.9h3.6v5.8h-3.6V258.9z M453.1,258.9h3.6v5.8h-3.6V258.9z M452.9,277.7v4c0.1,0,0.1,0,0.2-0.1v-3.5h3.6v2.1
		l0.8-0.3v-1.8h3.6v0.2c0.4-0.2,0.8-0.4,1.3-0.6L452.9,277.7L452.9,277.7z M162.4,177.2L162.4,177.2L162.4,177.2z M189.9,296.5h0.5
		H189.9z M219.3,236.6c0.1-0.3,0.2-0.5,0.2-0.8C219.5,236.1,219.4,236.3,219.3,236.6z M162.4,177.2L162.4,177.2L162.4,177.2z
		 M416.7,116.7v1.7H437v-1.7H416.7z M189.9,296.5h0.5H189.9z M219.3,236.6c0.1-0.3,0.2-0.5,0.2-0.8
		C219.5,236.1,219.4,236.3,219.3,236.6z M162.4,177.2L162.4,177.2L162.4,177.2z M189.9,296.5h0.5H189.9z M219.3,236.6
		c0.1-0.3,0.2-0.5,0.2-0.8C219.5,236.1,219.4,236.3,219.3,236.6z"/>
	<ellipse id="svg_4" style="opacity:0.1;fill:#44A147;enable-background:new    ;" cx="453.1" cy="454" rx="17.4" ry="1.9"/>
	<path id="svg_5" style="fill:#D48A9C;" d="M335.3,310.8l-8.7-0.5l-0.6-24.9l-0.1-5.9l9.1-1.7l0.1,7.6L335.3,310.8L335.3,310.8z"/>
	<path id="svg_6" style="fill:#D48A9C;" d="M328.6,306.5L284,334.2l-1,8.4l4.8,0.2v-6l29.1-16.4L281.9,364v6.7h5.8l-0.5-7.5
		l40.7-46.2l5.1,0.5l42.9,48.7l1,8.2l5.8,0.2l-1-8.4l-34-42.4l22.6,15.7l0.5,6.7l4.6,0.2l-0.5-8.2L331.7,305L328.6,306.5
		L328.6,306.5z"/>
	<path id="svg_7" style="fill:#44A147;" d="M272.6,259.1c4.2-5.2,7.7-11,10.5-17.1c3.1-6.8,6.4-14.6,6.7-16.9
		c0.5-4.3,12.8-13,26.3-13.5c8.8-0.3,22.5-7.2,31-11.9c8-4.5,16.8-7.3,26-8c9.9-0.7,19.2,1.2,14.6,12.7l-63.1,76.4
		c0,0-53.8,9.5-57.1-5.8c-0.2-0.8-0.4-1.5-0.8-2.2C266,271.3,265.8,267.5,272.6,259.1L272.6,259.1z"/>
	<path id="svg_8" style="opacity:0.2;fill:#DDA3A7;enable-background:new    ;" d="M277.4,260.6c4.2-5.3,7.8-11.1,10.6-17.3
		c2.9-6.3,5.9-13.5,6.1-15.6c0.5-4.1,12.2-12.4,25.1-12.9c8.4-0.3,21.5-6.9,29.6-11.4c7.6-4.3,16.1-6.9,24.9-7.6
		c9.5-0.7,18.4,1.1,13.9,12.1l-50,73.3c0,0-61.7,8.8-65-5.7c-0.2-0.8-0.5-1.5-0.8-2.2C271.3,271.8,271.2,268.3,277.4,260.6
		L277.4,260.6z"/>
	<path id="svg_9" style="opacity:0.1;fill:#010101;enable-background:new    ;" d="M335.2,285.5c-2.9,0-6,0-9.1,0l-0.1-5.9l9.1-1.7
		L335.2,285.5L335.2,285.5z"/>
	<g id="svg_10" style="opacity:0.1;">
		<path id="svg_11" style="fill:#010101;" d="M370.3,338l-22.6-15.7l2.6,3.2l20,13.9l0.5,6.7l4.6,0.2l-0.1-1.5l-4.5-0.2L370.3,338z
			 M287.9,335.4v1.4l27-15.2l2.1-2.6L287.9,335.4z M281.9,369.3v1.4h5.8l-0.1-1.4H281.9z M287.9,341.4l-4.7-0.2l-0.2,1.4l4.8,0.2
			L287.9,341.4L287.9,341.4z M376.8,373l-1-8.2l-42.9-48.7l-5.1-0.5l-40.7,46.2l0.1,1.3l40.6-46.1l5.1,0.5l42.9,48.7l1,8.2l5.8,0.2
			l-0.2-1.5L376.8,373L376.8,373z"/>
	</g>
	<path id="svg_12" style="opacity:0.1;fill:#010101;enable-background:new    ;" d="M330,238c0,0,11.3,8.2,6.3,8.3
		C331.4,246.4,330,238,330,238z"/>
	<path id="svg_13" style="fill:#44A147;" d="M282.7,283.1c0,0,18.7-1.4,25.7-14.9c0,0,14.2-28.2,25.8-31.3s33-10.1,41.9-21
		c8.9-10.8,12.6-19.1,12.6-19.1s2.3,8.8-4.9,19.1c-7.2,10.3-9.9,26.3-14.9,43.2c-5.1,16.9-7,23.6-16.1,24.6
		c-6.9,0.7-43.4,0.4-60.8,0C286.2,283.5,282.7,283.1,282.7,283.1L282.7,283.1z"/>
	<path id="svg_14" style="opacity:0.2;fill:#DDA3A7;enable-background:new    ;" d="M282.7,283.1c0,0,18.7-1.4,25.7-14.9
		c0,0,14.2-28.2,25.8-31.3s33-10.1,41.9-21c8.9-10.8,12.6-19.1,12.6-19.1s2.3,8.8-4.9,19.1c-7.2,10.3-9.9,26.3-14.9,43.2
		c-5.1,16.9-7,23.6-16.1,24.6c-6.9,0.7-43.4,0.4-60.8,0C286.2,283.5,282.7,283.1,282.7,283.1L282.7,283.1z"/>
	<path id="svg_15" style="fill:#44A147;" d="M287.4,283.1c0,0,17.8-1.4,24.5-14.5c0,0,13.6-27.3,24.6-30.3c11-3,31.5-9.8,40.1-20.3
		c8.5-10.5,12.1-18.5,12.1-18.5s2.2,8.5-4.7,18.5s-9.4,25.4-14.3,41.7s-6.7,22.9-15.4,23.8c-6.6,0.7-41.5,0.3-58.1,0
		C290.7,283.5,287.4,283.1,287.4,283.1L287.4,283.1z"/>
	<path id="svg_16" style="opacity:0.1;fill:#010101;enable-background:new    ;" d="M273,276.1c0,0,9.8,3.7,15.3,1.7
		c5.5-2,19.3-8.1,19.3-8.1S284.4,271.2,273,276.1z"/>
	<path id="svg_17" style="fill:#E1DEE5;" d="M338.2,451.4c0,0-28-1.5-34.9-5.5s-16.5-4-16.6-4l-111.6-24.3l-46.4-11l-8.3-1.1
		l27.3-31.3l0.8-0.4l40.3-17.4c0,0,18.1,1,21.6,12.8c0.2,0.8,0.4,1.7,0.5,2.5c0.4,3.7-0.6,7.3-2.9,10.3c-1.4,1.9-3.2,4.7-3.7,7.1
		c-0.3,1.4-0.2,2.6,0.5,3.6c1.5,1.5,3.2,2.8,5,4c9.8,6.5,34.7,17.3,78.1,0.8c0,0,18.6-18.3,32.6-10.5
		C334.7,394.7,338.2,451.4,338.2,451.4L338.2,451.4z"/>
	<path id="svg_18" style="opacity:0.1;fill:#010101;enable-background:new    ;" d="M204.5,389.1c-0.3,1.4-0.2,2.6,0.5,3.6
		c1.5,1.5,3.2,2.8,5,4l-84.5,6.3l23.2-29.2l40.3-17.4c0,0,18.1,1,21.6,12.8c0.2,0.8,0.4,1.7,0.5,2.5c0.4,3.7-0.6,7.3-2.9,10.3
		C206.8,383.9,205,386.6,204.5,389.1z"/>
	<path id="svg_19" style="fill:#A46569;" d="M121.9,274l69.2,1.5v82.9L125.4,403l-15.8-14.6l3.3-48.2l-3.3-44.9L121.9,274z"/>
	<path id="svg_20" style="fill:#D9D6DF;" d="M82.5,260.5l80.8-24.9c1.5-0.4,3-0.6,4.5-0.5L361,249.1c16.5,1.1,32.4,6.7,46,16.2
		c12.5,8.8,24.9,22.3,30.6,42.8c4.1,15.1,3.9,31.1-0.8,46.1l-17.1,55.2c0,0,12.8-119.9-114.9-125.9L82.5,260.5L82.5,260.5z"/>
	<path id="svg_21" style="fill:#B87A7D;" d="M125.4,272.3v133.1c0,0-22.2-3.1-26.1-7.4c-3.2-3.5-22-13.5-30.1-23.8
		c-1.8-2.3-3.1-4.5-3.5-6.8C63,355,51.9,325.7,51.9,325.7l3-28.6l12.5-18.6l24.3-11h18.8L125.4,272.3L125.4,272.3z"/>
	<path id="svg_22" style="fill:#D9D6DF;" d="M90.3,274c0,0-36,22.6-28.1,58.9c0.6,3,1.2,5.9,1.6,8.9c1.4,11.8,10.1,45.5,61.7,61.1
		v3.5l-21.9-6.1l-14.9-8.2L77.3,382l-13.9-16.9L57,351.3l-2.4-18.2l-1.4-20.7l3.3-17.8l7.8-11.6l9.5-7.4L90.3,274L90.3,274z"/>
	<path id="svg_23" style="opacity:0.1;fill:#010101;enable-background:new    ;" d="M125.4,272.3v21.2
		c-15.7,1.7-64.3,11.5-55.7,67.7l-0.5,12.9c-1.8-2.3-3.1-4.5-3.5-6.8c-2.7-12.4-13.8-41.6-13.8-41.6l3-28.6l12.5-18.6l24.3-11h18.8
		L125.4,272.3L125.4,272.3z"/>
	<path id="svg_24" style="opacity:0.1;fill:#FFFFFF;enable-background:new    ;" d="M208.2,381.9c-1.4,1.9-3.2,4.7-3.7,7.1
		c-2.2-2.5-2.7-5.4,0.5-7.7c4-2.9,5.3-7.9,5.6-12.3c0.2,0.8,0.4,1.7,0.5,2.5C211.4,375.3,210.4,379,208.2,381.9z"/>
	<path id="svg_25" style="fill:#B87A7D;" d="M410.9,395.4l-9.5,32.4l-21.6,21.1l-27.1,5.5l-42.1-7.5V297.1c0,0,7.3-4.8,8-4.8
		c0.8,0,21.1,3.3,21.1,3.3l46,33l1.9,1.4l20.6,30.6L410.9,395.4z"/>
	<path id="svg_26" style="fill:#A46569;" d="M310.6,290.8v156.1l4.1,0.7V290.8H310.6z"/>
	<path id="svg_27" style="opacity:0.1;fill:#010101;enable-background:new    ;" d="M386.6,339c-30.1-24.7-63.6-28.4-76-28.8v-13
		c0,0,7.3-4.8,8-4.8c0.8,0,21.1,3.3,21.1,3.3l46,33L386.6,339z"/>
	<path id="svg_28" style="fill:#E1DEE5;" d="M304.2,280.8l-188.6-20.6l-21.2-1.1c-13.4-0.8-26.4,4.7-35.2,14.7
		c-11,12.7-19.4,35.1-7.2,73.5c0,0,12.7,49.8,74.3,60.5l178.9,40.5c4,0.9,7.9,2,11.7,3.3c16.2,5.3,71.3,19.2,97.2-27.8
		c8.9-16.1,11.5-34.9,8.1-53C415.9,337.8,392.4,281.7,304.2,280.8L304.2,280.8z M396.6,421.7c-24.2,39.4-74,27.7-89,23
		c-3.7-1.1-7.4-2.1-11.1-2.9l-165.2-35.3c-56.9-9.3-68.7-52.9-68.7-52.9c-9.6-28.6-5.4-47.1,2.4-58.7c8.1-12.2,22.3-19.1,37-18.3
		l19.5,1l168.7,22.5c3.4,0.5,6.8,0.8,10.3,0.9c75,2.5,98.3,43.8,104.3,72.2C408.2,389.8,405.5,407.3,396.6,421.7z"/>
	
		<linearGradient id="svg_29_1_" gradientUnits="userSpaceOnUse" x1="1.2489" y1="500.5221" x2="1.2489" y2="501.0239" gradientTransform="matrix(499.9995 0 0 -539.2375 -498.9953 270267.5313)">
		<stop  offset="0" style="stop-color:#818181;stop-opacity:0.25"/>
		<stop  offset="0.54" style="stop-color:#818181;stop-opacity:0.12"/>
		<stop  offset="1" style="stop-color:#818181;stop-opacity:0.1"/>
	</linearGradient>
	<path id="svg_29" style="fill:url(#svg_29_1_);" d="M2.1,364.6c6.2,4.1,15.6,2.2,15.6,2.2s14.1-6.7,18.3-6.7s14.3-4.1,14.3-4.1
		l-0.3-2.8l-1-8.4c6.4,5,13.6,3.3,17.1,2.9c3.8-0.4,24-12.4,25.9-13.2c0.5-0.2,1.1-0.9,1.8-1.8c1.3-2,2.4-4.1,3.4-6.3
		c1.3-1.1,2.2-2,2.1-2.2c-0.1-0.2,0.5-1.7,1.2-3.3c2.9-0.5,5.3-1.6,6.1-2.2c1.3-1,2.1-2.7,2-4.3c0,0,19.7-19.9,17.1-28.2
		c-2.6-8.3,6.4-8.5,6.4-8.5s13.7-5.9,15.7-9.5c1.2-2.2,11.5-7,19.2-10.3l1-0.4c3,6.6,18.3,1.5,21.3-1.3c3.2-3,12.5-4.3,12.5-4.3
		s0.4-38.6,3.4-43.5c1.4-2.3,1.8-10,1.7-17.3v-0.8c4.2-0.8,14.1-2.7,18.8-3.2c2.9-0.3,6-2.1,8.3-3.9l0.3,0.3
		c0.8,0.3,1.7,0.5,2.5,0.4c0.8,0.1,1.5-0.1,2.2-0.4c1.8-1,8.4-3,10.8-3.9c2.4-1-0.4-8.1-2.2-9.5c-1.8-1.4-3-3.2-2-3.9
		s-2.4-2.8-4.4-3.2c-2-0.4-8-3.2-8-3.2s-2.2-4.5-5.8-4.5s-8.4-3.5-8.4-3.5c-0.2-1.6-4-1.8-4-1.8s-14.3-11-16.7-9.7s-9-2.2-9-2.2
		s-8.1,0.9-10-0.6c0-0.5-0.2-1-0.5-1.3c-0.4-1.3-2.5-3.2-4.5-4.7c0.2-0.9,0.2-1.9,0.2-2.9c0-0.4,0-0.8,0-1.2v-0.2l0.3-2.8
		c0-0.9,0.3-1.8,0.7-2.6c0.3-0.5,0.8-0.9,1.2-1.4c0.1-0.1,0.2-0.2,0.2-0.4l0.1-0.1c0.1-0.1,0.1-0.2,0.2-0.3l0-0.1
		c0.1-0.3,0.2-0.6,0.3-0.8v-0.1c0-0.1,0-0.3,0.1-0.4c0,0,0,0,0-0.1c0.1-1.1-0.1-2.3-0.5-3.4c-0.6-1.9-1.5-3.7-1.6-5.6
		c-0.1-1,0.1-1.9-0.1-2.9c-0.5-2.2-2.7-3.5-4.8-4.4c-2.9-1.2-4.4-2.6-6.8-4.4c-2-1.6-5.3-0.8-7.9-0.6c-5.8,0.4-11.5,2.1-16.9,3.9
		c-2.1,0.7-4.3,1.5-5.9,2.9c-1.1,0.9-1.9,2.2-2.2,3.7c-0.1,0.3-0.1,0.7-0.1,1v0.1c0,0.1,0,0.3,0,0.4c0,0,0,0.1,0,0.1
		c0,0.2,0.1,0.3,0.1,0.5c0.2,0.7,0.7,1.4,0.9,2.1c0.1,0.2,0.1,0.3,0.1,0.5v0.1c0,0.2,0.1,0.3,0.1,0.5c0.2,1.8-0.4,3.7-0.7,5.5
		c0,0.3-0.1,0.5-0.1,0.8c-0.1,1.1,0,2.1,0.3,3.1c0,0,0,0,0,0c0,0.1,0.1,0.3,0.1,0.4c0,0.1,0,0.1,0.1,0.2c0,0.1,0.1,0.2,0.1,0.3
		l0.1,0.2c0,0.1,0.1,0.2,0.1,0.3c0,0.1,0.1,0.2,0.1,0.2c0,0.1,0.1,0.2,0.1,0.2c0,0.1,0.1,0.2,0.1,0.2c0.1,0.1,0.1,0.1,0.2,0.2
		c0.1,0.1,0.1,0.2,0.2,0.2l0.2,0.2l0.2,0.2l0.2,0.2l0.2,0.2c0.1,0,0.1,0.1,0.2,0.1c0.1,0,0.2,0.1,0.3,0.2l0.1,0.1
		c0.2,0.1,0.3,0.2,0.5,0.3c1.1,0.5,2.6,0.7,3.3,1.7c0.2,0.2,0.3,0.5,0.3,0.8v0.4c0,0.6,0,1.2,0.1,1.7c0,0.3,0,0.6,0.1,0.9
		c0,0.2,0.1,0.5,0.2,0.7c0.8,4,2.9,7.5,6,10.1c0.1,0.3,0.1,0.7,0.2,1.1c-1.8,1.3-3.7,2.3-5.8,3c-4.8,1.4-11.5,7.9-11.5,7.9
		s-3.4,24.2-4.2,27.2c-0.8,3-1.4,14.4-1.4,14.4s-0.8,4.7-2,7.1c-0.8,1.7-0.7,8.8,1.7,13.2c-0.4,0.9-0.9,1.7-1.5,2.4
		c-4.8,5.5-19.1,5.3-23.9,5.3c-4.4,0-5.8,2.7-5.9,3.1c-8.8,2.5-37.1,10.6-40.5,12c-4,1.7-6.2,18.9-6.2,18.9s-8.3,28.6-7.9,32.3
		c0.4,3.7-2.8,14.2-2.8,14.2s0,11.8-1.3,12.6c0,0,0,0,0,0c-1.4,0.6-1.2,6.3-1.2,6.3s1,0.3,2.6,0.7c-0.4,2.9-2,6.9-3.2,9.8
		c-0.6-0.8-1.2-1.1-1.6-0.2c-1,2.5-15.9,20.2-19.7,20.2c-1.8,0-4.8,1.5-6.7,3.5C-0.2,359.7-1.1,362.5,2.1,364.6L2.1,364.6z
		 M70.6,262c16.9,1.6,35.1-1.2,35.1-1.2s-1.4,4.9-2.6,6.9c-1.2,2-4.6,13.2-4.6,15.6c0,2.4-5.4,22.7-7,23.6c-0.7,0.4-1.3,1.5-1.7,2.5
		c-0.4,1-0.8,2-1.1,3c0,0.5,0.1,1,0.1,1.5c-1.2,1.1-2.4,2.2-3.6,3.2c-1.1,1-7.1,4-9.5,6.1c-2.4,2.2-13.5,4.8-13.5,4.8
		c-2.8,1.2-5.4,2.6-8,4.1c-3.5,2.1-6.9,4.7-7.8,7.3c0.4-4.4,1-9.7,1.5-13.1l0.6,0c5.6-0.3,4.8-5.7,4.5-7c0-0.2-0.1-0.3-0.1-0.3
		c4-4.3,12.9-36.6,11.8-40.2c-1.2-3.6,1-6.7,1.5-6.7s1.1-3.9,0.1-6.1C65.2,264,70.6,262,70.6,262L70.6,262z M207.6,175.1l-1.1,0.3
		v-0.2C206.5,175.1,206.9,175.1,207.6,175.1L207.6,175.1z M149.7,145.3c-0.2,0.2-0.3,0.4-0.5,0.6l-0.2,0.2V145
		C149.2,145.1,149.5,145.3,149.7,145.3z M129.7,183.6l0.1,1.1c0,0-0.1,0.7-0.3,1.8L129.7,183.6L129.7,183.6z M221.3,172.6l-3.5,0.6
		c0.5-0.2,1-0.4,1.5-0.6c0.3-0.2,0.7-0.3,1.1-0.3c0.4,0,0.9,0.1,1.3,0.3C221.5,172.5,221.4,172.5,221.3,172.6L221.3,172.6z"/>
	<path id="svg_30" style="fill:#EFB7B9;" d="M103.7,314.8c0,0-4,8.3-3.8,8.9c0.2,0.6-8.6,7.6-8.6,7.6l-9.6-6.8l1-4.7
		c0,0,10.8-9.7,11.5-10.8S103.7,314.8,103.7,314.8L103.7,314.8z"/>
	<path id="svg_31" style="fill:#68657E;" d="M49.1,342.8c6.6,6.5,14.5,4.5,18.2,4.1c3.7-0.4,23.6-12.3,25.5-13.1
		c0.5-0.2,1.1-0.9,1.7-1.8c1.3-2,2.4-4.1,3.4-6.2c-0.1,0-6.6,1.9-8.3,0c0,0-2.7-3.4-3.3-3.4c-0.6,0,0-5.9,0-5.9s-7,3.9-9.3,6.1
		c-2.3,2.2-13.3,4.8-13.3,4.8c-2.7,1.2-5.3,2.5-7.9,4.1C50.5,334.7,45.3,339.2,49.1,342.8L49.1,342.8z"/>
	<path id="svg_32" style="opacity:0.1;fill:#010101;enable-background:new    ;" d="M49.1,342.8c6.6,6.5,14.5,4.5,18.2,4.1
		c3.7-0.4,23.6-12.3,25.5-13.1c0.5-0.2,1.1-0.9,1.7-1.8c-2.3-1.4-17.4,8.2-21.7,10c-4.2,1.8-14.9,0.8-21-1.8c-3-1.3,0-5.2,3.9-8.8
		C50.5,334.7,45.3,339.2,49.1,342.8z"/>
	<path id="svg_33" style="fill:#EFB7B9;" d="M49.9,322.5c0,0-2.8,20.9-2.1,23.7s-17.5-9.4-17.5-9.4s6.4-13.1,4.5-16.1
		C33,317.6,49.9,322.5,49.9,322.5z"/>
	<path id="svg_34" style="fill:#454154;" d="M32.5,322.9c0,0,11.3,3.3,17.6,2.9c5.5-0.3,4.7-5.6,4.4-6.9c0-0.2-0.1-0.3-0.1-0.3
		c3.9-4.3,12.7-36.4,11.5-39.9s1-6.6,1.5-6.6s1.1-3.9,0.1-6.1c-1-2.1,4.3-4.1,4.3-4.1c16.6,1.6,34.4-1.2,34.4-1.2s-1.4,4.9-2.5,6.9
		c-1.2,2-4.5,13.1-4.5,15.4c0,2.3-5.3,22.5-6.8,23.5c-0.7,0.4-1.2,1.4-1.7,2.5c-0.4,1-0.8,2-1,3c0.6,13.1,15.4,8,17.6,6.3
		c0.3-0.3,0.6-0.5,0.8-0.9c0.8-1,1.1-2.2,1.1-3.5c0,0,19.4-19.7,16.8-28s6.3-8.4,6.3-8.4s13.5-5.9,15.4-9.4
		c1.2-2.2,11.3-6.9,18.9-10.3c4.8-2.1,8.6-3.6,8.6-3.6l-3.2-11.4l-2.5-9l-4.7-1.8l-15.1-5.7l-27-3.8l-2.5,0.3l-26.2,3.4
		c0,0-38.3,11-42.2,12.7c-3.9,1.7-6.1,18.8-6.1,18.8s-8.2,28.4-7.8,32.1c0.4,3.7-2.7,14-2.7,14s0,11.7-1.3,12.5c0,0,0,0,0,0
		C32.3,317.2,32.5,322.9,32.5,322.9L32.5,322.9z"/>
	<path id="svg_35" style="opacity:0.1;fill:#010101;enable-background:new    ;" d="M71.8,261.9c16.6,1.6,34.4-1.2,34.4-1.2
		c1.2-3.7,17.6-13.9,17.6-13.9C110.3,243.5,71.8,261.9,71.8,261.9z"/>
	<path id="svg_36" style="fill:#454154;" d="M89.6,311.9c0.6,13.1,15.4,8,17.6,6.3c0.3-0.3,0.6-0.5,0.8-0.9
		c-5.2,1.9-14.4,3.4-17.4-8.4C90.2,309.9,89.8,310.9,89.6,311.9L89.6,311.9z M32.5,322.9c0,0,11.3,3.3,17.6,2.9
		c5.5-0.3,4.7-5.6,4.4-6.9c-5.7-0.2-15.6-0.7-20.8-2.3c0,0,0,0,0,0C32.3,317.2,32.5,322.9,32.5,322.9z"/>
	<path id="svg_37" style="opacity:0.1;fill:#010101;enable-background:new    ;" d="M89.6,311.9c0.6,13.1,15.4,8,17.6,6.3
		c0.3-0.3,0.6-0.5,0.8-0.9c-5.2,1.9-14.4,3.4-17.4-8.4C90.2,309.9,89.8,310.9,89.6,311.9L89.6,311.9z M32.5,322.9
		c0,0,11.3,3.3,17.6,2.9c5.5-0.3,4.7-5.6,4.4-6.9c-5.7-0.2-15.6-0.7-20.8-2.3c0,0,0,0,0,0C32.3,317.2,32.5,322.9,32.5,322.9z"/>
	<path id="svg_38" style="fill:#68657E;" d="M4.5,363.8c6.1,4.1,15.3,2.1,15.3,2.1s13.9-6.6,18-6.6s14.1-4.1,14.1-4.1l-0.3-2.8
		l-1.6-13.3c0,0-15.2-0.4-15.8-1.8c0,0-2.7-6.7-3.7-4.2c-1,2.5-15.6,20.1-19.4,20.1c-1.8,0-4.7,1.5-6.6,3.4
		C2.2,358.8,1.3,361.6,4.5,363.8z"/>
	<path id="svg_39" style="opacity:0.1;fill:#010101;enable-background:new    ;" d="M57.1,248.2c0,0,12.7,8,9.2,9.8
		S57.1,248.2,57.1,248.2z M51.8,263.7c0,0,10.9,10.4,6.8,10.7S51.8,263.7,51.8,263.7z M40.1,296.7c0,0,5.6,10.5,3.5,12.3
		C41.5,310.7,40.1,296.7,40.1,296.7L40.1,296.7z M101.3,307.3c-2,2,18.6-6.5,13.9-6.8C110.5,300,101.3,307.3,101.3,307.3z"/>
	<path id="svg_40" style="fill:#EFB7B9;" d="M142.3,160.6l0.7-0.1c2.4-0.4,11.2-1.8,19.2-3.5c1.9-0.4,3.8-0.9,5.5-1.3
		c6.1-1.6,10.1-3.3,7.5-4.7c-3.4-1.9-5.2-5.2-6.2-8.2c-0.1-0.3-0.2-0.6-0.3-0.8c-0.4-1.5-0.7-3-0.8-4.5c0,0-22.1-7.8-17.8,0
		c2.1,3.8,0.7,7-1.3,9.2c-1.4,1.4-3,2.7-4.8,3.5L142.3,160.6L142.3,160.6z"/>
	<path id="svg_41" style="opacity:0.1;fill:#010101;enable-background:new    ;" d="M166,154.5c0,0-7.9,5.7-16,1
		c-8.1-4.7-18.6,41.5-18.6,41.5l-10.9,27c0,0-7.1,5.9,1.7,8.4s28.4-2.5,33.4,4.9c5,7.4,14.4,8.6,15.3,8.6s4.7-28,4.7-28l1-40.5
		L166,154.5L166,154.5z"/>
	<path id="svg_42" style="fill:#F4F6FA;" d="M122.5,230.8c8.8,2.5,28.4-2.5,33.4,4.9c2.1,3,5,5.4,8.4,6.8c2.2,1,4.5,1.6,6.9,1.8
		c0.1,0,0.3-0.5,0.5-1.4c1.4-5.7,4.2-26.6,4.2-26.6l1-40.5l-9.3-20.1l-1.3-2.7c-1.2,0.8-2.6,1.5-4,2c-3.1,1-7.5,1.6-12-1
		c-2.4-1.4-5,1.6-7.4,6.6c-5.9,11.9-11.2,34.9-11.2,34.9l-11,27c-0.3,0.2-0.5,0.5-0.7,0.7C118.5,224.7,115.6,228.8,122.5,230.8z"/>
	<path id="svg_43" style="opacity:0.1;fill:#010101;enable-background:new    ;" d="M164.6,232.2c-0.4,3.4-0.5,6.9-0.3,10.3
		c0.3,4.9,0.9,9.7,1.8,14.6c0.1,0.3,0.1,0.6,0.2,0.9c4.8-2.1,8.6-3.6,8.6-3.6l-3.2-11.4c1.4-5.7,4.2-26.6,4.2-26.6l1-40.5l-9.3-20.1
		c6.1-1.6,10.1-3.3,7.5-4.7c-3.8-2-5.6-5.9-6.4-9c-1.6,2.2-3.5,4.2-5.5,6l-0.1,0.1l-0.7,6.8l-0.2,2.1l-0.5,4.4
		c0,0,2.2,51.4,3.7,54.4c1.6,2.9,0.8,8.6-0.6,15.2C164.7,231.4,164.7,231.8,164.6,232.2L164.6,232.2z"/>
	<path id="svg_44" style="fill:#68657E;" d="M165.6,230.2c-1.4,6.6-0.2,17.6,1.4,26c1.6,8.4,18.2,2.9,21.3,0
		c3.1-2.9,12.3-4.3,12.3-4.3s0.4-38.3,3.3-43.2c1.4-2.3,1.7-9.9,1.7-17.2c0-6.6-0.4-12.9-0.5-15.1c0-0.5,0-0.8,0-0.8
		s12.7-21.5,12.5-23.1c-0.2-1.6-3.9-1.8-3.9-1.8s-14-10.9-16.4-9.6c-2.4,1.4-8.8-2.1-8.8-2.1s-8.2,0.9-9.9-0.7
		c-0.2-0.2-0.3-0.4-0.3-0.7c0.2-2.5-8.3-7.8-8.6-8c7.2,6.5-4.4,16.4-5.8,17.5l-0.1,0.1l-1.4,13.3c0,0,2.2,51.4,3.7,54.4
		C167.8,217.9,167,223.6,165.6,230.2L165.6,230.2z"/>
	<circle id="svg_45" style="fill:#454154;" cx="166.4" cy="174.4" r="1"/>
	<path id="svg_46" style="opacity:0.1;fill:#010101;enable-background:new    ;" d="M164.4,148l5.9,5.7l8.7-14.6
		c-0.2-0.2-0.3-0.4-0.3-0.7c0.2-2.5-8.3-7.8-8.6-8C177.3,137,165.7,146.9,164.4,148z"/>
	<circle id="svg_47" style="opacity:0.1;fill:#010101;enable-background:new    ;" cx="168.3" cy="205.6" r="1"/>
	<circle id="svg_48" style="fill:#454154;" cx="168.3" cy="205.2" r="1"/>
	<path id="svg_49" style="fill:#68657E;" d="M164,147.2l5.9,5.7l8.7-14.6c-0.2-0.2-0.3-0.4-0.3-0.7c0.2-2.5-8.3-7.8-8.6-8
		C176.9,136.2,165.3,146.1,164,147.2z"/>
	<path id="svg_50" style="fill:#D2D9EB;" d="M170.6,202.3l-11.9-0.3c-0.5,0-0.8-0.4-0.8-0.9l0.6-27c0-0.5,0.4-0.8,0.9-0.8l11.9,0.3
		c0.5,0,0.8,0.4,0.8,0.9l-0.6,27C171.4,201.9,171,202.3,170.6,202.3z"/>
	<path id="svg_51" style="fill:#DFE6F4;" d="M170.6,202.9l-11.9-0.3c-0.5,0-0.8-0.4-0.8-0.9l0.6-27c0-0.5,0.4-0.8,0.9-0.8l11.9,0.3
		c0.5,0,0.8,0.4,0.8,0.9l-0.6,27C171.5,202.5,171.1,202.9,170.6,202.9z"/>
	<circle id="svg_52" style="fill:#FFFFFF;" cx="165.4" cy="182.4" r="2.1"/>
	<path id="svg_53" style="opacity:0.1;fill:#010101;enable-background:new    ;" d="M91.7,228.5c4.9,2.2,37-3.5,41.6-4.9
		s11.5-11.9,8.2-19.6s1.2-15.1,1.2-15.1s7-15.1,8.6-18c1.6-2.9,4.8-11.5,5.3-12.9c0-0.3-0.1-0.7-0.3-0.9c-1.3-1.9-6.2-5.3-6.2-5.3
		c-1.4,0.5-1.6-3.5-1.5-6.4c0-1.6,0.1-2.9,0.1-2.9s-0.6,0.7-1.7,1.6c-0.4,0.3-0.8,0.7-1.3,1.1c-1.8,1.5-3.9,2.6-6.1,3.4
		c-4.7,1.4-11.3,7.8-11.3,7.8l2,30c0,0-4.5,28.2-9.2,33.7c-4.7,5.5-18.8,5.3-23.5,5.3C92.9,225.3,91.7,228.5,91.7,228.5L91.7,228.5z
		"/>
	<path id="svg_54" style="fill:#68657E;" d="M91.3,227.3c4.9,2.1,37-3.5,41.6-4.9c4.7-1.4,11.5-11.9,8.2-19.6
		c-3.3-7.6,1.2-15.1,1.2-15.1s7-15.1,8.6-18c1.6-2.9,4.8-11.5,5.3-12.9c0-0.3-0.1-0.6-0.3-0.9c-1.3-1.9-6.2-5.3-6.2-5.3
		c-1.4,0.5-1.6-3.5-1.5-6.4c0-1.6,0.1-2.9,0.1-2.9s-0.6,0.7-1.7,1.6c-0.4,0.3-0.8,0.7-1.3,1.1c-1.8,1.5-3.9,2.6-6.2,3.4
		c-4.7,1.4-11.3,7.8-11.3,7.8l2,30c0,0-4.5,28.2-9.2,33.7c-4.7,5.5-18.8,5.3-23.5,5.3S91.3,227.3,91.3,227.3L91.3,227.3z"/>
	<path id="svg_55" style="opacity:0.1;fill:#010101;enable-background:new    ;" d="M144.5,142.1c0,0,0.2,1,0.5,2.6
		c1.1,5.4,3.6,17.1,5.4,16.6c1.3-0.3,3.5-2.6,5.2-4.6c-1.3-1.9-6.2-5.4-6.2-5.4c-1.4,0.5-1.6-3.5-1.5-6.4l-1.6-1.4L144.5,142.1z"/>
	<path id="svg_56" style="fill:#68657E;" d="M144.9,141.4c0,0,0.2,1,0.5,2.6c1.1,5.4,3.6,17.1,5.4,16.6c1.3-0.3,3.5-2.6,5.2-4.6
		c-1.3-1.9-6.2-5.3-6.2-5.3c-1.4,0.5-1.6-3.5-1.5-6.4l-1.6-1.4L144.9,141.4L144.9,141.4z"/>
	<path id="svg_57" style="fill:#EFB7B9;" d="M132.4,198.9c0,0,9.8-2,12.5-6.3c2.7-4.3,21.4-8,19.1-3.5c-2.3,4.5-19.1,19.2-19.1,19.2
		l-7.3,10.4l-9.7-2.5l-4.1-8L132.4,198.9L132.4,198.9z"/>
	<path id="svg_58" style="opacity:0.1;fill:#010101;enable-background:new    ;" d="M155.5,210.1c0,0-9.5,3.5-10.9,8.2
		S155.5,210.1,155.5,210.1L155.5,210.1z M161.3,215.6c0,0,0.9,4.9-11,4.5L161.3,215.6z M212.5,153l4.3-0.4c0,0,4.7,3.5,8.2,3.5
		s5.7,4.5,5.7,4.5s5.9,2.7,7.8,3.1c2,0.4,5.3,2.3,4.3,3.1s0.2,2.5,2,3.9c1.8,1.4,4.5,8.4,2.1,9.4c-2.4,1-8.8,2.9-10.5,3.9
		c-1.7,1-3.9,0-3.9,0s-10.4-13.5-15.6-10.9c-5.3,2.5-12.5,2.5-12.5,2.5l-5.7-11.9L212.5,153L212.5,153z"/>
	<path id="svg_59" style="fill:#68657E;" d="M122.5,217.3c0.9,1.4,2.1,2.3,3.6,2.5c3.8,0.4,7.7,0.1,11.4-1.1c0,0-19.7-6.3-0.7-21.5
		h-5.1l-1.7-0.6l0.8-4l1.1-36.5l-4.1-1c0,0-3.3,24.1-4.1,27c-0.8,2.9-1.4,14.3-1.4,14.3s-0.8,4.7-2,7
		C119.5,205.2,119.8,213.1,122.5,217.3L122.5,217.3z"/>
	<path id="svg_60" style="opacity:0.1;fill:#010101;enable-background:new    ;" d="M123.3,217.3c0.9,1.4,2.1,2.3,3.6,2.5
		c3.8,0.4,7.7,0.1,11.4-1.1c0,0-19.7-6.3-0.7-21.5h-5.1l-1.7-0.6C128.1,201.6,123.7,210.4,123.3,217.3L123.3,217.3z"/>
	<path id="svg_61" style="fill:none;" d="M122.5,217.3c0.9,1.4,2.1,2.3,3.6,2.5c3.8,0.4,7.7,0.1,11.4-1.1c0,0-19.7-6.3-0.7-21.5
		h-5.1l-1.7-0.6C127.3,201.6,122.9,210.4,122.5,217.3L122.5,217.3z"/>
	<path id="svg_62" style="fill:#68657E;" d="M122.5,217.3c0.9,1.4,2.1,2.3,3.6,2.5c3.8,0.4,7.7,0.1,11.4-1.1c0,0-19.7-6.3-0.7-21.5
		h-5.1l-1.7-0.6C127.3,201.6,122.9,210.4,122.5,217.3L122.5,217.3z"/>
	<path id="svg_63" style="opacity:0.1;fill:#010101;enable-background:new    ;" d="M148.9,146.7c6.8,3.1,14.9,1.6,20.1-3.8
		c-0.1-0.3-0.2-0.6-0.3-0.8c-0.4-1.5-0.7-3-0.8-4.5c0,0-22.1-7.8-17.8,0C152.3,141.4,150.9,144.5,148.9,146.7L148.9,146.7z"/>
	<path id="svg_64" style="fill:#EFB7B9;" d="M138.4,129.7v0.2c0,0.6,0,1.1,0.1,1.7s0.1,1.1,0.2,1.6c1.9,9.6,11.3,15.9,20.9,14
		c6.2-1.2,11.3-5.7,13.3-11.7c0.1-0.3,0.2-0.7,0.3-1c0.4-1.5,0.6-3.1,0.6-4.7c0-0.4,0-0.8,0-1.2c-0.7-9.8-9.2-17.2-19-16.5
		C145.7,112.7,138.5,120.4,138.4,129.7L138.4,129.7z"/>
	<path id="svg_65" style="opacity:0.1;fill:#010101;enable-background:new    ;" d="M138.4,129.9c0.1,0.6,0.1,1.1,0.1,1.7
		c0,0.3,0,0.6,0.1,0.9c0,0.2,0.1,0.5,0.2,0.7c0.7,1.7,3.1,2.8,4.6,1.7c0.6-0.5,1.1-1.1,1.4-1.8c1.6-3.1,3.9-6.6,7.5-6.6
		c1.5,0,3,0.6,4.5,1c1.5,0.4,3.2,0.4,4.3-0.6c0.9-0.8,1.3-2.1,2.4-2.4c1.1-0.3,2.2,0.8,2.7,1.8c0.5,1,0.9,2.2,2,2.8
		c0.5,0.2,1,0.3,1.5,0.6c2.1,1.2,1.1,5.2,3.4,5.9c0.1,0,0.1,0,0.2,0.1c0-0.4,0.1-0.7,0.1-1.1c0.2-2,0.4-4,0.6-6
		c-0.7-9.8-9.2-17.2-19-16.5c-9.3,0.7-16.5,8.4-16.5,17.7L138.4,129.9L138.4,129.9z"/>
	<path id="svg_66" style="fill:#5A5369;" d="M170,103.2c2.1,0.9,4.3,2.3,4.7,4.4c0.2,0.9,0.1,1.9,0.1,2.9c0.1,1.9,1,3.7,1.6,5.6
		s0.8,4-0.4,5.6c-0.4,0.5-0.9,0.9-1.2,1.4c-0.4,0.8-0.7,1.7-0.7,2.6l-1,9.6c-2.5-0.5-1.4-4.8-3.6-6c-0.5-0.3-1-0.3-1.5-0.6
		c-1.1-0.5-1.5-1.7-2-2.8c-0.5-1-1.6-2.1-2.7-1.8c-1.2,0.3-1.5,1.6-2.4,2.4c-1.1,1-2.9,1-4.4,0.6c-1.5-0.4-2.9-1-4.5-1
		c-3.6,0.1-5.9,3.6-7.5,6.6c-0.3,0.7-0.8,1.3-1.4,1.8c-1.7,1.2-4.5-0.3-4.8-2.4c-0.2-1.1,0.2-2.4-0.5-3.4s-2.1-1.2-3.2-1.7
		c-2.9-1.3-3.7-4.9-3.3-7.9c0.3-2.2,1.2-4.4,0.5-6.5c-0.2-0.7-0.7-1.4-0.9-2.1c-0.6-2,0.4-4.2,2-5.7c1.6-1.4,3.7-2.2,5.8-2.9
		c5.3-1.8,10.9-3.5,16.6-3.9c2.5-0.2,5.7-0.9,7.7,0.6C165.7,100.6,167.1,101.9,170,103.2L170,103.2z"/>
	<circle id="svg_67" style="opacity:0.1;fill:#010101;enable-background:new    ;" cx="165.4" cy="158.9" r="1"/>
	<circle id="svg_68" style="fill:#454154;" cx="165.4" cy="158.5" r="1"/>
	<circle id="svg_69" style="opacity:0.1;fill:#010101;enable-background:new    ;" cx="171.6" cy="220.3" r="1"/>
	<circle id="svg_70" style="fill:#454154;" cx="171.6" cy="219.9" r="1"/>
	<circle id="svg_71" style="opacity:0.1;fill:#010101;enable-background:new    ;" cx="168.3" cy="236.5" r="1"/>
	<circle id="svg_72" style="fill:#454154;" cx="168.3" cy="236.1" r="1"/>
	<path id="svg_73" style="opacity:0.1;fill:#010101;enable-background:new    ;" d="M134.7,174.4c0,0-2.2,14.6,0,17.1
		S134.7,174.4,134.7,174.4L134.7,174.4z M198.7,201.5c0,0,4.1,8.8,0,17.3c-4.1,8.5-6.6,11.9-5.3,17.3
		C194.7,241.6,198.7,201.5,198.7,201.5z M4.5,363.8c6.1,4.1,15.3,2.1,15.3,2.1s13.9-6.6,18-6.6s14.1-4.1,14.1-4.1l-0.3-2.8
		c-4,0.8-13.3,2.6-14.3,3.5c-1.4,1.2-18.2,6.8-18.2,6.8s-11.5-1.4-14.6-6.1C2.2,358.8,1.3,361.6,4.5,363.8L4.5,363.8z"/>
	<g id="svg_74" style="opacity:0.1;">
		<path id="svg_75" style="fill:#010101;" d="M174.9,108.8v-0.6V108.8C174.9,108.9,174.9,108.9,174.9,108.8z M134.9,125.5
			c1.1,0.5,2.5,0.7,3.2,1.7c0.7,1,0.3,2.3,0.5,3.4c0.3,2,3.1,3.6,4.8,2.4c0.6-0.5,1.1-1.1,1.4-1.8c1.6-3.1,3.9-6.6,7.5-6.6
			c1.5,0,3,0.6,4.5,1s3.2,0.4,4.4-0.6c0.8-0.8,1.2-2.1,2.4-2.4c1.1-0.3,2.2,0.8,2.7,1.8c0.5,1,0.9,2.2,2,2.8c0.5,0.2,1,0.3,1.5,0.6
			c2.2,1.2,1.1,5.5,3.6,6c0.3-3.2,0.7-6.4,1-9.6c0-0.9,0.3-1.8,0.7-2.6c0.3-0.5,0.8-0.9,1.2-1.4c0.4-0.6,0.7-1.3,0.8-2.1
			c0.2,1.3-0.1,2.6-0.8,3.6c-0.4,0.5-0.9,0.9-1.2,1.4c-0.4,0.8-0.7,1.7-0.7,2.6c-0.3,3.2-0.7,6.4-1,9.6c-2.5-0.5-1.4-4.8-3.6-6
			c-0.5-0.3-1-0.3-1.5-0.6c-1.1-0.5-1.5-1.7-2-2.8c-0.5-1-1.6-2.1-2.7-1.8c-1.2,0.3-1.5,1.6-2.4,2.4c-1.1,1-2.9,1-4.4,0.6
			c-1.5-0.4-2.9-1-4.5-1c-3.6,0.1-5.9,3.6-7.5,6.6c-0.3,0.7-0.8,1.3-1.4,1.8c-1.7,1.2-4.5-0.3-4.8-2.4c-0.2-1.1,0.2-2.4-0.5-3.4
			s-2.1-1.2-3.2-1.7c-2.6-1.2-3.6-4.3-3.4-7.1C131.7,122.3,132.8,124.5,134.9,125.5L134.9,125.5z M131.2,109.1
			c0.2,0.7,0.6,1.4,0.9,2.1c0.3,0.8,0.3,1.7,0.2,2.6c0-0.3-0.1-0.7-0.2-1c-0.2-0.7-0.7-1.4-0.9-2.1c-0.2-0.7-0.2-1.4-0.1-2
			C131.1,108.7,131.2,108.9,131.2,109.1z"/>
	</g>
	<path id="svg_76" style="fill:#756E83;" d="M241.5,270.1l-40.3-5c-0.8-0.1-1.4-0.9-1.3-1.7c0-0.3,0.2-0.6,0.4-0.9l16.9-17.6
		c0.3-0.3,0.8-0.5,1.3-0.5l30.8,3.5c0.8,0.1,1.5,0.9,1.4,1.7c0,0.1,0,0.3-0.1,0.4l-7.4,19.2C242.9,269.8,242.2,270.2,241.5,270.1
		L241.5,270.1z"/>
	<path id="svg_77" style="opacity:0.1;fill:#010101;enable-background:new    ;" d="M241.5,270.1l-40.3-5c-0.8-0.1-1.4-0.9-1.3-1.7
		c0-0.3,0.2-0.6,0.4-0.9l16.9-17.6c0.3-0.3,0.8-0.5,1.3-0.5l30.8,3.5c0.8,0.1,1.5,0.9,1.4,1.7c0,0.1,0,0.3-0.1,0.4l-7.4,19.2
		C242.9,269.8,242.2,270.2,241.5,270.1L241.5,270.1z"/>
	<path id="svg_78" style="fill:#756E83;" d="M241.1,269.7l-40.3-5.1c-0.8-0.1-1.4-0.9-1.3-1.7c0-0.3,0.2-0.6,0.4-0.9l16.9-17.6
		c0.3-0.3,0.8-0.5,1.3-0.5l30.8,3.5c0.8,0.1,1.5,0.9,1.4,1.7c0,0.1,0,0.3-0.1,0.4l-7.4,19.2C242.5,269.3,241.8,269.7,241.1,269.7
		L241.1,269.7z"/>
	<path id="svg_79" style="fill:#D2D9EB;" d="M217.1,251.3l12.1,1l17.3-1.1h-0.3l-16-1.5c-3.7-1.3-1.1-9.3-1.1-9.3l-12.2,0.6l-1,0.1
		C211.5,251.2,217.1,251.3,217.1,251.3L217.1,251.3z"/>
	<path id="svg_80" style="opacity:0.1;fill:#010101;enable-background:new    ;" d="M217.1,251.3l12.1,1l17.3-1.1h-0.3l-17.5,0.6
		l-11.7-1.3c-3.3-0.9-1.4-6.6-0.2-9.5l-1,0.1C211.5,251.2,217.1,251.3,217.1,251.3z"/>
	<path id="svg_81" style="fill:#4D4D57;" d="M195.9,179.3l3.7,53.1l0.5,7c0.1,1.6,1.4,2.8,3,2.8h1.1l55.7-0.3c0.9,0,1.6-0.7,1.6-1.6
		c0,0,0-0.1,0-0.1l-0.5-7l-3.9-46.7c-0.1-1.2-1-2.3-2.1-2.7l-53.1-8c-1.8-0.6-3.6-0.4-4.8,0.6C196.2,177.1,195.7,178.2,195.9,179.3
		L195.9,179.3z"/>
	<path id="svg_82" style="fill:#DFE6F4;" d="M199.6,232.4l0.5,7c0.1,1.6,1.4,2.8,3,2.8h1.1l55.7-0.3c0.9,0,1.6-0.7,1.6-1.6
		c0,0,0-0.1,0-0.1l-0.5-7L199.6,232.4z"/>
	<ellipse id="svg_83" style="fill:#FFFFFF;" cx="236.9" cy="238.2" rx="0.7" ry="1.5"/>
	<path id="svg_84" style="fill:#D2D9EB;" d="M234.8,258.1c0,0-15.2-5.8-19.4-1.6c0,0-0.7,1.3,2.1,1.6l11.2,0.9
		C228.7,259,233.3,259.4,234.8,258.1L234.8,258.1z"/>
	<path id="svg_85" style="fill:#DFE6F4;" d="M234.4,256.6c-3-1.2-12-4.4-17.8-0.9c0,0,6.4-0.7,9.9,1.3c3.5,2,8.3,1.1,8.3,1.1
		l0.1-0.1c0.3-0.5,0.1-1.1-0.4-1.3C234.4,256.6,234.4,256.6,234.4,256.6z M195.9,179.3l4.2,60.1c0.1,1.6,1.4,2.8,3,2.8h1.1
		c-0.8-0.7-1.4-1.6-1.9-2.5c0,0-4.1-60.4-4.4-61.9c-0.1-0.6-0.4-1.1-0.8-1.5C196.2,177.1,195.7,178.2,195.9,179.3L195.9,179.3z"/>
	<path id="svg_86" style="opacity:0.1;fill:#010101;enable-background:new    ;" d="M195.9,179.3l4.2,60.1c0.1,1.6,1.4,2.8,3,2.8
		h1.1c-0.8-0.7-1.4-1.6-1.9-2.5c0,0-4.1-60.4-4.4-61.9c-0.1-0.6-0.4-1.1-0.8-1.5C196.2,177.1,195.7,178.2,195.9,179.3L195.9,179.3z"
		/>
	<path id="svg_87" style="opacity:0.1;fill:#010101;enable-background:new    ;" d="M188.7,196c4.5-1,15.1-4.1,15.1-4.1l1.9-0.4
		c0-6.6-0.4-12.9-0.5-15.1h0c0,0-9,2.9-11.1,4.5c-2.1,1.6-8.8,1.2-8.8,1.2s-10.4,0.6-19,10.2C157.6,201.9,184.2,197,188.7,196
		L188.7,196z"/>
	<path id="svg_88" style="fill:#EFB7B9;" d="M232.6,178.5c1.3,0.6,1.9,2.2,1.3,3.5c-0.2,0.4-0.4,0.7-0.7,0.9c-2.4,2-5.9,4.3-9.2,4.7
		c-5.5,0.6-18.9,3.2-20.2,3.5c-0.1,0-0.1,0-0.2,0.1c-1.1,0.3-10.7,3.1-15,4.1c-4.5,1-31.1,5.9-22.5-3.7c7.9-8.8,17.3-10,18.8-10.2
		c0.1,0,0.2,0,0.3,0c1,0,6.7,0.2,8.6-1.2c1-0.6,2.1-1.2,3.2-1.6c4.3-1.8,8.7-3,13.2-3.8l9.2-1.6c0.5-0.1,1.1,0,1.5,0.2L232.6,178.5
		L232.6,178.5z"/>
	<path id="svg_89" style="fill:#68657E;" d="M213.3,153l4.3-0.4c0,0,4.7,3.5,8.2,3.5s5.7,4.5,5.7,4.5s5.9,2.7,7.8,3.1
		c2,0.4,5.3,2.3,4.3,3.1s0.2,2.5,2,3.9c1.8,1.4,4.5,8.4,2.1,9.4c-2.4,1-8.8,2.9-10.5,3.9c-1.7,1-3.9,0-3.9,0s-10.4-13.5-15.7-11
		c-5.3,2.5-12.5,2.5-12.5,2.5l-5.7-11.9L213.3,153z"/>
	<path id="svg_90" style="fill:#44A147;" d="M470.8,398.9c-0.5,0.7-0.9,1.4-1.1,2.2c-0.1,0.2-0.1,0.4-0.2,0.6
		c-0.1-0.1-0.3-0.1-0.4-0.1c-0.6-0.1-1.2-0.2-1.8-0.2c0-0.2,0-0.5,0-0.7c0.1-2.6-0.2-6.3-2.8-4.8c-2.4,1.5-0.7,4,0.9,5.6l0.4,0.4
		c-1.4,1-1.7,3.4-1.9,5.8s-2.3,5.2-3.7,6.7c-0.1,0.2-0.3,0.3-0.4,0.4c-1.1-0.9-2.6-1.3-4-1l-0.2-0.7c-1.1-4.1-3.5-11.1-6.4-12.6
		c0.1-0.2,0.3-0.3,0.4-0.5c1.3-1.7,2.7-4.1,0.6-4.7s-2.3,2.1-2.2,4.2c0,0.3,0,0.5,0.1,0.7c-0.9,0-1.6,0.4-2.2,1.1l-0.3-0.4
		c-1.7-2-4.8-5.2-5.8-2.8c-0.9,2.2,1.9,5.2,3.8,6.9l0.1,0.1c-1.3,5.3,4.4,9.6,7.4,11.5l0.4,0.2c-4.2,5-6.8,14.3-6.8,14.3l11.8,2.1
		c0,0,7.8-6.8,6.8-13.1h0.1c7.8-1.6,9.6-9.9,8.4-14.9l0.1-0.1c1.4-0.6,2.7-1.5,3.6-2.7C477.6,399.3,473,395.9,470.8,398.9
		L470.8,398.9z"/>
	<path id="svg_91" style="opacity:0.1;fill:#010101;enable-background:new    ;" d="M470.8,398.9c-0.5,0.7-0.9,1.4-1.1,2.2
		c-0.1,0.2-0.1,0.4-0.2,0.6c-0.1-0.1-0.3-0.1-0.4-0.1c-0.6-0.1-1.2-0.2-1.8-0.2c0-0.2,0-0.5,0-0.7c0.1-2.6-0.2-6.3-2.8-4.8
		c-2.4,1.5-0.7,4,0.9,5.6l0.4,0.4c-1.4,1-1.7,3.4-1.9,5.8s-2.3,5.2-3.7,6.7c-0.1,0.2-0.3,0.3-0.4,0.4c-1.1-0.9-2.6-1.3-4-1l-0.2-0.7
		c-1.1-4.1-3.5-11.1-6.4-12.6c0.1-0.2,0.3-0.3,0.4-0.5c1.3-1.7,2.7-4.1,0.6-4.7s-2.3,2.1-2.2,4.2c0,0.3,0,0.5,0.1,0.7
		c-0.9,0-1.6,0.4-2.2,1.1l-0.3-0.4c-1.7-2-4.8-5.2-5.8-2.8c-0.9,2.2,1.9,5.2,3.8,6.9l0.1,0.1c-1.3,5.3,4.4,9.6,7.4,11.5l0.4,0.2
		c-4.2,5-6.8,14.3-6.8,14.3l11.8,2.1c0,0,7.8-6.8,6.8-13.1h0.1c7.8-1.6,9.6-9.9,8.4-14.9l0.1-0.1c1.4-0.6,2.7-1.5,3.6-2.7
		C477.6,399.3,473,395.9,470.8,398.9L470.8,398.9z"/>
	<path id="svg_92" style="fill:#44A147;" d="M447.3,402.3l-1.4,4c0,0-0.8-0.5-1.7-1.4c-1.9-1.7-4.7-4.6-3.8-6.9
		c0.9-2.4,4.1,0.8,5.8,2.8C446.8,401.6,447.3,402.3,447.3,402.3z M450.2,399.9c-0.4,0.6-0.9,1.1-1.4,1.6c-0.1-0.7-0.2-1.4-0.2-2.1
		c-0.1-2.1,0.1-4.8,2.2-4.2C452.9,395.8,451.5,398.3,450.2,399.9z M468,400.6c0,1.3-0.2,2.4-0.2,2.4c-0.6-0.5-1.2-1-1.7-1.5
		c-1.6-1.6-3.3-4.1-0.9-5.6C467.8,394.3,468.1,397.9,468,400.6L468,400.6z M476.1,402.3c-0.9,1.2-2.2,2.2-3.6,2.7
		c-0.4,0.2-0.8,0.3-1.2,0.4l-1.6-2.3c0.2-0.8,0.4-1.5,0.7-2.2c0.3-0.8,0.7-1.5,1.1-2.2C473.7,395.9,478.3,399.3,476.1,402.3
		L476.1,402.3z"/>
	<path id="svg_93" style="opacity:0.1;fill:#010101;enable-background:new    ;" d="M446.1,400.8c0.7,0.8,1.1,1.4,1.1,1.4l-1.4,4
		c0,0-0.8-0.5-1.7-1.4c0.2-1.3,0.7-2.5,1.6-3.5C445.9,401.2,446,401,446.1,400.8L446.1,400.8z M450.2,399.9
		c-0.4,0.6-0.9,1.1-1.4,1.6c-0.1-0.7-0.2-1.4-0.2-2.1C449.2,399.4,449.7,399.6,450.2,399.9z"/>
	<path id="svg_94" style="fill:#44A147;" d="M457,416l-3.4,1.5c-0.6-0.3-1.2-0.7-1.8-1c-3.6-2.2-10.9-7.8-6-14.4
		c4.8-6.6,8.9,5.2,10.5,11C456.7,414.8,457,416,457,416L457,416z"/>
	<path id="svg_95" style="opacity:0.1;fill:#010101;enable-background:new    ;" d="M466.1,401.4c0.5-0.5,1.2-0.8,1.9-0.9
		c0,1.3-0.2,2.4-0.2,2.4C467.2,402.5,466.6,402,466.1,401.4L466.1,401.4z M472.5,405.1c-0.4,0.2-0.8,0.3-1.2,0.4l-1.6-2.3
		c0.2-0.8,0.4-1.5,0.7-2.2C471.4,401.6,472.2,403.1,472.5,405.1L472.5,405.1z"/>
	<path id="svg_96" style="fill:#44A147;" d="M464,420c-0.2,0-0.4,0.1-0.6,0.1c-11.5,1.7-3.8-4.5-3.8-4.5s0.5-0.5,1.2-1.3
		c1.4-1.5,3.5-4.2,3.7-6.7c0.4-3.7,0.8-7.2,5.2-6.2C474.1,402.5,474.9,417.8,464,420z"/>
	<path id="svg_97" style="fill:#D4DFEC;" d="M441.8,448.6h22v5.8h-22V448.6z"/>
	<path id="svg_98" style="fill:#D4DFEC;" d="M438.3,429.8H467V450h-28.7V429.8z"/>
	<path id="svg_99" style="opacity:0.1;fill:#010101;enable-background:new    ;" d="M441.8,448.6h22v5.8h-22V448.6z"/>
	<path id="svg_100" style="opacity:0.1;fill:#010101;enable-background:new    ;" d="M438.3,429.8H467V450h-28.7V429.8z"/>
	<path id="svg_101" style="fill:#D4DFEC;" d="M443.3,448.6h22v5.8h-22V448.6z"/>
	<path id="svg_102" style="opacity:0.1;fill:#010101;enable-background:new    ;" d="M456.2,413.1c0.5,1.7,0.7,2.9,0.7,2.9l-3.4,1.5
		c-0.6-0.3-1.2-0.7-1.8-1C453.1,414.8,454.6,413.5,456.2,413.1L456.2,413.1z M464,420c-0.2,0-0.4,0.1-0.6,0.1
		c-11.5,1.7-3.8-4.5-3.8-4.5s0.5-0.5,1.2-1.3C463,416.1,463.9,418,464,420z"/>
	<path id="svg_103" style="fill:#44A147;" d="M445.3,431c0,0,6.4-23.1,15.5-16c9,7.1-3.7,18.1-3.7,18.1L445.3,431z"/>
	<circle id="svg_104" style="opacity:0.1;fill:#010101;enable-background:new    ;" cx="448.6" cy="405.7" r="0.7"/>
	<circle id="svg_105" style="opacity:0.1;fill:#010101;enable-background:new    ;" cx="448.5" cy="409.1" r="0.7"/>
	<circle id="svg_106" style="opacity:0.1;fill:#010101;enable-background:new    ;" cx="469.4" cy="406.4" r="0.7"/>
	<circle id="svg_107" style="opacity:0.1;fill:#010101;enable-background:new    ;" cx="452.6" cy="423.6" r="0.7"/>
	<circle id="svg_108" style="opacity:0.1;fill:#010101;enable-background:new    ;" cx="467.9" cy="412" r="0.7"/>
	<circle id="svg_109" style="opacity:0.1;fill:#010101;enable-background:new    ;" cx="460.5" cy="419.4" r="0.7"/>
	<circle id="svg_110" style="opacity:0.1;fill:#010101;enable-background:new    ;" cx="451" cy="407.1" r="0.7"/>
	<circle id="svg_111" style="opacity:0.1;fill:#010101;enable-background:new    ;" cx="467.5" cy="408.5" r="0.7"/>
	<circle id="svg_112" style="opacity:0.1;fill:#010101;enable-background:new    ;" cx="465" cy="414.1" r="0.7"/>
	<circle id="svg_113" style="opacity:0.1;fill:#010101;enable-background:new    ;" cx="457.4" cy="423.1" r="0.7"/>
	<circle id="svg_114" style="opacity:0.1;fill:#010101;enable-background:new    ;" cx="455.8" cy="419.5" r="0.7"/>
	<circle id="svg_115" style="opacity:0.1;fill:#010101;enable-background:new    ;" cx="452.1" cy="411.5" r="0.7"/>
	<path id="svg_116" style="opacity:0.1;fill:#010101;enable-background:new    ;" d="M443.3,448.6h22v2.1h-22V448.6z"/>
	<path id="svg_117" style="fill:#D4DFEC;" d="M439.8,429.8h28.7V450h-28.7V429.8z"/>
	<circle id="svg_118" style="opacity:0.1;fill:#010101;enable-background:new    ;" cx="458.4" cy="426.3" r="0.7"/>
	<circle id="svg_119" style="opacity:0.1;fill:#010101;enable-background:new    ;" cx="454" cy="427.3" r="0.7"/>
</g>
</svg>
