<svg xmlns="http://www.w3.org/2000/svg" viewBox="-498 131.6 1002 756.4">
  <path fill="#f2f2f2" d="M-283.3 819.1c45.6 26.3 102.4 32.6 166.7 30.8-2.3-42 29.9-78 71.9-80.3 40.6-2.2 75.8 27.8 80 68.2 81.3-7.9 168.6-15 256.9-5.1C516.9 858 434 420.1 268.6 257.5S-154.5 88.9-306.9 244s-176.6 459.9 23.6 575.1z"/>
  <ellipse cx="40" cy="816.5" fill="#3f3d56" rx="464" ry="71.5"/>
  <path fill="#2f2e41" d="M20.5 607.5s-83-10-93 8-3 33 10 42 85 50 85 50l6 10 13-2 13-12-6-11s-50-30-51-38c0 0 46 21 51 17s61-23 52-34-32-27-32-27l-48-3z"/>
  <path d="M20.5 607.5s-83-10-93 8-3 33 10 42 85 50 85 50l6 10 13-2 13-12-6-11s-50-30-51-38c0 0 46 21 51 17s61-23 52-34-32-27-32-27l-48-3z" opacity=".1"/>
  <path fill="#2f2e41" d="M31.5 708.5s-15-3-12 7 5 30 0 35-21 27-5 29 33-18 33-18 11-32 19-35 16-15 12-18-28-22-30-21-1 12-1 12-8 13-16 9z"/>
  <path fill="#6c63ff" d="M28 671h133v109H28zM-498 502v24.3L-377.7 670h20.4zM-498 316.5v24.3L-222.4 670h20.3zM-64.2 856.3l21.4 11.7 381.3-77 9.7-17.9zM-498 378.3v24.3L-274.2 670h20.4zM-112 307.3V284h-19.5zM-498 625.6V650l16.8 20h20.3zM-277.2 827.5l22.1 10 102.8-28.6 8.4-18.6zM-498 594.7v24.4l42.6 50.9h20.4zM-498 532.9v24.3l94.4 112.8h20.4zM-498 409.2v24.4L-300.1 670h20.4zM-266.4 284h-20.4L-112 492.8v-24.4zM-214.6 284H-235l123 146.9v-24.3zM-162.9 284h-20.3l71.2 85.1v-24.3zM-473.4 284h-20.4l323.1 386h20.4zM-447.5 284h-20.4l323.1 386h20.4zM-395.8 284h-20.4L-112 647.3V623zM-344 284h-20.4L-112 585.5v-24.3zM-318.1 284h-20.4L-112 554.6v-24.3z"/>
  <path fill="#2f2e41" d="M40.5 407.1s1.2 3.9-5.4 7.3-8.5 16.6-.8 20.4 10 8.9 6.2 12.3-10.8 12.7-1.5 15 10.4 6.9 7.7 8.9 6.2-3.5 6.2-3.5 1.5 9.3 9.6 6.9 30.8-46.3 19.3-52.4-41.3-14.9-41.3-14.9z"/>
  <path fill="#ffb9b9" d="M30 495l-37 26s-28-29-28-46-15-49-22-36 8 44 8 44l28 66s16 3 25-4 34-21 34-21l-8-29z"/>
  <circle cx="66.5" cy="423.5" r="28" fill="#ffb9b9"/>
  <path fill="#ffb9b9" d="M52 443s10 26 6 32-9 6-13 8c-2 1-23 9-23 15 .1 3.9 1.1 7.6 3 11l3 17 25 16 33-4 25-14s4-37-7-43-24-20-23-25 2-17 2-17l-31 4z"/>
  <path fill="#ff6584" d="M10 505s15 15 15 17-10 11-3 23 7 42 7 42l24 5 45-4 7-69s-18 3-22 6-15-4-23-4-31-4-31-4l2-8-8-14-13 10z"/>
  <path fill="#2f2e41" d="M66.5 611.5s-101-45-109-16-9 99-9 99-5 48-11 53 0 20 0 20l15 5 14-6 6-16s2-36 10-54 8-60 7-62c0 0 39 48 77 45S110 668 110 668s-18.5-56.5-43.5-56.5z"/>
  <path fill="#2f2e41" d="M-56.5 752.5s-4-14-13-3-50 28-51 30-19 13 2 28 49 0 49 0 24-8 30-7 18-5 19-10-1.4-49-6.7-44.5-11.3 16.5-11.3 16.5-20 5-18-10zM32.5 584.5S27 584 28 597c0 0 34.5 10.5 40.5 19.5s32 36 36 55c0 0 29-7 13-57l-18.8-40.8s-11.2 22.8-66.2 10.8z"/>
  <path fill="#ffb9b9" d="M56 608.8L90 594s16-33 16-49c.2-9.2.9-18.4 2.1-27.5 1.5-11.7-2.8-23.3-11.6-31.1-3.5-3.2-7.4-5.4-11.5-5.4 0 0-12 22-10 42s-3 50-3 50l-45.2 24.2"/>
  <path d="M56 608.8L90 594s16-33 16-49c0-8.3-35-33-33-13s-1 41-1 41l-45.2 24.2" opacity=".1"/>
  <path fill="#ff6584" d="M72 530l3.2 13.5L93 552h15l7-32s-12.4-2.6-18.7.7-21.2 4.1-21.2 4.1L72 530z"/>
  <path fill="#2f2e41" d="M66.7 395.4s1.3 4.3-6 8.1-9.4 18.4-.9 22.6 11.1 9.8 6.8 13.7-12 14.1-1.7 16.7 11.5 7.7 8.5 9.8 6.8-3.8 6.8-3.8 1.7 10.3 10.7 7.7S109 421 99 409c-9.3-11.2-32.3-13.6-32.3-13.6z"/>
  <path fill="#2f2e41" d="M64 391c0-6.3 38.9.6 46.9 9.4 5.6 6.1 14 15.2 6.9 21.6s-8 12.5-2.9 15 15.3 10.4 6.1 15.6-9 10.5-5.6 11.8-7.6-1.9-7.6-1.9 1.1 10.3-8.2 10.3-36-51.4-29.6-65.7c5.9-13.2-6-16.1-6-16.1z"/>
  <path fill="#2f2e41" d="M68.1 389.6C43 388.1 40.5 407 40.5 407c.2 10.9 17.5 5.6 22.3 7.2 5.8-4.2 17-12.1 25-17.7-5.8-4.1-12.7-6.5-19.7-6.9z"/>
  <path fill="#6c63ff" d="M-129.7 356h-20.4L-53 472v-24.3zM-12.1 802.5l-14.1 14.7 311.8 21.2-17.6-16.8zM297 719.5c0 29.3-17.4 39.5-38.9 39.5h-1.5c-1 0-2-.1-3-.1-19.4-1.4-34.4-12.1-34.4-39.3 0-28.2 36-63.7 38.7-66.3l.2-.2s38.9 37.1 38.9 66.4z"/>
  <path fill="#3f3d56" d="M256.8 754.5l14.2-19.9-14.3 22v2.3c-1 0-2-.1-3-.1l1.5-29.3v-.2l.1-2.8-14.3-22.1 14.3 20v.6l1.2-22.1-12.2-22.8 12.4 19 1.2-45.9v-.2.2l-.2 36.2L270 675l-12.2 17.5-.3 19.8 11.4-19-11.4 21.9-.2 11 16.5-26.5-16.6 30.3-.4 24.5z"/>
</svg>