<svg xmlns="http://www.w3.org/2000/svg" viewBox="-882 464.1 155 152.9">
  <path fill="#00dffc" d="M-737.5 597h-119.6c-5.7 0-10.3-4.7-10.3-10.3v-75.3c0-5.7 4.7-10.3 10.3-10.3h119.6c5.7 0 10.3 4.7 10.3 10.3v75.2c0 5.9-4.5 10.4-10.3 10.4z"/>
  <path fill="#2d1582" d="M-751.9 580h-119.6c-5.7 0-10.3-4.7-10.3-10.3v-75.2c0-5.7 4.6-10.4 10.3-10.4h119.6c5.7 0 10.3 4.7 10.3 10.3v75.2c.1 5.9-4.4 10.4-10.3 10.4z"/>
  <path fill="none" stroke="#fff" stroke-linecap="round" stroke-linejoin="round" stroke-miterlimit="10" stroke-width="4" d="M-854.8 551.3H-868M-841.1 560.5H-868M-780.8 549h25.5v11.5h-25.5z" opacity=".7"/>
  <path fill="none" stroke="#fff" stroke-linecap="round" stroke-linejoin="round" stroke-miterlimit="10" stroke-width="4" d="M-755.4 505.1H-868M-755.4 525.5H-868"/>
</svg>