<svg xmlns="http://www.w3.org/2000/svg" x="0" y="0" version="1.1" viewBox="-513 94.5 972.6 830.5" xml:space="preserve">
  <style>
    .st0{fill:#333f4f}.st1{fill:#e1dee5}.st2,.st4{opacity:.1;enable-background:new}.st4,.st5{fill:#6c63ff}.st6{fill:#ffd037}.st7{fill:#65617d}.st8{fill:#9d9cb5}.st9{opacity:.1;fill:#333f4f;enable-background:new}.st10{fill:#3f3d56}.st11{fill:#fbbebe}.st14{fill:#d9d6df}.st16{opacity:.8}.st18{fill:#d3dae1}
  </style>
  <circle cx="50.7" cy="754.6" r="9.4" class="st0"/>
  <circle cx="-116.9" cy="761.3" r="9.4" class="st0"/>
  <circle cx="-154.3" cy="713.3" r="9.4" class="st0"/>
  <path d="M-145.6 912.3s55.9-3 69.5-11 32.9-8 33-8l222.5-48.5 92.5-22 16.5-2.2-54.5-62.4-1.7-.7-80.3-34.8s-36 2-43.1 25.5c-.5 1.7-.8 3.3-1 5.1-.7 7.3 1.3 14.6 5.7 20.5 2.8 3.9 6.3 9.4 7.4 14.3.6 2.7.5 5.3-1 7.2-3 3-6.3 5.6-9.9 7.9-19.6 13-69.1 34.4-155.6 1.6 0 0-37-36.5-65-21s-35 128.5-35 128.5z" class="st1"/>
  <path d="M120.8 788.1c.6 2.7.5 5.3-1 7.2-3 3-6.3 5.6-9.9 7.9l168.4 12.6-46.2-58.3-80.3-34.8s-36 2-43.1 25.5c-.5 1.7-.8 3.3-1 5.1-.7 7.3 1.3 14.6 5.7 20.5 2.8 3.9 6.3 9.4 7.4 14.3z" class="st2"/>
  <path fill="#fff" d="M113.4 773.8c2.8 3.9 6.3 9.4 7.4 14.3 4.4-5 5.3-10.8-1-15.3-7.9-5.7-10.5-15.7-11.1-24.5-.5 1.7-.8 3.3-1 5.1-.7 7.2 1.3 14.5 5.7 20.4z" opacity=".1"/>
  <circle cx="310" cy="187.3" r="21.6" class="st4"/>
  <circle cx="406" cy="240.3" r="17" class="st4"/>
  <circle cx="453.6" cy="158.4" r="6" class="st4"/>
  <path d="M-388.9 784s7.1 9.3-3.3 23.4c-10.4 14.1-19 26-15.6 34.8 0 0 15.7-26.2 28.5-26.5s4.6-16-9.6-31.7z" class="st5"/>
  <path d="M-388.9 784c.6.9 1.1 1.9 1.5 2.9 12.5 14.7 19.1 28.4 7.1 28.7-11.2.3-24.6 20.3-27.8 25.4.1.4.2.8.4 1.2 0 0 15.7-26.2 28.5-26.5s4.5-16-9.7-31.7z" class="st2"/>
  <path d="M-375.6 795.9c0 3.3-.4 5.9-.8 5.9s-.8-2.7-.8-5.9.5-1.7.9-1.7c.4-.1.7-1.6.7 1.7z" class="st6"/>
  <path d="M-371 799.8c-2.9 1.6-5.4 2.5-5.6 2.1s1.9-2 4.8-3.6 1.7-.4 2 0 1.7-.1-1.2 1.5z" class="st6"/>
  <path d="M-426.5 784s-7.1 9.3 3.3 23.4c10.4 14.1 19 26 15.6 34.8 0 0-15.7-26.2-28.5-26.5-12.9-.4-4.5-16 9.6-31.7z" class="st5"/>
  <path d="M-426.5 784c-.6.9-1.1 1.9-1.5 2.9-12.5 14.7-19.1 28.4-7.1 28.7 11.2.3 24.6 20.3 27.8 25.4-.1.4-.2.8-.4 1.2 0 0-15.7-26.2-28.5-26.5-12.8-.4-4.4-16 9.7-31.7z" class="st2"/>
  <path d="M-439.8 795.9c0 3.3.4 5.9.8 5.9s.8-2.7.8-5.9-.5-1.7-.9-1.7c-.4-.1-.7-1.6-.7 1.7z" class="st6"/>
  <path d="M-444.4 799.8c2.9 1.6 5.4 2.5 5.6 2.1s-1.9-2-4.8-3.6-1.7-.4-2 0c-.2.5-1.6-.1 1.2 1.5z" class="st6"/>
  <ellipse cx="-407.8" cy="902.1" class="st4" rx="11.5" ry="74.6" transform="scale(-1) rotate(85.95 968.23 437.658)"/>
  <path d="M-369.3 829.6l-.4 2.9-.5 4.1-.2 1.7-.5 4.1-.2 1.7-.5 4.1-5.7 46.8c-.5 4.2-7.3 7.4-15.6 7.4h-29.7c-8.2 0-15.1-3.3-15.6-7.4l-5.7-46.8-.5-4.1-.2-1.7-.5-4.1-.2-1.7-.5-4.1-.4-2.9c-.3-2.4 3.4-4.4 8.1-4.4h60.7c4.7 0 8.4 2 8.1 4.4z" class="st7"/>
  <path d="M-369.7 832.5l-.5 4.1h-75l-.5-4.1zM-370.4 838.3l-.5 4.1h-73.6l-.5-4.1zM-371.1 844.2l-.5 4.1h-72.2l-.5-4.1z" class="st8"/>
  <path d="M-247.2 124.1c29.2-26 75.1-31.3 116.8-29.3C.7 101.3 119 164.6 221.4 236.2c37 25.9 73.5 53.8 97.6 89.5 49 72.6 34.4 173.3-33.7 233.1-23.2 20.4-51.3 36-80.1 49.8-51.3 24.6-106.6 44.4-164.8 50-41.5 4-83.5.8-124.7-4.8-115.2-15.6-228.3-50.2-323.1-109.3-41.6-25.9-80.8-58.2-97.9-100.1s-6.2-95.1 36.3-120c17.6-10.3 38.5-14.9 59.1-19.3 30.3-6.4 61-12.7 88.3-25.8 28.2-13.5 61.6-39.5 56-69.3-5.9-31.8-10.7-59.9 18.4-85.9z" class="st4"/>
  <path d="M-127.1 373.8v117.6c0 29.1 23.5 52.6 52.6 52.6h70.3c26.1 0 47.3-21.1 47.3-47.2v-123c0-47-38.1-85.1-85.1-85.1-47 .1-85.1 38.2-85.1 85.1z" class="st7"/>
  <path d="M-127.1 373.8v117.6c0 29.1 23.5 52.6 52.6 52.6h70.3c26.1 0 47.3-21.1 47.3-47.2v-123c0-47-38.1-85.1-85.1-85.1-47 .1-85.1 38.2-85.1 85.1z" class="st2"/>
  <path d="M-124.6 375.1v114.1c0 28.2 22.8 51.1 51 51.1H-5.4c25.3 0 45.9-20.5 45.9-45.8V375.1c0-45.6-37-82.5-82.5-82.5-45.6-.1-82.6 36.9-82.6 82.5z" class="st7"/>
  <path d="M-104.1 392v94.9c0 8.6 2.3 17 6.9 24.3 6.9 11 18.5 18.2 31.5 18.2h51.2c12.4 0 23.3-7.3 29.4-18.2 3.4-6.1 5.1-13 5.1-20V392c0-37.9-27.8-68.6-62-68.6-17.1 0-32.6 7.7-43.9 20.1a71.528 71.528 0 00-18.2 48.5z" class="st2"/>
  <circle cx="67.5" cy="717.9" r="9.4" class="st0"/>
  <path d="M-48.4 552h11.8v73.5h-11.8z" class="st0"/>
  <path d="M-48.4 613.6h11.8v11.9h-11.8z" class="st9"/>
  <path d="M-50.6 616.4h16.3v81.5h-16.3z" class="st0"/>
  <path d="M-152.3 697.4l106.7-4.4v17.1h-123.8c2.5-7.3 9.3-12.4 17.1-12.7zM61.2 697.4L-45.6 693v17.1H78.3c-2.5-7.3-9.3-12.4-17.1-12.7z" class="st0"/>
  <path d="M-34.3 694.8l85.2 42c7.4 3.6 12 11.1 12 19.3v1.3L-36.6 714l-14-1-82.7 52.8c-1.1-8 2.4-15.8 8.9-20.5l73.8-52.3 16.3 1.8z" class="st0"/>
  <path d="M-48.4 552v7.9c2 .1 4.1.1 6.3.1 1.8 0 3.7 0 5.5-.1v-8h-11.8z" class="st9"/>
  <ellipse cx="-42.1" cy="544.6" class="st0" rx="43.4" ry="12.7"/>
  <path d="M-85.1 544.6c.1 1.4.8 2.8 1.8 3.7.4.4.9.8 1.4 1.1 6.5 4.6 22 7.9 40.2 7.9s33.8-3.3 40.3-8c.3-.2.6-.5.9-.7 1.3-.9 2.1-2.4 2.2-4 0-7-19.4-12.7-43.4-12.7s-43.4 5.7-43.4 12.7z" class="st0"/>
  <path d="M-85.1 544.6c.1 1.4.8 2.8 1.8 3.7.4.4.9.8 1.4 1.1 6.5 4.6 22 7.9 40.2 7.9s33.8-3.3 40.3-8c.3-.2.6-.5.9-.7 1.3-.9 2.1-2.4 2.2-4 0-7-19.4-12.7-43.4-12.7s-43.4 5.7-43.4 12.7z" class="st9"/>
  <path d="M-85.4 544.6c.1 1.4.8 2.8 1.8 3.7 5.5-1.4 9.3-2.5 9.3-2.5s38.2 2.1 73.3 2.9c1.3-.9 2.1-2.4 2.2-4 0-7-19.4-12.7-43.4-12.7s-43.2 5.6-43.2 12.6z" class="st9"/>
  <path d="M-115.4 518.4c9.5 13.7 25.2 21.9 41.9 21.9h68.1c16 0 30.8-8.3 39.1-21.9h-149.1z" class="st9"/>
  <path d="M-85.1 544.6c.1 1.4.8 2.8 1.8 3.7.4.4.9.8 1.4 1.1 26.8 1.6 53.6 1.6 80.4-.1.3-.2.6-.5.9-.7 1.3-.9 2.1-2.4 2.2-4 0-7-19.4-12.7-43.4-12.7s-43.3 5.7-43.3 12.7z" class="st9"/>
  <path d="M-124.1 543.4c54.7 6.9 110.1 6.9 164.8 0 6.4 0 11.6-5.1 11.6-11.5v-.1c0-6.4-5.2-11.5-11.5-11.5H-124c-6.4 0-11.5 5.2-11.5 11.5-.1 6.5 5.1 11.6 11.4 11.6z" class="st0"/>
  <path d="M27.8 669s11.4 11.6 19.1 12.8 14.1 26.1 3.3 28-31.6-5.8-34.7-9.2-14.1-23-14.1-23l26.4-8.6z" class="st7"/>
  <path d="M-34.9 544.8s27.7 53 28.3 60.2 24.1 37.8 24.1 37.8l-29.4 37.1s-3.9-9.4-10.5-12.8-5.3-10.8-5.3-10.8-6.9 0-11.9-8.3-11.1-16.6-11.1-20.2-36.6-41.3-36.6-41.3l2.8-40.2 7.5-12.8 42.1 11.3z" class="st10"/>
  <path d="M37.2 547.9l.2.2c3.4 3 41.1 36.4 41.1 37.2s13.6 23.3-3.3 42.7-55.7 51.3-55.7 51.3S2.6 691.5.3 694s-35.8 0-15.8-22.7S23.4 623 23.4 623s-33.3-8-35.5-13.6 43.8-74.9 43.8-74.9l5.5 13.4z" class="st2"/>
  <path d="M38.3 547.9l.2.2c3.4 3 41.1 36.4 41.1 37.2s13.6 23.3-3.3 42.7-55.7 51.3-55.7 51.3S3.7 691.5 1.5 694s-35.8 0-15.8-22.7S24.5 623 24.5 623s-33.3-8-35.5-13.6-46-73.5-46-73.5l89.8-1.4 5.5 13.4z" class="st10"/>
  <path d="M-57.6 398.7l3.3 30.2s34.1 13.6 34.9 13.3 22.7-20 19.1-33c-1.8-6.5-2.6-15.6-3-23s-.3-13-.3-13-49.6-17.8-45.2-5.5c1.6 4.4.9 9.7-.7 14.7-1.9 5.7-4.6 11.3-8.1 16.3z" class="st11"/>
  <path d="M-49.4 382.3c.3.4.6.7.9 1 12 12.7 31.8 14 45.3 2.9-.4-7.3-.3-13-.3-13s-49.6-17.8-45.2-5.5c1.6 4.4.9 9.7-.7 14.6z" class="st2"/>
  <path d="M-57.6 359.4c0 18.4 14.9 33.3 33.3 33.3S9 377.8 9 359.4s-14.9-33.2-33.3-33.3c-18.3-.1-33.2 14.6-33.3 32.8v.5z" class="st11"/>
  <path d="M-16.6 430.1s13-28.9 17.5-28.9 11.4 149.4 11.4 149.4l-67.9 1.1-2.8-78.4 13.9-69.5c-.1-.1 12.4 27.3 27.9 26.3z" class="st2"/>
  <path d="M-16.6 432.3s13-28.9 17.5-28.9 11.4 149.4 11.4 149.4l-77.1 1.2 6.4-78.5 13.9-69.5c0-.1 12.4 27.4 27.9 26.3z" class="st2"/>
  <path d="M-16.6 431.2s13-28.9 17.5-28.9 11.4 149.4 11.4 149.4l-77.1 1.2 6.4-78.5 13.9-69.5c0-.1 12.4 27.3 27.9 26.3z" class="st7"/>
  <path d="M-3.9 393.2s2.3-3.4 5.7-2.3S7.6 389 11 392s16.6 7.2 19.1 5.8 11.4 4.7 13.3 8.3 8.3 13.3 8.3 13.3 5.5 6.6 4.7 10.3 1.9 7.8 5.3 9.4 10 18.3 10 18.3-1.8 22.3 5.7 26.1 1.9 20.8 1.9 20.8L43.9 496l-10-22.7s3.9 66.6 8.6 72.6 5.3 10 5.3 10-18.3 3.9-22.2 7.2-14.1-.8-14.1-.8l-10-88.4s-3.6-16.6-3.6-25.2-1.8-55.5-1.8-55.5z" class="st2"/>
  <path d="M-2.8 393.2s2.3-3.4 5.7-2.3S8.7 389 12 392s16.6 7.2 19.1 5.8 11.4 4.7 13.3 8.3 8.3 13.3 8.3 13.3 5.5 6.6 4.7 10.3 1.9 7.8 5.3 9.4 10 18.3 10 18.3-1.8 22.3 5.7 26.1c1.9 1 2.9 3.1 3.5 5.8 2.2 10.9-6.8 20.8-17.8 20.5l-19-7.9-10-28.7s3.9 66.6 8.6 72.6 5.3 10 5.3 10-18.3 3.9-22.2 7.2-14.1-.8-14.1-.8l-10-88.4s-3.6-16.6-3.6-25.2-1.9-55.4-1.9-55.4z" class="st5"/>
  <path d="M58.3 441.4s-3.3 9.1-12.5 8.3 12.5-8.3 12.5-8.3zM49.4 427.5s-6.1 1.1-8.3 6.4 8.3-6.4 8.3-6.4zM32.3 418.1c0 1.1-3.9 20.5 0 28.6s3.3 17.5 3.3 17.5l-3.3-46.1zM-49.6 386.5s-2.2-2.5-4.4-2.3-3.6 1.7-6.4 2.8-9.4 1.4-9.4 2.2-5.8 4.2-9.7 5-16.1 9.1-19.1 25.2-8.3 20.8-8.3 20.8l29.4 14.4S-100.2 551.1-103 558s-3 48-3 48 18 8 22.7 10.5 2.8-23.8 12.5-39.1S-50 540-50 540l16.9-47.4s10.8-63.2 1.7-74.9-19-27-18.2-31.2z" class="st2"/>
  <path d="M-50.7 386.5s-2.2-2.5-4.4-2.3-3.6 1.7-6.4 2.8-9.4 1.4-9.4 2.2-5.8 4.2-9.7 5-16.1 9.1-19.1 25.2-8.3 20.8-8.3 20.8l29.3 14.4s-22.7 96.5-25.5 103.4-3 48-3 48 18 8 22.7 10.5 2.8-23.9 12.5-39.2 20.8-37.4 20.8-37.4l16.9-47.4s10.8-63.2 1.7-74.9-18.9-26.9-18.1-31.1z" class="st5"/>
  <path d="M-110.8 507.9c.8.1 1.9.3 3.1.4 8.9.8 26.3 1 26.3 1s13-25.8 24.1-25c0 0-10.3-11.6-14.4-10.3-.7.2-1.1-.3-1.3-1.3-1.1-5 2.7-22 2.7-22l5.3-23-30.5 7.5c-2.8.6-11.4 5-11.4 5s-.3 11.9-2.5 14.7-4.7 16.1-4.4 19.4-3 18.9.3 23-4.2 9.5 2.7 10.6z" class="st2"/>
  <path d="M3.1 689.5s1.7 9.2-.3 15-1.7 18.6-.3 23 6.1 10.5-6.7 13.3-21.3.3-21.9-1.9-3.3-11.1-1.1-16.1 3-18-1.1-25.5-1.4-19.1 2.5-20.5 10.5-4.4 10.5-4.4-7.2 13-.6 15.8 19 1.3 19 1.3z" class="st7"/>
  <path d="M-57.6 359.4c0 8.5 3.2 16.7 9.1 22.8 0-.1.1-.1.1-.2 1-2.1 1.9-4.3 1.8-6.6-.1-2.8-1.7-5.3-2.2-8.1-.7-3.5.5-7 1.6-10.4.8-2.5 2.4-5.5 5-5.1.5.1 1 .2 1.5.2 1.4-.2 1.7-2 1.8-3.4.9-6.7 5.9-12 12.5-13.2.7-.2 1.5-.1 2.2.1 1 .4 1.5 1.5 2.4 2.1 2.8 2 6.4-1.8 9.8-1.5 2.9.2 4.7 3.2 5.9 5.9s2.7 5.7 5.5 6.3c.5.1.9.1 1.3-.1.9-.6.3-2-.2-3-1.2-2.6-.4-4.7 1-6.6-11.5-14.4-32.4-16.7-46.7-5.2-7.8 6.3-12.4 15.9-12.4 26z" class="st2"/>
  <path fill="#512e4e" d="M.6 344.1c.5 1 1.1 2.4.2 3-.4.2-.9.3-1.3.1-2.8-.6-4.3-3.6-5.5-6.3s-3-5.6-5.9-5.9c-3.4-.3-7 3.4-9.8 1.5-.9-.6-1.4-1.6-2.3-2.1-.7-.3-1.5-.3-2.2-.1-6.6 1.2-11.7 6.5-12.5 13.1-.1 1.4-.4 3.2-1.8 3.4-.5 0-1-.1-1.5-.2-2.6-.3-4.2 2.7-5 5.1-1.1 3.4-2.3 6.9-1.6 10.4.5 2.8 2.1 5.3 2.2 8.1.1 2.3-.9 4.5-1.8 6.6s-2.5 4.6-4.8 4.3c-1.9-.2-2.9-2.2-3.8-3.9s-2.5-3.5-4.3-2.9c-.8.2-1.7.9-2.4.5-.4-.3-.6-.7-.7-1.2-.9-3.9.4-8.2-1.5-11.7-1.5-2.7-4.4-4.1-6.8-6.1-8.4-6.7-9.7-18.9-3-27.3.1-.2.3-.3.4-.5 2.6-3 6.2-5.6 6.5-9.6.2-3-1.9-5.8-1.9-8.8s1.8-5.5 4-7.5c6.3-5.7 14.9-8 23.2-6.1 2.2.5 4.3 1.3 6.5 1 2.5-.3 4.7-2 7-3.2 7.9-3.7 17.3-1.2 22.2 6 2.6 4.1 3.7 9.4 7.6 12.3 2.6 1.9 6.3 2.6 7.7 5.4.8 1.7.6 3.8.3 5.6-.4 3.1-1.9 6-4.2 8.1-2.7 2.7-4.8 5.3-3.2 8.9z"/>
  <g opacity=".1">
    <path d="M-70.1 317.2c-.3-.8-.5-1.5-.6-2.3.2.7.4 1.5.6 2.3zM.1 341.7c-.1-.5-.3-1-.5-1.5-1.6-3.6.5-6.2 2.8-8.6 2.3-2.1 3.8-5 4.2-8.1.1-.8.2-1.7.2-2.6.2.3.4.5.5.8.8 1.7.6 3.8.3 5.6-.4 3.1-1.9 6-4.2 8.1-1.8 2-3.4 3.9-3.3 6.3zM-62.5 374.5c1.8-.5 3.4 1.3 4.3 2.9s1.9 3.7 3.8 3.9c2.3.3 3.8-2.2 4.8-4.3s1.9-4.3 1.8-6.6c0-.3 0-.6-.1-.8.6 1.5 1.1 3.1 1.2 4.7.1 2.3-.9 4.5-1.8 6.6s-2.5 4.6-4.8 4.3c-1.9-.2-2.9-2.2-3.8-3.9s-2.5-3.5-4.3-2.9c-.8.2-1.7.9-2.4.5-.4-.3-.6-.7-.7-1.2-.2-.9-.3-1.8-.3-2.6.7.3 1.5-.4 2.3-.6zM-73.9 356c2.4 1.9 5.3 3.4 6.8 6.1.6 1.2.9 2.4 1 3.8-1.5-2.6-4.3-4-6.7-5.9-3.7-3-6.2-7.2-7-11.9 1.3 3.1 3.3 5.8 5.9 7.9zM-48.9 365.8c-.4-1.1-.8-2.3-1-3.4-.7-3.5.5-7 1.6-10.4.8-2.5 2.4-5.4 5-5.1.5.1 1 .2 1.5.2 1.4-.2 1.7-2 1.8-3.4.9-6.6 5.9-12 12.5-13.1.7-.2 1.5-.1 2.2.1 1 .4 1.5 1.5 2.3 2.1 2.8 2 6.4-1.8 9.8-1.5 2.9.2 4.7 3.2 5.9 5.9s2.7 5.7 5.5 6.3c.4.1.9.1 1.3-.1.3-.2.4-.5.4-.8.1.6.3 1.2.5 1.7.5 1 1.1 2.4.2 3-.4.2-.9.3-1.3.1-2.8-.6-4.3-3.6-5.5-6.3s-3-5.6-5.9-5.9c-3.4-.3-7 3.4-9.8 1.5-.9-.6-1.4-1.6-2.3-2.1-.7-.3-1.5-.3-2.2-.1-6.6 1.2-11.7 6.5-12.5 13.1-.1 1.4-.4 3.2-1.8 3.4-.5 0-1-.1-1.5-.2-2.6-.3-4.2 2.7-5 5.1-1 3.2-2.1 6.6-1.7 9.9z"/>
  </g>
  <path d="M-107.7 508.3c8.9.8 26.3 1 26.3 1s13-25.8 24.1-25c0 0-10.3-11.6-14.4-10.3-.7.2-1.1-.3-1.3-1.3-10.9 3.3-31.6 11.4-33.6 25.7-.6 3.9-1 7.1-1.1 9.9z" class="st2"/>
  <path d="M-108.9 508.3c8.9.8 26.3 1 26.3 1s13-25.8 24.1-25c0 0-10.3-11.6-14.4-10.3-.7.2-1.1-.3-1.3-1.3-10.9 3.3-31.6 11.4-33.6 25.7-.5 3.9-.9 7.1-1.1 9.9z" class="st5"/>
  <path d="M-31 582.5s-25-6.1-28.8-2.8 28.8 2.8 28.8 2.8zM40.6 606.4s-10.5 6.1-11.6 11.1 11.6-11.1 11.6-11.1zM-1.6 718.7s-14.4-2.2-18.1.2 18.1-.2 18.1-.2z" class="st2"/>
  <path d="M285.4 558.8l-138 3V727l131 88.8 31.5-29-6.5-96 6.5-89.5z" class="st7"/>
  <path d="M363.9 531.7l-161.1-49.6c-2.9-.9-6-1.2-9-1l-384.9 28.1c-32.9 2.3-64.6 13.4-91.7 32.3-24.9 17.6-49.6 44.5-61 85.4-8.2 30.1-7.6 62 1.7 91.8l34 110s-25.5-239 229-251l443-46z" class="st14"/>
  <path d="M-290.6 800.7l19 64.5 43 42 54 11 84-15V604.7s-14.5-9.5-16-9.5-42 6.5-42 6.5l-91.7 65.8-3.8 2.7-41 61-5.5 69.5z" class="st7"/>
  <path d="M-90.6 592.3v311l-8.1 1.4V592.3z" class="st7"/>
  <path d="M285.4 558.8l-138 3V727l131 88.8 31.5-29-6.5-96 6.5-89.5zM-90.6 592.3v311l-8.1 1.4V592.3z" class="st2"/>
  <path d="M-242.1 688.3c60-49.3 126.7-56.5 151.5-57.5v-26.1s-14.5-9.5-16-9.5-42 6.5-42 6.5l-91.7 65.8-1.8 20.8z" class="st2"/>
  <path d="M424.9 661.7s-6.2 16.4-12.8 35.4c-5.9 16.9-12.1 36-14.7 47.6-1 4.4-3.5 9-7.1 13.5-16.2 20.5-53.5 40.5-59.9 47.5-7.8 8.6-52 14.8-52 14.8V555.3l29.5-9.5h37.5l48.5 22 25 37 6 56.9z" class="st7"/>
  <path d="M-89.7 506.5c1.9 2.4 60.9 2.9 63.9 2.2l5.5-1.3s28.4 15.3 48-9.7c.8-1.1 1.7-2.2 2.5-3.4 19.5-29.8-45.6-8-45.6-8s-25 .1-31.3.1h-.7c-6.6-.3-19.8-4.3-19.8-4.3s-24.4 22.1-22.5 24.4z" class="st11"/>
  <path d="M-3.7 497.6s25 .1 31.3.2h.2c.8-1.1 1.7-2.2 2.5-3.4 19.5-29.8-45.6-8-45.6-8s-25 .1-31.3.1h-.7c-.6.8-1.3 1.7-1.9 2.6-19.9 29.5 45.5 8.5 45.5 8.5z" class="st2"/>
  <path d="M48.1 500.3s-14.1-4.5-20.5-4.5-31.3-.2-31.3-.2-65.4 21-45.5-8.5c19.9-29.5 50.6-12.6 50.6-12.6l5.5-1.2c3.1-.7 62 .5 63.9 2.9s-22.7 24.1-22.7 24.1z" class="st11"/>
  <path d="M77.3 483.6s-.4 19.2-13.7 20.3c-28 2.3-20.9-8.5-20.9-8.5l2.4-21.5L58.3 462s5.8 2.7 6.5 2.2 12.5 19.4 12.5 19.4zM-111.9 507.9c.8.1 1.9.3 3.1.4 8.9.8 26.3 1 26.3 1s13-25.8 24.1-25c0 0-10.3-11.6-14.4-10.3-.7.2-1.1-.3-1.3-1.3-1.1-5 2.7-22 2.7-22l5.3-23-30.5 7.5c-2.8.6-11.4 5-11.4 5s-.3 11.9-2.5 14.7-4.7 16.1-4.4 19.4-3 18.9.3 23-4.3 9.5 2.7 10.6z" class="st5"/>
  <path d="M-80.6 447.5s-25.5 2.8-26.6 9.1 26.6-9.1 26.6-9.1zM-95.9 472.4c-1.7.6-11.4 3-13.3 8.9s13.3-8.9 13.3-8.9zM-107.7 509.3c8.9.8 26.3 1 26.3 1s13-25.8 24.1-25c0 0-10.3-11.6-14.4-10.3-.7.2-1.1-.3-1.3-1.3-10.9 3.3-31.6 11.4-33.6 25.7-.6 3.9-1 7.2-1.1 9.9z" class="st2"/>
  <path d="M85.9 411v111c0 1.9-1 2.2-2.7 3.1-5.6 3.1-19.5 8.7-36.1-.1-1.7-.9-2.8-1.2-2.8-3.1V411.7s21.1 8.6 41.6-.7z" class="st0"/>
  <ellipse cx="65.1" cy="411" fill="#2d394a" stroke="#40868e" stroke-miterlimit="10" rx="20.8" ry="4.4"/>
  <g class="st16">
    <circle cx="84" cy="457.1" r=".5"/>
    <circle cx="81.6" cy="457.8" r=".5"/>
    <circle cx="78.7" cy="458.7" r=".5"/>
    <circle cx="73.4" cy="459.8" r=".5"/>
    <circle cx="67.9" cy="460.5" r=".5"/>
    <circle cx="62.2" cy="460.8" r=".5"/>
    <circle cx="54" cy="459.6" r=".5"/>
    <circle cx="56.7" cy="460.3" r=".5"/>
    <circle cx="48.9" cy="458.7" r=".5"/>
    <circle cx="51.3" cy="459.2" r=".5"/>
    <circle cx="46.2" cy="457.8" r=".5"/>
    <circle cx="76" cy="459.4" r=".5"/>
    <circle cx="70.6" cy="460.3" r=".5"/>
    <circle cx="64.7" cy="460.8" r=".5"/>
    <circle cx="59.4" cy="460.8" r=".5"/>
  </g>
  <g class="st16">
    <circle cx="84" cy="459.4" r=".5"/>
    <circle cx="81.6" cy="460.1" r=".5"/>
    <circle cx="78.7" cy="461" r=".5"/>
    <circle cx="73.4" cy="462.1" r=".5"/>
    <circle cx="67.9" cy="462.8" r=".5"/>
    <circle cx="62.2" cy="463.1" r=".5"/>
    <circle cx="54" cy="461.9" r=".5"/>
    <circle cx="56.7" cy="462.6" r=".5"/>
    <circle cx="48.9" cy="461" r=".5"/>
    <circle cx="51.3" cy="461.5" r=".5"/>
    <circle cx="46.2" cy="460.1" r=".5"/>
    <circle cx="76" cy="461.7" r=".5"/>
    <circle cx="70.6" cy="462.6" r=".5"/>
    <circle cx="64.7" cy="463.1" r=".5"/>
    <circle cx="59.4" cy="463.1" r=".5"/>
  </g>
  <g class="st16">
    <circle cx="84" cy="461.7" r=".5"/>
    <circle cx="81.6" cy="462.4" r=".5"/>
    <circle cx="78.7" cy="463.3" r=".5"/>
    <circle cx="73.4" cy="464.4" r=".5"/>
    <circle cx="67.9" cy="465.1" r=".5"/>
    <circle cx="62.2" cy="465.4" r=".5"/>
    <circle cx="54" cy="464.2" r=".5"/>
    <circle cx="56.7" cy="464.9" r=".5"/>
    <circle cx="48.9" cy="463.3" r=".5"/>
    <circle cx="51.3" cy="463.8" r=".5"/>
    <circle cx="46.2" cy="462.4" r=".5"/>
    <circle cx="76" cy="464" r=".5"/>
    <circle cx="70.6" cy="464.9" r=".5"/>
    <circle cx="64.7" cy="465.4" r=".5"/>
    <circle cx="59.4" cy="465.4" r=".5"/>
  </g>
  <g class="st16">
    <circle cx="84" cy="464" r=".5"/>
    <circle cx="81.6" cy="464.7" r=".5"/>
    <circle cx="78.7" cy="465.6" r=".5"/>
    <circle cx="73.4" cy="466.7" r=".5"/>
    <circle cx="67.9" cy="467.4" r=".5"/>
    <circle cx="62.2" cy="467.7" r=".5"/>
    <circle cx="54" cy="466.5" r=".5"/>
    <circle cx="56.7" cy="467.2" r=".5"/>
    <circle cx="48.9" cy="465.6" r=".5"/>
    <circle cx="51.3" cy="466.1" r=".5"/>
    <circle cx="46.2" cy="464.7" r=".5"/>
    <circle cx="76" cy="466.3" r=".5"/>
    <circle cx="70.6" cy="467.2" r=".5"/>
    <circle cx="64.7" cy="467.7" r=".5"/>
    <circle cx="59.4" cy="467.7" r=".5"/>
  </g>
  <g class="st16">
    <circle cx="84" cy="466.3" r=".5"/>
    <circle cx="81.6" cy="467" r=".5"/>
    <circle cx="78.7" cy="467.9" r=".5"/>
    <circle cx="73.4" cy="469" r=".5"/>
    <circle cx="67.9" cy="469.7" r=".5"/>
    <circle cx="62.2" cy="470" r=".5"/>
    <circle cx="54" cy="468.8" r=".5"/>
    <circle cx="56.7" cy="469.5" r=".5"/>
    <circle cx="48.9" cy="467.9" r=".5"/>
    <circle cx="51.3" cy="468.4" r=".5"/>
    <circle cx="46.2" cy="467" r=".5"/>
    <circle cx="76" cy="468.6" r=".5"/>
    <circle cx="70.6" cy="469.5" r=".5"/>
    <circle cx="64.7" cy="470" r=".5"/>
    <circle cx="59.4" cy="470" r=".5"/>
  </g>
  <g class="st16">
    <circle cx="84" cy="468.6" r=".5"/>
    <circle cx="81.6" cy="469.3" r=".5"/>
    <circle cx="78.7" cy="470.2" r=".5"/>
    <circle cx="73.4" cy="471.3" r=".5"/>
    <circle cx="67.9" cy="472" r=".5"/>
    <circle cx="62.2" cy="472.2" r=".5"/>
    <circle cx="54" cy="471.1" r=".5"/>
    <circle cx="56.7" cy="471.8" r=".5"/>
    <circle cx="48.9" cy="470.2" r=".5"/>
    <circle cx="51.3" cy="470.7" r=".5"/>
    <circle cx="46.2" cy="469.3" r=".5"/>
    <circle cx="76" cy="470.8" r=".5"/>
    <circle cx="70.6" cy="471.8" r=".5"/>
    <circle cx="64.7" cy="472.2" r=".5"/>
    <circle cx="59.4" cy="472.2" r=".5"/>
  </g>
  <g class="st16">
    <circle cx="84" cy="470.9" r=".5"/>
    <circle cx="81.6" cy="471.5" r=".5"/>
    <circle cx="78.7" cy="472.5" r=".5"/>
    <circle cx="73.4" cy="473.6" r=".5"/>
    <circle cx="67.9" cy="474.3" r=".5"/>
    <circle cx="62.2" cy="474.5" r=".5"/>
    <circle cx="54" cy="473.4" r=".5"/>
    <circle cx="56.7" cy="474.1" r=".5"/>
    <circle cx="48.9" cy="472.5" r=".5"/>
    <circle cx="51.3" cy="472.9" r=".5"/>
    <circle cx="46.2" cy="471.5" r=".5"/>
    <circle cx="76" cy="473.1" r=".5"/>
    <circle cx="70.6" cy="474.1" r=".5"/>
    <circle cx="64.7" cy="474.5" r=".5"/>
    <circle cx="59.4" cy="474.5" r=".5"/>
  </g>
  <g class="st16">
    <circle cx="84" cy="473.2" r=".5"/>
    <circle cx="81.6" cy="473.8" r=".5"/>
    <circle cx="78.7" cy="474.8" r=".5"/>
    <circle cx="73.4" cy="475.9" r=".5"/>
    <circle cx="67.9" cy="476.6" r=".5"/>
    <circle cx="62.2" cy="476.8" r=".5"/>
    <circle cx="54" cy="475.7" r=".5"/>
    <circle cx="56.7" cy="476.4" r=".5"/>
    <circle cx="48.9" cy="474.8" r=".5"/>
    <circle cx="51.3" cy="475.2" r=".5"/>
    <circle cx="46.2" cy="473.8" r=".5"/>
    <circle cx="76" cy="475.4" r=".5"/>
    <circle cx="70.6" cy="476.4" r=".5"/>
    <circle cx="64.7" cy="476.8" r=".5"/>
    <circle cx="59.4" cy="476.8" r=".5"/>
  </g>
  <g class="st16">
    <circle cx="84" cy="475.5" r=".5"/>
    <circle cx="81.6" cy="476.1" r=".5"/>
    <circle cx="78.7" cy="477.1" r=".5"/>
    <circle cx="73.4" cy="478.2" r=".5"/>
    <circle cx="67.9" cy="478.9" r=".5"/>
    <circle cx="62.2" cy="479.1" r=".5"/>
    <circle cx="54" cy="478" r=".5"/>
    <circle cx="56.7" cy="478.7" r=".5"/>
    <circle cx="48.9" cy="477.1" r=".5"/>
    <circle cx="51.3" cy="477.5" r=".5"/>
    <circle cx="46.2" cy="476.1" r=".5"/>
    <circle cx="76" cy="477.7" r=".5"/>
    <circle cx="70.6" cy="478.7" r=".5"/>
    <circle cx="64.7" cy="479.1" r=".5"/>
    <circle cx="59.4" cy="479.1" r=".5"/>
  </g>
  <g class="st16">
    <circle cx="84" cy="477.8" r=".5"/>
    <circle cx="81.6" cy="478.4" r=".5"/>
    <circle cx="78.7" cy="479.4" r=".5"/>
    <circle cx="73.4" cy="480.5" r=".5"/>
    <circle cx="67.9" cy="481.2" r=".5"/>
    <circle cx="62.2" cy="481.4" r=".5"/>
    <circle cx="54" cy="480.3" r=".5"/>
    <circle cx="56.7" cy="481" r=".5"/>
    <circle cx="48.9" cy="479.4" r=".5"/>
    <circle cx="51.3" cy="479.8" r=".5"/>
    <circle cx="46.2" cy="478.4" r=".5"/>
    <circle cx="76" cy="480" r=".5"/>
    <circle cx="70.6" cy="481" r=".5"/>
    <circle cx="64.7" cy="481.4" r=".5"/>
    <circle cx="59.4" cy="481.4" r=".5"/>
  </g>
  <g class="st16">
    <circle cx="84" cy="480.1" r=".5"/>
    <circle cx="81.6" cy="480.7" r=".5"/>
    <circle cx="78.7" cy="481.7" r=".5"/>
    <circle cx="73.4" cy="482.8" r=".5"/>
    <circle cx="67.9" cy="483.5" r=".5"/>
    <circle cx="62.2" cy="483.7" r=".5"/>
    <circle cx="54" cy="482.6" r=".5"/>
    <circle cx="56.7" cy="483.3" r=".5"/>
    <circle cx="48.9" cy="481.7" r=".5"/>
    <circle cx="51.3" cy="482.1" r=".5"/>
    <circle cx="46.2" cy="480.7" r=".5"/>
    <circle cx="76" cy="482.3" r=".5"/>
    <circle cx="70.6" cy="483.3" r=".5"/>
    <circle cx="64.7" cy="483.7" r=".5"/>
    <circle cx="59.4" cy="483.7" r=".5"/>
  </g>
  <g class="st16">
    <circle cx="84" cy="482.4" r=".5"/>
    <circle cx="81.6" cy="483" r=".5"/>
    <circle cx="78.7" cy="484" r=".5"/>
    <circle cx="73.4" cy="485.1" r=".5"/>
    <circle cx="67.9" cy="485.8" r=".5"/>
    <circle cx="62.2" cy="486" r=".5"/>
    <circle cx="54" cy="484.9" r=".5"/>
    <circle cx="56.7" cy="485.6" r=".5"/>
    <circle cx="48.9" cy="484" r=".5"/>
    <circle cx="51.3" cy="484.4" r=".5"/>
    <circle cx="46.2" cy="483" r=".5"/>
    <circle cx="76" cy="484.6" r=".5"/>
    <circle cx="70.6" cy="485.6" r=".5"/>
    <circle cx="64.7" cy="486" r=".5"/>
    <circle cx="59.4" cy="486" r=".5"/>
  </g>
  <g class="st16">
    <circle cx="84" cy="484.7" r=".5"/>
    <circle cx="81.6" cy="485.3" r=".5"/>
    <circle cx="78.7" cy="486.3" r=".5"/>
    <circle cx="73.4" cy="487.4" r=".5"/>
    <circle cx="67.9" cy="488.1" r=".5"/>
    <circle cx="62.2" cy="488.3" r=".5"/>
    <circle cx="54" cy="487.2" r=".5"/>
    <circle cx="56.7" cy="487.9" r=".5"/>
    <circle cx="48.9" cy="486.3" r=".5"/>
    <circle cx="51.3" cy="486.7" r=".5"/>
    <circle cx="46.2" cy="485.3" r=".5"/>
    <circle cx="76" cy="486.9" r=".5"/>
    <circle cx="70.6" cy="487.9" r=".5"/>
    <circle cx="64.7" cy="488.3" r=".5"/>
    <circle cx="59.4" cy="488.3" r=".5"/>
  </g>
  <g class="st16">
    <circle cx="84" cy="487" r=".5"/>
    <circle cx="81.6" cy="487.6" r=".5"/>
    <circle cx="78.7" cy="488.6" r=".5"/>
    <circle cx="73.4" cy="489.7" r=".5"/>
    <circle cx="67.9" cy="490.4" r=".5"/>
    <circle cx="62.2" cy="490.6" r=".5"/>
    <circle cx="54" cy="489.5" r=".5"/>
    <circle cx="56.7" cy="490.1" r=".5"/>
    <circle cx="48.9" cy="488.6" r=".5"/>
    <circle cx="51.3" cy="489" r=".5"/>
    <circle cx="46.2" cy="487.6" r=".5"/>
    <circle cx="76" cy="489.2" r=".5"/>
    <circle cx="70.6" cy="490.1" r=".5"/>
    <circle cx="64.7" cy="490.6" r=".5"/>
    <circle cx="59.4" cy="490.6" r=".5"/>
  </g>
  <g class="st16">
    <circle cx="84" cy="489.3" r=".5"/>
    <circle cx="81.6" cy="489.9" r=".5"/>
    <circle cx="78.7" cy="490.8" r=".5"/>
    <circle cx="73.4" cy="492" r=".5"/>
    <circle cx="67.9" cy="492.6" r=".5"/>
    <circle cx="62.2" cy="492.9" r=".5"/>
    <circle cx="54" cy="491.8" r=".5"/>
    <circle cx="56.7" cy="492.4" r=".5"/>
    <circle cx="48.9" cy="490.8" r=".5"/>
    <circle cx="51.3" cy="491.3" r=".5"/>
    <circle cx="46.2" cy="489.9" r=".5"/>
    <circle cx="76" cy="491.5" r=".5"/>
    <circle cx="70.6" cy="492.4" r=".5"/>
    <circle cx="64.7" cy="492.9" r=".5"/>
    <circle cx="59.4" cy="492.9" r=".5"/>
  </g>
  <g class="st16">
    <circle cx="84" cy="491.5" r=".5"/>
    <circle cx="81.6" cy="492.2" r=".5"/>
    <circle cx="78.7" cy="493.1" r=".5"/>
    <circle cx="73.4" cy="494.3" r=".5"/>
    <circle cx="67.9" cy="494.9" r=".5"/>
    <circle cx="62.2" cy="495.2" r=".5"/>
    <circle cx="54" cy="494.1" r=".5"/>
    <circle cx="56.7" cy="494.7" r=".5"/>
    <circle cx="48.9" cy="493.1" r=".5"/>
    <circle cx="51.3" cy="493.6" r=".5"/>
    <circle cx="46.2" cy="492.2" r=".5"/>
    <circle cx="76" cy="493.8" r=".5"/>
    <circle cx="70.6" cy="494.7" r=".5"/>
    <circle cx="64.7" cy="495.2" r=".5"/>
    <circle cx="59.4" cy="495.2" r=".5"/>
  </g>
  <g class="st16">
    <circle cx="84" cy="493.8" r=".5"/>
    <circle cx="81.6" cy="494.5" r=".5"/>
    <circle cx="78.7" cy="495.4" r=".5"/>
    <circle cx="73.4" cy="496.6" r=".5"/>
    <circle cx="67.9" cy="497.2" r=".5"/>
    <circle cx="62.2" cy="497.5" r=".5"/>
    <circle cx="54" cy="496.4" r=".5"/>
    <circle cx="56.7" cy="497" r=".5"/>
    <circle cx="48.9" cy="495.4" r=".5"/>
    <circle cx="51.3" cy="495.9" r=".5"/>
    <circle cx="46.2" cy="494.5" r=".5"/>
    <circle cx="76" cy="496.1" r=".5"/>
    <circle cx="70.6" cy="497" r=".5"/>
    <circle cx="64.7" cy="497.5" r=".5"/>
    <circle cx="59.4" cy="497.5" r=".5"/>
  </g>
  <g class="st16">
    <circle cx="84" cy="496.1" r=".5"/>
    <circle cx="81.6" cy="496.8" r=".5"/>
    <circle cx="78.7" cy="497.7" r=".5"/>
    <circle cx="73.4" cy="498.9" r=".5"/>
    <circle cx="67.9" cy="499.5" r=".5"/>
    <circle cx="62.2" cy="499.8" r=".5"/>
    <circle cx="54" cy="498.7" r=".5"/>
    <circle cx="56.7" cy="499.3" r=".5"/>
    <circle cx="48.9" cy="497.7" r=".5"/>
    <circle cx="51.3" cy="498.2" r=".5"/>
    <circle cx="46.2" cy="496.8" r=".5"/>
    <circle cx="76" cy="498.4" r=".5"/>
    <circle cx="70.6" cy="499.3" r=".5"/>
    <circle cx="64.7" cy="499.8" r=".5"/>
    <circle cx="59.4" cy="499.8" r=".5"/>
  </g>
  <g class="st16">
    <circle cx="84" cy="498.4" r=".5"/>
    <circle cx="81.6" cy="499.1" r=".5"/>
    <circle cx="78.7" cy="500" r=".5"/>
    <circle cx="73.4" cy="501.2" r=".5"/>
    <circle cx="67.9" cy="501.8" r=".5"/>
    <circle cx="62.2" cy="502.1" r=".5"/>
    <circle cx="54" cy="501" r=".5"/>
    <circle cx="56.7" cy="501.6" r=".5"/>
    <circle cx="48.9" cy="500" r=".5"/>
    <circle cx="51.3" cy="500.5" r=".5"/>
    <circle cx="46.2" cy="499.1" r=".5"/>
    <circle cx="76" cy="500.7" r=".5"/>
    <circle cx="70.6" cy="501.6" r=".5"/>
    <circle cx="64.7" cy="502.1" r=".5"/>
    <circle cx="59.4" cy="502.1" r=".5"/>
  </g>
  <g class="st16">
    <circle cx="84" cy="500.7" r=".5"/>
    <circle cx="81.6" cy="501.4" r=".5"/>
    <circle cx="78.7" cy="502.3" r=".5"/>
    <circle cx="73.4" cy="503.5" r=".5"/>
    <circle cx="67.9" cy="504.1" r=".5"/>
    <circle cx="62.2" cy="504.4" r=".5"/>
    <circle cx="54" cy="503.3" r=".5"/>
    <circle cx="56.7" cy="503.9" r=".5"/>
    <circle cx="48.9" cy="502.3" r=".5"/>
    <circle cx="51.3" cy="502.8" r=".5"/>
    <circle cx="46.2" cy="501.4" r=".5"/>
    <circle cx="76" cy="503" r=".5"/>
    <circle cx="70.6" cy="503.9" r=".5"/>
    <circle cx="64.7" cy="504.4" r=".5"/>
    <circle cx="59.4" cy="504.4" r=".5"/>
  </g>
  <g class="st16">
    <circle cx="84" cy="503" r=".5"/>
    <circle cx="81.6" cy="503.7" r=".5"/>
    <circle cx="78.7" cy="504.6" r=".5"/>
    <circle cx="73.4" cy="505.7" r=".5"/>
    <circle cx="67.9" cy="506.4" r=".5"/>
    <circle cx="62.2" cy="506.7" r=".5"/>
    <circle cx="54" cy="505.6" r=".5"/>
    <circle cx="56.7" cy="506.2" r=".5"/>
    <circle cx="48.9" cy="504.6" r=".5"/>
    <circle cx="51.3" cy="505.1" r=".5"/>
    <circle cx="46.2" cy="503.7" r=".5"/>
    <circle cx="76" cy="505.3" r=".5"/>
    <circle cx="70.6" cy="506.2" r=".5"/>
    <circle cx="64.7" cy="506.7" r=".5"/>
    <circle cx="59.4" cy="506.7" r=".5"/>
  </g>
  <g class="st16">
    <circle cx="84" cy="505.3" r=".5"/>
    <circle cx="81.6" cy="506" r=".5"/>
    <circle cx="78.7" cy="506.9" r=".5"/>
    <circle cx="73.4" cy="508" r=".5"/>
    <circle cx="67.9" cy="508.7" r=".5"/>
    <circle cx="62.2" cy="509" r=".5"/>
    <circle cx="54" cy="507.8" r=".5"/>
    <circle cx="56.7" cy="508.5" r=".5"/>
    <circle cx="48.9" cy="506.9" r=".5"/>
    <circle cx="51.3" cy="507.4" r=".5"/>
    <circle cx="46.2" cy="506" r=".5"/>
    <circle cx="76" cy="507.6" r=".5"/>
    <circle cx="70.6" cy="508.5" r=".5"/>
    <circle cx="64.7" cy="509" r=".5"/>
    <circle cx="59.4" cy="509" r=".5"/>
  </g>
  <g class="st16">
    <circle cx="84" cy="507.6" r=".5"/>
    <circle cx="81.6" cy="508.3" r=".5"/>
    <circle cx="78.7" cy="509.2" r=".5"/>
    <circle cx="73.4" cy="510.3" r=".5"/>
    <circle cx="67.9" cy="511" r=".5"/>
    <circle cx="62.2" cy="511.3" r=".5"/>
    <circle cx="54" cy="510.1" r=".5"/>
    <circle cx="56.7" cy="510.8" r=".5"/>
    <circle cx="48.9" cy="509.2" r=".5"/>
    <circle cx="51.3" cy="509.7" r=".5"/>
    <circle cx="46.2" cy="508.3" r=".5"/>
    <circle cx="76" cy="509.9" r=".5"/>
    <circle cx="70.6" cy="510.8" r=".5"/>
    <circle cx="64.7" cy="511.3" r=".5"/>
    <circle cx="59.4" cy="511.3" r=".5"/>
  </g>
  <g class="st16">
    <circle cx="84" cy="509.9" r=".5"/>
    <circle cx="81.6" cy="510.6" r=".5"/>
    <circle cx="78.7" cy="511.5" r=".5"/>
    <circle cx="73.4" cy="512.6" r=".5"/>
    <circle cx="67.9" cy="513.3" r=".5"/>
    <circle cx="62.2" cy="513.6" r=".5"/>
    <circle cx="54" cy="512.4" r=".5"/>
    <circle cx="56.7" cy="513.1" r=".5"/>
    <circle cx="48.9" cy="511.5" r=".5"/>
    <circle cx="51.3" cy="512" r=".5"/>
    <circle cx="46.2" cy="510.6" r=".5"/>
    <circle cx="76" cy="512.2" r=".5"/>
    <circle cx="70.6" cy="513.1" r=".5"/>
    <circle cx="64.7" cy="513.6" r=".5"/>
    <circle cx="59.4" cy="513.6" r=".5"/>
  </g>
  <path d="M188.1 497.9l27.4 1.4-45.1 14.2-23-1.4z" class="st2"/>
  <path fill="#fff" d="M188.1 496.7l27.3 1.4-45 14.2-23.1-1.4z"/>
  <path d="M184.9 499.8c1.1-.5 2.2.4 3.4.6.7.1 1.3 0 2 .1 1.3.2 2.7 1 4 .6l-9.4-1.3zM183.5 500.6c1.1-.5 2.2.4 3.4.6.7.1 1.3 0 2 .1 1.3.2 2.7 1 4 .6l-9.4-1.3zM180.3 502.3c1.1-.5 2.2.4 3.4.6.7.1 1.3 0 2 .1 1.3.2 2.7 1 4 .6l-9.4-1.3z" class="st18"/>
  <path d="M249.4 492.5s-3.4 15.9 11.8 17.8l.9-1.8c0 .1-11.8-11-12.7-16z" class="st5"/>
  <path d="M266.9 508.5l-3.5.8-.3.1s-9.4-7.7-9.3-24.8c1.3 2.5 2.8 4.9 4.5 7.1 3.7 4.9 7.9 11.5 8.6 16.8z" class="st5"/>
  <path d="M268.1 510.1c-.6.4-1.3.5-1.9.2-9.1-2.1-6-31.7-6-31.7.5.2 1 4 3.1 8.9 3.7 8.5 7.8 20.5 4.8 22.6zM288.3 492.5s.6 15.9-14.6 17.8l-.9-1.8c-.1.1 14.5-11 15.5-16z" class="st5"/>
  <path d="M283.9 484.5c.1 17.1-12.1 24.8-12.1 24.8l-.4-.1-3.5-.8c.7-5.3 5-11.9 8.7-16.8 2.1-2.6 4.6-5 7.3-7.1z" class="st5"/>
  <path d="M271.4 508.5c-.5.7-1.2 1.2-2 1.5-.2.1-.5.2-.8.2-2.2.5-3-1.1-2.9-3.8.2-4.9 3.3-13.3 6-19.6 1.3-3.1 3.3-5.9 5.7-8.2 0 0-.1 23.1-6 29.9z" class="st5"/>
  <path d="M268.8 468.3s-10.1 36-1.4 41.4 3.7-38.3 1.4-41.4z" class="st5"/>
  <path d="M249.4 492.5s-3.4 15.9 11.8 17.8l.9-1.8c0 .1-11.8-11-12.7-16z" class="st2"/>
  <path d="M266.9 508.5l-3.5.8-.3.1s-9.4-7.7-9.3-24.8c1.3 2.5 2.8 4.9 4.5 7.1 3.7 4.9 7.9 11.5 8.6 16.8z" class="st2"/>
  <path d="M268.1 510.1c-.6.4-1.3.5-1.9.2-9.1-2.1-6-31.7-6-31.7.5.2 1 4 3.1 8.9 3.7 8.5 7.8 20.5 4.8 22.6zM288.3 492.5s.6 15.9-14.6 17.8l-.9-1.8c-.1.1 14.5-11 15.5-16z" class="st2"/>
  <path d="M283.9 484.5c.1 17.1-12.1 24.8-12.1 24.8l-.4-.1-3.5-.8c.7-5.3 5-11.9 8.7-16.8 2.1-2.6 4.6-5 7.3-7.1z" class="st2"/>
  <path d="M271.4 508.5c-.5.7-1.2 1.2-2 1.5-.2.1-.5.2-.8.2-2.2.5-3-1.1-2.9-3.8.2-4.9 3.3-13.3 6-19.6 1.3-3.1 3.3-5.9 5.7-8.2 0 0-.1 23.1-6 29.9z" class="st2"/>
  <path d="M268.8 468.3s-10.1 36-1.4 41.4 3.7-38.3 1.4-41.4z" class="st2"/>
  <path d="M249.4 492.5s-2 15.9 13.2 17.8l.9-1.8c0 .1-13.2-11-14.1-16z" class="st5"/>
  <path d="M268.4 508.5l-3.5.8-.3.1s-10.8-7.7-10.7-24.8c0 0 2.8 3 5.9 7.1 3.6 4.9 7.8 11.5 8.6 16.8z" class="st5"/>
  <path d="M268.4 508.5l-3.5.8c-3.3-3-4.7-10.6-5.2-17.6 3.7 4.9 7.9 11.5 8.7 16.8z" class="st2"/>
  <path d="M269.6 510.1c-.6.4-1.3.5-1.9.2-9.1-2.1-7.4-31.7-7.4-31.7.5.2 2.5 4 4.5 8.9 3.6 8.5 7.7 20.5 4.8 22.6zM288.3 492.5s2 15.9-13.2 17.8l-.9-1.8c-.1.1 13.1-11 14.1-16z" class="st5"/>
  <path d="M283.9 484.5c.1 17.1-10.7 24.8-10.7 24.8l-.3-.1-3.5-.8c.7-5.3 5-11.9 8.7-16.8 3-4.1 5.8-7.1 5.8-7.1z" class="st5"/>
  <path d="M278 491.6c-.5 6.5-1.6 13.6-4.5 16.9-.2.2-.4.5-.7.7l-3.5-.8c.7-5.2 5-11.8 8.7-16.8z" class="st2"/>
  <path d="M272.8 508.5c-.5.7-1.2 1.2-2 1.5-.2.1-.5.2-.7.2-2.2.5-3-1.1-2.9-3.8.2-4.9 3.3-13.3 6-19.6 2-4.6 3.8-8 4.3-8.2-.1 0 1.2 23.1-4.7 29.9z" class="st5"/>
  <path d="M269.6 510.1c-.5 0-1-.2-1.4-.5-4.3-2.7-4.4-12.6-3.3-22.1 3.5 8.5 7.6 20.5 4.7 22.6z" class="st2"/>
  <path d="M272.8 508.5c-.5 1.1-1.2 1.6-2 1.5-.4-.1-.8-.2-1.2-.5-1.1-.8-2-1.9-2.4-3.1.2-4.9 3.3-13.3 6-19.6.9 8.8 1.2 18.2-.4 21.7z" class="st2"/>
  <path d="M268.8 468.3s-8.7 36 0 41.4 2.3-38.3 0-41.4z" class="st5"/>
  <path d="M282.5 511.4l-.6 3.2-2.2 11.7h-21.1l-2.3-11.7-.6-3.2z" class="st7"/>
  <path d="M282.5 511.4l-.6 3.2h-25.6l-.6-3.2z" class="st2"/>
  <path d="M250.7 507.9H287v6h-36.3z" class="st7"/>
  <path d="M348.4 558.7s71.8 45 56.1 117.4c-1.3 5.9-2.4 11.8-3.1 17.8-2.9 23.5-20.1 90.8-122.9 121.8v7l43.6-12.2 29.6-16.3 22.6-20.3 27.6-33.7 12.8-27.5 4.7-36.2 2.7-41.4-6.6-35.4-15.6-23.1-19-14.8-32.5-3.1z" class="st14"/>
  <path d="M-313 751.9c-6.8 36-1.5 73.5 16.2 105.6 51.6 93.6 161.3 66.1 193.6 55.5 7.7-2.5 15.5-4.7 23.4-6.5l356.4-80.8c122.7-21.3 148-120.7 148-120.7 24.3-76.6 7.6-121.3-14.3-146.6-17.6-20.1-43.5-30.9-70.2-29.3l-42.3 2.2-375.8 41c-175.7 1.8-222.6 113.7-235 179.6zm34.8 4.5c11.9-56.7 58.3-138.8 207.8-143.9 6.9-.2 13.7-.8 20.5-1.8l336.1-44.9 38.9-2c29.2-1.5 57.5 12.1 73.7 36.5 15.5 23.3 23.8 60 4.7 117.1 0 0-23.4 86.7-136.9 105.3l-329.2 70.5c-7.5 1.6-14.9 3.6-22.2 5.8-29.9 9.2-129.1 32.6-177.4-45.9-17.6-28.8-22.9-63.6-16-96.7z" class="st1"/>
</svg>