<svg id="Layer_1" xmlns="http://www.w3.org/2000/svg" viewBox="96 -150 512 480"><style>.st2{fill:#cad1d8}.st4{fill:#118f47}.st5{fill:#bd6428}.st6{fill:#fff}</style><path d="M592-150H112c-8.8 0-16 7.2-16 16v448c0 8.8 7.2 16 16 16h480c8.8 0 16-7.2 16-16v-448c0-8.8-7.2-16-16-16zm0 456c0 4.4-3.6 8-8 8H120c-4.4 0-8-3.6-8-8V-78c0-4.4 3.6-8 8-8h464c4.4 0 8 3.6 8 8v384z" fill="#cad0d7"/><g id="Layer_2"><path d="M504-22H383c-4.4 0-8-3.6-8-8s3.6-8 8-8h121c4.4 0 8 3.6 8 8s-3.6 8-8 8z" fill="#595a66"/><path class="st2" d="M505 26H384c-4.4 0-8-3.6-8-8s3.6-8 8-8h121c4.4 0 8 3.6 8 8s-3.6 8-8 8zM505 90H384c-4.4 0-8-3.6-8-8s3.6-8 8-8h121c4.4 0 8 3.6 8 8s-3.6 8-8 8zM559 58H384c-4.4 0-8-3.6-8-8s3.6-8 8-8h175c4.4 0 8 3.6 8 8s-3.6 8-8 8zM536 122H384c-4.4 0-8-3.6-8-8s3.6-8 8-8h152c4.4 0 8 3.6 8 8s-3.6 8-8 8zM536 154H384c-4.4 0-8-3.6-8-8s3.6-8 8-8h152c4.4 0 8 3.6 8 8s-3.6 8-8 8zM464 186h-80c-4.4 0-8-3.6-8-8s3.6-8 8-8h80c4.4 0 8 3.6 8 8s-3.6 8-8 8z"/><g><path d="M512 274H400c-13.3 0-24-10.7-24-24s10.7-24 24-24h112c13.3 0 24 10.7 24 24s-10.7 24-24 24z" fill="#3cb54a"/><path class="st4" d="M424 258c-4.4 0-8-3.6-8-8s3.6-8 8-8 8 3.6 8 8-3.6 8-8 8zM456 258c-4.4 0-8-3.6-8-8s3.6-8 8-8 8 3.6 8 8-3.6 8-8 8zM488 258c-4.4 0-8-3.6-8-8s3.6-8 8-8 8 3.6 8 8-3.6 8-8 8z"/></g><g><path class="st5" d="M328 122H152c-4.4 0-8-3.6-8-8V-30c0-4.4 3.6-8 8-8h176c4.4 0 8 3.6 8 8v144c0 4.4-3.6 8-8 8z"/><path class="st6" d="M280 2h-16c-4.4 0-8 3.6-8 8v8h-40c-4.4 0-8 3.6-8 8v24c0 4.4 3.6 8 8 8h48c4.4 0 8-3.6 8-8V18h8c4.4 0 8-3.6 8-8s-3.6-8-8-8zM224 82c-4.4 0-8-3.6-8-8s3.6-8 8-8 8 3.6 8 8-3.6 8-8 8zM256 82c-4.4 0-8-3.6-8-8s3.6-8 8-8 8 3.6 8 8-3.6 8-8 8z"/><g><path class="st5" d="M184 138h-32c-4.4 0-8 3.6-8 8v32c0 4.4 3.6 8 8 8h32c4.4 0 8-3.6 8-8v-32c0-4.4-3.6-8-8-8zm-16 32c-4.4 0-8-3.6-8-8s3.6-8 8-8 8 3.6 8 8-3.6 8-8 8zM256 138h-32c-4.4 0-8 3.6-8 8v32c0 4.4 3.6 8 8 8h32c4.4 0 8-3.6 8-8v-32c0-4.4-3.6-8-8-8zm-16 32c-4.4 0-8-3.6-8-8s3.6-8 8-8 8 3.6 8 8-3.6 8-8 8zM328 138h-32c-4.4 0-8 3.6-8 8v32c0 4.4 3.6 8 8 8h32c4.4 0 8-3.6 8-8v-32c0-4.4-3.6-8-8-8zm-16 32c-4.4 0-8-3.6-8-8s3.6-8 8-8 8 3.6 8 8-3.6 8-8 8z"/></g></g></g><path d="M586-110H214c-3.3 0-6-2.7-6-6v-4c0-3.3 2.7-6 6-6h372c3.3 0 6 2.7 6 6v4c0 3.3-2.7 6-6 6z" fill="#e1e6e9"/><path d="M120-110c-4.4 0-8-3.6-8-8s3.6-8 8-8 8 3.6 8 8-3.6 8-8 8zm40-8c0-4.4-3.6-8-8-8s-8 3.6-8 8 3.6 8 8 8 8-3.6 8-8zm32 0c0-4.4-3.6-8-8-8s-8 3.6-8 8 3.6 8 8 8 8-3.6 8-8z" fill="#99a5ad"/></svg>