<?xml version="1.0" encoding="utf-8"?>
<!-- Generator: Adobe Illustrator 19.0.0, SVG Export Plug-In . SVG Version: 6.00 Build 0)  -->
<svg version="1.1" id="Layer_1" xmlns="http://www.w3.org/2000/svg" xmlns:xlink="http://www.w3.org/1999/xlink" x="0px" y="0px"
	 viewBox="6 -6 512 512" style="enable-background:new 6 -6 512 512;" xml:space="preserve">
<style type="text/css">
	.st0{fill:#B7B7B7;}
	.st1{fill:#33BFC1;}
	.st2{fill:#B23939;}
</style>
<path class="st0" d="M26,132h113c4.3,0,8.1,2.7,9.5,6.8l85.5,252c2.2,6.5-2.6,13.2-9.5,13.2H111.6c-4.3,0-8.1-2.7-9.5-6.8l-85.7-252
	C14.3,138.7,19.1,132,26,132z"/>
<path class="st1" d="M509.6,132h-114c-4.3,0-8,2.7-9.4,6.7l-19.5,55.9l62.4,168.6c1.6,4.4,7.8,4.4,9.4,0L519,145.5
	C521.4,138.9,516.6,132,509.6,132z"/>
<path class="st2" d="M426.5,390.6l-92.2-252c-1.4-3.9-5.2-6.6-9.4-6.6H203.6c-4.3,0-8.1,2.7-9.5,6.7l-16.9,48.9l60,174.7
	c1.5,4.4,7.8,4.5,9.4,0.1l12.8-34.2c1.6-4.3,7.7-4.3,9.4,0l26.1,69.3c1.5,3.9,5.2,6.5,9.4,6.5h112.8
	C424.1,404,428.9,397.1,426.5,390.6z"/>
</svg>
