<svg version="1.1" xmlns="http://www.w3.org/2000/svg" x="0" y="0" viewBox="0 0 512 480" xml:space="preserve"><style type="text/css">
	.st0{fill:#CAD0D7;}
	.st1{fill:#E1E6E9;}
	.st2{fill:#99A5AD;}
	.st3{fill:#3087C5;}
	.st4{fill:#5A5B67;}
</style><path class="st0" d="M496 0H16C7.2 0 0 7.2 0 16v448c0 8.8 7.2 16 16 16h480c8.8 0 16-7.2 16-16V16C512 7.2 504.8 0 496 0zM496 456c0 4.4-3.6 8-8 8H24c-4.4 0-8-3.6-8-8V72c0-4.4 3.6-8 8-8h464c4.4 0 8 3.6 8 8V456z"/><path class="st1" d="M490 40H118c-3.3 0-6-2.7-6-6v-4c0-3.3 2.7-6 6-6h372c3.3 0 6 2.7 6 6v4C496 37.3 493.3 40 490 40z"/><path class="st2" d="M24 40L24 40c-4.4 0-8-3.6-8-8v0c0-4.4 3.6-8 8-8h0c4.4 0 8 3.6 8 8v0C32 36.4 28.4 40 24 40zM64 32L64 32c0-4.4-3.6-8-8-8h0c-4.4 0-8 3.6-8 8v0c0 4.4 3.6 8 8 8h0C60.4 40 64 36.4 64 32zM96 32L96 32c0-4.4-3.6-8-8-8h0c-4.4 0-8 3.6-8 8v0c0 4.4 3.6 8 8 8h0C92.4 40 96 36.4 96 32z"/><path class="st3" d="M415 240H95c-13.3 0-24 10.7-24 24v0c0 13.3 10.7 24 24 24h320c13.3 0 24-10.7 24-24v0C439 250.7 428.3 240 415 240zM432 264c0 8.8-7.2 16-16 16H199v-32h217C424.8 248 432 255.2 432 264L432 264z"/><path class="st0" d="M376 392H79c-4.4 0-8-3.6-8-8l0 0c0-4.4 3.6-8 8-8h297c4.4 0 8 3.6 8 8l0 0C384 388.4 380.4 392 376 392zM216 416L216 416c0-4.4-3.6-8-8-8H79c-4.4 0-8 3.6-8 8l0 0c0 4.4 3.6 8 8 8h129C212.4 424 216 420.4 216 416zM272 416L272 416c0-4.4-3.6-8-8-8h-24c-4.4 0-8 3.6-8 8l0 0c0 4.4 3.6 8 8 8h24C268.4 424 272 420.4 272 416z"/><path class="st4" d="M360 128H152c-4.4 0-8-3.6-8-8v0c0-4.4 3.6-8 8-8h208c4.4 0 8 3.6 8 8v0C368 124.4 364.4 128 360 128zM328 152L328 152c0-4.4-3.6-8-8-8H192c-4.4 0-8 3.6-8 8v0c0 4.4 3.6 8 8 8h128C324.4 160 328 156.4 328 152z"/></svg>