<svg version="1.1" xmlns="http://www.w3.org/2000/svg" x="0px" y="0px" viewBox="0 0 512 480" xml:space="preserve"><style type="text/css">
	.st0{fill:#CAD0D7;}
	.st1{fill:#E1E6E9;}
	.st2{fill:#99A5AD;}
	.st3{fill:#B6DAF0;}
	.st4{fill:#5A5B67;}
	.st5{fill:#BCBEC0;}
	.st6{fill:#36373F;}
	.st7{fill:#FCB33B;}
	.st8{fill:#D1D3D4;}
</style><path class="st0" d="M496 0H16C7.2 0 0 7.2 0 16v448c0 8.8 7.2 16 16 16h480c8.8 0 16-7.2 16-16V16C512 7.2 504.8 0 496 0zM496 456c0 4.4-3.6 8-8 8H24c-4.4 0-8-3.6-8-8V72c0-4.4 3.6-8 8-8h464c4.4 0 8 3.6 8 8V456z"/><path class="st1" d="M490 40H118c-3.3 0-6-2.7-6-6v-4c0-3.3 2.7-6 6-6h372c3.3 0 6 2.7 6 6v4C496 37.3 493.3 40 490 40z"/><path class="st2" d="M24 40L24 40c-4.4 0-8-3.6-8-8v0c0-4.4 3.6-8 8-8h0c4.4 0 8 3.6 8 8v0C32 36.4 28.4 40 24 40zM64 32L64 32c0-4.4-3.6-8-8-8h0c-4.4 0-8 3.6-8 8v0c0 4.4 3.6 8 8 8h0C60.4 40 64 36.4 64 32zM96 32L96 32c0-4.4-3.6-8-8-8h0c-4.4 0-8 3.6-8 8v0c0 4.4 3.6 8 8 8h0C92.4 40 96 36.4 96 32z"/><path class="st3" d="M98.5 175.3L56 216.7V128c0-4.4 3.6-8 8-8h112c4.4 0 8 3.6 8 8v48.4l-18.4-18c-3.1-3.1-8.2-3.1-11.3 0l-31.7 31 -12.7-14C106.7 172.2 101.6 172.2 98.5 175.3z"/><path class="st4" d="M184 176.4V224c0 4.1-3.1 7.5-7.1 7.9L64 232c-4.4 0-8-3.6-8-8v-7.3l42.5-41.4c3.1-3.1 8.2-3.1 11.3 0l12.4 13.7h0.7l31.3-30.7c3.1-3.1 8.2-3.1 11.3 0L184 176.4z"/><path class="st5" d="M103.1 180.9c1.6 1.6 1.6 4.1 0 5.7l-11.3 11.3c-1.6 1.6-4.1 1.6-5.7 0 -1.6-1.6-1.6-4.1 0-5.7l11.3-11.3C99 179.3 101.6 179.3 103.1 180.9zM147.5 169.9l-11.3 11.3c-1.6 1.6-1.6 4.1 0 5.7 1.6 1.6 4.1 1.6 5.7 0l11.3-11.3c1.6-1.6 1.6-4.1 0-5.7C151.6 168.3 149 168.3 147.5 169.9z"/><path class="st6" d="M176.9 231.9c-0.3 0-0.6 0.1-0.9 0.1h-14.8H160l-36.5-41.6 -0.5-0.5 0.1-0.1c4.5-0.9 11.1-1.5 15 1.2C142.6 193.9 175.8 230.7 176.9 231.9z"/><path class="st7" d="M96 152L96 152c-4.4 0-8-3.6-8-8v0c0-4.4 3.6-8 8-8h0c4.4 0 8 3.6 8 8v0C104 148.4 100.4 152 96 152z"/><path class="st3" d="M370.5 343.3L328 384.7V296c0-4.4 3.6-8 8-8h112c4.4 0 8 3.6 8 8v48.4l-18.4-18c-3.1-3.1-8.2-3.1-11.3 0l-31.7 31 -12.7-14C378.7 340.2 373.6 340.2 370.5 343.3z"/><path class="st4" d="M456 344.4V392c0 4.1-3.1 7.4-7 7.9v0.1H336c-4.4 0-8-3.6-8-8v-7.3l42.5-41.4c3.1-3.1 8.2-3.1 11.3 0l12.4 13.7h0.7l31.3-30.7c3.1-3.1 8.2-3.1 11.3 0L456 344.4z"/><path class="st8" d="M375.1 348.9c1.6 1.6 1.6 4.1 0 5.7l-11.3 11.3c-1.6 1.6-4.1 1.6-5.7 0 -1.6-1.6-1.6-4.1 0-5.7l11.3-11.3C371 347.3 373.6 347.3 375.1 348.9zM419.5 337.9l-11.3 11.3c-1.6 1.6-1.6 4.1 0 5.7 1.6 1.6 4.1 1.6 5.7 0l11.3-11.3c1.6-1.6 1.6-4.1 0-5.7C423.6 336.3 421 336.3 419.5 337.9z"/><path class="st6" d="M448.9 399.9c-0.3 0-0.6 0.1-0.9 0.1h-14.8H432l-36.5-41.6 -0.5-0.5 0.1-0.1c4.5-0.9 11.1-1.5 15 1.2C414.6 361.9 447.8 398.7 448.9 399.9z"/><path class="st7" d="M368 320L368 320c-4.4 0-8-3.6-8-8l0 0c0-4.4 3.6-8 8-8l0 0c4.4 0 8 3.6 8 8l0 0C376 316.4 372.4 320 368 320z"/><path class="st4" d="M264 136h-40c-4.4 0-8-3.6-8-8v0c0-4.4 3.6-8 8-8h40c4.4 0 8 3.6 8 8v0C272 132.4 268.4 136 264 136z"/><path class="st0" d="M448 168H224c-4.4 0-8-3.6-8-8v0c0-4.4 3.6-8 8-8h224c4.4 0 8 3.6 8 8v0C456 164.4 452.4 168 448 168zM224 200h136c4.4 0 8-3.6 8-8v0c0-4.4-3.6-8-8-8H224c-4.4 0-8 3.6-8 8v0C216 196.4 219.6 200 224 200zM408 224L408 224c0-4.4-3.6-8-8-8H224c-4.4 0-8 3.6-8 8v0c0 4.4 3.6 8 8 8h176C404.4 232 408 228.4 408 224z"/><path class="st4" d="M104 304H64c-4.4 0-8-3.6-8-8l0 0c0-4.4 3.6-8 8-8h40c4.4 0 8 3.6 8 8l0 0C112 300.4 108.4 304 104 304z"/><path class="st0" d="M288 336H64c-4.4 0-8-3.6-8-8l0 0c0-4.4 3.6-8 8-8h224c4.4 0 8 3.6 8 8l0 0C296 332.4 292.4 336 288 336zM64 368h136c4.4 0 8-3.6 8-8l0 0c0-4.4-3.6-8-8-8H64c-4.4 0-8 3.6-8 8l0 0C56 364.4 59.6 368 64 368zM248 392L248 392c0-4.4-3.6-8-8-8H64c-4.4 0-8 3.6-8 8l0 0c0 4.4 3.6 8 8 8h176C244.4 400 248 396.4 248 392z"/></svg>