<svg version="1.1" xmlns="http://www.w3.org/2000/svg" x="0" y="0" viewBox="0 0 512 480" xml:space="preserve"><style type="text/css">
	.st0{fill:#CAD0D7;}
	.st1{fill:#E1E6E9;}
	.st2{fill:#99A5AD;}
	.st3{fill:#5A5B67;}
</style><path class="st0" d="M496 0H16C7.2 0 0 7.2 0 16v448c0 8.8 7.2 16 16 16h480c8.8 0 16-7.2 16-16V16C512 7.2 504.8 0 496 0zM496 456c0 4.4-3.6 8-8 8H24c-4.4 0-8-3.6-8-8V72c0-4.4 3.6-8 8-8h464c4.4 0 8 3.6 8 8V456z"/><path class="st1" d="M490 40H118c-3.3 0-6-2.7-6-6v-4c0-3.3 2.7-6 6-6h372c3.3 0 6 2.7 6 6v4C496 37.3 493.3 40 490 40z"/><path class="st2" d="M24 40L24 40c-4.4 0-8-3.6-8-8v0c0-4.4 3.6-8 8-8h0c4.4 0 8 3.6 8 8v0C32 36.4 28.4 40 24 40zM64 32L64 32c0-4.4-3.6-8-8-8h0c-4.4 0-8 3.6-8 8v0c0 4.4 3.6 8 8 8h0C60.4 40 64 36.4 64 32zM96 32L96 32c0-4.4-3.6-8-8-8h0c-4.4 0-8 3.6-8 8v0c0 4.4 3.6 8 8 8h0C92.4 40 96 36.4 96 32z"/><path class="st0" d="M432 152H80c-4.4 0-8-3.6-8-8v0c0-4.4 3.6-8 8-8h352c4.4 0 8 3.6 8 8v0C440 148.4 436.4 152 432 152zM352 176L352 176c0-4.4-3.6-8-8-8H80c-4.4 0-8 3.6-8 8v0c0 4.4 3.6 8 8 8h264C348.4 184 352 180.4 352 176zM392 208L392 208c0-4.4-3.6-8-8-8H80c-4.4 0-8 3.6-8 8v0c0 4.4 3.6 8 8 8h304C388.4 216 392 212.4 392 208z"/><path class="st0" d="M432 288H80c-4.4 0-8-3.6-8-8l0 0c0-4.4 3.6-8 8-8h352c4.4 0 8 3.6 8 8l0 0C440 284.4 436.4 288 432 288zM352 312L352 312c0-4.4-3.6-8-8-8H80c-4.4 0-8 3.6-8 8l0 0c0 4.4 3.6 8 8 8h264C348.4 320 352 316.4 352 312z"/><path class="st3" d="M152 120H80c-4.4 0-8-3.6-8-8v0c0-4.4 3.6-8 8-8h72c4.4 0 8 3.6 8 8v0C160 116.4 156.4 120 152 120zM160 248L160 248c0-4.4-3.6-8-8-8H80c-4.4 0-8 3.6-8 8v0c0 4.4 3.6 8 8 8h72C156.4 256 160 252.4 160 248zM160 352L160 352c0-4.4-3.6-8-8-8H80c-4.4 0-8 3.6-8 8l0 0c0 4.4 3.6 8 8 8h72C156.4 360 160 356.4 160 352z"/><path class="st0" d="M432 392H80c-4.4 0-8-3.6-8-8l0 0c0-4.4 3.6-8 8-8h352c4.4 0 8 3.6 8 8l0 0C440 388.4 436.4 392 432 392zM352 416L352 416c0-4.4-3.6-8-8-8H80c-4.4 0-8 3.6-8 8l0 0c0 4.4 3.6 8 8 8h264C348.4 424 352 420.4 352 416z"/></svg>