<svg xmlns="http://www.w3.org/2000/svg" viewBox="0 0 128 128">
  <path fill="#6E8493" d="M124 10H4c-2.2 0-4 1.8-4 4v6h128v-6c0-2.2-1.8-4-4-4zM7 17c-1.1 0-2-.9-2-2s.9-2 2-2 2 .9 2 2-.9 2-2 2zm6 0c-1.1 0-2-.9-2-2s.9-2 2-2 2 .9 2 2-.9 2-2 2zm6 0c-1.1 0-2-.9-2-2s.9-2 2-2 2 .9 2 2-.9 2-2 2z"/>
  <path fill="#33A0D7" d="M0 30h128V20H0v10zm107-7h14c1.1 0 2 .9 2 2s-.9 2-2 2h-14c-1.1 0-2-.9-2-2s.9-2 2-2z"/>
  <path fill="#64B3E1" d="M99 27H8c-1.1 0-2-.9-2-2s.9-2 2-2h91c1.1 0 2 .9 2 2s-.9 2-2 2z"/>
  <path fill="#D6D9DD" d="M124 118H4c-2.2 0-4-1.8-4-4V30.1h128V114c0 2.2-1.8 4-4 4z"/>
  <g>
    <path fill="#FFF" d="M56 36H14c-2.2 0-4 1.8-4 4v34c0 2.2 1.8 4 4 4h42c2.2 0 4-1.8 4-4V40c0-2.2-1.8-4-4-4zM114 36H72c-2.2 0-4 1.8-4 4v34c0 2.2 1.8 4 4 4h42c2.2 0 4-1.8 4-4V40c0-2.2-1.8-4-4-4z"/>
    <g fill="#C1C4C7">
      <path d="M12 86h46c1.1 0 2 .9 2 2s-.9 2-2 2H12c-1.1 0-2-.9-2-2s.9-2 2-2zM12 96h46c1.1 0 2 .9 2 2s-.9 2-2 2H12c-1.1 0-2-.9-2-2s.9-2 2-2zM12 106h46c1.1 0 2 .9 2 2s-.9 2-2 2H12c-1.1 0-2-.9-2-2s.9-2 2-2z"/>
    </g>
    <g fill="#C1C4C7">
      <path d="M70 86h46c1.1 0 2 .9 2 2s-.9 2-2 2H70c-1.1 0-2-.9-2-2s.9-2 2-2zM70 96h46c1.1 0 2 .9 2 2s-.9 2-2 2H70c-1.1 0-2-.9-2-2s.9-2 2-2zM70 106h46c1.1 0 2 .9 2 2s-.9 2-2 2H70c-1.1 0-2-.9-2-2s.9-2 2-2z"/>
    </g>
  </g>
</svg>