<?xml version="1.0" encoding="utf-8"?>
<!-- Generator: Adobe Illustrator 19.0.0, SVG Export Plug-In . SVG Version: 6.00 Build 0)  -->
<svg version="1.1" xmlns="http://www.w3.org/2000/svg" xmlns:xlink="http://www.w3.org/1999/xlink" x="0px" y="0px"
	 viewBox="0 0 128 128" enable-background="new 0 0 128 128" xml:space="preserve">
<g id="Layer_1">
</g>
<g id="Layer_2">
	<g id="XMLID_15_">
		<path id="XMLID_20_" fill="#6E8493" d="M124,10H4c-2.2,0-4,1.8-4,4v6h128v-6C128,11.8,126.2,10,124,10z M7,17c-1.1,0-2-0.9-2-2
			c0-1.1,0.9-2,2-2s2,0.9,2,2C9,16.1,8.1,17,7,17z M13,17c-1.1,0-2-0.9-2-2c0-1.1,0.9-2,2-2s2,0.9,2,2C15,16.1,14.1,17,13,17z
			 M19,17c-1.1,0-2-0.9-2-2c0-1.1,0.9-2,2-2s2,0.9,2,2C21,16.1,20.1,17,19,17z"/>
		<g id="XMLID_14_">
			<path id="XMLID_25_" fill="#33A0D7" d="M0,30h128V20H0V30z M107,23h14c1.1,0,2,0.9,2,2c0,1.1-0.9,2-2,2h-14c-1.1,0-2-0.9-2-2
				C105,23.9,105.9,23,107,23z"/>
			<path id="XMLID_4_" fill="#64B3E1" d="M99,27H8c-1.1,0-2-0.9-2-2v0c0-1.1,0.9-2,2-2h91c1.1,0,2,0.9,2,2v0
				C101,26.1,100.1,27,99,27z"/>
		</g>
	</g>
	<path id="XMLID_5_" fill="#D6D9DD" d="M124,118H4c-2.2,0-4-1.8-4-4V30h128v84C128,116.2,126.2,118,124,118z"/>
	<g id="XMLID_1_" display="none">
		<path id="XMLID_7_" display="inline" fill="#C1C4C7" d="M115,43H53c-1.1,0-2-0.9-2-2v0c0-1.1,0.9-2,2-2h62c1.1,0,2,0.9,2,2v0
			C117,42.1,116.1,43,115,43z"/>
		<path id="XMLID_8_" display="inline" fill="#C1C4C7" d="M115,53H53c-1.1,0-2-0.9-2-2v0c0-1.1,0.9-2,2-2h62c1.1,0,2,0.9,2,2v0
			C117,52.1,116.1,53,115,53z"/>
		<path id="XMLID_9_" display="inline" fill="#C1C4C7" d="M115,63H53c-1.1,0-2-0.9-2-2v0c0-1.1,0.9-2,2-2h62c1.1,0,2,0.9,2,2v0
			C117,62.1,116.1,63,115,63z"/>
	</g>
	<g id="XMLID_2_" display="none">
		<path id="XMLID_10_" display="inline" fill="#C1C4C7" d="M115,85H12c-1.1,0-2-0.9-2-2v0c0-1.1,0.9-2,2-2h103c1.1,0,2,0.9,2,2v0
			C117,84.1,116.1,85,115,85z"/>
		<path id="XMLID_11_" display="inline" fill="#C1C4C7" d="M115,95H12c-1.1,0-2-0.9-2-2v0c0-1.1,0.9-2,2-2h103c1.1,0,2,0.9,2,2v0
			C117,94.1,116.1,95,115,95z"/>
		<path id="XMLID_12_" display="inline" fill="#C1C4C7" d="M115,105H12c-1.1,0-2-0.9-2-2v0c0-1.1,0.9-2,2-2h103c1.1,0,2,0.9,2,2v0
			C117,104.1,116.1,105,115,105z"/>
	</g>
	<g id="XMLID_30_" display="none">
		<path id="XMLID_17_" display="inline" fill="#FFFFFF" d="M114,67H14c-2.2,0-4,1.8-4,4v35c0,2.2,1.8,4,4,4h100c2.2,0,4-1.8,4-4V71
			C118,68.8,116.2,67,114,67z"/>
		<g id="XMLID_29_" display="inline">
			<path id="XMLID_26_" fill="#C1C4C7" d="M12,45h104c1.1,0,2,0.9,2,2v0c0,1.1-0.9,2-2,2H12c-1.1,0-2-0.9-2-2v0
				C10,45.9,10.9,45,12,45z"/>
			<path id="XMLID_27_" fill="#C1C4C7" d="M12,54h104c1.1,0,2,0.9,2,2v0c0,1.1-0.9,2-2,2H12c-1.1,0-2-0.9-2-2v0
				C10,54.9,10.9,54,12,54z"/>
			<path id="XMLID_28_" fill="#C1C4C7" d="M12,36h104c1.1,0,2,0.9,2,2v0c0,1.1-0.9,2-2,2H12c-1.1,0-2-0.9-2-2v0
				C10,36.9,10.9,36,12,36z"/>
		</g>
	</g>
	<path id="XMLID_31_" fill="#FFFFFF" d="M56,37H14c-2.2,0-4,1.8-4,4v34c0,2.2,1.8,4,4,4h42c2.2,0,4-1.8,4-4V41
		C60,38.8,58.2,37,56,37z"/>
	<path id="XMLID_32_" display="none" fill="#FFFFFF" d="M114,51H72c-2.2,0-4,1.8-4,4v34c0,2.2,1.8,4,4,4h42c2.2,0,4-1.8,4-4V55
		C118,52.8,116.2,51,114,51z"/>
	<path id="XMLID_33_" fill="#C1C4C7" d="M12,86h46c1.1,0,2,0.9,2,2l0,0c0,1.1-0.9,2-2,2H12c-1.1,0-2-0.9-2-2l0,0
		C10,86.9,10.9,86,12,86z"/>
	<path id="XMLID_34_" fill="#C1C4C7" d="M12,96h46c1.1,0,2,0.9,2,2l0,0c0,1.1-0.9,2-2,2H12c-1.1,0-2-0.9-2-2l0,0
		C10,96.9,10.9,96,12,96z"/>
	<path id="XMLID_35_" display="none" fill="#C1C4C7" d="M12,106h46c1.1,0,2,0.9,2,2l0,0c0,1.1-0.9,2-2,2H12c-1.1,0-2-0.9-2-2l0,0
		C10,106.9,10.9,106,12,106z"/>
	<g id="XMLID_37_" display="none">
		<path id="XMLID_40_" display="inline" fill="#C1C4C7" d="M12,86h46c1.1,0,2,0.9,2,2l0,0c0,1.1-0.9,2-2,2H12c-1.1,0-2-0.9-2-2l0,0
			C10,86.9,10.9,86,12,86z"/>
		<path id="XMLID_39_" display="inline" fill="#C1C4C7" d="M12,96h46c1.1,0,2,0.9,2,2l0,0c0,1.1-0.9,2-2,2H12c-1.1,0-2-0.9-2-2l0,0
			C10,96.9,10.9,96,12,96z"/>
		<path id="XMLID_38_" display="inline" fill="#C1C4C7" d="M12,106h46c1.1,0,2,0.9,2,2l0,0c0,1.1-0.9,2-2,2H12c-1.1,0-2-0.9-2-2l0,0
			C10,106.9,10.9,106,12,106z"/>
	</g>
	<path id="XMLID_45_" display="none" fill="#FFFFFF" d="M37,110H14c-2.2,0-4-1.8-4-4V84c0-2.2,1.8-4,4-4h23c2.2,0,4,1.8,4,4v22
		C41,108.2,39.2,110,37,110z"/>
	<g id="XMLID_16_" display="none">
		<path id="XMLID_44_" display="inline" fill="#C1C4C7" d="M115,88H53c-1.1,0-2-0.9-2-2l0,0c0-1.1,0.9-2,2-2h62c1.1,0,2,0.9,2,2l0,0
			C117,87.1,116.1,88,115,88z"/>
		<path id="XMLID_43_" display="inline" fill="#C1C4C7" d="M115,98H53c-1.1,0-2-0.9-2-2l0,0c0-1.1,0.9-2,2-2h62c1.1,0,2,0.9,2,2l0,0
			C117,97.1,116.1,98,115,98z"/>
		<path id="XMLID_42_" display="inline" fill="#C1C4C7" d="M115,108H53c-1.1,0-2-0.9-2-2l0,0c0-1.1,0.9-2,2-2h62c1.1,0,2,0.9,2,2
			l0,0C117,107.1,116.1,108,115,108z"/>
	</g>
	<path id="XMLID_13_" fill="#FFFFFF" d="M114,48H72c-2.2,0-4,1.8-4,4v34c0,2.2,1.8,4,4,4h42c2.2,0,4-1.8,4-4V52
		C118,49.8,116.2,48,114,48z"/>
	<path id="XMLID_6_" fill="#C1C4C7" d="M70,97h46c1.1,0,2,0.9,2,2l0,0c0,1.1-0.9,2-2,2H70c-1.1,0-2-0.9-2-2l0,0
		C68,97.9,68.9,97,70,97z"/>
	<path id="XMLID_3_" fill="#C1C4C7" d="M70,107h46c1.1,0,2,0.9,2,2l0,0c0,1.1-0.9,2-2,2H70c-1.1,0-2-0.9-2-2l0,0
		C68,107.9,68.9,107,70,107z"/>
</g>
</svg>
