<svg xmlns="http://www.w3.org/2000/svg" viewBox="0 0 128 128">
  <path fill="#6E8493" d="M124 10H4c-2.2 0-4 1.8-4 4v6h128v-6c0-2.2-1.8-4-4-4zM7 17c-1.1 0-2-.9-2-2s.9-2 2-2 2 .9 2 2-.9 2-2 2zm6 0c-1.1 0-2-.9-2-2s.9-2 2-2 2 .9 2 2-.9 2-2 2zm6 0c-1.1 0-2-.9-2-2s.9-2 2-2 2 .9 2 2-.9 2-2 2z"/>
  <path fill="#33A0D7" d="M0 30h128V20H0v10zm107-7h14c1.1 0 2 .9 2 2s-.9 2-2 2h-14c-1.1 0-2-.9-2-2s.9-2 2-2z"/>
  <path fill="#64B3E1" d="M99 27H8c-1.1 0-2-.9-2-2s.9-2 2-2h91c1.1 0 2 .9 2 2s-.9 2-2 2z"/>
  <path fill="#D6D9DD" d="M124 118H4c-2.2 0-4-1.8-4-4V30h128v84c0 2.2-1.8 4-4 4z"/>
  <path fill="#FFF" d="M56 51H14c-2.2 0-4 1.8-4 4v34c0 2.2 1.8 4 4 4h42c2.2 0 4-1.8 4-4V55c0-2.2-1.8-4-4-4zM114 51H72c-2.2 0-4 1.8-4 4v34c0 2.2 1.8 4 4 4h42c2.2 0 4-1.8 4-4V55c0-2.2-1.8-4-4-4z"/>
</svg>