<svg xmlns="http://www.w3.org/2000/svg" viewBox="0 0 1000 718">
  <path fill="#fff" d="M594 718h-25c-3.3-.5-6.5-1-9.8-1.4-37.5-5.2-71.3-19.8-102.3-41.1-28.1-19.3-53.3-42.1-78.7-64.7-25.7-22.8-51.2-46-80.8-63.6-29.3-17.4-59.2-34-89.2-50.1C145.5 463.4 93.9 418 56.7 356.9 28 310 9.6 259.4 2.9 204.7 1.8 196.1 1 187.6 0 179v-36c1.3-9.2 2.4-18.4 4-27.6C13.7 57.8 50.2 19.1 107 6c39.8-9.2 79.5-7 118.6 3.7 32.9 9 65.2 19.8 97.8 29.8 28.5 8.8 57.2 16.6 87.1 19.3 38.5 3.5 76.6.5 114.2-7.7 38.8-8.4 77.3-18.3 115.9-27.9 34.3-8.5 68.5-16.8 103.7-20.7 8.2-.9 16.5-1.8 24.7-2.7h38c2 .3 3.9.8 5.9.9 28.6 2 56.3 7.8 82.7 19.3 48.8 21.2 83 56.1 98.9 107.6 2.6 8.5 3.7 17.5 5.5 26.2v22c-.3 1.1-.7 2.2-.8 3.3-2.7 23.8-12.3 44.7-26.5 63.7-16.5 22-37 39.7-59.7 54.8-24.4 16.3-49.4 31.4-74 47.4-20.6 13.4-40 28.2-56.7 46.4-24.5 26.5-38 58.5-45.1 93.2-6.1 29.8-10.5 60-16.2 89.9-5.3 28.1-13.3 55.3-27.9 80.2-16.6 28.3-39.8 48.5-71.7 57.6-9 2.7-18.3 3.9-27.4 5.7z" opacity="0.1"/>
</svg>