<svg xmlns="http://www.w3.org/2000/svg" viewBox="-11 -29 1000 826">
  <path d="M365.6-26.4c32.8 2.2 65.6 4.2 98.3 6.5 32.1 2.3 64.2 4.8 96.3 7.3 33.1 2.5 66.2 5.1 99.3 7.6 26.3 2 52.7 3.9 79 6.3 36 3.2 71.3 9.3 104.2 25.5 39.4 19.3 69.9 48.6 93.8 85.1 25.5 38.9 39.9 81.9 45.5 127.9 6.1 49.9 1.9 99.2-8.7 148.1-9.3 42.7-22.4 84-40.9 123.6-26 55.5-60.7 104.3-110.8 140.8-33.4 24.4-70.3 41-111.2 47.7-27.3 4.5-54.6 2.4-81.8-1-23.4-3-46.8-6.1-70.4-7.4-31.1-1.7-60.8 5.8-88.6 19.2-27.9 13.4-55.1 28.3-82.4 42.9-29.1 15.4-58.6 29.5-91.3 35.6-37.3 7-74.2 5.4-110.8-4.7-44.7-12.3-83-35.2-114.2-69.6-29-32-48.5-69.3-61.2-110.3-15.2-48.7-19-98.6-14.9-149.3C0 390.3 17.3 328 38.2 266.5c16.2-47.5 34-94.3 58.7-138.2 19.5-34.6 42.6-66.4 72.7-92.7C205 4.7 246.3-13.3 292.5-20.6c24.2-3.8 48.6-5.3 73.1-5.8z"/>
</svg>