<svg xmlns="http://www.w3.org/2000/svg" viewBox="123 -39 1246 1078">
  <path fill="#f6f6f6" d="M63.5-91.1L-7.6 106S-113 367.4 143.9 511.9c0 0 197.1 103.4 369.2-61.8 0 0 23-23 41.2-52.9 18.2-29.9 16.1-27.5 27.5-52.9s126-364.7 126-364.7 9.3-23 16.1-71.1H63.5v.4z" opacity=".6"/>
  <path fill="#f6f6f6" d="M-111-91.1v669.7c0 2.7 15.8 11 17.9 12.4 16.1 10 33.3 18.5 51.2 25.4 57 22 119.5 27.1 178.9 13.7 53.6-12 105.1-36.4 147.3-71.4 45-37.4 71.4-87.2 91.7-141.2 24-63.5 46.7-127.4 68.3-191.6 20.3-59.4 42.9-118.5 58.7-179.6 5.5-22.3 10-45 11.3-68 .3-6.5 1.7-69.4-8.2-69.4H-111zM1590.3 542.4l-135.7-148.1s-296.2-286.4-623.2 21.3c0 0-214.5 212.2-64.7 505.2 0 0 38.6 72.6 126.9 159.9l156 168.1H1590V542.4h.3z" opacity=".8"/>
  <path fill="#f6f6f6" d="M1369 566.5l-136.7-149.1s-266.5-255.7-578.4-21.3c0 0-130.8 92.9-156 271.7-25.2 178.9 49.7 305.7 115.4 371.1H1369V566.5z" opacity=".5"/>
</svg>