<svg version="1.1" xmlns="http://www.w3.org/2000/svg" x="0" y="0" viewBox="0 0 512 480" xml:space="preserve"><style type="text/css">
	.st0{fill:#CAD0D7;}
	.st1{fill:#E1E6E9;}
	.st2{fill:#99A5AD;}
	.st3{fill:#5A5B67;}
	.st4{fill:#B6DAF0;}
	.st5{fill:#FCB33B;}
	.st6{fill:#FFFFFF;}
</style><path class="st0" d="M496 0H16C7.2 0 0 7.2 0 16v448c0 8.8 7.2 16 16 16h480c8.8 0 16-7.2 16-16V16C512 7.2 504.8 0 496 0zM496 456c0 4.4-3.6 8-8 8H24c-4.4 0-8-3.6-8-8V72c0-4.4 3.6-8 8-8h464c4.4 0 8 3.6 8 8V456z"/><path class="st1" d="M490 40H118c-3.3 0-6-2.7-6-6v-4c0-3.3 2.7-6 6-6h372c3.3 0 6 2.7 6 6v4C496 37.3 493.3 40 490 40z"/><path class="st2" d="M24 40L24 40c-4.4 0-8-3.6-8-8v0c0-4.4 3.6-8 8-8h0c4.4 0 8 3.6 8 8v0C32 36.4 28.4 40 24 40zM64 32L64 32c0-4.4-3.6-8-8-8h0c-4.4 0-8 3.6-8 8v0c0 4.4 3.6 8 8 8h0C60.4 40 64 36.4 64 32zM96 32L96 32c0-4.4-3.6-8-8-8h0c-4.4 0-8 3.6-8 8v0c0 4.4 3.6 8 8 8h0C92.4 40 96 36.4 96 32z"/><path class="st1" d="M384 392H128c-4.4 0-8-3.6-8-8v-24h272v24C392 388.4 388.4 392 384 392z"/><path class="st2" d="M256 384L256 384c-4.4 0-8-3.6-8-8l0 0c0-4.4 3.6-8 8-8h0c4.4 0 8 3.6 8 8l0 0C264 380.4 260.4 384 256 384z"/><path class="st0" d="M302.6 417.8L288 405v-13h-64v13h0l-14.6 12.8c-0.9 0.8-1.4 1.9-1.4 3v5.2c0 3.3 2.7 6 6 6h84c3.3 0 6-2.7 6-6v-5.2C304 419.7 303.5 418.6 302.6 417.8z"/><path class="st3" d="M392 360H120V200c0-8.8 7.2-16 16-16h240c8.8 0 16 7.2 16 16V360z"/><path class="st4" d="M376 352H136c-4.4 0-8-3.6-8-8V200c0-4.4 3.6-8 8-8h240c4.4 0 8 3.6 8 8v144C384 348.4 380.4 352 376 352z"/><path class="st5" d="M180 248L180 248c-11 0-20-9-20-20v0c0-11 9-20 20-20h0c11 0 20 9 20 20v0C200 239 191 248 180 248z"/><path class="st0" d="M339 305c7.3 10.3 17.3 14.5 21 31 1.3 5.6 2.6 11 3.3 16H376c4.4 0 8-3.6 8-8v-13.8l-33.6-33.3C345.9 296 338.9 295.9 339 305z"/><path class="st6" d="M339 305c-0.1-9.1 6.9-9 11.4-8.1l-44.7-44.2c-1.7-1.7-4.1-2.7-6.5-2.7h-0.4c-2.4 0-4.8 1-6.5 2.7l-60.2 59.6 0.6 0.7c4.1-1.8 10.9-3.2 20.2 0 9.7 9.6 27.9 30.3 35.5 39h74.8c-0.7-5-2-10.4-3.3-16C356.3 319.5 346.3 315.3 339 305z"/><path class="st0" d="M253 313c-9.3-3.2-16.1-1.8-20.2 0l34.7 39h21C280.9 343.3 262.7 322.6 253 313z"/><path class="st6" d="M232.8 313l-0.6-0.7 -33.5-37.6c-1.7-1.7-4.1-2.7-6.5-2.7h-0.4c-2.4 0-4.8 1-6.5 2.7L128 331.4V344c0 4.4 3.6 8 8 8h56.1 75.4L232.8 313z"/><path class="st0" d="M360 120H152c-4.4 0-8-3.6-8-8v0c0-4.4 3.6-8 8-8h208c4.4 0 8 3.6 8 8v0C368 116.4 364.4 120 360 120z"/><path class="st0" d="M320 152H192c-4.4 0-8-3.6-8-8v0c0-4.4 3.6-8 8-8h128c4.4 0 8 3.6 8 8v0C328 148.4 324.4 152 320 152z"/><path class="st1" d="M294 425h-76c-1.1 0-2-0.9-2-2l0 0c0-1.1 0.9-2 2-2h76c1.1 0 2 0.9 2 2l0 0C296 424.1 295.1 425 294 425z"/></svg>