<svg version="1.1" xmlns="http://www.w3.org/2000/svg" x="0" y="0" viewBox="0 0 512 480" xml:space="preserve"><style type="text/css">
	.st0{fill:#CAD0D7;}
	.st1{fill:#E1E6E9;}
	.st2{fill:#99A5AD;}
	.st3{fill:#C0652E;}
	.st4{fill:#FFFFFF;}
	.st5{fill:#5A5B67;}
	.st6{fill:#53BA5E;}
	.st7{fill:#297D3E;}
</style><path class="st0" d="M496 0H16C7.2 0 0 7.2 0 16v448c0 8.8 7.2 16 16 16h480c8.8 0 16-7.2 16-16V16C512 7.2 504.8 0 496 0zM496 456c0 4.4-3.6 8-8 8H24c-4.4 0-8-3.6-8-8V72c0-4.4 3.6-8 8-8h464c4.4 0 8 3.6 8 8V456z"/><path class="st1" d="M490 40H118c-3.3 0-6-2.7-6-6v-4c0-3.3 2.7-6 6-6h372c3.3 0 6 2.7 6 6v4C496 37.3 493.3 40 490 40z"/><path class="st2" d="M24 40L24 40c-4.4 0-8-3.6-8-8v0c0-4.4 3.6-8 8-8h0c4.4 0 8 3.6 8 8v0C32 36.4 28.4 40 24 40zM64 32L64 32c0-4.4-3.6-8-8-8h0c-4.4 0-8 3.6-8 8v0c0 4.4 3.6 8 8 8h0C60.4 40 64 36.4 64 32zM96 32L96 32c0-4.4-3.6-8-8-8h0c-4.4 0-8 3.6-8 8v0c0 4.4 3.6 8 8 8h0C92.4 40 96 36.4 96 32z"/><path class="st3" d="M232 272H56c-4.4 0-8-3.6-8-8V120c0-4.4 3.6-8 8-8h176c4.4 0 8 3.6 8 8v144C240 268.4 236.4 272 232 272z"/><path class="st4" d="M192 160L192 160c0 4.4-3.6 8-8 8h-8v32c0 4.4-3.6 8-8 8h-48c-4.4 0-8-3.6-8-8v-24c0-4.4 3.6-8 8-8h40v-8c0-4.4 3.6-8 8-8h16C188.4 152 192 155.6 192 160zM137 224L137 224c0-4.4-3.6-8-8-8h-1c-4.4 0-8 3.6-8 8v0c0 4.4 3.6 8 8 8h1C133.4 232 137 228.4 137 224zM168 224L168 224c0-4.4-3.6-8-8-8h-1c-4.4 0-8 3.6-8 8v0c0 4.4 3.6 8 8 8h1C164.4 232 168 228.4 168 224z"/><path class="st3" d="M88 336H56c-4.4 0-8-3.6-8-8v-32c0-4.4 3.6-8 8-8h32c4.4 0 8 3.6 8 8v32C96 332.4 92.4 336 88 336zM168 328v-32c0-4.4-3.6-8-8-8h-32c-4.4 0-8 3.6-8 8v32c0 4.4 3.6 8 8 8h32C164.4 336 168 332.4 168 328zM240 328v-32c0-4.4-3.6-8-8-8h-32c-4.4 0-8 3.6-8 8v32c0 4.4 3.6 8 8 8h32C236.4 336 240 332.4 240 328z"/><path class="st4" d="M72 320h-1c-4.4 0-8-3.6-8-8l0 0c0-4.4 3.6-8 8-8h1c4.4 0 8 3.6 8 8l0 0C80 316.4 76.4 320 72 320zM152 312L152 312c0-4.4-3.6-8-8-8h-1c-4.4 0-8 3.6-8 8l0 0c0 4.4 3.6 8 8 8h1C148.4 320 152 316.4 152 312zM224 312L224 312c0-4.4-3.6-8-8-8h-1c-4.4 0-8 3.6-8 8l0 0c0 4.4 3.6 8 8 8h1C220.4 320 224 316.4 224 312z"/><path class="st5" d="M408 128H288c-4.4 0-8-3.6-8-8v0c0-4.4 3.6-8 8-8h120c4.4 0 8 3.6 8 8v0C416 124.4 412.4 128 408 128z"/><path class="st0" d="M408 176H288c-4.4 0-8-3.6-8-8v0c0-4.4 3.6-8 8-8h120c4.4 0 8 3.6 8 8v0C416 172.4 412.4 176 408 176zM416 232L416 232c0-4.4-3.6-8-8-8H288c-4.4 0-8 3.6-8 8v0c0 4.4 3.6 8 8 8h120C412.4 240 416 236.4 416 232zM472 200L472 200c0-4.4-3.6-8-8-8H288c-4.4 0-8 3.6-8 8v0c0 4.4 3.6 8 8 8h176C468.4 208 472 204.4 472 200zM448 264L448 264c0-4.4-3.6-8-8-8H288c-4.4 0-8 3.6-8 8l0 0c0 4.4 3.6 8 8 8h152C444.4 272 448 268.4 448 264zM440 296L440 296c0-4.4-3.6-8-8-8H288c-4.4 0-8 3.6-8 8l0 0c0 4.4 3.6 8 8 8h144C436.4 304 440 300.4 440 296zM376 328L376 328c0-4.4-3.6-8-8-8h-80c-4.4 0-8 3.6-8 8l0 0c0 4.4 3.6 8 8 8h80C372.4 336 376 332.4 376 328z"/><path class="st6" d="M416 424H304c-13.3 0-24-10.7-24-24v0c0-13.3 10.7-24 24-24h112c13.3 0 24 10.7 24 24v0C440 413.3 429.3 424 416 424z"/><path class="st7" d="M328 408L328 408c-4.4 0-8-3.6-8-8l0 0c0-4.4 3.6-8 8-8l0 0c4.4 0 8 3.6 8 8l0 0C336 404.4 332.4 408 328 408zM368 400L368 400c0-4.4-3.6-8-8-8l0 0c-4.4 0-8 3.6-8 8l0 0c0 4.4 3.6 8 8 8l0 0C364.4 408 368 404.4 368 400zM400 400L400 400c0-4.4-3.6-8-8-8l0 0c-4.4 0-8 3.6-8 8l0 0c0 4.4 3.6 8 8 8l0 0C396.4 408 400 404.4 400 400z"/></svg>